<?xml version="1.0" standalone="no"?>
 <!DOCTYPE svg PUBLIC "-//W3C//DTD SVG 1.1//EN" 
 "http://www.w3.org/Graphics/SVG/1.1/DTD/svg11.dtd"> 
<svg xmlns="http://www.w3.org/2000/svg" version="1.1" 
    width="29.7002cm" height="21.0007cm" viewBox="0 0 116930 82680 ">
<title>SVG Picture created as RCT-X-Logger-F_Fab.svg date 2019/09/13 06:37:28 </title>
  <desc>Picture generated by PCBNEW </desc>
<g style="fill:#000000; fill-opacity:1;stroke:#000000; stroke-opacity:1;
stroke-linecap:round; stroke-linejoin:round; "
 transform="translate(0 0) scale(1 1)">
</g>
<g style="fill:#000000; fill-opacity:0.0; 
stroke:#000000; stroke-width:-0.000393701; stroke-opacity:1; 
stroke-linecap:round; stroke-linejoin:round;">
</g>
<g style="fill:#000000; fill-opacity:0.0; 
stroke:#000000; stroke-width:59.0551; stroke-opacity:1; 
stroke-linecap:round; stroke-linejoin:round;">
<path d="M29416 24559
L29416 24334
" />
<path d="M29416 24446
L29810 24446
L29753 24409
L29716 24371
L29697 24334
" />
<path d="M29810 24803
L29810 24840
L29791 24878
L29772 24896
L29735 24915
L29660 24934
L29566 24934
L29491 24915
L29453 24896
L29435 24878
L29416 24840
L29416 24803
L29435 24765
L29453 24746
L29491 24728
L29566 24709
L29660 24709
L29735 24728
L29772 24746
L29791 24765
L29810 24803
" />
<path d="M29453 25103
L29435 25121
L29416 25103
L29435 25084
L29453 25103
L29416 25103
" />
<path d="M29810 25365
L29810 25403
L29791 25440
L29772 25459
L29735 25478
L29660 25496
L29566 25496
L29491 25478
L29453 25459
L29435 25440
L29416 25403
L29416 25365
L29435 25328
L29453 25309
L29491 25290
L29566 25271
L29660 25271
L29735 25290
L29772 25309
L29791 25328
L29810 25365
" />
<path d="M29416 25965
L29678 25965
" />
<path d="M29641 25965
L29660 25984
L29678 26021
L29678 26077
L29660 26115
L29622 26134
L29416 26134
" />
<path d="M29622 26134
L29660 26152
L29678 26190
L29678 26246
L29660 26284
L29622 26302
L29416 26302
" />
<path d="M29416 26490
L29678 26490
" />
<path d="M29641 26490
L29660 26509
L29678 26546
L29678 26602
L29660 26640
L29622 26659
L29416 26659
" />
<path d="M29622 26659
L29660 26677
L29678 26715
L29678 26771
L29660 26809
L29622 26827
L29416 26827
" />
</g>
<g style="fill:#000000; fill-opacity:0.0; 
stroke:#000000; stroke-width:47.2441; stroke-opacity:1; 
stroke-linecap:round; stroke-linejoin:round;">
<path d="M29094 23622
L29094 27559
" />
<path d="M27559 23622
L29325 23622
" />
<path d="M27559 27559
L29325 27559
" />
<path d="M29094 27559
L28863 27115
" />
<path d="M29094 27559
L29325 27115
" />
<path d="M29094 23622
L28863 24065
" />
<path d="M29094 23622
L29325 24065
" />
</g>
<g style="fill:#000000; fill-opacity:0.0; 
stroke:#000000; stroke-width:59.0551; stroke-opacity:1; 
stroke-linecap:round; stroke-linejoin:round;">
<path d="M14021 25448
L14284 25448
" />
<path d="M13871 25541
L14153 25635
L14153 25391
" />
<path d="M14246 25241
L14265 25223
L14284 25241
L14265 25260
L14246 25241
L14284 25241
" />
<path d="M14059 24998
L14040 25035
L14021 25054
L13984 25073
L13965 25073
L13928 25054
L13909 25035
L13890 24998
L13890 24923
L13909 24885
L13928 24866
L13965 24848
L13984 24848
L14021 24866
L14040 24885
L14059 24923
L14059 24998
L14078 25035
L14096 25054
L14134 25073
L14209 25073
L14246 25054
L14265 25035
L14284 24998
L14284 24923
L14265 24885
L14246 24866
L14209 24848
L14134 24848
L14096 24866
L14078 24885
L14059 24923
" />
<path d="M14284 24379
L14021 24379
" />
<path d="M14059 24379
L14040 24360
L14021 24323
L14021 24266
L14040 24229
L14078 24210
L14284 24210
" />
<path d="M14078 24210
L14040 24191
L14021 24154
L14021 24098
L14040 24060
L14078 24041
L14284 24041
" />
<path d="M14284 23854
L14021 23854
" />
<path d="M14059 23854
L14040 23835
L14021 23798
L14021 23742
L14040 23704
L14078 23685
L14284 23685
" />
<path d="M14078 23685
L14040 23667
L14021 23629
L14021 23573
L14040 23535
L14078 23517
L14284 23517
" />
</g>
<g style="fill:#000000; fill-opacity:0.0; 
stroke:#000000; stroke-width:47.2441; stroke-opacity:1; 
stroke-linecap:round; stroke-linejoin:round;">
<path d="M14606 25511
L14606 23622
" />
<path d="M19173 25511
L14375 25511
" />
<path d="M19173 23622
L14375 23622
" />
<path d="M14606 23622
L14837 24065
" />
<path d="M14606 23622
L14375 24065
" />
<path d="M14606 25511
L14837 25068
" />
<path d="M14606 25511
L14375 25068
" />
</g>
<g style="fill:#000000; fill-opacity:0.0; 
stroke:#000000; stroke-width:59.0551; stroke-opacity:1; 
stroke-linecap:round; stroke-linejoin:round;">
<path d="M20378 53237
L20622 53237
L20491 53387
L20547 53387
L20584 53405
L20603 53424
L20622 53462
L20622 53555
L20603 53593
L20584 53612
L20547 53630
L20434 53630
L20397 53612
L20378 53593
" />
<path d="M20866 53237
L20903 53237
L20941 53255
L20959 53274
L20978 53312
L20997 53387
L20997 53480
L20978 53555
L20959 53593
L20941 53612
L20903 53630
L20866 53630
L20828 53612
L20809 53593
L20791 53555
L20772 53480
L20772 53387
L20791 53312
L20809 53274
L20828 53255
L20866 53237
" />
<path d="M21166 53593
L21184 53612
L21166 53630
L21147 53612
L21166 53593
L21166 53630
" />
<path d="M21428 53237
L21466 53237
L21503 53255
L21522 53274
L21541 53312
L21559 53387
L21559 53480
L21541 53555
L21522 53593
L21503 53612
L21466 53630
L21428 53630
L21391 53612
L21372 53593
L21353 53555
L21334 53480
L21334 53387
L21353 53312
L21372 53274
L21391 53255
L21428 53237
" />
<path d="M22028 53630
L22028 53368
" />
<path d="M22028 53405
L22047 53387
L22084 53368
L22140 53368
L22178 53387
L22197 53424
L22197 53630
" />
<path d="M22197 53424
L22215 53387
L22253 53368
L22309 53368
L22347 53387
L22365 53424
L22365 53630
" />
<path d="M22553 53630
L22553 53368
" />
<path d="M22553 53405
L22572 53387
L22609 53368
L22665 53368
L22703 53387
L22722 53424
L22722 53630
" />
<path d="M22722 53424
L22740 53387
L22778 53368
L22834 53368
L22872 53387
L22890 53424
L22890 53630
" />
</g>
<g style="fill:#000000; fill-opacity:0.0; 
stroke:#000000; stroke-width:47.2441; stroke-opacity:1; 
stroke-linecap:round; stroke-linejoin:round;">
<path d="M15748 52952
L27559 52952
" />
<path d="M15748 51181
L15748 53183
" />
<path d="M27559 51181
L27559 53183
" />
<path d="M27559 52952
L27115 53183
" />
<path d="M27559 52952
L27115 52721
" />
<path d="M15748 52952
L16191 53183
" />
<path d="M15748 52952
L16191 52721
" />
</g>
<g style="fill:#000000; fill-opacity:0.0; 
stroke:#000000; stroke-width:59.0551; stroke-opacity:1; 
stroke-linecap:round; stroke-linejoin:round;">
<path d="M20397 51896
L20416 51877
L20453 51859
L20547 51859
L20584 51877
L20603 51896
L20622 51934
L20622 51971
L20603 52027
L20378 52252
L20622 52252
" />
<path d="M20866 51859
L20903 51859
L20941 51877
L20959 51896
L20978 51934
L20997 52009
L20997 52102
L20978 52177
L20959 52215
L20941 52234
L20903 52252
L20866 52252
L20828 52234
L20809 52215
L20791 52177
L20772 52102
L20772 52009
L20791 51934
L20809 51896
L20828 51877
L20866 51859
" />
<path d="M21166 52215
L21184 52234
L21166 52252
L21147 52234
L21166 52215
L21166 52252
" />
<path d="M21428 51859
L21466 51859
L21503 51877
L21522 51896
L21541 51934
L21559 52009
L21559 52102
L21541 52177
L21522 52215
L21503 52234
L21466 52252
L21428 52252
L21391 52234
L21372 52215
L21353 52177
L21334 52102
L21334 52009
L21353 51934
L21372 51896
L21391 51877
L21428 51859
" />
<path d="M22028 52252
L22028 51990
" />
<path d="M22028 52027
L22047 52009
L22084 51990
L22140 51990
L22178 52009
L22197 52046
L22197 52252
" />
<path d="M22197 52046
L22215 52009
L22253 51990
L22309 51990
L22347 52009
L22365 52046
L22365 52252
" />
<path d="M22553 52252
L22553 51990
" />
<path d="M22553 52027
L22572 52009
L22609 51990
L22665 51990
L22703 52009
L22722 52046
L22722 52252
" />
<path d="M22722 52046
L22740 52009
L22778 51990
L22834 51990
L22872 52009
L22890 52046
L22890 52252
" />
</g>
<g style="fill:#000000; fill-opacity:0.0; 
stroke:#000000; stroke-width:47.2441; stroke-opacity:1; 
stroke-linecap:round; stroke-linejoin:round;">
<path d="M17716 51574
L25590 51574
" />
<path d="M17716 49212
L17716 51805
" />
<path d="M25590 49212
L25590 51805
" />
<path d="M25590 51574
L25147 51805
" />
<path d="M25590 51574
L25147 51343
" />
<path d="M17716 51574
L18160 51805
" />
<path d="M17716 51574
L18160 51343
" />
</g>
<g style="fill:#000000; fill-opacity:0.0; 
stroke:#000000; stroke-width:59.0551; stroke-opacity:1; 
stroke-linecap:round; stroke-linejoin:round;">
<path d="M29416 48181
L29416 47956
" />
<path d="M29416 48068
L29810 48068
L29753 48031
L29716 47994
L29697 47956
" />
<path d="M29810 48425
L29810 48462
L29791 48500
L29772 48518
L29735 48537
L29660 48556
L29566 48556
L29491 48537
L29453 48518
L29435 48500
L29416 48462
L29416 48425
L29435 48387
L29453 48368
L29491 48350
L29566 48331
L29660 48331
L29735 48350
L29772 48368
L29791 48387
L29810 48425
" />
<path d="M29453 48725
L29435 48743
L29416 48725
L29435 48706
L29453 48725
L29416 48725
" />
<path d="M29810 48987
L29810 49025
L29791 49062
L29772 49081
L29735 49100
L29660 49118
L29566 49118
L29491 49100
L29453 49081
L29435 49062
L29416 49025
L29416 48987
L29435 48950
L29453 48931
L29491 48912
L29566 48893
L29660 48893
L29735 48912
L29772 48931
L29791 48950
L29810 48987
" />
<path d="M29416 49587
L29678 49587
" />
<path d="M29641 49587
L29660 49606
L29678 49643
L29678 49700
L29660 49737
L29622 49756
L29416 49756
" />
<path d="M29622 49756
L29660 49775
L29678 49812
L29678 49868
L29660 49906
L29622 49925
L29416 49925
" />
<path d="M29416 50112
L29678 50112
" />
<path d="M29641 50112
L29660 50131
L29678 50168
L29678 50224
L29660 50262
L29622 50281
L29416 50281
" />
<path d="M29622 50281
L29660 50299
L29678 50337
L29678 50393
L29660 50431
L29622 50449
L29416 50449
" />
</g>
<g style="fill:#000000; fill-opacity:0.0; 
stroke:#000000; stroke-width:47.2441; stroke-opacity:1; 
stroke-linecap:round; stroke-linejoin:round;">
<path d="M29094 47244
L29094 51181
" />
<path d="M27559 47244
L29325 47244
" />
<path d="M27559 51181
L29325 51181
" />
<path d="M29094 51181
L28863 50737
" />
<path d="M29094 51181
L29325 50737
" />
<path d="M29094 47244
L28863 47687
" />
<path d="M29094 47244
L29325 47687
" />
</g>
<g style="fill:#000000; fill-opacity:0.0; 
stroke:#000000; stroke-width:59.0551; stroke-opacity:1; 
stroke-linecap:round; stroke-linejoin:round;">
<path d="M28467 21931
L28281 22117
" />
<path d="M28506 21759
L28241 21892
L28413 22064
" />
<path d="M28533 22157
L28745 22369
" />
<path d="M28931 22767
L28970 22541
" />
<path d="M28771 22608
L29050 22329
L29156 22435
L29169 22475
L29169 22501
L29156 22541
L29116 22581
L29076 22594
L29050 22594
L29010 22581
L28904 22475
" />
<path d="M29302 22581
L29474 22753
L29275 22767
L29315 22806
L29328 22846
L29328 22873
L29315 22912
L29249 22979
L29209 22992
L29182 22992
L29143 22979
L29063 22899
L29050 22859
L29050 22833
" />
</g>
<g style="fill:#000000; fill-opacity:0.0; 
stroke:#000000; stroke-width:47.2441; stroke-opacity:1; 
stroke-linecap:round; stroke-linejoin:round;">
<path d="M27933 22224
L28956 23248
" />
<path d="M25078 25078
L28096 22061
" />
<path d="M26102 26102
L29119 23084
" />
<path d="M28956 23248
L28479 23097
" />
<path d="M28956 23248
L28806 22771
" />
<path d="M27933 22224
L28083 22701
" />
<path d="M27933 22224
L28409 22374
" />
</g>
<g style="fill:#000000; fill-opacity:0.0; 
stroke:#000000; stroke-width:19.685; stroke-opacity:1; 
stroke-linecap:round; stroke-linejoin:round;">
<path d="M27559 34488
L27559 49212
" />
<path d="M27165 34488
L27559 34488
" />
<path d="M27165 31181
L27165 34488
" />
<path d="M27559 31181
L27165 31181
" />
<path d="M27559 25590
L27559 31181
" />
</g>
<g style="fill:#000000; fill-opacity:0.0; 
stroke:#000000; stroke-width:59.0551; stroke-opacity:1; 
stroke-linecap:round; stroke-linejoin:round;">
<path d="M25712 51871
L25524 51871
L25506 52058
L25524 52039
L25562 52020
L25656 52020
L25693 52039
L25712 52058
L25731 52095
L25731 52189
L25712 52227
L25693 52245
L25656 52264
L25562 52264
L25524 52245
L25506 52227
" />
<path d="M25899 52227
L25918 52245
L25899 52264
L25881 52245
L25899 52227
L25899 52264
" />
<path d="M26162 51871
L26199 51871
L26237 51889
L26256 51908
L26274 51946
L26293 52020
L26293 52114
L26274 52189
L26256 52227
L26237 52245
L26199 52264
L26162 52264
L26124 52245
L26106 52227
L26087 52189
L26068 52114
L26068 52020
L26087 51946
L26106 51908
L26124 51889
L26162 51871
" />
<path d="M26762 52264
L26762 52002
" />
<path d="M26762 52039
L26781 52020
L26818 52002
L26874 52002
L26912 52020
L26931 52058
L26931 52264
" />
<path d="M26931 52058
L26949 52020
L26987 52002
L27043 52002
L27080 52020
L27099 52058
L27099 52264
" />
<path d="M27287 52264
L27287 52002
" />
<path d="M27287 52039
L27305 52020
L27343 52002
L27399 52002
L27437 52020
L27455 52058
L27455 52264
" />
<path d="M27455 52058
L27474 52020
L27512 52002
L27568 52002
L27605 52020
L27624 52058
L27624 52264
" />
<path d="M25590 51574
L27559 51574
" />
<path d="M25590 51181
L25590 51805
" />
<path d="M27559 51181
L27559 51805
" />
<path d="M27559 51574
L27115 51805
" />
<path d="M27559 51574
L27115 51343
" />
<path d="M25590 51574
L26034 51805
" />
<path d="M25590 51574
L26034 51343
" />
<path d="M28680 49334
L28680 49146
L28492 49128
L28511 49146
L28530 49184
L28530 49278
L28511 49315
L28492 49334
L28455 49353
L28361 49353
L28323 49334
L28305 49315
L28286 49278
L28286 49184
L28305 49146
L28323 49128
" />
<path d="M28323 49521
L28305 49540
L28286 49521
L28305 49503
L28323 49521
L28286 49521
" />
<path d="M28680 49784
L28680 49821
L28661 49859
L28642 49878
L28605 49896
L28530 49915
L28436 49915
L28361 49896
L28323 49878
L28305 49859
L28286 49821
L28286 49784
L28305 49746
L28323 49728
L28361 49709
L28436 49690
L28530 49690
L28605 49709
L28642 49728
L28661 49746
L28680 49784
" />
<path d="M28286 50384
L28548 50384
" />
<path d="M28511 50384
L28530 50403
L28548 50440
L28548 50496
L28530 50534
L28492 50553
L28286 50553
" />
<path d="M28492 50553
L28530 50571
L28548 50609
L28548 50665
L28530 50703
L28492 50721
L28286 50721
" />
<path d="M28286 50909
L28548 50909
" />
<path d="M28511 50909
L28530 50928
L28548 50965
L28548 51021
L28530 51059
L28492 51077
L28286 51077
" />
<path d="M28492 51077
L28530 51096
L28548 51134
L28548 51190
L28530 51227
L28492 51246
L28286 51246
" />
<path d="M27952 49212
L27952 51181
" />
<path d="M27559 49212
L28183 49212
" />
<path d="M27559 51181
L28183 51181
" />
<path d="M27952 51181
L27721 50737
" />
<path d="M27952 51181
L28183 50737
" />
<path d="M27952 49212
L27721 49656
" />
<path d="M27952 49212
L28183 49656
" />
<path d="M12422 38676
L12422 38413
L12815 38582
" />
<path d="M12422 38188
L12422 38151
L12440 38113
L12459 38095
L12497 38076
L12572 38057
L12665 38057
L12740 38076
L12778 38095
L12797 38113
L12815 38151
L12815 38188
L12797 38226
L12778 38245
L12740 38263
L12665 38282
L12572 38282
L12497 38263
L12459 38245
L12440 38226
L12422 38188
" />
<path d="M12778 37889
L12797 37870
L12815 37889
L12797 37907
L12778 37889
L12815 37889
" />
<path d="M12422 37626
L12422 37589
L12440 37551
L12459 37532
L12497 37514
L12572 37495
L12665 37495
L12740 37514
L12778 37532
L12797 37551
L12815 37589
L12815 37626
L12797 37664
L12778 37682
L12740 37701
L12665 37720
L12572 37720
L12497 37701
L12459 37682
L12440 37664
L12422 37626
" />
<path d="M12815 37026
L12553 37026
" />
<path d="M12590 37026
L12572 37007
L12553 36970
L12553 36914
L12572 36876
L12609 36857
L12815 36857
" />
<path d="M12609 36857
L12572 36839
L12553 36801
L12553 36745
L12572 36707
L12609 36689
L12815 36689
" />
<path d="M12815 36501
L12553 36501
" />
<path d="M12590 36501
L12572 36482
L12553 36445
L12553 36389
L12572 36351
L12609 36332
L12815 36332
" />
<path d="M12609 36332
L12572 36314
L12553 36276
L12553 36220
L12572 36182
L12609 36164
L12815 36164
" />
<path d="M13149 51181
L13149 23622
" />
<path d="M15748 51181
L12918 51181
" />
<path d="M15748 23622
L12918 23622
" />
<path d="M13149 23622
L13380 24065
" />
<path d="M13149 23622
L12918 24065
" />
<path d="M13149 51181
L13380 50737
" />
<path d="M13149 51181
L12918 50737
" />
<circle cx="25590.6" cy="25590.6" r="1181.1" /> 
<circle cx="17716.5" cy="25590.6" r="1181.1" /> 
</g>
<g style="fill:#000000; fill-opacity:0.0; 
stroke:#000000; stroke-width:19.685; stroke-opacity:1; 
stroke-linecap:round; stroke-linejoin:round;">
<path d="M15748 49212.6 A1968.5 1968.5 0.0 0 0 17716.5 51181.1 " />
<path d="M25590.6 51181.1 A1968.5 1968.5 0.0 0 0 27559.1 49212.6 " />
<path d="M27559.1 25590.6 A1968.5 1968.5 0.0 0 0 25590.6 23622 " />
<path d="M17716.5 23622 A1968.5 1968.5 0.0 0 0 15748 25590.6 " />
<path d="M25590 23622
L17716 23622
" />
<path d="M17716 51181
L25590 51181
" />
<path d="M15748 25590
L15748 49212
" />
</g>
<g style="fill:#000000; fill-opacity:0.0; 
stroke:#000000; stroke-width:39.3701; stroke-opacity:1; 
stroke-linecap:round; stroke-linejoin:round;">
<path d="M16712 30255
L17342 30255
" />
<path d="M16712 30570
L16712 30255
" />
<path d="M17342 30570
L16712 30570
" />
<path d="M17342 30255
L17342 30570
" />
<circle cx="17409.4" cy="44543.3" r="1338.58" /> 
<path d="M17803 46866
L17606 46866
" />
<path d="M17212 46866
L17015 46866
" />
<path d="M18208 28070
L18208 28700
" />
<path d="M17893 28070
L18208 28070
" />
<path d="M17893 28700
L17893 28070
" />
<path d="M18208 28700
L17893 28700
" />
<path d="M24895 28557
L24895 29187
" />
<path d="M24580 28557
L24895 28557
" />
<path d="M24580 29187
L24580 28557
" />
<path d="M24895 29187
L24580 29187
" />
<path d="M21555 31397
L21161 31397
" />
<path d="M21555 31200
L21555 31397
" />
<path d="M21161 31200
L21555 31200
" />
<path d="M21161 31397
L21161 31200
" />
<path d="M27244 28543
L27244 29173
" />
<path d="M26929 28543
L27244 28543
" />
<path d="M26929 29173
L26929 28543
" />
<path d="M27244 29173
L26929 29173
" />
<path d="M19913 42807
L20543 42807
" />
<path d="M19913 43122
L19913 42807
" />
<path d="M20543 43122
L19913 43122
" />
<path d="M20543 42807
L20543 43122
" />
<path d="M26574 36496
L26574 36811
" />
<path d="M27204 36496
L26574 36496
" />
<path d="M27204 36692
L27204 36496
" />
<path d="M27086 36811
L27204 36692
" />
<path d="M26574 36811
L27086 36811
" />
<path d="M26574 37165
L26574 37480
" />
<path d="M27204 37165
L26574 37165
" />
<path d="M27204 37362
L27204 37165
" />
<path d="M27086 37480
L27204 37362
" />
<path d="M26574 37480
L27086 37480
" />
</g>
<g style="fill:#000000; fill-opacity:0.0; 
stroke:#000000; stroke-width:31.4961; stroke-opacity:1; 
stroke-linecap:round; stroke-linejoin:round;">
<path d="M18952 46464
L18952 46385
" />
<path d="M18952 46307
L18952 46228
" />
<path d="M19031 46307
L18874 46307
" />
<path d="M18874 46385
L19031 46385
" />
<path d="M18952 46307
L18874 46385
" />
<path d="M19031 46385
L18952 46307
" />
</g>
<g style="fill:#000000; fill-opacity:0.0; 
stroke:#000000; stroke-width:23.622; stroke-opacity:1; 
stroke-linecap:round; stroke-linejoin:round;">
<path d="M19070 46543
L19070 46149
" />
<path d="M18834 46543
L19070 46543
" />
<path d="M18834 46149
L18834 46543
" />
<path d="M19070 46149
L18834 46149
" />
</g>
<g style="fill:#000000; fill-opacity:1.0; 
stroke:#000000; stroke-width:39.3701; stroke-opacity:1; 
stroke-linecap:round; stroke-linejoin:round;">
<path style="fill:#000000; fill-opacity:1.0; 
stroke:#000000; stroke-width:39.3701; stroke-opacity:1; 
stroke-linecap:round; stroke-linejoin:round;fill-rule:evenodd;"
d="M 25196,34311
26653,34311
26653,31358
25196,31358
Z" /> 
</g>
<g style="fill:#000000; fill-opacity:1.0; 
stroke:#000000; stroke-width:59.0551; stroke-opacity:1; 
stroke-linecap:round; stroke-linejoin:round;">
</g>
<g style="fill:#000000; fill-opacity:0.0; 
stroke:#000000; stroke-width:59.0551; stroke-opacity:1; 
stroke-linecap:round; stroke-linejoin:round;">
<path d="M25196 34311
L27165 34311
" />
<path d="M27165 34311
L27401 34429
" />
<path d="M27401 34429
L27401 31240
" />
<path d="M27401 31240
L27165 31358
" />
<path d="M27165 31358
L25196 31358
" />
<path d="M25196 31358
L25196 32834
" />
<path d="M25196 34311
L25196 32834
" />
</g>
<g style="fill:#000000; fill-opacity:0.0; 
stroke:#000000; stroke-width:39.3701; stroke-opacity:1; 
stroke-linecap:round; stroke-linejoin:round;">
<path d="M21555 30905
L21161 30905
" />
<path d="M21555 30708
L21555 30905
" />
<path d="M21161 30708
L21555 30708
" />
<path d="M21161 30905
L21161 30708
" />
<path d="M21161 31692
L21555 31692
" />
<path d="M21161 31889
L21161 31692
" />
<path d="M21555 31889
L21161 31889
" />
<path d="M21555 31692
L21555 31889
" />
<path d="M24015 32578
L24409 32578
" />
<path d="M24015 32775
L24015 32578
" />
<path d="M24409 32775
L24015 32775
" />
<path d="M24409 32578
L24409 32775
" />
<path d="M24015 33169
L24409 33169
" />
<path d="M24015 33366
L24015 33169
" />
<path d="M24409 33366
L24015 33366
" />
<path d="M24409 33169
L24409 33366
" />
<path d="M25708 36555
L26102 36555
" />
<path d="M25708 36751
L25708 36555
" />
<path d="M26102 36751
L25708 36751
" />
<path d="M26102 36555
L26102 36751
" />
<path d="M25708 37224
L26102 37224
" />
<path d="M25708 37421
L25708 37224
" />
<path d="M26102 37421
L25708 37421
" />
<path d="M26102 37224
L26102 37421
" />
<path d="M24114 42716
L24114 43110
" />
<path d="M23917 42716
L24114 42716
" />
<path d="M23917 43110
L23917 42716
" />
<path d="M24114 43110
L23917 43110
" />
<path d="M23523 42716
L23523 43110
" />
<path d="M23326 42716
L23523 42716
" />
<path d="M23326 43110
L23326 42716
" />
<path d="M23523 43110
L23326 43110
" />
<path d="M18421 46106
L18421 46500
" />
<path d="M18224 46106
L18421 46106
" />
<path d="M18224 46500
L18224 46106
" />
<path d="M18421 46500
L18224 46500
" />
<path d="M17598 29578
L16456 29578
" />
<path d="M16456 29578
L16456 28885
" />
<path d="M17421 28885
L16456 28885
" />
<path d="M17598 29578
L17598 29062
" />
<path d="M17421 28885
L17598 29062
" />
</g>
<g style="fill:#000000; fill-opacity:0.0; 
stroke:#000000; stroke-width:59.0551; stroke-opacity:1; 
stroke-linecap:round; stroke-linejoin:round;">
<path d="M26509 29265
L26116 29659
" />
<path d="M26509 28478
L26509 29265
" />
<path d="M25328 28478
L26509 28478
" />
<path d="M25328 29659
L25328 28478
" />
<path d="M26116 29659
L25328 29659
" />
</g>
<g style="fill:#000000; fill-opacity:0.0; 
stroke:#000000; stroke-width:39.3701; stroke-opacity:1; 
stroke-linecap:round; stroke-linejoin:round;">
<path d="M18700 31003
L18996 30708
" />
<path d="M18700 31889
L18700 31003
" />
<path d="M19881 31889
L18700 31889
" />
<path d="M19881 30708
L19881 31889
" />
<path d="M18996 30708
L19881 30708
" />
</g>
<g style="fill:#000000; fill-opacity:1.0; 
stroke:#000000; stroke-width:39.3701; stroke-opacity:1; 
stroke-linecap:round; stroke-linejoin:round;">
<path style="fill:#000000; fill-opacity:1.0; 
stroke:#000000; stroke-width:39.3701; stroke-opacity:1; 
stroke-linecap:round; stroke-linejoin:round;fill-rule:evenodd;"
d="M 20275,47204
23031,47204
23031,49094
20275,49094
Z" /> 
</g>
<g style="fill:#000000; fill-opacity:1.0; 
stroke:#000000; stroke-width:59.0551; stroke-opacity:1; 
stroke-linecap:round; stroke-linejoin:round;">
</g>
<g style="fill:#000000; fill-opacity:0.0; 
stroke:#000000; stroke-width:59.0551; stroke-opacity:1; 
stroke-linecap:round; stroke-linejoin:round;">
<path d="M23543 43582
L23543 49094
" />
<path d="M23543 49094
L19763 49094
" />
<path d="M19763 49094
L19763 43582
" />
<path d="M19763 43582
L23543 43582
" />
</g>
<g style="fill:#000000; fill-opacity:0.0; 
stroke:#000000; stroke-width:39.3701; stroke-opacity:1; 
stroke-linecap:round; stroke-linejoin:round;">
<path d="M23129 28740
L22883 28346
" />
<path d="M23375 28346
L23129 28740
" />
<path d="M19685 28346
L21653 28346
" />
<path d="M19685 30118
L19685 28346
" />
<path d="M19212 30118
L19685 30118
" />
<path d="M19212 25590
L19212 30118
" />
<path d="M21653 25590
L19212 25590
" />
<path d="M23622 28346
L21653 28346
" />
<path d="M23622 30118
L23622 28346
" />
<path d="M24094 30118
L23622 30118
" />
<path d="M24094 25590
L24094 30118
" />
<path d="M21653 25590
L24094 25590
" />
<path d="M18208 31102
L18208 31496
" />
<path d="M18011 31102
L18208 31102
" />
<path d="M18011 31496
L18011 31102
" />
<path d="M18208 31496
L18011 31496
" />
<path d="M19488 32185
L19881 32185
" />
<path d="M19488 32381
L19488 32185
" />
<path d="M19881 32381
L19488 32381
" />
<path d="M19881 32185
L19881 32381
" />
<g >
</g>
<g >
</g>
<g >
</g>
<g >
</g>
<g >
</g>
<g >
</g>
<g >
</g>
<g >
</g>
<g >
</g>
<g >
</g>
<g >
</g>
<g >
</g>
<g >
</g>
<g >
</g>
<g >
</g>
<g >
</g>
<g >
</g>
<g >
</g>
<g >
</g>
<g >
</g>
<g >
</g>
<g >
</g>
<g >
</g>
<g >
</g>
<g >
</g>
<g >
</g>
<g >
</g>
<g >
</g>
<g >
</g>
<g >
</g>
<g >
</g>
<g >
</g>
<g >
</g>
<g >
</g>
<g >
</g>
<g >
</g>
<g >
</g>
<g >
</g>
<g >
</g>
<g >
</g>
<g >
</g>
<g >
</g>
<g >
</g>
<g >
</g>
<g >
</g>
<g >
</g>
<g >
</g>
<g >
</g>
<g >
</g>
<g >
</g>
<g >
</g>
<g >
</g>
<g >
</g>
<g >
</g>
<g >
</g>
<g >
</g>
<g >
</g>
<g >
</g>
<g >
</g>
<g >
</g>
<g >
</g>
<g >
</g>
<g >
</g>
<g >
</g>
<g >
</g>
<g >
</g>
<g >
</g>
<g >
</g>
</g>
<g style="fill:#000000; fill-opacity:0.0; 
stroke:#000000; stroke-width:39.3701; stroke-opacity:1; 
stroke-linecap:round; stroke-linejoin:round;">
</g>
<g style="fill:#000000; fill-opacity:0.0; 
stroke:#000000; stroke-width:59.0551; stroke-opacity:1; 
stroke-linecap:round; stroke-linejoin:round;">
<path d="M16605 30028
L16380 30028
" />
<path d="M16493 30028
L16493 29634
L16455 29691
L16418 29728
L16380 29747
" />
<path d="M16849 29634
L16886 29634
L16924 29653
L16943 29672
L16961 29709
L16980 29784
L16980 29878
L16961 29953
L16943 29991
L16924 30009
L16886 30028
L16849 30028
L16811 30009
L16793 29991
L16774 29953
L16755 29878
L16755 29784
L16774 29709
L16793 29672
L16811 29653
L16849 29634
" />
<path d="M17318 29766
L17318 30028
" />
<path d="M17149 29766
L17149 29972
L17168 30009
L17205 30028
L17261 30028
L17299 30009
L17318 29991
" />
<path d="M17636 29822
L17505 29822
" />
<path d="M17505 30028
L17505 29634
L17693 29634
" />
</g>
<g style="fill:#000000; fill-opacity:0.0; 
stroke:#000000; stroke-width:23.622; stroke-opacity:1; 
stroke-linecap:round; stroke-linejoin:round;">
<path d="M17001 30469
L16993 30477
L16971 30484
L16956 30484
L16933 30477
L16918 30462
L16911 30447
L16903 30417
L16903 30394
L16911 30364
L16918 30349
L16933 30334
L16956 30327
L16971 30327
L16993 30334
L17001 30342
" />
<path d="M17143 30327
L17068 30327
L17061 30402
L17068 30394
L17083 30387
L17121 30387
L17136 30394
L17143 30402
L17151 30417
L17151 30454
L17143 30469
L17136 30477
L17121 30484
L17083 30484
L17068 30477
L17061 30469
" />
</g>
<g style="fill:#000000; fill-opacity:0.0; 
stroke:#000000; stroke-width:59.0551; stroke-opacity:1; 
stroke-linecap:round; stroke-linejoin:round;">
<path d="M15609 46238
L15628 46181
L15647 46163
L15684 46144
L15740 46144
L15778 46163
L15797 46181
L15815 46219
L15815 46369
L15422 46369
L15422 46238
L15440 46200
L15459 46181
L15497 46163
L15534 46163
L15572 46181
L15590 46200
L15609 46238
L15609 46369
" />
<path d="M15815 45806
L15609 45806
L15572 45825
L15553 45863
L15553 45938
L15572 45975
" />
<path d="M15797 45806
L15815 45844
L15815 45938
L15797 45975
L15759 45994
L15722 45994
L15684 45975
L15665 45938
L15665 45844
L15647 45806
" />
<path d="M15553 45675
L15553 45525
" />
<path d="M15422 45619
L15759 45619
L15797 45600
L15815 45563
L15815 45525
" />
<path d="M15553 45450
L15553 45300
" />
<path d="M15422 45394
L15759 45394
L15797 45375
L15815 45338
L15815 45300
" />
<path d="M15797 45019
L15815 45056
L15815 45131
L15797 45169
L15759 45188
L15609 45188
L15572 45169
L15553 45131
L15553 45056
L15572 45019
L15609 45000
L15647 45000
L15684 45188
" />
<path d="M15815 44832
L15553 44832
" />
<path d="M15628 44832
L15590 44813
L15572 44794
L15553 44757
L15553 44719
" />
<path d="M15553 44625
L15815 44532
" />
<path d="M15553 44438
L15815 44532
L15909 44569
L15928 44588
L15947 44625
" />
<path d="M15853 44382
L15853 44082
" />
<path d="M15778 43763
L15797 43782
L15815 43838
L15815 43875
L15797 43932
L15759 43969
L15722 43988
L15647 44007
L15590 44007
L15515 43988
L15478 43969
L15440 43932
L15422 43875
L15422 43838
L15440 43782
L15459 43763
" />
<path d="M15797 43444
L15815 43482
L15815 43557
L15797 43594
L15759 43613
L15609 43613
L15572 43594
L15553 43557
L15553 43482
L15572 43444
L15609 43425
L15647 43425
L15684 43613
" />
<path d="M15815 43200
L15797 43238
L15759 43257
L15422 43257
" />
<path d="M15815 42994
L15797 43032
L15759 43050
L15422 43050
" />
<path d="M17388 46743
L17402 46701
L17416 46687
L17444 46673
L17486 46673
L17514 46687
L17528 46701
L17543 46729
L17543 46842
L17247 46842
L17247 46743
L17261 46715
L17275 46701
L17303 46687
L17332 46687
L17360 46701
L17374 46715
L17388 46743
L17388 46842
" />
<path d="M17247 46589
L17247 46420
" />
<path d="M17543 46504
L17247 46504
" />
<path d="M17543 46167
L17543 46336
" />
<path d="M17543 46251
L17247 46251
L17289 46279
L17318 46307
L17332 46336
" />
<path d="M17873 26625
L17873 26400
" />
<path d="M17873 26512
L18266 26512
L18210 26475
L18173 26437
L18154 26400
" />
<path d="M18266 26869
L18266 26906
L18248 26944
L18229 26962
L18191 26981
L18116 27000
L18023 27000
L17948 26981
L17910 26962
L17891 26944
L17873 26906
L17873 26869
L17891 26831
L17910 26812
L17948 26794
L18023 26775
L18116 26775
L18191 26794
L18229 26812
L18248 26831
L18266 26869
" />
<path d="M18135 27337
L17873 27337
" />
<path d="M18135 27169
L17929 27169
L17891 27187
L17873 27225
L17873 27281
L17891 27319
L17910 27337
" />
<path d="M18079 27656
L18079 27525
" />
<path d="M17873 27525
L18266 27525
L18266 27712
" />
</g>
<g style="fill:#000000; fill-opacity:0.0; 
stroke:#000000; stroke-width:23.622; stroke-opacity:1; 
stroke-linecap:round; stroke-linejoin:round;">
<path d="M17994 28359
L17987 28352
L17979 28329
L17979 28314
L17987 28292
L18002 28277
L18017 28269
L18047 28262
L18069 28262
L18099 28269
L18114 28277
L18129 28292
L18137 28314
L18137 28329
L18129 28352
L18122 28359
" />
<path d="M17979 28509
L17979 28419
" />
<path d="M17979 28464
L18137 28464
L18114 28449
L18099 28434
L18092 28419
" />
</g>
<g style="fill:#000000; fill-opacity:0.0; 
stroke:#000000; stroke-width:59.0551; stroke-opacity:1; 
stroke-linecap:round; stroke-linejoin:round;">
<path d="M24325 29294
L24325 29518
" />
<path d="M24325 29406
L23932 29406
L23988 29443
L24025 29481
L24044 29518
" />
<path d="M23932 29050
L23932 29012
L23950 28975
L23969 28956
L24007 28937
L24082 28919
L24175 28919
L24250 28937
L24288 28956
L24307 28975
L24325 29012
L24325 29050
L24307 29087
L24288 29106
L24250 29125
L24175 29144
L24082 29144
L24007 29125
L23969 29106
L23950 29087
L23932 29050
" />
<path d="M24063 28581
L24325 28581
" />
<path d="M24063 28750
L24269 28750
L24307 28731
L24325 28694
L24325 28637
L24307 28600
L24288 28581
" />
<path d="M24119 28262
L24119 28394
" />
<path d="M24325 28394
L23932 28394
L23932 28206
" />
</g>
<g style="fill:#000000; fill-opacity:0.0; 
stroke:#000000; stroke-width:23.622; stroke-opacity:1; 
stroke-linecap:round; stroke-linejoin:round;">
<path d="M24794 28898
L24802 28905
L24809 28928
L24809 28943
L24802 28965
L24787 28980
L24772 28988
L24742 28995
L24719 28995
L24689 28988
L24674 28980
L24659 28965
L24652 28943
L24652 28928
L24659 28905
L24667 28898
" />
<path d="M24667 28838
L24659 28830
L24652 28815
L24652 28778
L24659 28763
L24667 28755
L24682 28748
L24697 28748
L24719 28755
L24809 28845
L24809 28748
" />
</g>
<g style="fill:#000000; fill-opacity:0.0; 
stroke:#000000; stroke-width:59.0551; stroke-opacity:1; 
stroke-linecap:round; stroke-linejoin:round;">
<path d="M20805 31214
L20805 31477
" />
<path d="M20711 31064
L20617 31346
L20861 31346
" />
<path d="M21011 31439
L21030 31458
L21011 31477
L20992 31458
L21011 31439
L21011 31477
" />
<path d="M21161 31083
L21423 31083
L21255 31477
" />
<path d="M21573 31214
L21573 31477
" />
<path d="M21573 31252
L21592 31233
L21630 31214
L21686 31214
L21723 31233
L21742 31271
L21742 31477
" />
<path d="M22061 31271
L21930 31271
" />
<path d="M21930 31477
L21930 31083
L22117 31083
" />
</g>
<g style="fill:#000000; fill-opacity:0.0; 
stroke:#000000; stroke-width:15.748; stroke-opacity:1; 
stroke-linecap:round; stroke-linejoin:round;">
<path d="M21341 31334
L21337 31339
L21323 31343
L21313 31343
L21299 31339
L21290 31329
L21285 31320
L21280 31301
L21280 31287
L21285 31268
L21290 31259
L21299 31250
L21313 31245
L21323 31245
L21337 31250
L21341 31254
" />
<path d="M21374 31245
L21435 31245
L21402 31282
L21416 31282
L21426 31287
L21430 31292
L21435 31301
L21435 31324
L21430 31334
L21426 31339
L21416 31343
L21388 31343
L21379 31339
L21374 31334
" />
</g>
<g style="fill:#000000; fill-opacity:0.0; 
stroke:#000000; stroke-width:59.0551; stroke-opacity:1; 
stroke-linecap:round; stroke-linejoin:round;">
<path d="M27827 29280
L27827 29505
" />
<path d="M27827 29392
L27434 29392
L27490 29430
L27527 29467
L27546 29505
" />
<path d="M27434 29036
L27434 28998
L27452 28961
L27471 28942
L27508 28923
L27583 28905
L27677 28905
L27752 28923
L27790 28942
L27808 28961
L27827 28998
L27827 29036
L27808 29073
L27790 29092
L27752 29111
L27677 29130
L27583 29130
L27508 29111
L27471 29092
L27452 29073
L27434 29036
" />
<path d="M27565 28567
L27827 28567
" />
<path d="M27565 28736
L27771 28736
L27808 28717
L27827 28680
L27827 28623
L27808 28586
L27790 28567
" />
<path d="M27621 28248
L27621 28380
" />
<path d="M27827 28380
L27434 28380
L27434 28192
" />
</g>
<g style="fill:#000000; fill-opacity:0.0; 
stroke:#000000; stroke-width:23.622; stroke-opacity:1; 
stroke-linecap:round; stroke-linejoin:round;">
<path d="M27142 28884
L27150 28892
L27157 28914
L27157 28929
L27150 28952
L27135 28967
L27120 28974
L27090 28982
L27067 28982
L27037 28974
L27022 28967
L27007 28952
L27000 28929
L27000 28914
L27007 28892
L27015 28884
" />
<path d="M27000 28749
L27000 28779
L27007 28794
L27015 28802
L27037 28817
L27067 28824
L27127 28824
L27142 28817
L27150 28809
L27157 28794
L27157 28764
L27150 28749
L27142 28742
L27127 28734
L27090 28734
L27075 28742
L27067 28749
L27060 28764
L27060 28794
L27067 28809
L27075 28817
L27090 28824
" />
</g>
<g style="fill:#000000; fill-opacity:0.0; 
stroke:#000000; stroke-width:59.0551; stroke-opacity:1; 
stroke-linecap:round; stroke-linejoin:round;">
<path d="M19675 42317
L19675 42579
" />
<path d="M19581 42167
L19487 42448
L19731 42448
" />
<path d="M19881 42542
L19900 42560
L19881 42579
L19862 42560
L19881 42542
L19881 42579
" />
<path d="M20031 42185
L20293 42185
L20125 42579
" />
<path d="M20612 42317
L20612 42579
" />
<path d="M20443 42317
L20443 42523
L20462 42560
L20500 42579
L20556 42579
L20593 42560
L20612 42542
" />
<path d="M20931 42373
L20800 42373
" />
<path d="M20800 42579
L20800 42185
L20987 42185
" />
</g>
<g style="fill:#000000; fill-opacity:0.0; 
stroke:#000000; stroke-width:23.622; stroke-opacity:1; 
stroke-linecap:round; stroke-linejoin:round;">
<path d="M20127 43020
L20119 43028
L20097 43035
L20082 43035
L20059 43028
L20044 43013
L20037 42998
L20029 42968
L20029 42945
L20037 42915
L20044 42900
L20059 42885
L20082 42878
L20097 42878
L20119 42885
L20127 42893
" />
<path d="M20187 42893
L20194 42885
L20209 42878
L20247 42878
L20262 42885
L20269 42893
L20277 42908
L20277 42923
L20269 42945
L20179 43035
L20277 43035
" />
<path d="M20329 42878
L20427 42878
L20374 42938
L20397 42938
L20412 42945
L20419 42953
L20427 42968
L20427 43005
L20419 43020
L20412 43028
L20397 43035
L20352 43035
L20337 43028
L20329 43020
" />
</g>
<g style="fill:#000000; fill-opacity:0.0; 
stroke:#000000; stroke-width:59.0551; stroke-opacity:1; 
stroke-linecap:round; stroke-linejoin:round;">
<path d="M25746 36268
L25558 36268
L25558 35874
" />
<path d="M25877 36062
L26008 36062
" />
<path d="M26064 36268
L25877 36268
L25877 35874
L26064 35874
" />
<path d="M26233 36268
L26233 35874
L26327 35874
L26383 35893
L26421 35931
L26439 35968
L26458 36043
L26458 36099
L26439 36174
L26421 36212
L26383 36249
L26327 36268
L26233 36268
" />
<path d="M26533 36306
L26833 36306
" />
<path d="M27058 36062
L27114 36081
L27133 36099
L27152 36137
L27152 36193
L27133 36231
L27114 36249
L27077 36268
L26927 36268
L26927 35874
L27058 35874
L27095 35893
L27114 35912
L27133 35949
L27133 35987
L27114 36024
L27095 36043
L27058 36062
L26927 36062
" />
<path d="M27508 36268
L27320 36268
L27320 35874
" />
<path d="M27639 35874
L27639 36193
L27658 36231
L27677 36249
L27714 36268
L27789 36268
L27827 36249
L27845 36231
L27864 36193
L27864 35874
" />
<path d="M28052 36062
L28183 36062
" />
<path d="M28239 36268
L28052 36268
L28052 35874
L28239 35874
" />
</g>
<g style="fill:#000000; fill-opacity:0.0; 
stroke:#000000; stroke-width:23.622; stroke-opacity:1; 
stroke-linecap:round; stroke-linejoin:round;">
<path d="M26773 36724
L26773 36567
L26811 36567
L26833 36574
L26848 36589
L26856 36604
L26863 36634
L26863 36657
L26856 36687
L26848 36702
L26833 36717
L26811 36724
L26773 36724
" />
<path d="M27013 36724
L26923 36724
" />
<path d="M26968 36724
L26968 36567
L26953 36589
L26938 36604
L26923 36612
" />
</g>
<g style="fill:#000000; fill-opacity:0.0; 
stroke:#000000; stroke-width:59.0551; stroke-opacity:1; 
stroke-linecap:round; stroke-linejoin:round;">
<path d="M26083 36937
L25896 36937
L25896 36544
" />
<path d="M26214 36731
L26346 36731
" />
<path d="M26402 36937
L26214 36937
L26214 36544
L26402 36544
" />
<path d="M26571 36937
L26571 36544
L26664 36544
L26721 36562
L26758 36600
L26777 36637
L26796 36712
L26796 36769
L26777 36844
L26758 36881
L26721 36919
L26664 36937
L26571 36937
" />
<path d="M26871 36975
L27170 36975
" />
<path d="M27339 36544
L27414 36544
L27452 36562
L27489 36600
L27508 36675
L27508 36806
L27489 36881
L27452 36919
L27414 36937
L27339 36937
L27302 36919
L27264 36881
L27245 36806
L27245 36675
L27264 36600
L27302 36562
L27339 36544
" />
<path d="M27902 36937
L27770 36750
" />
<path d="M27677 36937
L27677 36544
L27827 36544
L27864 36562
L27883 36581
L27902 36619
L27902 36675
L27883 36712
L27864 36731
L27827 36750
L27677 36750
" />
</g>
<g style="fill:#000000; fill-opacity:0.0; 
stroke:#000000; stroke-width:23.622; stroke-opacity:1; 
stroke-linecap:round; stroke-linejoin:round;">
<path d="M26773 37394
L26773 37236
L26811 37236
L26833 37244
L26848 37259
L26856 37274
L26863 37304
L26863 37326
L26856 37356
L26848 37371
L26833 37386
L26811 37394
L26773 37394
" />
<path d="M26923 37251
L26931 37244
L26946 37236
L26983 37236
L26998 37244
L27005 37251
L27013 37266
L27013 37281
L27005 37304
L26916 37394
L27013 37394
" />
</g>
<g style="fill:#000000; fill-opacity:0.0; 
stroke:#000000; stroke-width:59.0551; stroke-opacity:1; 
stroke-linecap:round; stroke-linejoin:round;">
<path d="M18461 46449
L18067 46449
L18067 46355
L18086 46299
L18124 46262
L18161 46243
L18236 46224
L18292 46224
L18367 46243
L18405 46262
L18442 46299
L18461 46355
L18461 46449
" />
<path d="M15832 27540
L15832 27146
L15963 27427
L16094 27146
L16094 27540
" />
<path d="M16338 27540
L16301 27521
L16282 27502
L16263 27465
L16263 27352
L16282 27315
L16301 27296
L16338 27277
L16394 27277
L16432 27296
L16451 27315
L16469 27352
L16469 27465
L16451 27502
L16432 27521
L16394 27540
L16338 27540
" />
<path d="M16807 27277
L16807 27540
" />
<path d="M16638 27277
L16638 27484
L16657 27521
L16694 27540
L16751 27540
L16788 27521
L16807 27502
" />
<path d="M16994 27277
L16994 27540
" />
<path d="M16994 27315
L17013 27296
L17050 27277
L17107 27277
L17144 27296
L17163 27334
L17163 27540
" />
<path d="M17294 27277
L17444 27277
" />
<path d="M17350 27146
L17350 27484
L17369 27521
L17407 27540
L17444 27540
" />
<path d="M17575 27540
L17575 27277
" />
<path d="M17575 27146
L17557 27165
L17575 27184
L17594 27165
L17575 27146
L17575 27184
" />
<path d="M17763 27277
L17763 27540
" />
<path d="M17763 27315
L17782 27296
L17819 27277
L17875 27277
L17913 27296
L17932 27334
L17932 27540
" />
<path d="M18288 27277
L18288 27596
L18269 27634
L18250 27652
L18213 27671
L18157 27671
L18119 27652
" />
<path d="M18288 27521
L18250 27540
L18175 27540
L18138 27521
L18119 27502
L18100 27465
L18100 27352
L18119 27315
L18138 27296
L18175 27277
L18250 27277
L18288 27296
" />
<path d="M18475 27540
L18475 27146
" />
<path d="M18475 27334
L18700 27334
" />
<path d="M18700 27540
L18700 27146
" />
<path d="M18944 27540
L18907 27521
L18888 27502
L18869 27465
L18869 27352
L18888 27315
L18907 27296
L18944 27277
L19000 27277
L19038 27296
L19056 27315
L19075 27352
L19075 27465
L19056 27502
L19038 27521
L19000 27540
L18944 27540
" />
<path d="M19300 27540
L19263 27521
L19244 27484
L19244 27146
" />
<path d="M19600 27521
L19563 27540
L19488 27540
L19450 27521
L19431 27484
L19431 27334
L19450 27296
L19488 27277
L19563 27277
L19600 27296
L19619 27334
L19619 27371
L19431 27409
" />
<path d="M17534 25768
L17534 25374
" />
<path d="M17534 25562
L17759 25562
" />
<path d="M17759 25768
L17759 25374
" />
<path d="M18153 25768
L17928 25768
" />
<path d="M18040 25768
L18040 25374
L18003 25431
L17965 25468
L17928 25487
" />
<path d="M23706 27540
L23706 27146
L23837 27427
L23968 27146
L23968 27540
" />
<path d="M24212 27540
L24175 27521
L24156 27502
L24137 27465
L24137 27352
L24156 27315
L24175 27296
L24212 27277
L24268 27277
L24306 27296
L24325 27315
L24343 27352
L24343 27465
L24325 27502
L24306 27521
L24268 27540
L24212 27540
" />
<path d="M24681 27277
L24681 27540
" />
<path d="M24512 27277
L24512 27484
L24531 27521
L24568 27540
L24625 27540
L24662 27521
L24681 27502
" />
<path d="M24868 27277
L24868 27540
" />
<path d="M24868 27315
L24887 27296
L24925 27277
L24981 27277
L25018 27296
L25037 27334
L25037 27540
" />
<path d="M25168 27277
L25318 27277
" />
<path d="M25224 27146
L25224 27484
L25243 27521
L25281 27540
L25318 27540
" />
<path d="M25449 27540
L25449 27277
" />
<path d="M25449 27146
L25431 27165
L25449 27184
L25468 27165
L25449 27146
L25449 27184
" />
<path d="M25637 27277
L25637 27540
" />
<path d="M25637 27315
L25656 27296
L25693 27277
L25749 27277
L25787 27296
L25806 27334
L25806 27540
" />
<path d="M26162 27277
L26162 27596
L26143 27634
L26124 27652
L26087 27671
L26031 27671
L25993 27652
" />
<path d="M26162 27521
L26124 27540
L26049 27540
L26012 27521
L25993 27502
L25974 27465
L25974 27352
L25993 27315
L26012 27296
L26049 27277
L26124 27277
L26162 27296
" />
<path d="M26349 27540
L26349 27146
" />
<path d="M26349 27334
L26574 27334
" />
<path d="M26574 27540
L26574 27146
" />
<path d="M26818 27540
L26781 27521
L26762 27502
L26743 27465
L26743 27352
L26762 27315
L26781 27296
L26818 27277
L26874 27277
L26912 27296
L26931 27315
L26949 27352
L26949 27465
L26931 27502
L26912 27521
L26874 27540
L26818 27540
" />
<path d="M27174 27540
L27137 27521
L27118 27484
L27118 27146
" />
<path d="M27474 27521
L27437 27540
L27362 27540
L27324 27521
L27305 27484
L27305 27334
L27324 27296
L27362 27277
L27437 27277
L27474 27296
L27493 27334
L27493 27371
L27305 27409
" />
<path d="M25408 25768
L25408 25374
" />
<path d="M25408 25562
L25633 25562
" />
<path d="M25633 25768
L25633 25374
" />
<path d="M25802 25412
L25821 25393
L25858 25374
L25952 25374
L25989 25393
L26008 25412
L26027 25449
L26027 25487
L26008 25543
L25783 25768
L26027 25768
" />
<path d="M23706 47500
L23706 47107
L23837 47388
L23968 47107
L23968 47500
" />
<path d="M24212 47500
L24175 47482
L24156 47463
L24137 47425
L24137 47313
L24156 47275
L24175 47257
L24212 47238
L24268 47238
L24306 47257
L24325 47275
L24343 47313
L24343 47425
L24325 47463
L24306 47482
L24268 47500
L24212 47500
" />
<path d="M24681 47238
L24681 47500
" />
<path d="M24512 47238
L24512 47444
L24531 47482
L24568 47500
L24625 47500
L24662 47482
L24681 47463
" />
<path d="M24868 47238
L24868 47500
" />
<path d="M24868 47275
L24887 47257
L24925 47238
L24981 47238
L25018 47257
L25037 47294
L25037 47500
" />
<path d="M25168 47238
L25318 47238
" />
<path d="M25224 47107
L25224 47444
L25243 47482
L25281 47500
L25318 47500
" />
<path d="M25449 47500
L25449 47238
" />
<path d="M25449 47107
L25431 47125
L25449 47144
L25468 47125
L25449 47107
L25449 47144
" />
<path d="M25637 47238
L25637 47500
" />
<path d="M25637 47275
L25656 47257
L25693 47238
L25749 47238
L25787 47257
L25806 47294
L25806 47500
" />
<path d="M26162 47238
L26162 47557
L26143 47594
L26124 47613
L26087 47632
L26031 47632
L25993 47613
" />
<path d="M26162 47482
L26124 47500
L26049 47500
L26012 47482
L25993 47463
L25974 47425
L25974 47313
L25993 47275
L26012 47257
L26049 47238
L26124 47238
L26162 47257
" />
<path d="M26349 47500
L26349 47107
" />
<path d="M26349 47294
L26574 47294
" />
<path d="M26574 47500
L26574 47107
" />
<path d="M26818 47500
L26781 47482
L26762 47463
L26743 47425
L26743 47313
L26762 47275
L26781 47257
L26818 47238
L26874 47238
L26912 47257
L26931 47275
L26949 47313
L26949 47425
L26931 47463
L26912 47482
L26874 47500
L26818 47500
" />
<path d="M27174 47500
L27137 47482
L27118 47444
L27118 47107
" />
<path d="M27474 47482
L27437 47500
L27362 47500
L27324 47482
L27305 47444
L27305 47294
L27324 47257
L27362 47238
L27437 47238
L27474 47257
L27493 47294
L27493 47332
L27305 47369
" />
<path d="M25408 49390
L25408 48997
" />
<path d="M25408 49184
L25633 49184
" />
<path d="M25633 49390
L25633 48997
" />
<path d="M25783 48997
L26027 48997
L25896 49146
L25952 49146
L25989 49165
L26008 49184
L26027 49221
L26027 49315
L26008 49353
L25989 49371
L25952 49390
L25839 49390
L25802 49371
L25783 49353
" />
<path d="M15832 47579
L15832 47185
L15963 47467
L16094 47185
L16094 47579
" />
<path d="M16338 47579
L16301 47560
L16282 47542
L16263 47504
L16263 47392
L16282 47354
L16301 47335
L16338 47317
L16394 47317
L16432 47335
L16451 47354
L16469 47392
L16469 47504
L16451 47542
L16432 47560
L16394 47579
L16338 47579
" />
<path d="M16807 47317
L16807 47579
" />
<path d="M16638 47317
L16638 47523
L16657 47560
L16694 47579
L16751 47579
L16788 47560
L16807 47542
" />
<path d="M16994 47317
L16994 47579
" />
<path d="M16994 47354
L17013 47335
L17050 47317
L17107 47317
L17144 47335
L17163 47373
L17163 47579
" />
<path d="M17294 47317
L17444 47317
" />
<path d="M17350 47185
L17350 47523
L17369 47560
L17407 47579
L17444 47579
" />
<path d="M17575 47579
L17575 47317
" />
<path d="M17575 47185
L17557 47204
L17575 47223
L17594 47204
L17575 47185
L17575 47223
" />
<path d="M17763 47317
L17763 47579
" />
<path d="M17763 47354
L17782 47335
L17819 47317
L17875 47317
L17913 47335
L17932 47373
L17932 47579
" />
<path d="M18288 47317
L18288 47635
L18269 47673
L18250 47692
L18213 47710
L18157 47710
L18119 47692
" />
<path d="M18288 47560
L18250 47579
L18175 47579
L18138 47560
L18119 47542
L18100 47504
L18100 47392
L18119 47354
L18138 47335
L18175 47317
L18250 47317
L18288 47335
" />
<path d="M18475 47579
L18475 47185
" />
<path d="M18475 47373
L18700 47373
" />
<path d="M18700 47579
L18700 47185
" />
<path d="M18944 47579
L18907 47560
L18888 47542
L18869 47504
L18869 47392
L18888 47354
L18907 47335
L18944 47317
L19000 47317
L19038 47335
L19056 47354
L19075 47392
L19075 47504
L19056 47542
L19038 47560
L19000 47579
L18944 47579
" />
<path d="M19300 47579
L19263 47560
L19244 47523
L19244 47185
" />
<path d="M19600 47560
L19563 47579
L19488 47579
L19450 47560
L19431 47523
L19431 47373
L19450 47335
L19488 47317
L19563 47317
L19600 47335
L19619 47373
L19619 47410
L19431 47448
" />
<path d="M17534 49390
L17534 48997
" />
<path d="M17534 49184
L17759 49184
" />
<path d="M17759 49390
L17759 48997
" />
<path d="M18115 49128
L18115 49390
" />
<path d="M18022 48978
L17928 49259
L18172 49259
" />
<path d="M23524 34615
L23843 34615
L23880 34596
L23899 34578
L23918 34540
L23918 34465
L23899 34428
L23880 34409
L23843 34390
L23524 34390
" />
<path d="M23899 34221
L23918 34165
L23918 34071
L23899 34034
L23880 34015
L23843 33997
L23805 33997
L23768 34015
L23749 34034
L23730 34071
L23712 34146
L23693 34184
L23674 34203
L23637 34221
L23599 34221
L23562 34203
L23543 34184
L23524 34146
L23524 34053
L23543 33997
" />
<path d="M23712 33697
L23730 33640
L23749 33622
L23787 33603
L23843 33603
L23880 33622
L23899 33640
L23918 33678
L23918 33828
L23524 33828
L23524 33697
L23543 33659
L23562 33640
L23599 33622
L23637 33622
L23674 33640
L23693 33659
L23712 33697
L23712 33828
" />
<path d="M23955 33528
L23955 33228
" />
<path d="M23712 33003
L23730 32947
L23749 32928
L23787 32909
L23843 32909
L23880 32928
L23899 32947
L23918 32984
L23918 33134
L23524 33134
L23524 33003
L23543 32965
L23562 32947
L23599 32928
L23637 32928
L23674 32947
L23693 32965
L23712 33003
L23712 33134
" />
<path d="M23955 32834
L23955 32534
" />
<path d="M23918 32440
L23524 32440
L23805 32309
L23524 32178
L23918 32178
" />
<path d="M23918 31991
L23655 31991
" />
<path d="M23524 31991
L23543 32009
L23562 31991
L23543 31972
L23524 31991
L23562 31991
" />
<path d="M23899 31634
L23918 31672
L23918 31747
L23899 31784
L23880 31803
L23843 31822
L23730 31822
L23693 31803
L23674 31784
L23655 31747
L23655 31672
L23674 31634
" />
<path d="M23918 31466
L23655 31466
" />
<path d="M23730 31466
L23693 31447
L23674 31428
L23655 31391
L23655 31353
" />
<path d="M23918 31166
L23899 31203
L23880 31222
L23843 31241
L23730 31241
L23693 31222
L23674 31203
L23655 31166
L23655 31109
L23674 31072
L23693 31053
L23730 31034
L23843 31034
L23880 31053
L23899 31072
L23918 31109
L23918 31166
" />
<path d="M19272 41113
L18878 41113
" />
<path d="M19272 40888
L19047 41057
" />
<path d="M18878 40888
L19103 41113
" />
<path d="M19272 40494
L19085 40626
" />
<path d="M19272 40719
L18878 40719
L18878 40569
L18897 40532
L18916 40513
L18953 40494
L19010 40494
L19047 40513
L19066 40532
L19085 40569
L19085 40719
" />
<path d="M19235 40101
L19253 40119
L19272 40176
L19272 40213
L19253 40269
L19216 40307
L19178 40326
L19103 40344
L19047 40344
L18972 40326
L18935 40307
L18897 40269
L18878 40213
L18878 40176
L18897 40119
L18916 40101
" />
<path d="M19310 40026
L19310 39726
" />
<path d="M19235 39407
L19253 39426
L19272 39482
L19272 39520
L19253 39576
L19216 39613
L19178 39632
L19103 39651
L19047 39651
L18972 39632
L18935 39613
L18897 39576
L18878 39520
L18878 39482
L18897 39426
L18916 39407
" />
<path d="M19272 39182
L19253 39220
L19235 39238
L19197 39257
L19085 39257
L19047 39238
L19028 39220
L19010 39182
L19010 39126
L19028 39088
L19047 39070
L19085 39051
L19197 39051
L19235 39070
L19253 39088
L19272 39126
L19272 39182
" />
<path d="M19010 38882
L19272 38882
" />
<path d="M19047 38882
L19028 38863
L19010 38826
L19010 38770
L19028 38732
L19066 38713
L19272 38713
" />
<path d="M19010 38526
L19272 38526
" />
<path d="M19047 38526
L19028 38507
L19010 38470
L19010 38413
L19028 38376
L19066 38357
L19272 38357
" />
<path d="M19310 38263
L19310 37964
" />
<path d="M19253 37889
L19272 37832
L19272 37739
L19253 37701
L19235 37682
L19197 37664
L19160 37664
L19122 37682
L19103 37701
L19085 37739
L19066 37814
L19047 37851
L19028 37870
L18991 37889
L18953 37889
L18916 37870
L18897 37851
L18878 37814
L18878 37720
L18897 37664
" />
<path d="M18878 37532
L19272 37439
L18991 37364
L19272 37289
L18878 37195
" />
<path d="M19272 37045
L18878 37045
L18878 36951
L18897 36895
L18935 36857
L18972 36839
L19047 36820
L19103 36820
L19178 36839
L19216 36857
L19253 36895
L19272 36951
L19272 37045
" />
<path d="M21039 30591
L20852 30591
L20833 30778
L20852 30760
L20889 30741
L20983 30741
L21020 30760
L21039 30778
L21058 30816
L21058 30910
L21039 30947
L21020 30966
L20983 30985
L20889 30985
L20852 30966
L20833 30947
" />
<path d="M21395 30591
L21320 30591
L21283 30610
L21264 30628
L21227 30685
L21208 30760
L21208 30910
L21227 30947
L21245 30966
L21283 30985
L21358 30985
L21395 30966
L21414 30947
L21433 30910
L21433 30816
L21414 30778
L21395 30760
L21358 30741
L21283 30741
L21245 30760
L21227 30778
L21208 30816
" />
<path d="M21583 30985
L21676 30985
L21676 30910
L21639 30891
L21601 30853
L21583 30797
L21583 30703
L21601 30647
L21639 30610
L21695 30591
L21770 30591
L21826 30610
L21864 30647
L21883 30703
L21883 30797
L21864 30853
L21826 30891
L21789 30910
L21789 30985
L21883 30985
" />
</g>
<g style="fill:#000000; fill-opacity:0.0; 
stroke:#000000; stroke-width:15.748; stroke-opacity:1; 
stroke-linecap:round; stroke-linejoin:round;">
<path d="M21341 30851
L21309 30804
" />
<path d="M21285 30851
L21285 30753
L21323 30753
L21332 30757
L21337 30762
L21341 30771
L21341 30785
L21337 30795
L21332 30800
L21323 30804
L21285 30804
" />
<path d="M21435 30851
L21379 30851
" />
<path d="M21407 30851
L21407 30753
L21398 30767
L21388 30776
L21379 30781
" />
</g>
<g style="fill:#000000; fill-opacity:0.0; 
stroke:#000000; stroke-width:59.0551; stroke-opacity:1; 
stroke-linecap:round; stroke-linejoin:round;">
<path d="M21039 31575
L20852 31575
L20833 31763
L20852 31744
L20889 31725
L20983 31725
L21020 31744
L21039 31763
L21058 31800
L21058 31894
L21039 31931
L21020 31950
L20983 31969
L20889 31969
L20852 31950
L20833 31931
" />
<path d="M21395 31575
L21320 31575
L21283 31594
L21264 31613
L21227 31669
L21208 31744
L21208 31894
L21227 31931
L21245 31950
L21283 31969
L21358 31969
L21395 31950
L21414 31931
L21433 31894
L21433 31800
L21414 31763
L21395 31744
L21358 31725
L21283 31725
L21245 31744
L21227 31763
L21208 31800
" />
<path d="M21583 31969
L21676 31969
L21676 31894
L21639 31875
L21601 31838
L21583 31781
L21583 31688
L21601 31631
L21639 31594
L21695 31575
L21770 31575
L21826 31594
L21864 31631
L21883 31688
L21883 31781
L21864 31838
L21826 31875
L21789 31894
L21789 31969
L21883 31969
" />
</g>
<g style="fill:#000000; fill-opacity:0.0; 
stroke:#000000; stroke-width:15.748; stroke-opacity:1; 
stroke-linecap:round; stroke-linejoin:round;">
<path d="M21341 31835
L21309 31788
" />
<path d="M21285 31835
L21285 31737
L21323 31737
L21332 31742
L21337 31746
L21341 31756
L21341 31770
L21337 31779
L21332 31784
L21323 31788
L21285 31788
" />
<path d="M21379 31746
L21384 31742
L21393 31737
L21416 31737
L21426 31742
L21430 31746
L21435 31756
L21435 31765
L21430 31779
L21374 31835
L21435 31835
" />
</g>
<g style="fill:#000000; fill-opacity:0.0; 
stroke:#000000; stroke-width:59.0551; stroke-opacity:1; 
stroke-linecap:round; stroke-linejoin:round;">
<path d="M23687 32038
L23706 32019
L23743 32000
L23837 32000
L23875 32019
L23893 32038
L23912 32075
L23912 32113
L23893 32169
L23668 32394
L23912 32394
" />
<path d="M24062 32038
L24081 32019
L24118 32000
L24212 32000
L24250 32019
L24268 32038
L24287 32075
L24287 32113
L24268 32169
L24043 32394
L24287 32394
" />
<path d="M24437 32394
L24531 32394
L24531 32319
L24493 32300
L24456 32263
L24437 32207
L24437 32113
L24456 32057
L24493 32019
L24550 32000
L24625 32000
L24681 32019
L24718 32057
L24737 32113
L24737 32207
L24718 32263
L24681 32300
L24643 32319
L24643 32394
L24737 32394
" />
</g>
<g style="fill:#000000; fill-opacity:0.0; 
stroke:#000000; stroke-width:15.748; stroke-opacity:1; 
stroke-linecap:round; stroke-linejoin:round;">
<path d="M24196 32721
L24163 32674
" />
<path d="M24139 32721
L24139 32623
L24177 32623
L24186 32627
L24191 32632
L24196 32642
L24196 32656
L24191 32665
L24186 32670
L24177 32674
L24139 32674
" />
<path d="M24229 32623
L24289 32623
L24257 32660
L24271 32660
L24280 32665
L24285 32670
L24289 32679
L24289 32702
L24285 32712
L24280 32717
L24271 32721
L24243 32721
L24233 32717
L24229 32712
" />
</g>
<g style="fill:#000000; fill-opacity:0.0; 
stroke:#000000; stroke-width:59.0551; stroke-opacity:1; 
stroke-linecap:round; stroke-linejoin:round;">
<path d="M23687 32628
L23706 32610
L23743 32591
L23837 32591
L23875 32610
L23893 32628
L23912 32666
L23912 32703
L23893 32760
L23668 32985
L23912 32985
" />
<path d="M24062 32628
L24081 32610
L24118 32591
L24212 32591
L24250 32610
L24268 32628
L24287 32666
L24287 32703
L24268 32760
L24043 32985
L24287 32985
" />
<path d="M24437 32985
L24531 32985
L24531 32910
L24493 32891
L24456 32853
L24437 32797
L24437 32703
L24456 32647
L24493 32610
L24550 32591
L24625 32591
L24681 32610
L24718 32647
L24737 32703
L24737 32797
L24718 32853
L24681 32891
L24643 32910
L24643 32985
L24737 32985
" />
</g>
<g style="fill:#000000; fill-opacity:0.0; 
stroke:#000000; stroke-width:15.748; stroke-opacity:1; 
stroke-linecap:round; stroke-linejoin:round;">
<path d="M24196 33312
L24163 33265
" />
<path d="M24139 33312
L24139 33213
L24177 33213
L24186 33218
L24191 33223
L24196 33232
L24196 33246
L24191 33255
L24186 33260
L24177 33265
L24139 33265
" />
<path d="M24280 33246
L24280 33312
" />
<path d="M24257 33209
L24233 33279
L24294 33279
" />
</g>
<g style="fill:#000000; fill-opacity:0.0; 
stroke:#000000; stroke-width:59.0551; stroke-opacity:1; 
stroke-linecap:round; stroke-linejoin:round;">
<path d="M25193 36014
L25211 35996
L25249 35977
L25343 35977
L25380 35996
L25399 36014
L25418 36052
L25418 36089
L25399 36146
L25174 36371
L25418 36371
" />
<path d="M25568 36014
L25586 35996
L25624 35977
L25718 35977
L25755 35996
L25774 36014
L25793 36052
L25793 36089
L25774 36146
L25549 36371
L25793 36371
" />
<path d="M26036 35977
L26074 35977
L26111 35996
L26130 36014
L26149 36052
L26167 36127
L26167 36221
L26149 36296
L26130 36333
L26111 36352
L26074 36371
L26036 36371
L25999 36352
L25980 36333
L25961 36296
L25943 36221
L25943 36127
L25961 36052
L25980 36014
L25999 35996
L26036 35977
" />
<path d="M26317 36371
L26411 36371
L26411 36296
L26374 36277
L26336 36239
L26317 36183
L26317 36089
L26336 36033
L26374 35996
L26430 35977
L26505 35977
L26561 35996
L26599 36033
L26617 36089
L26617 36183
L26599 36239
L26561 36277
L26524 36296
L26524 36371
L26617 36371
" />
</g>
<g style="fill:#000000; fill-opacity:0.0; 
stroke:#000000; stroke-width:15.748; stroke-opacity:1; 
stroke-linecap:round; stroke-linejoin:round;">
<path d="M25889 36698
L25856 36651
" />
<path d="M25832 36698
L25832 36599
L25870 36599
L25879 36604
L25884 36609
L25889 36618
L25889 36632
L25884 36641
L25879 36646
L25870 36651
L25832 36651
" />
<path d="M25978 36599
L25931 36599
L25926 36646
L25931 36641
L25940 36637
L25964 36637
L25973 36641
L25978 36646
L25982 36655
L25982 36679
L25978 36688
L25973 36693
L25964 36698
L25940 36698
L25931 36693
L25926 36688
" />
</g>
<g style="fill:#000000; fill-opacity:0.0; 
stroke:#000000; stroke-width:59.0551; stroke-opacity:1; 
stroke-linecap:round; stroke-linejoin:round;">
<path d="M25193 36684
L25211 36665
L25249 36646
L25343 36646
L25380 36665
L25399 36684
L25418 36721
L25418 36759
L25399 36815
L25174 37040
L25418 37040
" />
<path d="M25568 36684
L25586 36665
L25624 36646
L25718 36646
L25755 36665
L25774 36684
L25793 36721
L25793 36759
L25774 36815
L25549 37040
L25793 37040
" />
<path d="M26036 36646
L26074 36646
L26111 36665
L26130 36684
L26149 36721
L26167 36796
L26167 36890
L26149 36965
L26130 37002
L26111 37021
L26074 37040
L26036 37040
L25999 37021
L25980 37002
L25961 36965
L25943 36890
L25943 36796
L25961 36721
L25980 36684
L25999 36665
L26036 36646
" />
<path d="M26317 37040
L26411 37040
L26411 36965
L26374 36946
L26336 36909
L26317 36852
L26317 36759
L26336 36702
L26374 36665
L26430 36646
L26505 36646
L26561 36665
L26599 36702
L26617 36759
L26617 36852
L26599 36909
L26561 36946
L26524 36965
L26524 37040
L26617 37040
" />
</g>
<g style="fill:#000000; fill-opacity:0.0; 
stroke:#000000; stroke-width:15.748; stroke-opacity:1; 
stroke-linecap:round; stroke-linejoin:round;">
<path d="M25889 37367
L25856 37320
" />
<path d="M25832 37367
L25832 37268
L25870 37268
L25879 37273
L25884 37278
L25889 37287
L25889 37301
L25884 37311
L25879 37315
L25870 37320
L25832 37320
" />
<path d="M25973 37268
L25954 37268
L25945 37273
L25940 37278
L25931 37292
L25926 37311
L25926 37348
L25931 37357
L25935 37362
L25945 37367
L25964 37367
L25973 37362
L25978 37357
L25982 37348
L25982 37325
L25978 37315
L25973 37311
L25964 37306
L25945 37306
L25935 37311
L25931 37315
L25926 37325
" />
</g>
<g style="fill:#000000; fill-opacity:0.0; 
stroke:#000000; stroke-width:59.0551; stroke-opacity:1; 
stroke-linecap:round; stroke-linejoin:round;">
<path d="M24298 43625
L24279 43607
L24260 43569
L24260 43475
L24279 43438
L24298 43419
L24335 43400
L24373 43400
L24429 43419
L24654 43644
L24654 43400
" />
<path d="M24298 43250
L24279 43232
L24260 43194
L24260 43100
L24279 43063
L24298 43044
L24335 43025
L24373 43025
L24429 43044
L24654 43269
L24654 43025
" />
<path d="M24260 42782
L24260 42744
L24279 42707
L24298 42688
L24335 42669
L24410 42650
L24504 42650
L24579 42669
L24616 42688
L24635 42707
L24654 42744
L24654 42782
L24635 42819
L24616 42838
L24579 42857
L24504 42875
L24410 42875
L24335 42857
L24298 42838
L24279 42819
L24260 42782
" />
<path d="M24654 42500
L24654 42407
L24579 42407
L24560 42444
L24523 42482
L24467 42500
L24373 42500
L24317 42482
L24279 42444
L24260 42388
L24260 42313
L24279 42257
L24317 42219
L24373 42200
L24467 42200
L24523 42219
L24560 42257
L24579 42294
L24654 42294
L24654 42200
" />
</g>
<g style="fill:#000000; fill-opacity:0.0; 
stroke:#000000; stroke-width:15.748; stroke-opacity:1; 
stroke-linecap:round; stroke-linejoin:round;">
<path d="M24060 42929
L24013 42962
" />
<path d="M24060 42986
L23961 42986
L23961 42948
L23966 42939
L23971 42934
L23980 42929
L23994 42929
L24004 42934
L24008 42939
L24013 42948
L24013 42986
" />
<path d="M23961 42896
L23961 42831
L24060 42873
" />
</g>
<g style="fill:#000000; fill-opacity:0.0; 
stroke:#000000; stroke-width:59.0551; stroke-opacity:1; 
stroke-linecap:round; stroke-linejoin:round;">
<path d="M23707 43625
L23688 43607
L23670 43569
L23670 43475
L23688 43438
L23707 43419
L23745 43400
L23782 43400
L23838 43419
L24063 43644
L24063 43400
" />
<path d="M23707 43250
L23688 43232
L23670 43194
L23670 43100
L23688 43063
L23707 43044
L23745 43025
L23782 43025
L23838 43044
L24063 43269
L24063 43025
" />
<path d="M23670 42782
L23670 42744
L23688 42707
L23707 42688
L23745 42669
L23820 42650
L23913 42650
L23988 42669
L24026 42688
L24045 42707
L24063 42744
L24063 42782
L24045 42819
L24026 42838
L23988 42857
L23913 42875
L23820 42875
L23745 42857
L23707 42838
L23688 42819
L23670 42782
" />
<path d="M24063 42500
L24063 42407
L23988 42407
L23970 42444
L23932 42482
L23876 42500
L23782 42500
L23726 42482
L23688 42444
L23670 42388
L23670 42313
L23688 42257
L23726 42219
L23782 42200
L23876 42200
L23932 42219
L23970 42257
L23988 42294
L24063 42294
L24063 42200
" />
</g>
<g style="fill:#000000; fill-opacity:0.0; 
stroke:#000000; stroke-width:15.748; stroke-opacity:1; 
stroke-linecap:round; stroke-linejoin:round;">
<path d="M23469 42929
L23422 42962
" />
<path d="M23469 42986
L23371 42986
L23371 42948
L23375 42939
L23380 42934
L23390 42929
L23404 42929
L23413 42934
L23418 42939
L23422 42948
L23422 42986
" />
<path d="M23413 42873
L23408 42882
L23404 42887
L23394 42892
L23390 42892
L23380 42887
L23375 42882
L23371 42873
L23371 42854
L23375 42845
L23380 42840
L23390 42836
L23394 42836
L23404 42840
L23408 42845
L23413 42854
L23413 42873
L23418 42882
L23422 42887
L23432 42892
L23450 42892
L23460 42887
L23465 42882
L23469 42873
L23469 42854
L23465 42845
L23460 42840
L23450 42836
L23432 42836
L23422 42840
L23418 42845
L23413 42854
" />
</g>
<g style="fill:#000000; fill-opacity:0.0; 
stroke:#000000; stroke-width:59.0551; stroke-opacity:1; 
stroke-linecap:round; stroke-linejoin:round;">
<path d="M18567 46799
L18567 46874
L18586 46912
L18605 46931
L18661 46968
L18736 46987
L18886 46987
L18924 46968
L18942 46949
L18961 46912
L18961 46837
L18942 46799
L18924 46781
L18886 46762
L18792 46762
L18755 46781
L18736 46799
L18717 46837
L18717 46912
L18736 46949
L18755 46968
L18792 46987
" />
<path d="M18736 46537
L18717 46574
L18699 46593
L18661 46612
L18642 46612
L18605 46593
L18586 46574
L18567 46537
L18567 46462
L18586 46425
L18605 46406
L18642 46387
L18661 46387
L18699 46406
L18717 46425
L18736 46462
L18736 46537
L18755 46574
L18774 46593
L18811 46612
L18886 46612
L18924 46593
L18942 46574
L18961 46537
L18961 46462
L18942 46425
L18924 46406
L18886 46387
L18811 46387
L18774 46406
L18755 46425
L18736 46462
" />
<path d="M18961 46218
L18567 46218
" />
<path d="M18811 46181
L18961 46068
" />
<path d="M18699 46068
L18849 46218
" />
<path d="M18961 45918
L18961 45825
L18886 45825
L18867 45862
L18830 45900
L18774 45918
L18680 45918
L18624 45900
L18586 45862
L18567 45806
L18567 45731
L18586 45675
L18624 45637
L18680 45618
L18774 45618
L18830 45637
L18867 45675
L18886 45712
L18961 45712
L18961 45618
" />
</g>
<g style="fill:#000000; fill-opacity:0.0; 
stroke:#000000; stroke-width:15.748; stroke-opacity:1; 
stroke-linecap:round; stroke-linejoin:round;">
<path d="M18367 46366
L18320 46399
" />
<path d="M18367 46422
L18268 46422
L18268 46385
L18273 46375
L18278 46371
L18287 46366
L18301 46366
L18311 46371
L18315 46375
L18320 46385
L18320 46422
" />
<path d="M18367 46272
L18367 46328
" />
<path d="M18367 46300
L18268 46300
L18282 46310
L18292 46319
L18297 46328
" />
<path d="M18367 46225
L18367 46207
L18362 46197
L18357 46193
L18343 46183
L18325 46178
L18287 46178
L18278 46183
L18273 46188
L18268 46197
L18268 46216
L18273 46225
L18278 46230
L18287 46235
L18311 46235
L18320 46230
L18325 46225
L18329 46216
L18329 46197
L18325 46188
L18320 46183
L18311 46178
" />
</g>
<g style="fill:#000000; fill-opacity:0.0; 
stroke:#000000; stroke-width:59.0551; stroke-opacity:1; 
stroke-linecap:round; stroke-linejoin:round;">
<path d="M16221 30441
L16221 30628
L15827 30628
" />
<path d="M15827 30366
L15827 30141
" />
<path d="M16221 30254
L15827 30254
" />
<path d="M16221 29804
L16221 30029
" />
<path d="M16221 29916
L15827 29916
L15883 29954
L15921 29991
L15940 30029
" />
<path d="M15827 29672
L15827 29410
L16221 29579
" />
<path d="M15827 29091
L15827 29166
L15846 29204
L15865 29222
L15921 29260
L15996 29279
L16146 29279
L16183 29260
L16202 29241
L16221 29204
L16221 29129
L16202 29091
L16183 29072
L16146 29054
L16052 29054
L16015 29072
L15996 29091
L15977 29129
L15977 29204
L15996 29241
L16015 29260
L16052 29279
" />
<path d="M16221 28679
L16221 28904
" />
<path d="M16221 28791
L15827 28791
L15883 28829
L15921 28866
L15940 28904
" />
<path d="M16071 28510
L16071 28210
" />
<path d="M15827 27835
L15827 28023
L16015 28041
L15996 28023
L15977 27985
L15977 27891
L15996 27854
L16015 27835
L16052 27816
L16146 27816
L16183 27835
L16202 27854
L16221 27891
L16221 27985
L16202 28023
L16183 28041
" />
</g>
<g style="fill:#000000; fill-opacity:0.0; 
stroke:#000000; stroke-width:29.5276; stroke-opacity:1; 
stroke-linecap:round; stroke-linejoin:round;">
<path d="M16877 29124
L16877 29283
L16886 29302
L16896 29311
L16915 29321
L16952 29321
L16971 29311
L16980 29302
L16990 29283
L16990 29124
" />
<path d="M17074 29143
L17083 29133
L17102 29124
L17149 29124
L17168 29133
L17177 29143
L17186 29161
L17186 29180
L17177 29208
L17065 29321
L17186 29321
" />
</g>
<g style="fill:#000000; fill-opacity:0.0; 
stroke:#000000; stroke-width:59.0551; stroke-opacity:1; 
stroke-linecap:round; stroke-linejoin:round;">
<path d="M23875 28243
L23688 28243
L23688 27849
" />
<path d="M23950 27849
L24175 27849
" />
<path d="M24063 28243
L24063 27849
" />
<path d="M24513 28243
L24288 28243
" />
<path d="M24400 28243
L24400 27849
L24363 27905
L24325 27943
L24288 27961
" />
<path d="M24700 28243
L24775 28243
L24813 28224
L24832 28205
L24869 28149
L24888 28074
L24888 27924
L24869 27886
L24850 27868
L24813 27849
L24738 27849
L24700 27868
L24682 27886
L24663 27924
L24663 28018
L24682 28055
L24700 28074
L24738 28093
L24813 28093
L24850 28074
L24869 28055
L24888 28018
" />
<path d="M25225 27849
L25150 27849
L25113 27868
L25094 27886
L25057 27943
L25038 28018
L25038 28168
L25057 28205
L25075 28224
L25113 28243
L25188 28243
L25225 28224
L25244 28205
L25263 28168
L25263 28074
L25244 28036
L25225 28018
L25188 27999
L25113 27999
L25075 28018
L25057 28036
L25038 28074
" />
<path d="M25619 27849
L25431 27849
L25413 28036
L25431 28018
L25469 27999
L25563 27999
L25600 28018
L25619 28036
L25638 28074
L25638 28168
L25619 28205
L25600 28224
L25563 28243
L25469 28243
L25431 28224
L25413 28205
" />
<path d="M25769 28243
L25975 27980
" />
<path d="M25769 27980
L25975 28243
" />
<path d="M26125 28243
L26125 27849
L26219 27849
L26275 27868
L26313 27905
L26331 27943
L26350 28018
L26350 28074
L26331 28149
L26313 28186
L26275 28224
L26219 28243
L26125 28243
" />
<path d="M26519 28243
L26519 27849
L26613 27849
L26669 27868
L26706 27905
L26725 27943
L26744 28018
L26744 28074
L26725 28149
L26706 28186
L26669 28224
L26613 28243
L26519 28243
" />
<path d="M26913 28093
L27213 28093
" />
<path d="M27363 27849
L27606 27849
L27475 27999
L27531 27999
L27569 28018
L27587 28036
L27606 28074
L27606 28168
L27587 28205
L27569 28224
L27531 28243
L27419 28243
L27381 28224
L27363 28205
" />
<path d="M27775 28205
L27794 28224
L27775 28243
L27756 28224
L27775 28205
L27775 28243
" />
<path d="M27925 27849
L28169 27849
L28037 27999
L28094 27999
L28131 28018
L28150 28036
L28169 28074
L28169 28168
L28150 28205
L28131 28224
L28094 28243
L27981 28243
L27944 28224
L27925 28205
" />
</g>
<g style="fill:#000000; fill-opacity:0.0; 
stroke:#000000; stroke-width:41.3386; stroke-opacity:1; 
stroke-linecap:round; stroke-linejoin:round;">
<path d="M25709 28918
L25709 29141
L25722 29167
L25735 29180
L25761 29193
L25814 29193
L25840 29180
L25853 29167
L25866 29141
L25866 28918
" />
<path d="M25971 28918
L26142 28918
L26050 29023
L26090 29023
L26116 29036
L26129 29049
L26142 29075
L26142 29141
L26129 29167
L26116 29180
L26090 29193
L26011 29193
L25985 29180
L25971 29167
" />
</g>
<g style="fill:#000000; fill-opacity:0.0; 
stroke:#000000; stroke-width:59.0551; stroke-opacity:1; 
stroke-linecap:round; stroke-linejoin:round;">
<path d="M18063 32481
L18063 32087
L18288 32481
L18288 32087
" />
<path d="M18700 32443
L18682 32462
L18625 32481
L18588 32481
L18532 32462
L18494 32425
L18475 32387
L18457 32312
L18457 32256
L18475 32181
L18494 32143
L18532 32106
L18588 32087
L18625 32087
L18682 32106
L18700 32125
" />
<path d="M18813 32087
L18944 32481
L19075 32087
" />
<path d="M19169 32087
L19431 32087
L19263 32481
" />
<path d="M19544 32087
L19788 32087
L19656 32237
L19713 32237
L19750 32256
L19769 32275
L19788 32312
L19788 32406
L19769 32443
L19750 32462
L19713 32481
L19600 32481
L19563 32462
L19544 32443
" />
<path d="M20125 32218
L20125 32481
" />
<path d="M20031 32068
L19938 32350
L20181 32350
" />
<path d="M20313 32125
L20331 32106
L20369 32087
L20463 32087
L20500 32106
L20519 32125
L20538 32162
L20538 32200
L20519 32256
L20294 32481
L20538 32481
" />
</g>
<g style="fill:#000000; fill-opacity:0.0; 
stroke:#000000; stroke-width:41.3386; stroke-opacity:1; 
stroke-linecap:round; stroke-linejoin:round;">
<path d="M19081 31148
L19081 31371
L19094 31397
L19107 31410
L19133 31423
L19186 31423
L19212 31410
L19225 31397
L19238 31371
L19238 31148
" />
<path d="M19488 31240
L19488 31423
" />
<path d="M19422 31135
L19356 31332
L19527 31332
" />
</g>
<g style="fill:#000000; fill-opacity:0.0; 
stroke:#000000; stroke-width:59.0551; stroke-opacity:1; 
stroke-linecap:round; stroke-linejoin:round;">
<path d="M20528 49723
L20509 49742
L20453 49760
L20416 49760
L20359 49742
L20322 49704
L20303 49667
L20284 49592
L20284 49535
L20303 49460
L20322 49423
L20359 49385
L20416 49367
L20453 49367
L20509 49385
L20528 49404
" />
<path d="M20678 49648
L20866 49648
" />
<path d="M20641 49760
L20772 49367
L20903 49760
" />
<path d="M21034 49760
L21034 49367
L21166 49648
L21297 49367
L21297 49760
" />
<path d="M21484 49610
L21784 49610
" />
<path d="M21972 49760
L21972 49367
L22103 49648
L22234 49367
L22234 49760
" />
<path d="M22478 49535
L22440 49517
L22422 49498
L22403 49460
L22403 49442
L22422 49404
L22440 49385
L22478 49367
L22553 49367
L22590 49385
L22609 49404
L22628 49442
L22628 49460
L22609 49498
L22590 49517
L22553 49535
L22478 49535
L22440 49554
L22422 49573
L22403 49610
L22403 49685
L22422 49723
L22440 49742
L22478 49760
L22553 49760
L22590 49742
L22609 49723
L22628 49685
L22628 49610
L22609 49573
L22590 49554
L22553 49535
" />
<path d="M23022 49723
L23003 49742
L22947 49760
L22909 49760
L22853 49742
L22815 49704
L22797 49667
L22778 49592
L22778 49535
L22797 49460
L22815 49423
L22853 49385
L22909 49367
L22947 49367
L23003 49385
L23022 49404
" />
<path d="M19553 26122
L19553 25729
" />
<path d="M19778 26122
L19610 25898
" />
<path d="M19778 25729
L19553 25954
" />
<path d="M20172 26122
L20041 25935
" />
<path d="M19947 26122
L19947 25729
L20097 25729
L20134 25748
L20153 25766
L20172 25804
L20172 25860
L20153 25898
L20134 25916
L20097 25935
L19947 25935
" />
<path d="M20566 26085
L20547 26104
L20491 26122
L20453 26122
L20397 26104
L20359 26066
L20341 26029
L20322 25954
L20322 25898
L20341 25823
L20359 25785
L20397 25748
L20453 25729
L20491 25729
L20547 25748
L20566 25766
" />
<path d="M20641 26160
L20941 26160
" />
<path d="M21259 26085
L21241 26104
L21184 26122
L21147 26122
L21091 26104
L21053 26066
L21034 26029
L21016 25954
L21016 25898
L21034 25823
L21053 25785
L21091 25748
L21147 25729
L21184 25729
L21241 25748
L21259 25766
" />
<path d="M21484 26122
L21447 26104
L21428 26085
L21409 26047
L21409 25935
L21428 25898
L21447 25879
L21484 25860
L21541 25860
L21578 25879
L21597 25898
L21616 25935
L21616 26047
L21597 26085
L21578 26104
L21541 26122
L21484 26122
" />
<path d="M21784 25860
L21784 26122
" />
<path d="M21784 25898
L21803 25879
L21841 25860
L21897 25860
L21934 25879
L21953 25916
L21953 26122
" />
<path d="M22140 25860
L22140 26122
" />
<path d="M22140 25898
L22159 25879
L22197 25860
L22253 25860
L22290 25879
L22309 25916
L22309 26122
" />
<path d="M22403 26160
L22703 26160
" />
<path d="M23022 26085
L23003 26104
L22947 26122
L22909 26122
L22853 26104
L22815 26066
L22797 26029
L22778 25954
L22778 25898
L22797 25823
L22815 25785
L22853 25748
L22909 25729
L22947 25729
L23003 25748
L23022 25766
" />
<path d="M23172 26010
L23359 26010
" />
<path d="M23134 26122
L23265 25729
L23397 26122
" />
<path d="M23528 26122
L23528 25729
L23753 26122
L23753 25729
" />
<path d="M21353 27815
L21353 28134
L21372 28172
L21391 28190
L21428 28209
L21503 28209
L21541 28190
L21559 28172
L21578 28134
L21578 27815
" />
<path d="M21972 28209
L21747 28209
" />
<path d="M21859 28209
L21859 27815
L21822 27872
L21784 27909
L21747 27928
" />
<path d="M18355 31946
L18355 31908
L18374 31871
L18392 31852
L18430 31833
L18505 31814
L18598 31814
L18673 31833
L18711 31852
L18730 31871
L18748 31908
L18748 31946
L18730 31983
L18711 32002
L18673 32020
L18598 32039
L18505 32039
L18430 32020
L18392 32002
L18374 31983
L18355 31946
" />
<path d="M18711 31646
L18730 31627
L18748 31646
L18730 31664
L18711 31646
L18748 31646
" />
<path d="M18748 31252
L18748 31477
" />
<path d="M18748 31364
L18355 31364
L18411 31402
L18449 31439
L18467 31477
" />
<path d="M18486 30914
L18748 30914
" />
<path d="M18486 31083
L18692 31083
L18730 31064
L18748 31027
L18748 30971
L18730 30933
L18711 30914
" />
<path d="M18542 30596
L18542 30727
" />
<path d="M18748 30727
L18355 30727
L18355 30539
" />
</g>
<g style="fill:#000000; fill-opacity:0.0; 
stroke:#000000; stroke-width:15.748; stroke-opacity:1; 
stroke-linecap:round; stroke-linejoin:round;">
<path d="M18145 31315
L18150 31320
L18154 31334
L18154 31343
L18150 31357
L18140 31367
L18131 31371
L18112 31376
L18098 31376
L18079 31371
L18070 31367
L18061 31357
L18056 31343
L18056 31334
L18061 31320
L18065 31315
" />
<path d="M18089 31231
L18154 31231
" />
<path d="M18051 31254
L18121 31278
L18121 31217
" />
</g>
<g style="fill:#000000; fill-opacity:0.0; 
stroke:#000000; stroke-width:59.0551; stroke-opacity:1; 
stroke-linecap:round; stroke-linejoin:round;">
<path d="M19038 31607
L19075 31607
L19113 31625
L19131 31644
L19150 31682
L19169 31757
L19169 31850
L19150 31925
L19131 31963
L19113 31982
L19075 32000
L19038 32000
L19000 31982
L18982 31963
L18963 31925
L18944 31850
L18944 31757
L18963 31682
L18982 31644
L19000 31625
L19038 31607
" />
<path d="M19338 31963
L19356 31982
L19338 32000
L19319 31982
L19338 31963
L19338 32000
" />
<path d="M19731 32000
L19506 32000
" />
<path d="M19619 32000
L19619 31607
L19581 31663
L19544 31700
L19506 31719
" />
<path d="M20069 31738
L20069 32000
" />
<path d="M19900 31738
L19900 31944
L19919 31982
L19956 32000
L20013 32000
L20050 31982
L20069 31963
" />
<path d="M20388 31794
L20256 31794
" />
<path d="M20256 32000
L20256 31607
L20444 31607
" />
</g>
<g style="fill:#000000; fill-opacity:0.0; 
stroke:#000000; stroke-width:15.748; stroke-opacity:1; 
stroke-linecap:round; stroke-linejoin:round;">
<path d="M19668 32318
L19663 32323
L19649 32327
L19640 32327
L19626 32323
L19617 32313
L19612 32304
L19607 32285
L19607 32271
L19612 32252
L19617 32243
L19626 32234
L19640 32229
L19649 32229
L19663 32234
L19668 32238
" />
<path d="M19701 32229
L19767 32229
L19724 32327
" />
<g >
</g>
</g> 
</svg>
