<?xml version="1.0" standalone="no"?>
 <!DOCTYPE svg PUBLIC "-//W3C//DTD SVG 1.1//EN" 
 "http://www.w3.org/Graphics/SVG/1.1/DTD/svg11.dtd"> 
<svg xmlns="http://www.w3.org/2000/svg" version="1.1" 
    width="29.7002cm" height="21.0007cm" viewBox="0 0 116930 82680 ">
<title>SVG Picture created as RCT-X-Logger-B_SilkS.svg date 2019/09/13 06:18:06 </title>
  <desc>Picture generated by PCBNEW </desc>
<g style="fill:#000000; fill-opacity:1;stroke:#000000; stroke-opacity:1;
stroke-linecap:round; stroke-linejoin:round; "
 transform="translate(0 0) scale(1 1)">
</g>
<g style="fill:#000000; fill-opacity:0.0; 
stroke:#000000; stroke-width:-0.000393701; stroke-opacity:1; 
stroke-linecap:round; stroke-linejoin:round;">
</g>
<g style="fill:#000000; fill-opacity:0.0; 
stroke:#000000; stroke-width:78.7402; stroke-opacity:1; 
stroke-linecap:round; stroke-linejoin:round;">
<path d="M19246 28166
L19403 27941
" />
<path d="M19516 28166
L19516 27694
L19336 27694
L19291 27716
L19268 27739
L19246 27784
L19246 27851
L19268 27896
L19291 27919
L19336 27941
L19516 27941
" />
<path d="M18863 28143
L18908 28166
L18998 28166
L19043 28143
L19066 28098
L19066 27919
L19043 27874
L18998 27851
L18908 27851
L18863 27874
L18841 27919
L18841 27964
L19066 28008
" />
<path d="M18683 27851
L18571 28166
L18458 27851
" />
<path d="M18031 28166
L18301 28166
" />
<path d="M18166 28166
L18166 27694
L18211 27761
L18256 27806
L18301 27829
" />
<path d="M17829 28121
L17806 28143
L17829 28166
L17851 28143
L17829 28121
L17829 28166
" />
<path d="M17514 27694
L17469 27694
L17424 27716
L17401 27739
L17379 27784
L17356 27874
L17356 27986
L17379 28076
L17401 28121
L17424 28143
L17469 28166
L17514 28166
L17559 28143
L17581 28121
L17604 28076
L17626 27986
L17626 27874
L17604 27784
L17581 27739
L17559 27716
L17514 27694
" />
<path d="M17154 28121
L17131 28143
L17154 28166
L17176 28143
L17154 28121
L17154 28166
" />
<path d="M16839 27694
L16794 27694
L16749 27716
L16726 27739
L16704 27784
L16681 27874
L16681 27986
L16704 28076
L16726 28121
L16749 28143
L16794 28166
L16839 28166
L16884 28143
L16906 28121
L16929 28076
L16951 27986
L16951 27874
L16929 27784
L16906 27739
L16884 27716
L16839 27694
" />
</g>
<g style="fill:#000000; fill-opacity:0.0; 
stroke:#000000; stroke-width:47.2441; stroke-opacity:1; 
stroke-linecap:round; stroke-linejoin:round;">
<path d="M20472 32283
L20472 32480
" />
<path d="M20669 32283
L20472 32283
" />
<path d="M21456 32283
L21062 32283
" />
<path d="M21456 31889
L21456 32283
" />
<path d="M22047 32480
L22047 31299
" />
<path d="M20866 32480
L22047 32480
" />
<path d="M20866 32677
L20866 32480
" />
<path d="M21456 31889
L21456 31692
" />
<path d="M20669 32283
L21062 32283
" />
<path d="M20472 32677
L20472 32480
" />
<path d="M21456 31299
L21456 31692
" />
</g>
<g style="fill:#000000; fill-opacity:0.0; 
stroke:#000000; stroke-width:59.0551; stroke-opacity:1; 
stroke-linecap:round; stroke-linejoin:round;">
<path d="M26886 41805
L26856 41805
L26826 41820
L26811 41835
L26796 41865
L26781 41925
L26781 42000
L26796 42060
L26811 42090
L26826 42105
L26856 42120
L26886 42120
L26916 42105
L26931 42090
L26946 42060
L26961 42000
L26961 41925
L26946 41865
L26931 41835
L26916 41820
L26886 41805
" />
<path d="M26556 42225
L26631 42225
L26631 41775
L26556 41775
" />
<path d="M26451 41835
L26436 41820
L26406 41805
L26331 41805
L26301 41820
L26286 41835
L26271 41865
L26271 41895
L26286 41940
L26466 42120
L26271 42120
" />
<path d="M26166 42225
L26091 42225
L26091 41775
L26166 41775
" />
<path d="M25686 42090
L25671 42105
L25686 42120
L25701 42105
L25686 42090
L25686 42120
" />
<path d="M25686 41925
L25671 41940
L25686 41955
L25701 41940
L25686 41925
L25686 41955
" />
<path d="M25296 42120
L25296 41805
" />
<path d="M25296 41955
L25116 41955
" />
<path d="M25116 42120
L25116 41805
" />
<path d="M24966 42000
L24726 42000
" />
<path d="M24591 42105
L24546 42120
L24471 42120
L24441 42105
L24426 42090
L24411 42060
L24411 42030
L24426 42000
L24441 41985
L24471 41970
L24531 41955
L24561 41940
L24576 41925
L24591 41895
L24591 41865
L24576 41835
L24561 41820
L24531 41805
L24456 41805
L24411 41820
" />
<path d="M24276 42120
L24276 41805
L24201 41805
L24156 41820
L24126 41850
L24111 41880
L24096 41940
L24096 41985
L24111 42045
L24126 42075
L24156 42105
L24201 42120
L24276 42120
" />
<path d="M23976 42030
L23826 42030
" />
<path d="M24006 42120
L23901 41805
L23796 42120
" />
<path d="M26878 42337
L26848 42337
L26818 42352
L26803 42367
L26788 42397
L26773 42457
L26773 42532
L26788 42592
L26803 42622
L26818 42637
L26848 42652
L26878 42652
L26908 42637
L26923 42622
L26938 42592
L26953 42532
L26953 42457
L26938 42397
L26923 42367
L26908 42352
L26878 42337
" />
<path d="M26548 42757
L26623 42757
L26623 42307
L26548 42307
" />
<path d="M26458 42337
L26263 42337
L26368 42457
L26323 42457
L26293 42472
L26278 42487
L26263 42517
L26263 42592
L26278 42622
L26293 42637
L26323 42652
L26413 42652
L26443 42637
L26458 42622
" />
<path d="M26158 42757
L26083 42757
L26083 42307
L26158 42307
" />
<path d="M25678 42622
L25663 42637
L25678 42652
L25693 42637
L25678 42622
L25678 42652
" />
<path d="M25678 42457
L25663 42472
L25678 42487
L25693 42472
L25678 42457
L25678 42487
" />
<path d="M25288 42652
L25288 42337
" />
<path d="M25288 42487
L25108 42487
" />
<path d="M25108 42652
L25108 42337
" />
<path d="M24958 42532
L24718 42532
" />
<path d="M24583 42637
L24538 42652
L24463 42652
L24433 42637
L24418 42622
L24403 42592
L24403 42562
L24418 42532
L24433 42517
L24463 42502
L24523 42487
L24553 42472
L24568 42457
L24583 42427
L24583 42397
L24568 42367
L24553 42352
L24523 42337
L24448 42337
L24403 42352
" />
<path d="M24088 42622
L24103 42637
L24148 42652
L24178 42652
L24223 42637
L24253 42607
L24268 42577
L24283 42517
L24283 42472
L24268 42412
L24253 42382
L24223 42352
L24178 42337
L24148 42337
L24103 42352
L24088 42367
" />
<path d="M23803 42652
L23953 42652
L23953 42337
" />
</g>
<g style="fill:#000000; fill-opacity:0.0; 
stroke:#000000; stroke-width:47.2441; stroke-opacity:1; 
stroke-linecap:round; stroke-linejoin:round;">
<path d="M443023 514796
L442993 514796
L442963 514811
L442948 514826
L442933 514856
L442918 514916
L442918 514991
L442933 515050
L442948 515080
L442963 515095
L442993 515110
L443023 515110
L443053 515095
L443068 515080
L443083 515050
L443098 514991
L443098 514916
L443083 514856
L443068 514826
L443053 514811
L443023 514796
" />
<path d="M442693 515215
L442768 515215
L442768 514766
L442693 514766
" />
<path d="M442438 514901
L442438 515110
" />
<path d="M442513 514781
L442588 515005
L442393 515005
" />
<path d="M442303 515215
L442228 515215
L442228 514766
L442303 514766
" />
<path d="M441823 515080
L441808 515095
L441823 515110
L441838 515095
L441823 515080
L441823 515110
" />
<path d="M441823 514916
L441808 514931
L441823 514946
L441838 514931
L441823 514916
L441823 514946
" />
<path d="M441268 514811
L441298 514796
L441343 514796
L441388 514811
L441418 514841
L441433 514871
L441448 514931
L441448 514976
L441433 515035
L441418 515065
L441388 515095
L441343 515110
L441313 515110
L441268 515095
L441253 515080
L441253 514976
L441313 514976
" />
<path d="M441118 515110
L441118 514796
L440938 515110
L440938 514796
" />
<path d="M440803 515095
L440758 515110
L440683 515110
L440653 515095
L440638 515080
L440623 515050
L440623 515020
L440638 514991
L440653 514976
L440683 514961
L440743 514946
L440773 514931
L440788 514916
L440803 514886
L440803 514856
L440788 514826
L440773 514811
L440743 514796
L440668 514796
L440623 514811
" />
<path d="M440503 515095
L440458 515110
L440383 515110
L440353 515095
L440338 515080
L440323 515050
L440323 515020
L440338 514991
L440353 514976
L440383 514961
L440443 514946
L440473 514931
L440488 514916
L440503 514886
L440503 514856
L440488 514826
L440473 514811
L440443 514796
L440368 514796
L440323 514811
" />
<path d="M440188 514991
L439948 514991
" />
<path d="M439843 514796
L439663 514796
" />
<path d="M439753 515110
L439753 514796
" />
<path d="M439588 514796
L439378 515110
" />
<path d="M439378 514796
L439588 515110
" />
<path d="M439258 515110
L439258 514796
L439183 514796
L439138 514811
L439108 514841
L439093 514871
L439078 514931
L439078 514976
L439093 515035
L439108 515065
L439138 515095
L439183 515110
L439258 515110
" />
<path d="M443023 515315
L442993 515315
L442963 515330
L442948 515345
L442933 515375
L442918 515435
L442918 515510
L442933 515570
L442948 515600
L442963 515615
L442993 515630
L443023 515630
L443053 515615
L443068 515600
L443083 515570
L443098 515510
L443098 515435
L443083 515375
L443068 515345
L443053 515330
L443023 515315
" />
<path d="M442693 515735
L442768 515735
L442768 515285
L442693 515285
" />
<path d="M442423 515315
L442573 515315
L442588 515465
L442573 515450
L442543 515435
L442468 515435
L442438 515450
L442423 515465
L442408 515495
L442408 515570
L442423 515600
L442438 515615
L442468 515630
L442543 515630
L442573 515615
L442588 515600
" />
<path d="M442303 515735
L442228 515735
L442228 515285
L442303 515285
" />
<path d="M441823 515600
L441808 515615
L441823 515630
L441838 515615
L441823 515600
L441823 515630
" />
<path d="M441823 515435
L441808 515450
L441823 515465
L441838 515450
L441823 515435
L441823 515465
" />
<path d="M441268 515330
L441298 515315
L441343 515315
L441388 515330
L441418 515360
L441433 515390
L441448 515450
L441448 515495
L441433 515555
L441418 515585
L441388 515615
L441343 515630
L441313 515630
L441268 515615
L441253 515600
L441253 515495
L441313 515495
" />
<path d="M441118 515630
L441118 515315
L440938 515630
L440938 515315
" />
<path d="M440803 515615
L440758 515630
L440683 515630
L440653 515615
L440638 515600
L440623 515570
L440623 515540
L440638 515510
L440653 515495
L440683 515480
L440743 515465
L440773 515450
L440788 515435
L440803 515405
L440803 515375
L440788 515345
L440773 515330
L440743 515315
L440668 515315
L440623 515330
" />
<path d="M440503 515615
L440458 515630
L440383 515630
L440353 515615
L440338 515600
L440323 515570
L440323 515540
L440338 515510
L440353 515495
L440383 515480
L440443 515465
L440473 515450
L440488 515435
L440503 515405
L440503 515375
L440488 515345
L440473 515330
L440443 515315
L440368 515315
L440323 515330
" />
<path d="M440188 515510
L439948 515510
" />
<path d="M439618 515630
L439723 515480
" />
<path d="M439798 515630
L439798 515315
L439678 515315
L439648 515330
L439633 515345
L439618 515375
L439618 515420
L439633 515450
L439648 515465
L439678 515480
L439798 515480
" />
<path d="M439513 515315
L439303 515630
" />
<path d="M439303 515315
L439513 515630
" />
<path d="M439183 515630
L439183 515315
L439108 515315
L439063 515330
L439033 515360
L439018 515390
L439003 515450
L439003 515495
L439018 515555
L439033 515585
L439063 515615
L439108 515630
L439183 515630
" />
<path d="M443023 515835
L442993 515835
L442963 515850
L442948 515865
L442933 515895
L442918 515955
L442918 516030
L442933 516090
L442948 516120
L442963 516135
L442993 516150
L443023 516150
L443053 516135
L443068 516120
L443083 516090
L443098 516030
L443098 515955
L443083 515895
L443068 515865
L443053 515850
L443023 515835
" />
<path d="M442693 516255
L442768 516255
L442768 515805
L442693 515805
" />
<path d="M442438 515835
L442498 515835
L442528 515850
L442543 515865
L442573 515910
L442588 515970
L442588 516090
L442573 516120
L442558 516135
L442528 516150
L442468 516150
L442438 516135
L442423 516120
L442408 516090
L442408 516015
L442423 515985
L442438 515970
L442468 515955
L442528 515955
L442558 515970
L442573 515985
L442588 516015
" />
<path d="M442303 516255
L442228 516255
L442228 515805
L442303 515805
" />
<path d="M441823 516120
L441808 516135
L441823 516150
L441838 516135
L441823 516120
L441823 516150
" />
<path d="M441823 515955
L441808 515970
L441823 515985
L441838 515970
L441823 515955
L441823 515985
" />
<path d="M441268 515850
L441298 515835
L441343 515835
L441388 515850
L441418 515880
L441433 515910
L441448 515970
L441448 516015
L441433 516075
L441418 516105
L441388 516135
L441343 516150
L441313 516150
L441268 516135
L441253 516120
L441253 516015
L441313 516015
" />
<path d="M441118 516150
L441118 515835
L440938 516150
L440938 515835
" />
<path d="M440803 516135
L440758 516150
L440683 516150
L440653 516135
L440638 516120
L440623 516090
L440623 516060
L440638 516030
L440653 516015
L440683 516000
L440743 515985
L440773 515970
L440788 515955
L440803 515925
L440803 515895
L440788 515865
L440773 515850
L440743 515835
L440668 515835
L440623 515850
" />
<path d="M440503 516135
L440458 516150
L440383 516150
L440353 516135
L440338 516120
L440323 516090
L440323 516060
L440338 516030
L440353 516015
L440383 516000
L440443 515985
L440473 515970
L440488 515955
L440503 515925
L440503 515895
L440488 515865
L440473 515850
L440443 515835
L440368 515835
L440323 515850
" />
<path d="M440188 516030
L439948 516030
" />
<path d="M439873 515719
L439558 515719
" />
<path d="M439618 516150
L439723 516000
" />
<path d="M439798 516150
L439798 515835
L439678 515835
L439648 515850
L439633 515865
L439618 515895
L439618 515940
L439633 515970
L439648 515985
L439678 516000
L439798 516000
" />
<path d="M439558 515719
L439273 515719
" />
<path d="M439483 515985
L439378 515985
" />
<path d="M439333 516150
L439483 516150
L439483 515835
L439333 515835
" />
<path d="M439273 515719
L438973 515719
" />
<path d="M439213 516135
L439168 516150
L439093 516150
L439063 516135
L439048 516120
L439033 516090
L439033 516060
L439048 516030
L439063 516015
L439093 516000
L439153 515985
L439183 515970
L439198 515955
L439213 515925
L439213 515895
L439198 515865
L439183 515850
L439153 515835
L439078 515835
L439033 515850
" />
<path d="M438973 515719
L438688 515719
" />
<path d="M438898 515985
L438793 515985
" />
<path d="M438748 516150
L438898 516150
L438898 515835
L438748 515835
" />
<path d="M438688 515719
L438448 515719
" />
<path d="M438658 515835
L438478 515835
" />
<path d="M438568 516150
L438568 515835
" />
<path d="M443023 516355
L442993 516355
L442963 516370
L442948 516385
L442933 516415
L442918 516475
L442918 516550
L442933 516610
L442948 516640
L442963 516655
L442993 516670
L443023 516670
L443053 516655
L443068 516640
L443083 516610
L443098 516550
L443098 516475
L443083 516415
L443068 516385
L443053 516370
L443023 516355
" />
<path d="M442693 516775
L442768 516775
L442768 516325
L442693 516325
" />
<path d="M442603 516355
L442393 516355
L442528 516670
" />
<path d="M442303 516775
L442228 516775
L442228 516325
L442303 516325
" />
<path d="M441823 516640
L441808 516655
L441823 516670
L441838 516655
L441823 516640
L441823 516670
" />
<path d="M441823 516475
L441808 516490
L441823 516505
L441838 516490
L441823 516475
L441823 516505
" />
<path d="M441268 516370
L441298 516355
L441343 516355
L441388 516370
L441418 516400
L441433 516430
L441448 516490
L441448 516535
L441433 516595
L441418 516625
L441388 516655
L441343 516670
L441313 516670
L441268 516655
L441253 516640
L441253 516535
L441313 516535
" />
<path d="M441118 516670
L441118 516355
L440938 516670
L440938 516355
" />
<path d="M440803 516655
L440758 516670
L440683 516670
L440653 516655
L440638 516640
L440623 516610
L440623 516580
L440638 516550
L440653 516535
L440683 516520
L440743 516505
L440773 516490
L440788 516475
L440803 516445
L440803 516415
L440788 516385
L440773 516370
L440743 516355
L440668 516355
L440623 516370
" />
<path d="M440503 516655
L440458 516670
L440383 516670
L440353 516655
L440338 516640
L440323 516610
L440323 516580
L440338 516550
L440353 516535
L440383 516520
L440443 516505
L440473 516490
L440488 516475
L440503 516445
L440503 516415
L440488 516385
L440473 516370
L440443 516355
L440368 516355
L440323 516370
" />
<path d="M440188 516550
L439948 516550
" />
<path d="M439633 516670
L439813 516670
" />
<path d="M439723 516670
L439723 516355
L439753 516400
L439783 516430
L439813 516445
" />
<path d="M439498 516670
L439498 516355
L439378 516355
L439348 516370
L439333 516385
L439318 516415
L439318 516460
L439333 516490
L439348 516505
L439378 516520
L439498 516520
" />
<path d="M439183 516670
L439183 516355
L439063 516355
L439033 516370
L439018 516385
L439003 516415
L439003 516460
L439018 516490
L439033 516505
L439063 516520
L439183 516520
" />
<path d="M438883 516655
L438838 516670
L438763 516670
L438733 516655
L438718 516640
L438703 516610
L438703 516580
L438718 516550
L438733 516535
L438763 516520
L438823 516505
L438853 516490
L438868 516475
L438883 516445
L438883 516415
L438868 516385
L438853 516370
L438823 516355
L438748 516355
L438703 516370
" />
<path d="M442918 517709
L443098 517709
" />
<path d="M443008 517709
L443008 517394
L443038 517439
L443068 517469
L443098 517484
" />
<path d="M442693 517814
L442768 517814
L442768 517364
L442693 517364
" />
<path d="M442588 517424
L442573 517409
L442543 517394
L442468 517394
L442438 517409
L442423 517424
L442408 517454
L442408 517484
L442423 517529
L442603 517709
L442408 517709
" />
<path d="M442303 517814
L442228 517814
L442228 517364
L442303 517364
" />
<path d="M441823 517679
L441808 517694
L441823 517709
L441838 517694
L441823 517679
L441823 517709
" />
<path d="M441823 517514
L441808 517529
L441823 517544
L441838 517529
L441823 517514
L441823 517544
" />
<path d="M441328 517544
L441433 517544
" />
<path d="M441433 517709
L441433 517394
L441283 517394
" />
<path d="M441118 517709
L441148 517694
L441163 517664
L441163 517394
" />
<path d="M440863 517709
L440863 517544
L440878 517514
L440908 517499
L440968 517499
L440998 517514
" />
<path d="M440863 517694
L440893 517709
L440968 517709
L440998 517694
L441013 517664
L441013 517634
L440998 517604
L440968 517589
L440893 517589
L440863 517574
" />
<path d="M440728 517694
L440698 517709
L440638 517709
L440608 517694
L440593 517664
L440593 517649
L440608 517619
L440638 517604
L440683 517604
L440713 517589
L440728 517559
L440728 517544
L440713 517514
L440683 517499
L440638 517499
L440608 517514
" />
<path d="M440458 517709
L440458 517394
" />
<path d="M440323 517709
L440323 517544
L440338 517514
L440368 517499
L440413 517499
L440443 517514
L440458 517529
" />
<path d="M440173 517589
L439933 517589
" />
<path d="M439798 517694
L439753 517709
L439678 517709
L439648 517694
L439633 517679
L439618 517649
L439618 517619
L439633 517589
L439648 517574
L439678 517559
L439738 517544
L439768 517529
L439783 517514
L439798 517484
L439798 517454
L439783 517424
L439768 517409
L439738 517394
L439663 517394
L439618 517409
" />
<path d="M439303 517679
L439318 517694
L439363 517709
L439393 517709
L439438 517694
L439468 517664
L439483 517634
L439498 517574
L439498 517529
L439483 517469
L439468 517439
L439438 517409
L439393 517394
L439363 517394
L439318 517409
L439303 517424
" />
<path d="M439018 517709
L439168 517709
L439168 517394
" />
<path d="M438913 517709
L438913 517394
" />
<path d="M438733 517709
L438868 517529
" />
<path d="M438733 517394
L438913 517574
" />
<path d="M442918 518229
L443098 518229
" />
<path d="M443008 518229
L443008 517914
L443038 517959
L443068 517989
L443098 518004
" />
<path d="M442693 518334
L442768 518334
L442768 517884
L442693 517884
" />
<path d="M442603 517914
L442408 517914
L442513 518034
L442468 518034
L442438 518049
L442423 518064
L442408 518094
L442408 518169
L442423 518199
L442438 518214
L442468 518229
L442558 518229
L442588 518214
L442603 518199
" />
<path d="M442303 518334
L442228 518334
L442228 517884
L442303 517884
" />
<path d="M441823 518199
L441808 518214
L441823 518229
L441838 518214
L441823 518199
L441823 518229
" />
<path d="M441823 518034
L441808 518049
L441823 518064
L441838 518049
L441823 518034
L441823 518064
" />
<path d="M441328 518064
L441433 518064
" />
<path d="M441433 518229
L441433 517914
L441283 517914
" />
<path d="M441118 518229
L441148 518214
L441163 518184
L441163 517914
" />
<path d="M440863 518229
L440863 518064
L440878 518034
L440908 518019
L440968 518019
L440998 518034
" />
<path d="M440863 518214
L440893 518229
L440968 518229
L440998 518214
L441013 518184
L441013 518154
L440998 518124
L440968 518109
L440893 518109
L440863 518094
" />
<path d="M440728 518214
L440698 518229
L440638 518229
L440608 518214
L440593 518184
L440593 518169
L440608 518139
L440638 518124
L440683 518124
L440713 518109
L440728 518079
L440728 518064
L440713 518034
L440683 518019
L440638 518019
L440608 518034
" />
<path d="M440458 518229
L440458 517914
" />
<path d="M440323 518229
L440323 518064
L440338 518034
L440368 518019
L440413 518019
L440443 518034
L440458 518049
" />
<path d="M440173 518109
L439933 518109
" />
<path d="M439783 518229
L439783 517914
L439678 518139
L439573 517914
L439573 518229
" />
<path d="M439363 517914
L439303 517914
L439273 517929
L439243 517959
L439228 518019
L439228 518124
L439243 518184
L439273 518214
L439303 518229
L439363 518229
L439393 518214
L439423 518184
L439438 518124
L439438 518019
L439423 517959
L439393 517929
L439363 517914
" />
<path d="M439108 518214
L439063 518229
L438988 518229
L438958 518214
L438943 518199
L438928 518169
L438928 518139
L438943 518109
L438958 518094
L438988 518079
L439048 518064
L439078 518049
L439093 518034
L439108 518004
L439108 517974
L439093 517944
L439078 517929
L439048 517914
L438973 517914
L438928 517929
" />
<path d="M438793 518229
L438793 517914
" />
<path d="M442918 518748
L443098 518748
" />
<path d="M443008 518748
L443008 518433
L443038 518478
L443068 518508
L443098 518523
" />
<path d="M442693 518853
L442768 518853
L442768 518403
L442693 518403
" />
<path d="M442438 518538
L442438 518748
" />
<path d="M442513 518418
L442588 518643
L442393 518643
" />
<path d="M442303 518853
L442228 518853
L442228 518403
L442303 518403
" />
<path d="M441823 518718
L441808 518733
L441823 518748
L441838 518733
L441823 518718
L441823 518748
" />
<path d="M441823 518553
L441808 518568
L441823 518583
L441838 518568
L441823 518553
L441823 518583
" />
<path d="M441328 518583
L441433 518583
" />
<path d="M441433 518748
L441433 518433
L441283 518433
" />
<path d="M441118 518748
L441148 518733
L441163 518703
L441163 518433
" />
<path d="M440863 518748
L440863 518583
L440878 518553
L440908 518538
L440968 518538
L440998 518553
" />
<path d="M440863 518733
L440893 518748
L440968 518748
L440998 518733
L441013 518703
L441013 518673
L440998 518643
L440968 518628
L440893 518628
L440863 518613
" />
<path d="M440728 518733
L440698 518748
L440638 518748
L440608 518733
L440593 518703
L440593 518688
L440608 518658
L440638 518643
L440683 518643
L440713 518628
L440728 518598
L440728 518583
L440713 518553
L440683 518538
L440638 518538
L440608 518553
" />
<path d="M440458 518748
L440458 518433
" />
<path d="M440323 518748
L440323 518583
L440338 518553
L440368 518538
L440413 518538
L440443 518553
L440458 518568
" />
<path d="M440173 518628
L439933 518628
" />
<path d="M439783 518748
L439783 518433
L439678 518658
L439573 518433
L439573 518748
" />
<path d="M439423 518748
L439423 518433
" />
<path d="M439288 518733
L439243 518748
L439168 518748
L439138 518733
L439123 518718
L439108 518688
L439108 518658
L439123 518628
L439138 518613
L439168 518598
L439228 518583
L439258 518568
L439273 518553
L439288 518523
L439288 518493
L439273 518463
L439258 518448
L439228 518433
L439153 518433
L439108 518448
" />
<path d="M438913 518433
L438853 518433
L438823 518448
L438793 518478
L438778 518538
L438778 518643
L438793 518703
L438823 518733
L438853 518748
L438913 518748
L438943 518733
L438973 518703
L438988 518643
L438988 518538
L438973 518478
L438943 518448
L438913 518433
" />
<path d="M442918 519268
L443098 519268
" />
<path d="M443008 519268
L443008 518953
L443038 518998
L443068 519028
L443098 519043
" />
<path d="M442693 519373
L442768 519373
L442768 518923
L442693 518923
" />
<path d="M442423 518953
L442573 518953
L442588 519103
L442573 519088
L442543 519073
L442468 519073
L442438 519088
L442423 519103
L442408 519133
L442408 519208
L442423 519238
L442438 519253
L442468 519268
L442543 519268
L442573 519253
L442588 519238
" />
<path d="M442303 519373
L442228 519373
L442228 518923
L442303 518923
" />
<path d="M441823 519238
L441808 519253
L441823 519268
L441838 519253
L441823 519238
L441823 519268
" />
<path d="M441823 519073
L441808 519088
L441823 519103
L441838 519088
L441823 519073
L441823 519103
" />
<path d="M441328 519103
L441433 519103
" />
<path d="M441433 519268
L441433 518953
L441283 518953
" />
<path d="M441118 519268
L441148 519253
L441163 519223
L441163 518953
" />
<path d="M440863 519268
L440863 519103
L440878 519073
L440908 519058
L440968 519058
L440998 519073
" />
<path d="M440863 519253
L440893 519268
L440968 519268
L440998 519253
L441013 519223
L441013 519193
L440998 519163
L440968 519148
L440893 519148
L440863 519133
" />
<path d="M440728 519253
L440698 519268
L440638 519268
L440608 519253
L440593 519223
L440593 519208
L440608 519178
L440638 519163
L440683 519163
L440713 519148
L440728 519118
L440728 519103
L440713 519073
L440683 519058
L440638 519058
L440608 519073
" />
<path d="M440458 519268
L440458 518953
" />
<path d="M440323 519268
L440323 519103
L440338 519073
L440368 519058
L440413 519058
L440443 519073
L440458 519088
" />
<path d="M440173 519148
L439933 519148
" />
<path d="M439858 518837
L439543 518837
" />
<path d="M439603 519238
L439618 519253
L439663 519268
L439693 519268
L439738 519253
L439768 519223
L439783 519193
L439798 519133
L439798 519088
L439783 519028
L439768 518998
L439738 518968
L439693 518953
L439663 518953
L439618 518968
L439603 518983
" />
<path d="M439543 518837
L439243 518837
" />
<path d="M439483 519253
L439438 519268
L439363 519268
L439333 519253
L439318 519238
L439303 519208
L439303 519178
L439318 519148
L439333 519133
L439363 519118
L439423 519103
L439453 519088
L439468 519073
L439483 519043
L439483 519013
L439468 518983
L439453 518968
L439423 518953
L439348 518953
L439303 518968
" />
<path d="M443098 520022
L443083 520007
L443053 519992
L442978 519992
L442948 520007
L442933 520022
L442918 520052
L442918 520082
L442933 520127
L443113 520307
L442918 520307
" />
<path d="M442693 520412
L442768 520412
L442768 519962
L442693 519962
" />
<path d="M442513 519992
L442483 519992
L442453 520007
L442438 520022
L442423 520052
L442408 520112
L442408 520187
L442423 520247
L442438 520277
L442453 520292
L442483 520307
L442513 520307
L442543 520292
L442558 520277
L442573 520247
L442588 520187
L442588 520112
L442573 520052
L442558 520022
L442543 520007
L442513 519992
" />
<path d="M442303 520412
L442228 520412
L442228 519962
L442303 519962
" />
<path d="M441823 520277
L441808 520292
L441823 520307
L441838 520292
L441823 520277
L441823 520307
" />
<path d="M441823 520112
L441808 520127
L441823 520142
L441838 520127
L441823 520112
L441823 520142
" />
<path d="M441433 520307
L441433 519992
L441313 519992
L441283 520007
L441268 520022
L441253 520052
L441253 520097
L441268 520127
L441283 520142
L441313 520157
L441433 520157
" />
<path d="M441163 519992
L440983 519992
" />
<path d="M441073 520307
L441073 519992
" />
<path d="M440878 520187
L440638 520187
" />
<path d="M440503 520292
L440458 520307
L440383 520307
L440353 520292
L440338 520277
L440323 520247
L440323 520217
L440338 520187
L440353 520172
L440383 520157
L440443 520142
L440473 520127
L440488 520112
L440503 520082
L440503 520052
L440488 520022
L440473 520007
L440443 519992
L440368 519992
L440323 520007
" />
<path d="M440008 520277
L440023 520292
L440068 520307
L440098 520307
L440143 520292
L440173 520262
L440188 520232
L440203 520172
L440203 520127
L440188 520067
L440173 520037
L440143 520007
L440098 519992
L440068 519992
L440023 520007
L440008 520022
" />
<path d="M439723 520307
L439873 520307
L439873 519992
" />
<path d="M439618 520307
L439618 519992
" />
<path d="M439438 520307
L439573 520127
" />
<path d="M439438 519992
L439618 520172
" />
<path d="M443098 520542
L443083 520527
L443053 520512
L442978 520512
L442948 520527
L442933 520542
L442918 520572
L442918 520602
L442933 520647
L443113 520827
L442918 520827
" />
<path d="M442693 520932
L442768 520932
L442768 520482
L442693 520482
" />
<path d="M442408 520827
L442588 520827
" />
<path d="M442498 520827
L442498 520512
L442528 520557
L442558 520587
L442588 520602
" />
<path d="M442303 520932
L442228 520932
L442228 520482
L442303 520482
" />
<path d="M441823 520797
L441808 520812
L441823 520827
L441838 520812
L441823 520797
L441823 520827
" />
<path d="M441823 520632
L441808 520647
L441823 520662
L441838 520647
L441823 520632
L441823 520662
" />
<path d="M441433 520827
L441433 520512
L441313 520512
L441283 520527
L441268 520542
L441253 520572
L441253 520617
L441268 520647
L441283 520662
L441313 520677
L441433 520677
" />
<path d="M441163 520512
L440983 520512
" />
<path d="M441073 520827
L441073 520512
" />
<path d="M440878 520707
L440638 520707
" />
<path d="M440488 520827
L440488 520512
L440383 520737
L440278 520512
L440278 520827
" />
<path d="M440068 520512
L440008 520512
L439978 520527
L439948 520557
L439933 520617
L439933 520722
L439948 520782
L439978 520812
L440008 520827
L440068 520827
L440098 520812
L440128 520782
L440143 520722
L440143 520617
L440128 520557
L440098 520527
L440068 520512
" />
<path d="M439813 520812
L439768 520827
L439693 520827
L439663 520812
L439648 520797
L439633 520767
L439633 520737
L439648 520707
L439663 520692
L439693 520677
L439753 520662
L439783 520647
L439798 520632
L439813 520602
L439813 520572
L439798 520542
L439783 520527
L439753 520512
L439678 520512
L439633 520527
" />
<path d="M439498 520827
L439498 520512
" />
<path d="M443098 521062
L443083 521047
L443053 521032
L442978 521032
L442948 521047
L442933 521062
L442918 521092
L442918 521122
L442933 521167
L443113 521347
L442918 521347
" />
<path d="M442693 521452
L442768 521452
L442768 521002
L442693 521002
" />
<path d="M442588 521062
L442573 521047
L442543 521032
L442468 521032
L442438 521047
L442423 521062
L442408 521092
L442408 521122
L442423 521167
L442603 521347
L442408 521347
" />
<path d="M442303 521452
L442228 521452
L442228 521002
L442303 521002
" />
<path d="M441823 521317
L441808 521332
L441823 521347
L441838 521332
L441823 521317
L441823 521347
" />
<path d="M441823 521152
L441808 521167
L441823 521182
L441838 521167
L441823 521152
L441823 521182
" />
<path d="M441433 521347
L441433 521032
L441313 521032
L441283 521047
L441268 521062
L441253 521092
L441253 521137
L441268 521167
L441283 521182
L441313 521197
L441433 521197
" />
<path d="M441163 521032
L440983 521032
" />
<path d="M441073 521347
L441073 521032
" />
<path d="M440878 521227
L440638 521227
" />
<path d="M440488 521347
L440488 521032
L440383 521257
L440278 521032
L440278 521347
" />
<path d="M440128 521347
L440128 521032
" />
<path d="M439993 521332
L439948 521347
L439873 521347
L439843 521332
L439828 521317
L439813 521287
L439813 521257
L439828 521227
L439843 521212
L439873 521197
L439933 521182
L439963 521167
L439978 521152
L439993 521122
L439993 521092
L439978 521062
L439963 521047
L439933 521032
L439858 521032
L439813 521047
" />
<path d="M439618 521032
L439558 521032
L439528 521047
L439498 521077
L439483 521137
L439483 521242
L439498 521302
L439528 521332
L439558 521347
L439618 521347
L439648 521332
L439678 521302
L439693 521242
L439693 521137
L439678 521077
L439648 521047
L439618 521032
" />
<path d="M443098 521581
L443083 521566
L443053 521551
L442978 521551
L442948 521566
L442933 521581
L442918 521611
L442918 521641
L442933 521686
L443113 521866
L442918 521866
" />
<path d="M442693 521971
L442768 521971
L442768 521521
L442693 521521
" />
<path d="M442603 521551
L442408 521551
L442513 521671
L442468 521671
L442438 521686
L442423 521701
L442408 521731
L442408 521806
L442423 521836
L442438 521851
L442468 521866
L442558 521866
L442588 521851
L442603 521836
" />
<path d="M442303 521971
L442228 521971
L442228 521521
L442303 521521
" />
<path d="M441823 521836
L441808 521851
L441823 521866
L441838 521851
L441823 521836
L441823 521866
" />
<path d="M441823 521671
L441808 521686
L441823 521701
L441838 521686
L441823 521671
L441823 521701
" />
<path d="M441433 521866
L441433 521551
L441313 521551
L441283 521566
L441268 521581
L441253 521611
L441253 521656
L441268 521686
L441283 521701
L441313 521716
L441433 521716
" />
<path d="M441163 521551
L440983 521551
" />
<path d="M441073 521866
L441073 521551
" />
<path d="M440878 521746
L440638 521746
" />
<path d="M440563 521436
L440248 521436
" />
<path d="M440308 521836
L440323 521851
L440368 521866
L440398 521866
L440443 521851
L440473 521821
L440488 521791
L440503 521731
L440503 521686
L440488 521626
L440473 521596
L440443 521566
L440398 521551
L440368 521551
L440323 521566
L440308 521581
" />
<path d="M440248 521436
L439948 521436
" />
<path d="M440188 521851
L440143 521866
L440068 521866
L440038 521851
L440023 521836
L440008 521806
L440008 521776
L440023 521746
L440038 521731
L440068 521716
L440128 521701
L440158 521686
L440173 521671
L440188 521641
L440188 521611
L440173 521581
L440158 521566
L440128 521551
L440053 521551
L440008 521566
" />
<path d="M22704 41755
L22689 41740
L22659 41725
L22584 41725
L22554 41740
L22539 41755
L22524 41785
L22524 41815
L22539 41860
L22719 42040
L22524 42040
" />
<path d="M22299 42145
L22374 42145
L22374 41695
L22299 41695
" />
<path d="M22119 41725
L22089 41725
L22059 41740
L22044 41755
L22029 41785
L22014 41845
L22014 41920
L22029 41980
L22044 42010
L22059 42025
L22089 42040
L22119 42040
L22149 42025
L22164 42010
L22179 41980
L22194 41920
L22194 41845
L22179 41785
L22164 41755
L22149 41740
L22119 41725
" />
<path d="M21909 42145
L21834 42145
L21834 41695
L21909 41695
" />
<path d="M21429 42010
L21414 42025
L21429 42040
L21444 42025
L21429 42010
L21429 42040
" />
<path d="M21429 41845
L21414 41860
L21429 41875
L21444 41860
L21429 41845
L21429 41875
" />
<path d="M21039 42040
L21039 41725
L20919 41725
L20889 41740
L20874 41755
L20859 41785
L20859 41830
L20874 41860
L20889 41875
L20919 41890
L21039 41890
" />
<path d="M20769 41725
L20589 41725
" />
<path d="M20679 42040
L20679 41725
" />
<path d="M20484 41920
L20244 41920
" />
<path d="M20109 42025
L20064 42040
L19989 42040
L19959 42025
L19944 42010
L19929 41980
L19929 41950
L19944 41920
L19959 41905
L19989 41890
L20049 41875
L20079 41860
L20094 41845
L20109 41815
L20109 41785
L20094 41755
L20079 41740
L20049 41725
L19974 41725
L19929 41740
" />
<path d="M19614 42010
L19629 42025
L19674 42040
L19704 42040
L19749 42025
L19779 41995
L19794 41965
L19809 41905
L19809 41860
L19794 41800
L19779 41770
L19749 41740
L19704 41725
L19674 41725
L19629 41740
L19614 41755
" />
<path d="M19329 42040
L19479 42040
L19479 41725
" />
<path d="M19225 42040
L19225 41725
" />
<path d="M19045 42040
L19180 41860
" />
<path d="M19045 41725
L19225 41905
" />
<path d="M22704 42274
L22689 42259
L22659 42244
L22584 42244
L22554 42259
L22539 42274
L22524 42304
L22524 42334
L22539 42379
L22719 42559
L22524 42559
" />
<path d="M22299 42664
L22374 42664
L22374 42214
L22299 42214
" />
<path d="M22014 42559
L22194 42559
" />
<path d="M22104 42559
L22104 42244
L22134 42289
L22164 42319
L22194 42334
" />
<path d="M21909 42664
L21834 42664
L21834 42214
L21909 42214
" />
<path d="M21429 42529
L21414 42544
L21429 42559
L21444 42544
L21429 42529
L21429 42559
" />
<path d="M21429 42364
L21414 42379
L21429 42394
L21444 42379
L21429 42364
L21429 42394
" />
<path d="M21039 42559
L21039 42244
L20919 42244
L20889 42259
L20874 42274
L20859 42304
L20859 42349
L20874 42379
L20889 42394
L20919 42409
L21039 42409
" />
<path d="M20769 42244
L20589 42244
" />
<path d="M20679 42559
L20679 42244
" />
<path d="M20484 42439
L20244 42439
" />
<path d="M20094 42559
L20094 42244
L19989 42469
L19884 42244
L19884 42559
" />
<path d="M19674 42244
L19614 42244
L19584 42259
L19554 42289
L19539 42349
L19539 42454
L19554 42514
L19584 42544
L19614 42559
L19674 42559
L19704 42544
L19734 42514
L19749 42454
L19749 42349
L19734 42289
L19704 42259
L19674 42244
" />
<path d="M19419 42544
L19374 42559
L19300 42559
L19270 42544
L19255 42529
L19240 42499
L19240 42469
L19255 42439
L19270 42424
L19300 42409
L19359 42394
L19389 42379
L19404 42364
L19419 42334
L19419 42304
L19404 42274
L19389 42259
L19359 42244
L19285 42244
L19240 42259
" />
<path d="M19105 42559
L19105 42244
" />
<path d="M22704 42794
L22689 42779
L22659 42764
L22584 42764
L22554 42779
L22539 42794
L22524 42824
L22524 42854
L22539 42899
L22719 43079
L22524 43079
" />
<path d="M22299 43184
L22374 43184
L22374 42734
L22299 42734
" />
<path d="M22194 42794
L22179 42779
L22149 42764
L22074 42764
L22044 42779
L22029 42794
L22014 42824
L22014 42854
L22029 42899
L22209 43079
L22014 43079
" />
<path d="M21909 43184
L21834 43184
L21834 42734
L21909 42734
" />
<path d="M21429 43049
L21414 43064
L21429 43079
L21444 43064
L21429 43049
L21429 43079
" />
<path d="M21429 42884
L21414 42899
L21429 42914
L21444 42899
L21429 42884
L21429 42914
" />
<path d="M21039 43079
L21039 42764
L20919 42764
L20889 42779
L20874 42794
L20859 42824
L20859 42869
L20874 42899
L20889 42914
L20919 42929
L21039 42929
" />
<path d="M20769 42764
L20589 42764
" />
<path d="M20679 43079
L20679 42764
" />
<path d="M20484 42959
L20244 42959
" />
<path d="M20094 43079
L20094 42764
L19989 42989
L19884 42764
L19884 43079
" />
<path d="M19734 43079
L19734 42764
" />
<path d="M19599 43064
L19554 43079
L19479 43079
L19449 43064
L19434 43049
L19419 43019
L19419 42989
L19434 42959
L19449 42944
L19479 42929
L19539 42914
L19569 42899
L19584 42884
L19599 42854
L19599 42824
L19584 42794
L19569 42779
L19539 42764
L19464 42764
L19419 42779
" />
<path d="M19225 42764
L19165 42764
L19135 42779
L19105 42809
L19090 42869
L19090 42974
L19105 43034
L19135 43064
L19165 43079
L19225 43079
L19255 43064
L19285 43034
L19300 42974
L19300 42869
L19285 42809
L19255 42779
L19225 42764
" />
<path d="M22704 43314
L22689 43299
L22659 43284
L22584 43284
L22554 43299
L22539 43314
L22524 43344
L22524 43374
L22539 43419
L22719 43599
L22524 43599
" />
<path d="M22299 43704
L22374 43704
L22374 43254
L22299 43254
" />
<path d="M22209 43284
L22014 43284
L22119 43404
L22074 43404
L22044 43419
L22029 43434
L22014 43464
L22014 43539
L22029 43569
L22044 43584
L22074 43599
L22164 43599
L22194 43584
L22209 43569
" />
<path d="M21909 43704
L21834 43704
L21834 43254
L21909 43254
" />
<path d="M21429 43569
L21414 43584
L21429 43599
L21444 43584
L21429 43569
L21429 43599
" />
<path d="M21429 43404
L21414 43419
L21429 43434
L21444 43419
L21429 43404
L21429 43434
" />
<path d="M21039 43599
L21039 43284
L20919 43284
L20889 43299
L20874 43314
L20859 43344
L20859 43389
L20874 43419
L20889 43434
L20919 43449
L21039 43449
" />
<path d="M20769 43284
L20589 43284
" />
<path d="M20679 43599
L20679 43284
" />
<path d="M20484 43479
L20244 43479
" />
<path d="M20169 43168
L19854 43168
" />
<path d="M19914 43569
L19929 43584
L19974 43599
L20004 43599
L20049 43584
L20079 43554
L20094 43524
L20109 43464
L20109 43419
L20094 43359
L20079 43329
L20049 43299
L20004 43284
L19974 43284
L19929 43299
L19914 43314
" />
<path d="M19854 43168
L19554 43168
" />
<path d="M19794 43584
L19749 43599
L19674 43599
L19644 43584
L19629 43569
L19614 43539
L19614 43509
L19629 43479
L19644 43464
L19674 43449
L19734 43434
L19764 43419
L19779 43404
L19794 43374
L19794 43344
L19779 43314
L19764 43299
L19734 43284
L19659 43284
L19614 43299
" />
</g>
<g style="fill:#000000; fill-opacity:1.0; 
stroke:#000000; stroke-width:3.93701; stroke-opacity:1; 
stroke-linecap:round; stroke-linejoin:round;">
<path style="fill:#000000; fill-opacity:1.0; 
stroke:#000000; stroke-width:3.93701; stroke-opacity:1; 
stroke-linecap:round; stroke-linejoin:round;fill-rule:evenodd;"
d="M 24152,29370
24030,29562
23912,29747
23800,29922
23697,30085
23604,30231
23523,30357
23457,30460
23409,30536
23379,30582
23377,30585
23318,30688
23287,30767
23285,30826
23305,30862
23320,30866
23354,30871
23410,30874
23490,30877
23596,30880
23730,30882
23894,30883
24090,30884
24319,30885
24585,30886
24881,30886
25170,30886
25421,30885
25638,30885
25823,30884
25978,30883
26106,30882
26210,30880
26293,30878
26356,30875
26404,30871
26437,30867
26460,30862
26474,30857
26477,30855
26510,30821
26521,30793
26516,30774
26381,30774
26362,30777
26308,30779
26224,30781
26116,30782
25987,30782
25845,30781
25827,30781
25273,30776
24918,30067
24924,30060
24878,30060
24708,30398
24653,30505
24604,30602
24562,30680
24532,30735
24517,30761
24517,30761
24500,30769
24462,30775
24398,30780
24307,30783
24183,30785
24024,30786
23959,30786
23817,30785
23689,30784
23580,30781
23496,30778
23441,30775
23421,30771
23421,30771
23431,30748
23458,30700
23497,30635
23521,30596
23578,30503
23640,30401
23696,30311
23705,30296
23746,30230
23779,30178
23799,30149
23802,30146
23817,30125
23847,30079
23885,30017
23892,30006
23942,29925
23994,29841
24034,29778
24099,29681
24180,29843
24226,29929
24261,29981
24289,30004
24300,30006
24331,29991
24379,29952
24440,29894
24468,29864
24525,29804
24573,29759
24606,29734
24615,29732
24634,29751
24671,29795
24720,29857
24755,29901
24878,30060
24924,30060
25055,29898
25191,29729
25322,29858
25384,29914
25438,29958
25478,29983
25488,29986
25514,29972
25546,29928
25587,29850
25598,29826
25632,29755
25660,29700
25679,29669
25683,29666
25699,29682
25726,29721
25743,29748
25779,29809
25812,29863
25821,29877
25875,29959
25937,30057
26005,30165
26076,30278
26147,30391
26213,30498
26273,30594
26323,30675
26359,30735
26379,30768
26381,30774
26516,30774
26512,30763
26484,30707
26437,30623
26368,30511
26278,30367
26246,30318
26212,30262
26188,30219
26181,30202
26171,30183
26141,30133
26093,30058
26031,29961
25956,29845
25872,29715
25779,29573
25765,29552
25749,29528
25606,29528
25605,29556
25591,29600
25561,29668
25545,29702
25469,29865
25341,29735
25282,29678
25231,29634
25197,29609
25189,29606
25168,29621
25128,29660
25077,29718
25039,29765
24985,29831
24940,29884
24910,29917
24901,29924
24886,29909
24852,29869
24805,29809
24764,29755
24709,29685
24660,29630
24625,29594
24610,29586
24586,29600
24543,29638
24488,29693
24448,29736
24312,29886
24236,29736
24161,29585
24202,29511
24233,29458
24277,29386
24326,29308
24337,29291
24388,29212
24451,29113
24517,29009
24560,28941
24667,28771
24753,28635
24820,28533
24867,28465
24893,28431
24900,28426
24914,28442
24945,28486
24990,28553
25044,28637
25081,28697
25146,28800
25210,28902
25267,28992
25312,29061
25325,29082
25374,29158
25430,29250
25483,29336
25526,29406
25564,29465
25591,29503
25594,29508
25606,29528
25749,29528
25661,29393
25556,29232
25454,29074
25358,28925
25272,28793
25202,28683
25159,28616
25091,28508
25040,28430
25001,28376
24972,28341
24948,28322
24925,28313
24901,28310
24831,28304
24152,29370
Z" /> 
<path style="fill:#000000; fill-opacity:1.0; 
stroke:#000000; stroke-width:3.93701; stroke-opacity:1; 
stroke-linecap:round; stroke-linejoin:round;fill-rule:evenodd;"
d="M 22230,27722
22166,27903
22146,27958
22128,28006
22112,28043
22101,28067
22095,28075
22095,28075
22089,28064
22078,28036
22063,27997
22045,27948
22030,27906
22011,27853
21994,27805
21979,27767
21970,27742
21966,27733
21950,27726
21920,27724
21913,27724
21869,27727
21939,27924
21962,27984
21983,28039
22002,28085
22017,28120
22028,28139
22029,28141
22054,28156
22090,28163
22127,28160
22158,28149
22164,28145
22175,28128
22191,28095
22212,28045
22236,27981
22255,27929
22276,27869
22294,27817
22309,27774
22320,27743
22325,27727
22325,27726
22316,27724
22293,27723
22278,27722
22230,27722
Z" /> 
<path style="fill:#000000; fill-opacity:1.0; 
stroke:#000000; stroke-width:3.93701; stroke-opacity:1; 
stroke-linecap:round; stroke-linejoin:round;fill-rule:evenodd;"
d="M 22700,27722
22636,27903
22616,27958
22598,28006
22582,28043
22571,28067
22565,28075
22565,28075
22559,28064
22548,28036
22533,27997
22515,27948
22500,27906
22481,27853
22464,27805
22449,27767
22440,27742
22436,27733
22420,27726
22390,27724
22383,27724
22339,27727
22409,27924
22432,27984
22453,28039
22472,28085
22487,28120
22498,28139
22499,28141
22524,28156
22560,28163
22597,28160
22628,28149
22634,28145
22645,28128
22661,28095
22682,28045
22706,27981
22725,27929
22746,27869
22764,27817
22779,27774
22790,27743
22795,27727
22795,27726
22786,27724
22763,27723
22748,27722
22700,27722
Z" /> 
<path style="fill:#000000; fill-opacity:1.0; 
stroke:#000000; stroke-width:3.93701; stroke-opacity:1; 
stroke-linecap:round; stroke-linejoin:round;fill-rule:evenodd;"
d="M 23170,27722
23106,27903
23086,27958
23068,28006
23052,28043
23041,28067
23035,28075
23035,28075
23029,28064
23018,28036
23003,27997
22985,27948
22970,27906
22951,27853
22934,27805
22919,27767
22910,27742
22906,27733
22890,27726
22860,27724
22853,27724
22809,27727
22879,27924
22902,27984
22923,28039
22942,28085
22957,28120
22968,28139
22969,28141
22994,28156
23030,28163
23067,28160
23098,28149
23104,28145
23115,28128
23131,28095
23152,28045
23176,27981
23195,27929
23216,27869
23234,27817
23249,27774
23260,27743
23265,27727
23265,27726
23256,27724
23233,27723
23218,27722
23170,27722
Z" /> 
<path style="fill:#000000; fill-opacity:1.0; 
stroke:#000000; stroke-width:3.93701; stroke-opacity:1; 
stroke-linecap:round; stroke-linejoin:round;fill-rule:evenodd;"
d="M 23487,27724
23466,27729
23448,27740
23431,27760
23414,27791
23395,27834
23373,27892
23350,27957
23329,28015
23311,28067
23296,28109
23284,28139
23279,28154
23278,28155
23285,28159
23306,28162
23325,28162
23356,28161
23373,28156
23382,28145
23387,28132
23397,28102
23624,28102
23630,28132
23636,28150
23645,28159
23665,28162
23687,28162
23716,28162
23730,28158
23732,28149
23730,28142
23713,28091
23693,28034
23689,28022
23593,28022
23508,28022
23467,28022
23442,28020
23431,28017
23428,28010
23430,28005
23436,27988
23447,27957
23461,27919
23467,27902
23481,27864
23494,27832
23502,27813
23505,27809
23511,27815
23522,27836
23536,27869
23552,27912
23552,27912
23593,28022
23689,28022
23672,27975
23650,27916
23628,27860
23609,27812
23592,27775
23581,27751
23577,27745
23557,27729
23528,27723
23511,27722
23487,27724
Z" /> 
<path style="fill:#000000; fill-opacity:1.0; 
stroke:#000000; stroke-width:3.93701; stroke-opacity:1; 
stroke-linecap:round; stroke-linejoin:round;fill-rule:evenodd;"
d="M 23795,27802
23919,27802
23972,27803
24008,27804
24032,27807
24047,27812
24057,27819
24059,27821
24074,27848
24069,27874
24059,27887
24046,27894
24024,27899
23988,27902
23949,27902
23889,27904
23844,27911
23813,27924
23791,27945
23780,27962
23768,28004
23767,28052
23777,28095
23780,28103
23794,28124
23811,28140
23835,28151
23870,28157
23917,28161
23980,28162
24000,28162
24145,28162
24145,28082
24017,28082
23963,28082
23925,28081
23900,28078
23884,28073
23874,28066
23872,28064
23857,28038
23861,28013
23873,27999
23888,27990
23910,27985
23945,27983
23984,27982
24042,27980
24084,27973
24115,27960
24137,27939
24149,27922
24162,27884
24164,27839
24156,27795
24150,27782
24136,27760
24118,27744
24093,27734
24058,27727
24010,27723
23945,27722
23936,27722
23795,27722
23795,27802
Z" /> 
<path style="fill:#000000; fill-opacity:1.0; 
stroke:#000000; stroke-width:3.93701; stroke-opacity:1; 
stroke-linecap:round; stroke-linejoin:round;fill-rule:evenodd;"
d="M 24397,27724
24376,27729
24358,27740
24341,27760
24324,27791
24305,27834
24283,27892
24260,27957
24239,28015
24221,28067
24206,28109
24194,28139
24189,28154
24188,28155
24195,28159
24216,28162
24235,28162
24266,28161
24283,28156
24292,28145
24297,28132
24307,28102
24534,28102
24540,28132
24546,28150
24555,28159
24575,28162
24597,28162
24626,28162
24640,28158
24642,28149
24640,28142
24623,28091
24603,28034
24599,28022
24503,28022
24418,28022
24377,28022
24352,28020
24341,28017
24338,28010
24340,28005
24346,27988
24357,27957
24371,27919
24377,27902
24391,27864
24404,27832
24412,27813
24415,27809
24421,27815
24432,27836
24446,27869
24462,27912
24462,27912
24503,28022
24599,28022
24582,27975
24560,27916
24538,27860
24519,27812
24502,27775
24491,27751
24487,27745
24467,27729
24438,27723
24421,27722
24397,27724
Z" /> 
<path style="fill:#000000; fill-opacity:1.0; 
stroke:#000000; stroke-width:3.93701; stroke-opacity:1; 
stroke-linecap:round; stroke-linejoin:round;fill-rule:evenodd;"
d="M 24862,27725
24836,27733
24815,27751
24796,27780
24777,27824
24760,27872
24747,27909
24730,27958
24711,28011
24696,28050
24656,28162
24708,28162
24760,28162
24814,28005
24841,27928
24862,27870
24880,27831
24893,27810
24903,27806
24909,27820
24913,27852
24915,27900
24915,27925
24917,27997
24921,28051
24930,28091
24942,28120
24953,28135
24980,28150
25017,28159
25058,28160
25093,28153
25094,28153
25108,28146
25119,28136
25130,28121
25142,28097
25157,28062
25174,28013
25195,27952
25216,27894
25231,27852
25243,27825
25253,27811
25261,27808
25268,27813
25272,27818
25278,27833
25281,27860
25284,27901
25285,27960
25285,27999
25285,28162
25375,28162
25375,27975
25375,27908
25374,27857
25372,27821
25369,27797
25365,27780
25360,27769
25357,27766
25327,27739
25288,27725
25250,27722
25223,27724
25201,27731
25182,27746
25165,27771
25147,27809
25128,27861
25110,27913
25090,27975
25074,28020
25061,28050
25052,28068
25043,28076
25035,28076
25029,28071
25023,28061
25019,28039
25016,28003
25015,27951
25015,27931
25014,27860
25008,27807
24997,27769
24979,27744
24953,27729
24917,27723
24894,27722
24862,27725
Z" /> 
<path style="fill:#000000; fill-opacity:1.0; 
stroke:#000000; stroke-width:3.93701; stroke-opacity:1; 
stroke-linecap:round; stroke-linejoin:round;fill-rule:evenodd;"
d="M 25617,27724
25596,27729
25578,27740
25561,27760
25544,27791
25525,27834
25503,27892
25480,27957
25459,28015
25441,28067
25426,28109
25414,28139
25409,28154
25408,28155
25415,28159
25436,28162
25455,28162
25486,28161
25503,28156
25512,28145
25517,28132
25527,28102
25754,28102
25760,28132
25766,28150
25775,28159
25795,28162
25817,28162
25846,28162
25860,28158
25862,28149
25860,28142
25843,28091
25823,28034
25819,28022
25723,28022
25638,28022
25597,28022
25572,28020
25561,28017
25558,28010
25560,28005
25566,27988
25577,27957
25591,27919
25597,27902
25611,27864
25624,27832
25632,27813
25635,27809
25641,27815
25652,27836
25666,27869
25682,27912
25682,27912
25723,28022
25819,28022
25802,27975
25780,27916
25758,27860
25739,27812
25722,27775
25711,27751
25707,27745
25687,27729
25658,27723
25641,27722
25617,27724
Z" /> 
<path style="fill:#000000; fill-opacity:1.0; 
stroke:#000000; stroke-width:3.93701; stroke-opacity:1; 
stroke-linecap:round; stroke-linejoin:round;fill-rule:evenodd;"
d="M 26517,27724
26496,27729
26478,27740
26461,27760
26444,27791
26425,27834
26403,27892
26380,27957
26359,28015
26341,28067
26326,28109
26314,28139
26309,28154
26308,28155
26315,28159
26336,28162
26355,28162
26386,28161
26403,28156
26412,28145
26417,28132
26427,28102
26654,28102
26660,28132
26666,28150
26675,28159
26695,28162
26717,28162
26746,28162
26760,28158
26762,28149
26760,28142
26743,28091
26723,28034
26719,28022
26623,28022
26538,28022
26497,28022
26472,28020
26461,28017
26458,28010
26460,28005
26466,27988
26477,27957
26491,27919
26497,27902
26511,27864
26524,27832
26532,27813
26535,27809
26541,27815
26552,27836
26566,27869
26582,27912
26582,27912
26623,28022
26719,28022
26702,27975
26680,27916
26658,27860
26639,27812
26622,27775
26611,27751
26607,27745
26587,27729
26558,27723
26541,27722
26517,27724
Z" /> 
<path style="fill:#000000; fill-opacity:1.0; 
stroke:#000000; stroke-width:3.93701; stroke-opacity:1; 
stroke-linecap:round; stroke-linejoin:round;fill-rule:evenodd;"
d="M 26785,27802
26885,27802
26885,28162
26975,28162
26975,27802
27085,27802
27085,27722
26785,27722
26785,27802
Z" /> 
<path style="fill:#000000; fill-opacity:1.0; 
stroke:#000000; stroke-width:3.93701; stroke-opacity:1; 
stroke-linecap:round; stroke-linejoin:round;fill-rule:evenodd;"
d="M 26185,27787
26185,27820
26183,27844
26181,27852
26172,27848
26148,27836
26112,27818
26068,27795
26041,27781
25987,27753
25947,27734
25921,27725
25905,27724
25897,27733
25895,27751
25897,27777
25897,27778
25900,27815
26044,27881
26188,27946
26139,27968
26109,27982
26067,28001
26020,28023
25993,28035
25895,28081
25895,28127
25897,28154
25900,28170
25903,28172
25914,28167
25939,28155
25976,28137
26020,28115
26035,28107
26081,28084
26122,28065
26152,28050
26170,28043
26173,28043
26180,28050
26184,28075
26185,28102
26185,28162
26285,28162
26285,27722
26185,27722
26185,27787
Z" /> 
<path style="fill:#000000; fill-opacity:1.0; 
stroke:#000000; stroke-width:3.93701; stroke-opacity:1; 
stroke-linecap:round; stroke-linejoin:round;fill-rule:evenodd;"
d="M 27229,27765
27188,27775
27159,27795
27140,27826
27130,27872
27125,27934
27125,27962
27125,28072
27226,28072
27272,28072
27303,28070
27323,28066
27337,28059
27350,28048
27351,28048
27370,28016
27377,27975
27376,27967
27295,27967
27287,27993
27262,28008
27233,28012
27214,28010
27207,28000
27205,27977
27208,27951
27220,27937
27231,27932
27261,27928
27284,27939
27295,27962
27295,27967
27376,27967
27372,27935
27354,27901
27351,27897
27333,27883
27312,27875
27281,27872
27265,27872
27231,27872
27213,27868
27207,27862
27207,27855
27220,27834
27247,27821
27283,27817
27324,27820
27364,27833
27382,27842
27413,27871
27434,27913
27445,27962
27444,28012
27431,28057
27423,28073
27385,28112
27336,28137
27279,28146
27217,28141
27153,28120
27124,28105
27117,28110
27107,28127
27102,28143
27105,28155
27122,28169
27136,28179
27160,28193
27183,28201
27213,28206
27256,28209
27264,28209
27308,28209
27349,28206
27380,28201
27385,28200
27411,28186
27442,28163
27467,28142
27507,28089
27529,28031
27532,27966
27526,27926
27503,27866
27467,27819
27415,27786
27350,27767
27283,27762
27229,27765
Z" /> 
</g>
<g style="fill:#000000; fill-opacity:1.0; 
stroke:#000000; stroke-width:59.0551; stroke-opacity:1; 
stroke-linecap:round; stroke-linejoin:round;">
</g>
<g style="fill:#000000; fill-opacity:0.0; 
stroke:#000000; stroke-width:59.0551; stroke-opacity:1; 
stroke-linecap:round; stroke-linejoin:round;">
<path d="M24646 35324
L24576 35255
" />
<path d="M24005 35965
L23936 35895
" />
</g>
<g style="fill:#000000; fill-opacity:0.0; 
stroke:#000000; stroke-width:47.2441; stroke-opacity:1; 
stroke-linecap:round; stroke-linejoin:round;">
<path d="M18090 43720
L18090 45177
" />
<path d="M15925 43720
L18090 43720
" />
<path d="M15925 45177
L15925 43720
" />
<path d="M18090 45177
L15925 45177
" />
</g>
<g style="fill:#000000; fill-opacity:0.0; 
stroke:#000000; stroke-width:59.0551; stroke-opacity:1; 
stroke-linecap:round; stroke-linejoin:round;">
<circle cx="17795.3" cy="45393.7" r="78.7402" /> 
</g>
<g style="fill:#000000; fill-opacity:0.0; 
stroke:#000000; stroke-width:47.2441; stroke-opacity:1; 
stroke-linecap:round; stroke-linejoin:round;">
<path d="M19496 37554
L19273 37331
" />
<path d="M21653 35090
L21500 35244
" />
<path d="M21806 35244
L21653 35090
" />
<path d="M23964 37401
L23811 37554
" />
<path d="M23811 37248
L23964 37401
" />
<path d="M21653 39712
L21806 39559
" />
<path d="M21500 39559
L21653 39712
" />
</g>
<g style="fill:#000000; fill-opacity:0.0; 
stroke:#000000; stroke-width:59.0551; stroke-opacity:1; 
stroke-linecap:round; stroke-linejoin:round;">
<path d="M19881 33858
L16732 33858
" />
<path d="M16732 31496
L19881 31496
" />
<path d="M16732 32677
L16732 31496
" />
<path d="M16732 33858
L16732 32677
" />
<path d="M19881 31496
L19881 33858
" />
</g>
<g style="fill:#000000; fill-opacity:0.0; 
stroke:#000000; stroke-width:47.2441; stroke-opacity:1; 
stroke-linecap:round; stroke-linejoin:round;">
<path d="M26860 46696
L25679 46696
" />
<path d="M26269 45429
L25679 45429
" />
</g>
<g style="fill:#000000; fill-opacity:0.0; 
stroke:#000000; stroke-width:59.0551; stroke-opacity:1; 
stroke-linecap:round; stroke-linejoin:round;">
<path d="M24488 38976
L24488 38385
" />
<path d="M23700 38976
L23700 38385
" />
<path d="M25021 35145
L24888 35278
" />
<path d="M25259 35092
L25021 35145
L25074 34907
" />
<path d="M24968 34853
L24968 34827
L24954 34787
L24888 34721
L24848 34708
L24822 34708
L24782 34721
L24755 34747
L24729 34800
L24729 35119
L24557 34946
" />
<path d="M24766 36652
L24793 36652
L24846 36626
L24872 36599
L24899 36546
L24899 36493
L24885 36453
L24846 36387
L24806 36347
L24740 36308
L24700 36294
L24647 36294
L24594 36321
L24567 36347
L24541 36400
L24541 36427
" />
<path d="M24435 36533
L24408 36533
L24368 36546
L24302 36612
L24289 36652
L24289 36679
L24302 36719
L24329 36745
L24382 36772
L24700 36772
L24527 36944
" />
<path d="M24262 37209
L24421 37050
" />
<path d="M24342 37129
L24063 36851
L24130 36864
L24183 36864
L24223 36851
" />
<path d="M23506 35314
L23533 35314
L23586 35287
L23612 35261
L23639 35208
L23639 35155
L23626 35115
L23586 35049
L23546 35009
L23480 34969
L23440 34956
L23387 34956
L23334 34982
L23307 35009
L23281 35062
L23281 35088
" />
<path d="M23175 35194
L23148 35194
L23109 35208
L23042 35274
L23029 35314
L23029 35340
L23042 35380
L23069 35406
L23122 35433
L23440 35433
L23268 35605
" />
<path d="M22910 35459
L22883 35459
L22843 35473
L22777 35539
L22764 35579
L22764 35605
L22777 35645
L22804 35672
L22857 35698
L23175 35698
L23002 35870
" />
<path d="M25843 38368
L25862 38387
L25918 38406
L25956 38406
L26012 38387
L26049 38350
L26068 38312
L26087 38237
L26087 38181
L26068 38106
L26049 38068
L26012 38031
L25956 38012
L25918 38012
L25862 38031
L25843 38050
" />
<path d="M25693 38050
L25674 38031
L25637 38012
L25543 38012
L25506 38031
L25487 38050
L25468 38087
L25468 38125
L25487 38181
L25712 38406
L25468 38406
" />
<path d="M25224 38012
L25187 38012
L25149 38031
L25131 38050
L25112 38087
L25093 38162
L25093 38256
L25112 38331
L25131 38368
L25149 38387
L25187 38406
L25224 38406
L25262 38387
L25281 38368
L25299 38331
L25318 38256
L25318 38162
L25299 38087
L25281 38050
L25262 38031
L25224 38012
" />
<path d="M17307 43209
L17307 43528
L17289 43565
L17270 43584
L17232 43603
L17157 43603
L17120 43584
L17101 43565
L17082 43528
L17082 43209
" />
<path d="M16932 43209
L16670 43209
L16839 43603
" />
<path d="M24176 33896
L24202 33896
L24255 33870
L24282 33843
L24308 33790
L24308 33737
L24295 33697
L24255 33631
L24215 33591
L24149 33552
L24109 33538
L24056 33538
L24003 33565
L23977 33591
L23950 33644
L23950 33671
" />
<path d="M23937 34188
L24096 34029
" />
<path d="M24016 34108
L23738 33830
L23804 33843
L23857 33843
L23897 33830
" />
<path d="M23619 34188
L23632 34148
L23632 34122
L23619 34082
L23605 34069
L23566 34055
L23539 34055
L23499 34069
L23446 34122
L23433 34161
L23433 34188
L23446 34228
L23460 34241
L23499 34254
L23526 34254
L23566 34241
L23619 34188
L23659 34175
L23685 34175
L23725 34188
L23778 34241
L23791 34281
L23791 34307
L23778 34347
L23725 34400
L23685 34413
L23659 34413
L23619 34400
L23566 34347
L23552 34307
L23552 34281
L23566 34241
" />
<path d="M20286 39787
L20305 39769
L20324 39712
L20324 39675
L20305 39619
L20267 39581
L20230 39562
L20155 39544
L20099 39544
L20024 39562
L19986 39581
L19949 39619
L19930 39675
L19930 39712
L19949 39769
L19967 39787
" />
<path d="M20324 40162
L20324 39937
" />
<path d="M20324 40050
L19930 40050
L19986 40012
L20024 39975
L20042 39937
" />
<path d="M20061 40500
L20324 40500
" />
<path d="M19911 40406
L20192 40312
L20192 40556
" />
<path d="M23821 33542
L23848 33542
L23901 33515
L23927 33489
L23954 33436
L23954 33383
L23941 33343
L23901 33277
L23861 33237
L23795 33197
L23755 33184
L23702 33184
L23649 33211
L23622 33237
L23596 33290
L23596 33317
" />
<path d="M23583 33834
L23742 33675
" />
<path d="M23662 33754
L23384 33476
L23450 33489
L23503 33489
L23543 33476
" />
<path d="M23066 33794
L23119 33741
L23158 33728
L23185 33728
L23251 33741
L23317 33781
L23423 33887
L23437 33926
L23437 33953
L23423 33993
L23370 34046
L23331 34059
L23304 34059
L23264 34046
L23198 33979
L23185 33940
L23185 33913
L23198 33873
L23251 33820
L23291 33807
L23317 33807
L23357 33820
" />
<path d="M24134 40514
L24134 40541
L24161 40594
L24187 40620
L24240 40647
L24293 40647
L24333 40633
L24399 40594
L24439 40554
L24479 40488
L24492 40448
L24492 40395
L24466 40342
L24439 40315
L24386 40289
L24360 40289
" />
<path d="M23843 40275
L24002 40435
" />
<path d="M23922 40355
L24200 40077
L24187 40143
L24187 40196
L24200 40236
" />
<path d="M24028 39904
L23843 39719
L23683 40116
" />
<path d="M25843 39274
L25862 39293
L25918 39311
L25956 39311
L26012 39293
L26049 39255
L26068 39218
L26087 39143
L26087 39086
L26068 39011
L26049 38974
L26012 38937
L25956 38918
L25918 38918
L25862 38937
L25843 38955
" />
<path d="M25468 39311
L25693 39311
" />
<path d="M25581 39311
L25581 38918
L25618 38974
L25656 39011
L25693 39030
" />
<path d="M25281 39311
L25206 39311
L25168 39293
L25149 39274
L25112 39218
L25093 39143
L25093 38993
L25112 38955
L25131 38937
L25168 38918
L25243 38918
L25281 38937
L25299 38955
L25318 38993
L25318 39086
L25299 39124
L25281 39143
L25243 39161
L25168 39161
L25131 39143
L25112 39124
L25093 39086
" />
<path d="M20511 35605
L20736 35565
" />
<path d="M20670 35764
L20948 35486
L20842 35380
L20802 35366
L20776 35366
L20736 35380
L20696 35419
L20683 35459
L20683 35486
L20696 35525
L20802 35631
" />
<path d="M20378 35472
L20325 35419
L20312 35380
L20312 35353
L20325 35287
L20365 35220
L20471 35114
L20511 35101
L20537 35101
L20577 35114
L20630 35167
L20643 35207
L20643 35234
L20630 35273
L20564 35340
L20524 35353
L20497 35353
L20457 35340
L20404 35287
L20391 35247
L20391 35220
L20404 35181
" />
<path d="M18950 34635
L19176 34595
" />
<path d="M19109 34794
L19388 34516
L19282 34410
L19242 34396
L19215 34396
L19176 34410
L19136 34450
L19122 34489
L19122 34516
L19136 34556
L19242 34662
" />
<path d="M18685 34370
L18844 34529
" />
<path d="M18765 34450
L19043 34171
L19030 34237
L19030 34290
L19043 34330
" />
<path d="M18791 33919
L18765 33893
L18725 33879
L18698 33879
L18659 33893
L18592 33933
L18526 33999
L18486 34065
L18473 34105
L18473 34131
L18486 34171
L18513 34198
L18552 34211
L18579 34211
L18619 34198
L18685 34158
L18751 34092
L18791 34025
L18804 33986
L18804 33959
L18791 33919
" />
<path d="M18596 34989
L18821 34950
" />
<path d="M18755 35149
L19033 34870
L18927 34764
L18887 34751
L18861 34751
L18821 34764
L18781 34804
L18768 34844
L18768 34870
L18781 34910
L18887 35016
" />
<path d="M18331 34724
L18490 34883
" />
<path d="M18410 34804
L18689 34525
L18675 34592
L18675 34645
L18689 34685
" />
<path d="M18066 34459
L18225 34618
" />
<path d="M18145 34539
L18423 34260
L18410 34327
L18410 34380
L18423 34419
" />
<path d="M20879 35265
L21105 35225
" />
<path d="M21038 35424
L21317 35146
L21211 35040
L21171 35026
L21144 35026
L21105 35040
L21065 35079
L21052 35119
L21052 35146
L21065 35185
L21171 35292
" />
<path d="M20614 35000
L20773 35159
" />
<path d="M20694 35079
L20972 34801
L20959 34867
L20959 34920
L20972 34960
" />
<path d="M20760 34642
L20760 34615
L20747 34576
L20680 34509
L20641 34496
L20614 34496
L20574 34509
L20548 34536
L20521 34589
L20521 34907
L20349 34735
" />
<path d="M16398 32896
L16211 32765
" />
<path d="M16398 32671
L16004 32671
L16004 32821
L16023 32859
L16042 32877
L16079 32896
L16136 32896
L16173 32877
L16192 32859
L16211 32821
L16211 32671
" />
<path d="M16398 33271
L16398 33046
" />
<path d="M16398 33158
L16004 33158
L16061 33121
L16098 33083
L16117 33046
" />
<path d="M16004 33402
L16004 33646
L16154 33515
L16154 33571
L16173 33608
L16192 33627
L16229 33646
L16323 33646
L16361 33627
L16379 33608
L16398 33571
L16398 33458
L16379 33421
L16361 33402
" />
<path d="M21634 30455
L21447 30324
" />
<path d="M21634 30230
L21241 30230
L21241 30380
L21259 30418
L21278 30436
L21316 30455
L21372 30455
L21409 30436
L21428 30418
L21447 30380
L21447 30230
" />
<path d="M21634 30830
L21634 30605
" />
<path d="M21634 30718
L21241 30718
L21297 30680
L21334 30643
L21353 30605
" />
<path d="M21372 31167
L21634 31167
" />
<path d="M21222 31074
L21503 30980
L21503 31224
" />
<path d="M27290 44804
L27421 44616
" />
<path d="M27515 44804
L27515 44410
L27365 44410
L27327 44429
L27309 44447
L27290 44485
L27290 44541
L27309 44579
L27327 44597
L27365 44616
L27515 44616
" />
<path d="M26915 44804
L27140 44804
" />
<path d="M27028 44804
L27028 44410
L27065 44466
L27103 44504
L27140 44522
" />
<path d="M26559 44410
L26746 44410
L26765 44597
L26746 44579
L26709 44560
L26615 44560
L26578 44579
L26559 44597
L26540 44635
L26540 44729
L26559 44766
L26578 44785
L26615 44804
L26709 44804
L26746 44785
L26765 44766
" />
<path d="M20650 30455
L20463 30324
" />
<path d="M20650 30230
L20256 30230
L20256 30380
L20275 30418
L20294 30436
L20331 30455
L20388 30455
L20425 30436
L20444 30418
L20463 30380
L20463 30230
" />
<path d="M20650 30830
L20650 30605
" />
<path d="M20650 30718
L20256 30718
L20313 30680
L20350 30643
L20369 30605
" />
<path d="M20256 31167
L20256 31092
L20275 31055
L20294 31036
L20350 30999
L20425 30980
L20575 30980
L20613 30999
L20631 31017
L20650 31055
L20650 31130
L20631 31167
L20613 31186
L20575 31205
L20481 31205
L20444 31186
L20425 31167
L20406 31130
L20406 31055
L20425 31017
L20444 30999
L20481 30980
" />
<path d="M25764 44786
L25896 44598
" />
<path d="M25989 44786
L25989 44392
L25839 44392
L25802 44411
L25783 44430
L25764 44467
L25764 44523
L25783 44561
L25802 44580
L25839 44598
L25989 44598
" />
<path d="M25389 44786
L25614 44786
" />
<path d="M25502 44786
L25502 44392
L25539 44448
L25577 44486
L25614 44505
" />
<path d="M25258 44392
L24996 44392
L25164 44786
" />
<path d="M22225 30455
L22037 30324
" />
<path d="M22225 30230
L21831 30230
L21831 30380
L21850 30418
L21869 30436
L21906 30455
L21962 30455
L22000 30436
L22019 30418
L22037 30380
L22037 30230
" />
<path d="M22225 30830
L22225 30605
" />
<path d="M22225 30718
L21831 30718
L21887 30680
L21925 30643
L21944 30605
" />
<path d="M22000 31055
L21981 31017
L21962 30999
L21925 30980
L21906 30980
L21869 30999
L21850 31017
L21831 31055
L21831 31130
L21850 31167
L21869 31186
L21906 31205
L21925 31205
L21962 31186
L21981 31167
L22000 31130
L22000 31055
L22019 31017
L22037 30999
L22075 30980
L22150 30980
L22187 30999
L22206 31017
L22225 31055
L22225 31130
L22206 31167
L22187 31186
L22150 31205
L22075 31205
L22037 31186
L22019 31167
L22000 31130
" />
<path d="M19193 36603
L19418 36829
L19432 36869
L19432 36895
L19418 36935
L19365 36988
L19326 37001
L19299 37001
L19259 36988
L19034 36763
" />
<path d="M18769 37028
L18901 36895
L19047 37014
L19021 37014
L18981 37028
L18915 37094
L18901 37134
L18901 37160
L18915 37200
L18981 37266
L19021 37280
L19047 37280
L19087 37266
L19153 37200
L19166 37160
L19166 37134
" />
<path d="M18607 31004
L18607 31323
L18588 31361
L18569 31379
L18532 31398
L18457 31398
L18419 31379
L18400 31361
L18382 31323
L18382 31004
" />
<path d="M18138 31173
L18175 31154
L18194 31136
L18213 31098
L18213 31079
L18194 31042
L18175 31023
L18138 31004
L18063 31004
L18025 31023
L18007 31042
L17988 31079
L17988 31098
L18007 31136
L18025 31154
L18063 31173
L18138 31173
L18175 31192
L18194 31211
L18213 31248
L18213 31323
L18194 31361
L18175 31379
L18138 31398
L18063 31398
L18025 31379
L18007 31361
L17988 31323
L17988 31248
L18007 31211
L18025 31192
L18063 31173
" />
<path d="M26569 46792
L26569 47110
L26550 47148
L26532 47167
L26494 47185
L26419 47185
L26382 47167
L26363 47148
L26344 47110
L26344 46792
" />
<path d="M26138 47185
L26063 47185
L26025 47167
L26007 47148
L25969 47092
L25950 47017
L25950 46867
L25969 46829
L25988 46811
L26025 46792
L26100 46792
L26138 46811
L26157 46829
L26175 46867
L26175 46961
L26157 46998
L26138 47017
L26100 47035
L26025 47035
L25988 47017
L25969 46998
L25950 46961
" />
<path d="M23415 38710
L23603 38710
" />
<path d="M23209 38578
L23415 38710
L23209 38841
" />
<path d="M23603 39178
L23603 38953
" />
<path d="M23603 39066
L23209 39066
L23265 39028
L23303 38991
L23322 38953
" />
<path d="M22232 40682
L22258 40682
L22311 40656
L22338 40629
L22365 40576
L22365 40523
L22351 40484
L22311 40417
L22272 40378
L22205 40338
L22166 40325
L22113 40325
L22060 40351
L22033 40378
L22007 40431
L22007 40457
" />
<path d="M21940 40709
L21954 40669
L21954 40643
L21940 40603
L21927 40590
L21887 40576
L21861 40576
L21821 40590
L21768 40643
L21755 40682
L21755 40709
L21768 40749
L21781 40762
L21821 40775
L21847 40775
L21887 40762
L21940 40709
L21980 40696
L22007 40696
L22046 40709
L22099 40762
L22113 40802
L22113 40828
L22099 40868
L22046 40921
L22007 40934
L21980 40934
L21940 40921
L21887 40868
L21874 40828
L21874 40802
L21887 40762
" />
<path d="M22586 40997
L22613 40997
L22666 40971
L22692 40944
L22719 40891
L22719 40838
L22706 40799
L22666 40732
L22626 40693
L22560 40653
L22520 40639
L22467 40639
L22414 40666
L22387 40693
L22361 40746
L22361 40772
" />
<path d="M22480 41156
L22427 41210
L22387 41223
L22361 41223
L22295 41210
L22228 41170
L22122 41064
L22109 41024
L22109 40997
L22122 40958
L22175 40905
L22215 40891
L22242 40891
L22281 40905
L22348 40971
L22361 41011
L22361 41037
L22348 41077
L22295 41130
L22255 41143
L22228 41143
L22189 41130
" />
<path d="M22089 33660
L22115 33660
L22168 33634
L22195 33607
L22221 33554
L22221 33501
L22208 33461
L22168 33395
L22129 33355
L22062 33315
L22023 33302
L21970 33302
L21917 33329
L21890 33355
L21864 33408
L21864 33435
" />
<path d="M21850 33952
L22009 33793
" />
<path d="M21930 33872
L21651 33594
L21718 33607
L21771 33607
L21811 33594
" />
<path d="M21400 33846
L21373 33872
L21360 33912
L21360 33939
L21373 33978
L21413 34045
L21479 34111
L21545 34151
L21585 34164
L21612 34164
L21651 34151
L21678 34124
L21691 34084
L21691 34058
L21678 34018
L21638 33952
L21572 33885
L21506 33846
L21466 33832
L21439 33832
L21400 33846
" />
<path d="M22443 34014
L22470 34014
L22523 33988
L22549 33961
L22576 33908
L22576 33855
L22563 33816
L22523 33749
L22483 33710
L22417 33670
L22377 33657
L22324 33657
L22271 33683
L22244 33710
L22218 33763
L22218 33789
" />
<path d="M22205 34306
L22364 34147
" />
<path d="M22284 34227
L22006 33948
L22072 33961
L22125 33961
L22165 33948
" />
<path d="M21939 34571
L22099 34412
" />
<path d="M22019 34492
L21741 34213
L21807 34227
L21860 34227
L21900 34213
" />
<path d="M21260 40553
L21260 40580
L21287 40633
L21313 40660
L21366 40686
L21419 40686
L21459 40673
L21525 40633
L21565 40593
L21605 40527
L21618 40487
L21618 40434
L21592 40381
L21565 40355
L21512 40328
L21486 40328
" />
<path d="M20968 40315
L21128 40474
" />
<path d="M21048 40394
L21326 40116
L21313 40182
L21313 40235
L21326 40275
" />
<path d="M21114 39957
L21114 39930
L21101 39891
L21035 39824
L20995 39811
L20968 39811
L20929 39824
L20902 39851
L20876 39904
L20876 40222
L20703 40050
" />
<path d="M25725 37542
L25744 37560
L25800 37579
L25838 37579
L25894 37560
L25931 37523
L25950 37485
L25969 37410
L25969 37354
L25950 37279
L25931 37242
L25894 37204
L25838 37185
L25800 37185
L25744 37204
L25725 37223
" />
<path d="M25350 37579
L25575 37579
" />
<path d="M25463 37579
L25463 37185
L25500 37242
L25538 37279
L25575 37298
" />
<path d="M25219 37185
L24975 37185
L25106 37335
L25050 37335
L25013 37354
L24994 37373
L24975 37410
L24975 37504
L24994 37542
L25013 37560
L25050 37579
L25163 37579
L25200 37560
L25219 37542
" />
<path d="M18848 38753
L18848 38780
L18874 38833
L18901 38859
L18954 38886
L19007 38886
L19047 38873
L19113 38833
L19153 38793
L19192 38727
L19206 38687
L19206 38634
L19179 38581
L19153 38554
L19100 38528
L19073 38528
" />
<path d="M18556 38515
L18715 38674
" />
<path d="M18636 38594
L18914 38316
L18901 38382
L18901 38435
L18914 38475
" />
<path d="M18583 37984
L18715 38117
L18596 38263
L18596 38236
L18583 38196
L18516 38130
L18477 38117
L18450 38117
L18410 38130
L18344 38196
L18331 38236
L18331 38263
L18344 38302
L18410 38369
L18450 38382
L18477 38382
" />
<path d="M17772 46073
L17791 46092
L17847 46111
L17885 46111
L17941 46092
L17979 46054
L17997 46017
L18016 45942
L18016 45886
L17997 45811
L17979 45773
L17941 45736
L17885 45717
L17847 45717
L17791 45736
L17772 45754
" />
<path d="M17622 45754
L17604 45736
L17566 45717
L17472 45717
L17435 45736
L17416 45754
L17397 45792
L17397 45829
L17416 45886
L17641 46111
L17397 46111
" />
<path d="M17060 45848
L17060 46111
" />
<path d="M17154 45698
L17247 45979
L17004 45979
" />
<path d="M24707 46006
L24726 45988
L24745 45931
L24745 45894
L24726 45838
L24688 45800
L24651 45781
L24576 45763
L24520 45763
L24445 45781
L24407 45800
L24370 45838
L24351 45894
L24351 45931
L24370 45988
L24388 46006
" />
<path d="M24388 46156
L24370 46175
L24351 46212
L24351 46306
L24370 46344
L24388 46362
L24426 46381
L24463 46381
L24520 46362
L24745 46137
L24745 46381
" />
<path d="M24351 46737
L24351 46550
L24538 46531
L24520 46550
L24501 46587
L24501 46681
L24520 46719
L24538 46737
L24576 46756
L24670 46756
L24707 46737
L24726 46719
L24745 46681
L24745 46587
L24726 46550
L24707 46531
" />
<path d="M16361 30061
L16379 30043
L16398 29986
L16398 29949
L16379 29893
L16342 29855
L16304 29836
L16229 29818
L16173 29818
L16098 29836
L16061 29855
L16023 29893
L16004 29949
L16004 29986
L16023 30043
L16042 30061
" />
<path d="M16042 30211
L16023 30230
L16004 30268
L16004 30361
L16023 30399
L16042 30418
L16079 30436
L16117 30436
L16173 30418
L16398 30193
L16398 30436
" />
<path d="M16004 30774
L16004 30699
L16023 30661
L16042 30643
L16098 30605
L16173 30586
L16323 30586
L16361 30605
L16379 30624
L16398 30661
L16398 30736
L16379 30774
L16361 30793
L16323 30811
L16229 30811
L16192 30793
L16173 30774
L16154 30736
L16154 30661
L16173 30624
L16192 30605
L16229 30586
" />
<g >
</g>
</g> 
</svg>
