<?xml version="1.0" standalone="no"?>
 <!DOCTYPE svg PUBLIC "-//W3C//DTD SVG 1.1//EN" 
 "http://www.w3.org/Graphics/SVG/1.1/DTD/svg11.dtd"> 
<svg xmlns="http://www.w3.org/2000/svg" version="1.1" 
    width="29.7002cm" height="21.0007cm" viewBox="0 0 116930 82680 ">
<title>SVG Picture created as RCT-X-Logger-F_SilkS.svg date 2019/09/13 06:18:06 </title>
  <desc>Picture generated by PCBNEW </desc>
<g style="fill:#000000; fill-opacity:1;stroke:#000000; stroke-opacity:1;
stroke-linecap:round; stroke-linejoin:round; "
 transform="translate(0 0) scale(1 1)">
</g>
<g style="fill:#000000; fill-opacity:0.0; 
stroke:#000000; stroke-width:-0.000393701; stroke-opacity:1; 
stroke-linecap:round; stroke-linejoin:round;">
</g>
<g style="fill:#000000; fill-opacity:0.0; 
stroke:#000000; stroke-width:47.2441; stroke-opacity:1; 
stroke-linecap:round; stroke-linejoin:round;">
<path d="M19653 39677
L19683 39677
L19713 39692
L19728 39707
L19743 39737
L19758 39797
L19758 39872
L19743 39932
L19728 39962
L19713 39977
L19683 39992
L19653 39992
L19623 39977
L19608 39962
L19593 39932
L19578 39872
L19578 39797
L19593 39737
L19608 39707
L19623 39692
L19653 39677
" />
<path d="M19983 40097
L19908 40097
L19908 39647
L19983 39647
" />
<path d="M20238 39782
L20238 39992
" />
<path d="M20163 39662
L20088 39887
L20283 39887
" />
<path d="M20373 40097
L20448 40097
L20448 39647
L20373 39647
" />
<path d="M20853 39962
L20868 39977
L20853 39992
L20838 39977
L20853 39962
L20853 39992
" />
<path d="M20853 39797
L20868 39812
L20853 39827
L20838 39812
L20853 39797
L20853 39827
" />
<path d="M21408 39692
L21378 39677
L21333 39677
L21288 39692
L21258 39722
L21243 39752
L21228 39812
L21228 39857
L21243 39917
L21258 39947
L21288 39977
L21333 39992
L21363 39992
L21408 39977
L21423 39962
L21423 39857
L21363 39857
" />
<path d="M21558 39992
L21558 39677
L21738 39992
L21738 39677
" />
<path d="M21873 39977
L21918 39992
L21993 39992
L22023 39977
L22038 39962
L22053 39932
L22053 39902
L22038 39872
L22023 39857
L21993 39842
L21933 39827
L21903 39812
L21888 39797
L21873 39767
L21873 39737
L21888 39707
L21903 39692
L21933 39677
L22008 39677
L22053 39692
" />
<path d="M22173 39977
L22218 39992
L22293 39992
L22323 39977
L22338 39962
L22353 39932
L22353 39902
L22338 39872
L22323 39857
L22293 39842
L22233 39827
L22203 39812
L22188 39797
L22173 39767
L22173 39737
L22188 39707
L22203 39692
L22233 39677
L22308 39677
L22353 39692
" />
<path d="M22488 39872
L22728 39872
" />
<path d="M22833 39677
L23013 39677
" />
<path d="M22923 39992
L22923 39677
" />
<path d="M23088 39677
L23298 39992
" />
<path d="M23298 39677
L23088 39992
" />
<path d="M23418 39992
L23418 39677
L23493 39677
L23538 39692
L23568 39722
L23583 39752
L23598 39812
L23598 39857
L23583 39917
L23568 39947
L23538 39977
L23493 39992
L23418 39992
" />
<path d="M19653 40197
L19683 40197
L19713 40212
L19728 40227
L19743 40257
L19758 40317
L19758 40392
L19743 40452
L19728 40482
L19713 40497
L19683 40512
L19653 40512
L19623 40497
L19608 40482
L19593 40452
L19578 40392
L19578 40317
L19593 40257
L19608 40227
L19623 40212
L19653 40197
" />
<path d="M19983 40617
L19908 40617
L19908 40167
L19983 40167
" />
<path d="M20253 40197
L20103 40197
L20088 40347
L20103 40332
L20133 40317
L20208 40317
L20238 40332
L20253 40347
L20268 40377
L20268 40452
L20253 40482
L20238 40497
L20208 40512
L20133 40512
L20103 40497
L20088 40482
" />
<path d="M20373 40617
L20448 40617
L20448 40167
L20373 40167
" />
<path d="M20853 40482
L20868 40497
L20853 40512
L20838 40497
L20853 40482
L20853 40512
" />
<path d="M20853 40317
L20868 40332
L20853 40347
L20838 40332
L20853 40317
L20853 40347
" />
<path d="M21408 40212
L21378 40197
L21333 40197
L21288 40212
L21258 40242
L21243 40272
L21228 40332
L21228 40377
L21243 40437
L21258 40467
L21288 40497
L21333 40512
L21363 40512
L21408 40497
L21423 40482
L21423 40377
L21363 40377
" />
<path d="M21558 40512
L21558 40197
L21738 40512
L21738 40197
" />
<path d="M21873 40497
L21918 40512
L21993 40512
L22023 40497
L22038 40482
L22053 40452
L22053 40422
L22038 40392
L22023 40377
L21993 40362
L21933 40347
L21903 40332
L21888 40317
L21873 40287
L21873 40257
L21888 40227
L21903 40212
L21933 40197
L22008 40197
L22053 40212
" />
<path d="M22173 40497
L22218 40512
L22293 40512
L22323 40497
L22338 40482
L22353 40452
L22353 40422
L22338 40392
L22323 40377
L22293 40362
L22233 40347
L22203 40332
L22188 40317
L22173 40287
L22173 40257
L22188 40227
L22203 40212
L22233 40197
L22308 40197
L22353 40212
" />
<path d="M22488 40392
L22728 40392
" />
<path d="M23058 40512
L22953 40362
" />
<path d="M22878 40512
L22878 40197
L22998 40197
L23028 40212
L23043 40227
L23058 40257
L23058 40302
L23043 40332
L23028 40347
L22998 40362
L22878 40362
" />
<path d="M23163 40197
L23373 40512
" />
<path d="M23373 40197
L23163 40512
" />
<path d="M23493 40512
L23493 40197
L23568 40197
L23613 40212
L23643 40242
L23658 40272
L23673 40332
L23673 40377
L23658 40437
L23643 40467
L23613 40497
L23568 40512
L23493 40512
" />
<path d="M19653 40717
L19683 40717
L19713 40732
L19728 40747
L19743 40777
L19758 40837
L19758 40912
L19743 40972
L19728 41002
L19713 41017
L19683 41032
L19653 41032
L19623 41017
L19608 41002
L19593 40972
L19578 40912
L19578 40837
L19593 40777
L19608 40747
L19623 40732
L19653 40717
" />
<path d="M19983 41137
L19908 41137
L19908 40687
L19983 40687
" />
<path d="M20238 40717
L20178 40717
L20148 40732
L20133 40747
L20103 40792
L20088 40852
L20088 40972
L20103 41002
L20118 41017
L20148 41032
L20208 41032
L20238 41017
L20253 41002
L20268 40972
L20268 40897
L20253 40867
L20238 40852
L20208 40837
L20148 40837
L20118 40852
L20103 40867
L20088 40897
" />
<path d="M20373 41137
L20448 41137
L20448 40687
L20373 40687
" />
<path d="M20853 41002
L20868 41017
L20853 41032
L20838 41017
L20853 41002
L20853 41032
" />
<path d="M20853 40837
L20868 40852
L20853 40867
L20838 40852
L20853 40837
L20853 40867
" />
<path d="M21408 40732
L21378 40717
L21333 40717
L21288 40732
L21258 40762
L21243 40792
L21228 40852
L21228 40897
L21243 40957
L21258 40987
L21288 41017
L21333 41032
L21363 41032
L21408 41017
L21423 41002
L21423 40897
L21363 40897
" />
<path d="M21558 41032
L21558 40717
L21738 41032
L21738 40717
" />
<path d="M21873 41017
L21918 41032
L21993 41032
L22023 41017
L22038 41002
L22053 40972
L22053 40942
L22038 40912
L22023 40897
L21993 40882
L21933 40867
L21903 40852
L21888 40837
L21873 40807
L21873 40777
L21888 40747
L21903 40732
L21933 40717
L22008 40717
L22053 40732
" />
<path d="M22173 41017
L22218 41032
L22293 41032
L22323 41017
L22338 41002
L22353 40972
L22353 40942
L22338 40912
L22323 40897
L22293 40882
L22233 40867
L22203 40852
L22188 40837
L22173 40807
L22173 40777
L22188 40747
L22203 40732
L22233 40717
L22308 40717
L22353 40732
" />
<path d="M22488 40912
L22728 40912
" />
<path d="M22803 40601
L23118 40601
" />
<path d="M23058 41032
L22953 40882
" />
<path d="M22878 41032
L22878 40717
L22998 40717
L23028 40732
L23043 40747
L23058 40777
L23058 40822
L23043 40852
L23028 40867
L22998 40882
L22878 40882
" />
<path d="M23118 40601
L23403 40601
" />
<path d="M23193 40867
L23298 40867
" />
<path d="M23343 41032
L23193 41032
L23193 40717
L23343 40717
" />
<path d="M23403 40601
L23703 40601
" />
<path d="M23463 41017
L23508 41032
L23583 41032
L23613 41017
L23628 41002
L23643 40972
L23643 40942
L23628 40912
L23613 40897
L23583 40882
L23523 40867
L23493 40852
L23478 40837
L23463 40807
L23463 40777
L23478 40747
L23493 40732
L23523 40717
L23598 40717
L23643 40732
" />
<path d="M23703 40601
L23988 40601
" />
<path d="M23778 40867
L23883 40867
" />
<path d="M23928 41032
L23778 41032
L23778 40717
L23928 40717
" />
<path d="M23988 40601
L24228 40601
" />
<path d="M24018 40717
L24198 40717
" />
<path d="M24108 41032
L24108 40717
" />
<path d="M19653 41236
L19683 41236
L19713 41251
L19728 41266
L19743 41296
L19758 41356
L19758 41431
L19743 41491
L19728 41521
L19713 41536
L19683 41551
L19653 41551
L19623 41536
L19608 41521
L19593 41491
L19578 41431
L19578 41356
L19593 41296
L19608 41266
L19623 41251
L19653 41236
" />
<path d="M19983 41656
L19908 41656
L19908 41206
L19983 41206
" />
<path d="M20073 41236
L20283 41236
L20148 41551
" />
<path d="M20373 41656
L20448 41656
L20448 41206
L20373 41206
" />
<path d="M20853 41521
L20868 41536
L20853 41551
L20838 41536
L20853 41521
L20853 41551
" />
<path d="M20853 41356
L20868 41371
L20853 41386
L20838 41371
L20853 41356
L20853 41386
" />
<path d="M21408 41251
L21378 41236
L21333 41236
L21288 41251
L21258 41281
L21243 41311
L21228 41371
L21228 41416
L21243 41476
L21258 41506
L21288 41536
L21333 41551
L21363 41551
L21408 41536
L21423 41521
L21423 41416
L21363 41416
" />
<path d="M21558 41551
L21558 41236
L21738 41551
L21738 41236
" />
<path d="M21873 41536
L21918 41551
L21993 41551
L22023 41536
L22038 41521
L22053 41491
L22053 41461
L22038 41431
L22023 41416
L21993 41401
L21933 41386
L21903 41371
L21888 41356
L21873 41326
L21873 41296
L21888 41266
L21903 41251
L21933 41236
L22008 41236
L22053 41251
" />
<path d="M22173 41536
L22218 41551
L22293 41551
L22323 41536
L22338 41521
L22353 41491
L22353 41461
L22338 41431
L22323 41416
L22293 41401
L22233 41386
L22203 41371
L22188 41356
L22173 41326
L22173 41296
L22188 41266
L22203 41251
L22233 41236
L22308 41236
L22353 41251
" />
<path d="M22488 41431
L22728 41431
" />
<path d="M23043 41551
L22863 41551
" />
<path d="M22953 41551
L22953 41236
L22923 41281
L22893 41311
L22863 41326
" />
<path d="M23178 41551
L23178 41236
L23298 41236
L23328 41251
L23343 41266
L23358 41296
L23358 41341
L23343 41371
L23328 41386
L23298 41401
L23178 41401
" />
<path d="M23493 41551
L23493 41236
L23613 41236
L23643 41251
L23658 41266
L23673 41296
L23673 41341
L23658 41371
L23643 41386
L23613 41401
L23493 41401
" />
<path d="M23793 41536
L23838 41551
L23913 41551
L23943 41536
L23958 41521
L23973 41491
L23973 41461
L23958 41431
L23943 41416
L23913 41401
L23853 41386
L23823 41371
L23808 41356
L23793 41326
L23793 41296
L23808 41266
L23823 41251
L23853 41236
L23928 41236
L23973 41251
" />
<path d="M16373 33772
L16193 33772
" />
<path d="M16283 33772
L16283 33457
L16253 33502
L16223 33532
L16193 33547
" />
<path d="M16598 33877
L16523 33877
L16523 33427
L16598 33427
" />
<path d="M16702 33487
L16717 33472
L16747 33457
L16822 33457
L16852 33472
L16867 33487
L16882 33517
L16882 33547
L16867 33592
L16688 33772
L16882 33772
" />
<path d="M16987 33877
L17062 33877
L17062 33427
L16987 33427
" />
<path d="M17467 33742
L17482 33757
L17467 33772
L17452 33757
L17467 33742
L17467 33772
" />
<path d="M17467 33577
L17482 33592
L17467 33607
L17452 33592
L17467 33577
L17467 33607
" />
<path d="M17962 33607
L17857 33607
" />
<path d="M17857 33772
L17857 33457
L18007 33457
" />
<path d="M18172 33772
L18142 33757
L18127 33727
L18127 33457
" />
<path d="M18427 33772
L18427 33607
L18412 33577
L18382 33562
L18322 33562
L18292 33577
" />
<path d="M18427 33757
L18397 33772
L18322 33772
L18292 33757
L18277 33727
L18277 33697
L18292 33667
L18322 33652
L18397 33652
L18427 33637
" />
<path d="M18562 33757
L18592 33772
L18652 33772
L18682 33757
L18697 33727
L18697 33712
L18682 33682
L18652 33667
L18607 33667
L18577 33652
L18562 33622
L18562 33607
L18577 33577
L18607 33562
L18652 33562
L18682 33577
" />
<path d="M18832 33772
L18832 33457
" />
<path d="M18967 33772
L18967 33607
L18952 33577
L18922 33562
L18877 33562
L18847 33577
L18832 33592
" />
<path d="M19117 33652
L19357 33652
" />
<path d="M19492 33757
L19537 33772
L19612 33772
L19642 33757
L19657 33742
L19672 33712
L19672 33682
L19657 33652
L19642 33637
L19612 33622
L19552 33607
L19522 33592
L19507 33577
L19492 33547
L19492 33517
L19507 33487
L19522 33472
L19552 33457
L19627 33457
L19672 33472
" />
<path d="M19987 33742
L19972 33757
L19927 33772
L19897 33772
L19852 33757
L19822 33727
L19807 33697
L19792 33637
L19792 33592
L19807 33532
L19822 33502
L19852 33472
L19897 33457
L19927 33457
L19972 33472
L19987 33487
" />
<path d="M20272 33772
L20122 33772
L20122 33457
" />
<path d="M20377 33772
L20377 33457
" />
<path d="M20557 33772
L20422 33592
" />
<path d="M20557 33457
L20377 33637
" />
<path d="M16373 34292
L16193 34292
" />
<path d="M16283 34292
L16283 33977
L16253 34022
L16223 34052
L16193 34067
" />
<path d="M16598 34397
L16523 34397
L16523 33947
L16598 33947
" />
<path d="M16688 33977
L16882 33977
L16777 34097
L16822 34097
L16852 34112
L16867 34127
L16882 34157
L16882 34232
L16867 34262
L16852 34277
L16822 34292
L16732 34292
L16702 34277
L16688 34262
" />
<path d="M16987 34397
L17062 34397
L17062 33947
L16987 33947
" />
<path d="M17467 34262
L17482 34277
L17467 34292
L17452 34277
L17467 34262
L17467 34292
" />
<path d="M17467 34097
L17482 34112
L17467 34127
L17452 34112
L17467 34097
L17467 34127
" />
<path d="M17962 34127
L17857 34127
" />
<path d="M17857 34292
L17857 33977
L18007 33977
" />
<path d="M18172 34292
L18142 34277
L18127 34247
L18127 33977
" />
<path d="M18427 34292
L18427 34127
L18412 34097
L18382 34082
L18322 34082
L18292 34097
" />
<path d="M18427 34277
L18397 34292
L18322 34292
L18292 34277
L18277 34247
L18277 34217
L18292 34187
L18322 34172
L18397 34172
L18427 34157
" />
<path d="M18562 34277
L18592 34292
L18652 34292
L18682 34277
L18697 34247
L18697 34232
L18682 34202
L18652 34187
L18607 34187
L18577 34172
L18562 34142
L18562 34127
L18577 34097
L18607 34082
L18652 34082
L18682 34097
" />
<path d="M18832 34292
L18832 33977
" />
<path d="M18967 34292
L18967 34127
L18952 34097
L18922 34082
L18877 34082
L18847 34097
L18832 34112
" />
<path d="M19117 34172
L19357 34172
" />
<path d="M19507 34292
L19507 33977
L19612 34202
L19717 33977
L19717 34292
" />
<path d="M19927 33977
L19987 33977
L20017 33992
L20047 34022
L20062 34082
L20062 34187
L20047 34247
L20017 34277
L19987 34292
L19927 34292
L19897 34277
L19867 34247
L19852 34187
L19852 34082
L19867 34022
L19897 33992
L19927 33977
" />
<path d="M20182 34277
L20227 34292
L20302 34292
L20332 34277
L20347 34262
L20362 34232
L20362 34202
L20347 34172
L20332 34157
L20302 34142
L20242 34127
L20212 34112
L20197 34097
L20182 34067
L20182 34037
L20197 34007
L20212 33992
L20242 33977
L20317 33977
L20362 33992
" />
<path d="M20497 34292
L20497 33977
" />
<path d="M16373 34811
L16193 34811
" />
<path d="M16283 34811
L16283 34496
L16253 34541
L16223 34571
L16193 34586
" />
<path d="M16598 34916
L16523 34916
L16523 34466
L16598 34466
" />
<path d="M16852 34601
L16852 34811
" />
<path d="M16777 34481
L16702 34706
L16897 34706
" />
<path d="M16987 34916
L17062 34916
L17062 34466
L16987 34466
" />
<path d="M17467 34781
L17482 34796
L17467 34811
L17452 34796
L17467 34781
L17467 34811
" />
<path d="M17467 34616
L17482 34631
L17467 34646
L17452 34631
L17467 34616
L17467 34646
" />
<path d="M17962 34646
L17857 34646
" />
<path d="M17857 34811
L17857 34496
L18007 34496
" />
<path d="M18172 34811
L18142 34796
L18127 34766
L18127 34496
" />
<path d="M18427 34811
L18427 34646
L18412 34616
L18382 34601
L18322 34601
L18292 34616
" />
<path d="M18427 34796
L18397 34811
L18322 34811
L18292 34796
L18277 34766
L18277 34736
L18292 34706
L18322 34691
L18397 34691
L18427 34676
" />
<path d="M18562 34796
L18592 34811
L18652 34811
L18682 34796
L18697 34766
L18697 34751
L18682 34721
L18652 34706
L18607 34706
L18577 34691
L18562 34661
L18562 34646
L18577 34616
L18607 34601
L18652 34601
L18682 34616
" />
<path d="M18832 34811
L18832 34496
" />
<path d="M18967 34811
L18967 34646
L18952 34616
L18922 34601
L18877 34601
L18847 34616
L18832 34631
" />
<path d="M19117 34691
L19357 34691
" />
<path d="M19507 34811
L19507 34496
L19612 34721
L19717 34496
L19717 34811
" />
<path d="M19867 34811
L19867 34496
" />
<path d="M20002 34796
L20047 34811
L20122 34811
L20152 34796
L20167 34781
L20182 34751
L20182 34721
L20167 34691
L20152 34676
L20122 34661
L20062 34646
L20032 34631
L20017 34616
L20002 34586
L20002 34556
L20017 34526
L20032 34511
L20062 34496
L20137 34496
L20182 34511
" />
<path d="M20377 34496
L20437 34496
L20467 34511
L20497 34541
L20512 34601
L20512 34706
L20497 34766
L20467 34796
L20437 34811
L20377 34811
L20347 34796
L20317 34766
L20302 34706
L20302 34601
L20317 34541
L20347 34511
L20377 34496
" />
<path d="M16373 35331
L16193 35331
" />
<path d="M16283 35331
L16283 35016
L16253 35061
L16223 35091
L16193 35106
" />
<path d="M16598 35436
L16523 35436
L16523 34986
L16598 34986
" />
<path d="M16867 35016
L16717 35016
L16702 35166
L16717 35151
L16747 35136
L16822 35136
L16852 35151
L16867 35166
L16882 35196
L16882 35271
L16867 35301
L16852 35316
L16822 35331
L16747 35331
L16717 35316
L16702 35301
" />
<path d="M16987 35436
L17062 35436
L17062 34986
L16987 34986
" />
<path d="M17467 35301
L17482 35316
L17467 35331
L17452 35316
L17467 35301
L17467 35331
" />
<path d="M17467 35136
L17482 35151
L17467 35166
L17452 35151
L17467 35136
L17467 35166
" />
<path d="M17962 35166
L17857 35166
" />
<path d="M17857 35331
L17857 35016
L18007 35016
" />
<path d="M18172 35331
L18142 35316
L18127 35286
L18127 35016
" />
<path d="M18427 35331
L18427 35166
L18412 35136
L18382 35121
L18322 35121
L18292 35136
" />
<path d="M18427 35316
L18397 35331
L18322 35331
L18292 35316
L18277 35286
L18277 35256
L18292 35226
L18322 35211
L18397 35211
L18427 35196
" />
<path d="M18562 35316
L18592 35331
L18652 35331
L18682 35316
L18697 35286
L18697 35271
L18682 35241
L18652 35226
L18607 35226
L18577 35211
L18562 35181
L18562 35166
L18577 35136
L18607 35121
L18652 35121
L18682 35136
" />
<path d="M18832 35331
L18832 35016
" />
<path d="M18967 35331
L18967 35166
L18952 35136
L18922 35121
L18877 35121
L18847 35136
L18832 35151
" />
<path d="M19117 35211
L19357 35211
" />
<path d="M19432 34900
L19747 34900
" />
<path d="M19687 35301
L19672 35316
L19627 35331
L19597 35331
L19552 35316
L19522 35286
L19507 35256
L19492 35196
L19492 35151
L19507 35091
L19522 35061
L19552 35031
L19597 35016
L19627 35016
L19672 35031
L19687 35046
" />
<path d="M19747 34900
L20047 34900
" />
<path d="M19807 35316
L19852 35331
L19927 35331
L19957 35316
L19972 35301
L19987 35271
L19987 35241
L19972 35211
L19957 35196
L19927 35181
L19867 35166
L19837 35151
L19822 35136
L19807 35106
L19807 35076
L19822 35046
L19837 35031
L19867 35016
L19942 35016
L19987 35031
" />
<path d="M19854 23826
L19869 23811
L19899 23796
L19974 23796
L20004 23811
L20019 23826
L20034 23856
L20034 23886
L20019 23931
L19839 24110
L20034 24110
" />
<path d="M20259 24215
L20184 24215
L20184 23766
L20259 23766
" />
<path d="M20529 23796
L20379 23796
L20364 23946
L20379 23931
L20409 23916
L20484 23916
L20514 23931
L20529 23946
L20544 23976
L20544 24050
L20529 24080
L20514 24095
L20484 24110
L20409 24110
L20379 24095
L20364 24080
" />
<path d="M20649 24215
L20724 24215
L20724 23766
L20649 23766
" />
<path d="M21129 24080
L21144 24095
L21129 24110
L21114 24095
L21129 24080
L21129 24110
" />
<path d="M21129 23916
L21144 23931
L21129 23946
L21114 23931
L21129 23916
L21129 23946
" />
<path d="M21699 24080
L21684 24095
L21639 24110
L21609 24110
L21564 24095
L21534 24065
L21519 24035
L21504 23976
L21504 23931
L21519 23871
L21534 23841
L21564 23811
L21609 23796
L21639 23796
L21684 23811
L21699 23826
" />
<path d="M21819 24020
L21969 24020
" />
<path d="M21789 24110
L21894 23796
L21999 24110
" />
<path d="M22104 24110
L22104 23796
L22284 24110
L22284 23796
" />
<path d="M22434 23991
L22674 23991
" />
<path d="M22809 24095
L22854 24110
L22929 24110
L22959 24095
L22974 24080
L22989 24050
L22989 24020
L22974 23991
L22959 23976
L22929 23961
L22869 23946
L22839 23931
L22824 23916
L22809 23886
L22809 23856
L22824 23826
L22839 23811
L22869 23796
L22944 23796
L22989 23811
" />
<path d="M23079 23796
L23259 23796
" />
<path d="M23169 24110
L23169 23796
" />
<path d="M23469 23946
L23514 23961
L23529 23976
L23544 24005
L23544 24050
L23529 24080
L23514 24095
L23484 24110
L23364 24110
L23364 23796
L23469 23796
L23499 23811
L23514 23826
L23529 23856
L23529 23886
L23514 23916
L23499 23931
L23469 23946
L23364 23946
" />
<path d="M19854 24345
L19869 24330
L19899 24315
L19974 24315
L20004 24330
L20019 24345
L20034 24375
L20034 24405
L20019 24450
L19839 24630
L20034 24630
" />
<path d="M20259 24735
L20184 24735
L20184 24285
L20259 24285
" />
<path d="M20514 24315
L20454 24315
L20424 24330
L20409 24345
L20379 24390
L20364 24450
L20364 24570
L20379 24600
L20394 24615
L20424 24630
L20484 24630
L20514 24615
L20529 24600
L20544 24570
L20544 24495
L20529 24465
L20514 24450
L20484 24435
L20424 24435
L20394 24450
L20379 24465
L20364 24495
" />
<path d="M20649 24735
L20724 24735
L20724 24285
L20649 24285
" />
<path d="M21129 24600
L21144 24615
L21129 24630
L21114 24615
L21129 24600
L21129 24630
" />
<path d="M21129 24435
L21144 24450
L21129 24465
L21114 24450
L21129 24435
L21129 24465
" />
<path d="M21699 24600
L21684 24615
L21639 24630
L21609 24630
L21564 24615
L21534 24585
L21519 24555
L21504 24495
L21504 24450
L21519 24390
L21534 24360
L21564 24330
L21609 24315
L21639 24315
L21684 24330
L21699 24345
" />
<path d="M21819 24540
L21969 24540
" />
<path d="M21789 24630
L21894 24315
L21999 24630
" />
<path d="M22104 24630
L22104 24315
L22284 24630
L22284 24315
" />
<path d="M22434 24510
L22674 24510
" />
<path d="M22779 24315
L22959 24315
" />
<path d="M22869 24630
L22869 24315
" />
<path d="M23034 24315
L23244 24630
" />
<path d="M23244 24315
L23034 24630
" />
<path d="M23364 24630
L23364 24315
L23439 24315
L23484 24330
L23514 24360
L23529 24390
L23544 24450
L23544 24495
L23529 24555
L23514 24585
L23484 24615
L23439 24630
L23364 24630
" />
<path d="M19854 24865
L19869 24850
L19899 24835
L19974 24835
L20004 24850
L20019 24865
L20034 24895
L20034 24925
L20019 24970
L19839 25150
L20034 25150
" />
<path d="M20259 25255
L20184 25255
L20184 24805
L20259 24805
" />
<path d="M20349 24835
L20559 24835
L20424 25150
" />
<path d="M20649 25255
L20724 25255
L20724 24805
L20649 24805
" />
<path d="M21129 25120
L21144 25135
L21129 25150
L21114 25135
L21129 25120
L21129 25150
" />
<path d="M21129 24955
L21144 24970
L21129 24985
L21114 24970
L21129 24955
L21129 24985
" />
<path d="M21699 25120
L21684 25135
L21639 25150
L21609 25150
L21564 25135
L21534 25105
L21519 25075
L21504 25015
L21504 24970
L21519 24910
L21534 24880
L21564 24850
L21609 24835
L21639 24835
L21684 24850
L21699 24865
" />
<path d="M21819 25060
L21969 25060
" />
<path d="M21789 25150
L21894 24835
L21999 25150
" />
<path d="M22104 25150
L22104 24835
L22284 25150
L22284 24835
" />
<path d="M22434 25030
L22674 25030
" />
<path d="M23004 25150
L22899 25000
" />
<path d="M22824 25150
L22824 24835
L22944 24835
L22974 24850
L22989 24865
L23004 24895
L23004 24940
L22989 24970
L22974 24985
L22944 25000
L22824 25000
" />
<path d="M23109 24835
L23319 25150
" />
<path d="M23319 24835
L23109 25150
" />
<path d="M23439 25150
L23439 24835
L23514 24835
L23559 24850
L23589 24880
L23604 24910
L23619 24970
L23619 25015
L23604 25075
L23589 25105
L23559 25135
L23514 25150
L23439 25150
" />
<path d="M26142 43625
L26142 43430
L26262 43535
L26262 43490
L26277 43460
L26292 43445
L26322 43430
L26397 43430
L26427 43445
L26442 43460
L26457 43490
L26457 43580
L26442 43610
L26427 43625
" />
<path d="M26562 43205
L26562 43280
L26112 43280
L26112 43205
" />
<path d="M26247 42950
L26457 42950
" />
<path d="M26127 43025
L26352 43100
L26352 42905
" />
<path d="M26562 42815
L26562 42740
L26112 42740
L26112 42815
" />
<path d="M26427 42335
L26442 42320
L26457 42335
L26442 42350
L26427 42335
L26457 42335
" />
<path d="M26262 42335
L26277 42320
L26292 42335
L26277 42350
L26262 42335
L26292 42335
" />
<path d="M26457 41795
L26457 41945
L26142 41945
" />
<path d="M26292 41690
L26292 41585
" />
<path d="M26457 41540
L26457 41690
L26142 41690
L26142 41540
" />
<path d="M26457 41405
L26142 41405
L26142 41330
L26157 41285
L26187 41255
L26217 41240
L26277 41225
L26322 41225
L26382 41240
L26412 41255
L26442 41285
L26457 41330
L26457 41405
" />
<path d="M26337 41090
L26337 40850
" />
<path d="M26292 40595
L26307 40550
L26322 40535
L26352 40520
L26397 40520
L26427 40535
L26442 40550
L26457 40580
L26457 40700
L26142 40700
L26142 40595
L26157 40565
L26172 40550
L26202 40535
L26232 40535
L26262 40550
L26277 40565
L26292 40595
L26292 40700
" />
<path d="M26457 40235
L26457 40385
L26142 40385
" />
<path d="M26142 40130
L26397 40130
L26427 40115
L26442 40100
L26457 40070
L26457 40010
L26442 39980
L26427 39965
L26397 39950
L26142 39950
" />
<path d="M26292 39800
L26292 39695
" />
<path d="M26457 39650
L26457 39800
L26142 39800
L26142 39650
" />
<path d="M26662 43625
L26662 43430
L26782 43535
L26782 43490
L26797 43460
L26812 43445
L26842 43430
L26917 43430
L26947 43445
L26962 43460
L26977 43490
L26977 43580
L26962 43610
L26947 43625
" />
<path d="M27082 43205
L27082 43280
L26632 43280
L26632 43205
" />
<path d="M26662 42935
L26662 43085
L26812 43100
L26797 43085
L26782 43055
L26782 42980
L26797 42950
L26812 42935
L26842 42920
L26917 42920
L26947 42935
L26962 42950
L26977 42980
L26977 43055
L26962 43085
L26947 43100
" />
<path d="M27082 42815
L27082 42740
L26632 42740
L26632 42815
" />
<path d="M26947 42335
L26962 42320
L26977 42335
L26962 42350
L26947 42335
L26977 42335
" />
<path d="M26782 42335
L26797 42320
L26812 42335
L26797 42350
L26782 42335
L26812 42335
" />
<path d="M26977 41795
L26977 41945
L26662 41945
" />
<path d="M26812 41690
L26812 41585
" />
<path d="M26977 41540
L26977 41690
L26662 41690
L26662 41540
" />
<path d="M26977 41405
L26662 41405
L26662 41330
L26677 41285
L26707 41255
L26737 41240
L26797 41225
L26842 41225
L26902 41240
L26932 41255
L26962 41285
L26977 41330
L26977 41405
" />
<path d="M26857 41090
L26857 40850
" />
<path d="M26662 40640
L26662 40580
L26677 40550
L26707 40520
L26767 40505
L26872 40505
L26932 40520
L26962 40550
L26977 40580
L26977 40640
L26962 40670
L26932 40700
L26872 40715
L26767 40715
L26707 40700
L26677 40670
L26662 40640
" />
<path d="M26977 40190
L26827 40295
" />
<path d="M26977 40370
L26662 40370
L26662 40250
L26677 40220
L26692 40205
L26722 40190
L26767 40190
L26797 40205
L26812 40220
L26827 40250
L26827 40370
" />
<path d="M26887 40070
L26887 39920
" />
<path d="M26977 40100
L26662 39995
L26977 39890
" />
<path d="M26977 39785
L26662 39785
L26977 39605
L26662 39605
" />
<path d="M26677 39290
L26662 39320
L26662 39365
L26677 39410
L26707 39440
L26737 39455
L26797 39470
L26842 39470
L26902 39455
L26932 39440
L26962 39410
L26977 39365
L26977 39335
L26962 39290
L26947 39275
L26842 39275
L26842 39335
" />
<path d="M26812 39140
L26812 39035
" />
<path d="M26977 38990
L26977 39140
L26662 39140
L26662 38990
" />
<path d="M17091 30212
L16963 30212
" />
<path d="M17091 30614
L16963 30614
" />
<circle cx="17409.4" cy="44543.3" r="1389.76" /> 
<path d="M18251 28449
L18251 28321
" />
<path d="M17850 28449
L17850 28321
" />
<path d="M24939 28936
L24939 28808
" />
<path d="M24537 28936
L24537 28808
" />
<path d="M27287 28922
L27287 28794
" />
<path d="M26885 28922
L26885 28794
" />
<path d="M20292 42763
L20164 42763
" />
<path d="M20292 43165
L20164 43165
" />
<path d="M27474 36364
L26574 36364
" />
<path d="M27474 36942
L27474 36364
" />
<path d="M26574 36942
L27474 36942
" />
<path d="M27474 37033
L26574 37033
" />
<path d="M27474 37612
L27474 37033
" />
<path d="M26574 37612
L27474 37612
" />
</g>
<g style="fill:#000000; fill-opacity:0.0; 
stroke:#000000; stroke-width:39.3701; stroke-opacity:1; 
stroke-linecap:round; stroke-linejoin:round;">
<path d="M18795 45952
L18795 46464
" />
<path d="M19110 45952
L18795 45952
" />
<path d="M19110 46464
L19110 45952
" />
</g>
<g style="fill:#000000; fill-opacity:0.0; 
stroke:#000000; stroke-width:47.2441; stroke-opacity:1; 
stroke-linecap:round; stroke-linejoin:round;">
<path d="M24783 31633
L24783 32165
" />
<path d="M25118 31633
L24783 31633
" />
<path d="M24783 34055
L24783 33503
" />
<path d="M25118 34055
L24783 34055
" />
<path d="M26673 31279
L27145 31279
" />
<path d="M24803 33267
L24881 33346
" />
<path d="M24803 33425
L24803 33267
" />
<path d="M24881 33346
L24803 33425
" />
<path d="M26673 34389
L27145 34389
" />
<path d="M25118 31279
L25118 31633
" />
<path d="M25137 31279
L25118 31279
" />
<path d="M25826 31279
L25137 31279
" />
<path d="M25118 34389
L25118 34055
" />
<path d="M25826 34389
L25118 34389
" />
</g>
<g style="fill:#000000; fill-opacity:0.0; 
stroke:#000000; stroke-width:59.0551; stroke-opacity:1; 
stroke-linecap:round; stroke-linejoin:round;">
<path d="M16456 41574
L16456 40590
" />
<path d="M18228 39881
L18228 40866
" />
<path d="M18070 41574
L18070 40590
" />
<path d="M18228 39881
L18228 37086
" />
<path d="M18070 41141
L18307 41141
" />
<path d="M18307 41141
L18307 40866
" />
<path d="M18307 40866
L18070 40866
" />
<path d="M18070 36811
L18307 36811
" />
<path d="M18307 36811
L18307 37086
" />
<path d="M18307 37086
L18070 37086
" />
<path d="M18425 41732
L18425 41377
" />
<path d="M18425 36574
L18425 36023
" />
<path d="M16456 36574
L16062 36574
" />
<path d="M16062 36574
L16062 36023
" />
<path d="M18070 36574
L18425 36574
" />
<path d="M16062 41732
L16062 41377
" />
<path d="M16456 41377
L16062 41377
" />
<path d="M18425 41377
L18070 41377
" />
<path d="M18070 36377
L18070 40590
" />
<path d="M16456 40590
L16456 36377
" />
<path d="M17125 41574
L16456 41574
" />
<path d="M17125 41574
L18070 41574
" />
<path d="M17125 36377
L16456 36377
" />
<path d="M17125 36377
L18070 36377
" />
<path d="M18425 41732
L18425 41929
" />
<path d="M18425 41929
L16062 41929
" />
<path d="M16062 41929
L16062 41732
" />
<path d="M16062 36023
L18425 36023
" />
</g>
<g style="fill:#000000; fill-opacity:0.0; 
stroke:#000000; stroke-width:47.2441; stroke-opacity:1; 
stroke-linecap:round; stroke-linejoin:round;">
<path d="M17622 29578
L17622 28622
" />
<path d="M16413 28885
L16413 29578
" />
</g>
<g style="fill:#000000; fill-opacity:0.0; 
stroke:#000000; stroke-width:59.0551; stroke-opacity:1; 
stroke-linecap:round; stroke-linejoin:round;">
<path d="M26637 29708
L25506 29708
" />
<path d="M26332 28429
L25506 28429
" />
</g>
<g style="fill:#000000; fill-opacity:0.0; 
stroke:#000000; stroke-width:47.2441; stroke-opacity:1; 
stroke-linecap:round; stroke-linejoin:round;">
<path d="M19905 30685
L19905 30744
" />
<path d="M18677 30685
L18677 30744
" />
<path d="M18677 31913
L18677 31854
" />
<path d="M18677 30685
L19905 30685
" />
<path d="M18677 31913
L19905 31913
" />
<path d="M19905 31913
L19905 31854
" />
<path d="M18677 30744
L18574 30744
" />
<path d="M19685 43503
L19685 43700
" />
<path d="M20669 43503
L19685 43503
" />
<path d="M23622 43503
L22637 43503
" />
<path d="M23622 43700
L23622 43503
" />
<path d="M19685 49173
L19685 48937
" />
<path d="M23622 49173
L19685 49173
" />
<path d="M23622 48937
L23622 49173
" />
<path d="M23011 30039
L23129 29803
" />
<path d="M23248 30039
L23011 30039
" />
<path d="M23129 29803
L23248 30039
" />
<path d="M20078 27952
L20275 27952
" />
<path d="M20078 25787
L20078 27952
" />
<path d="M20275 25787
L20078 25787
" />
<path d="M20275 27952
L20275 25787
" />
<path d="M21062 27952
L21259 27952
" />
<path d="M21062 25787
L21062 27952
" />
<path d="M21259 25787
L21062 25787
" />
<path d="M21259 27952
L21259 25787
" />
<path d="M22047 27952
L22244 27952
" />
<path d="M22047 25787
L22047 27952
" />
<path d="M22244 25787
L22047 25787
" />
<path d="M22244 27952
L22244 25787
" />
<path d="M23031 27952
L23228 27952
" />
<path d="M23031 25787
L23031 27952
" />
<path d="M23228 25787
L23031 25787
" />
<path d="M23228 27952
L23228 25787
" />
<path d="M19728 28389
L21653 28389
" />
<path d="M19728 30161
L19728 28389
" />
<path d="M19169 30161
L19728 30161
" />
<path d="M19169 25547
L19169 30161
" />
<path d="M21653 25547
L19169 25547
" />
<path d="M23578 28389
L21653 28389
" />
<path d="M23578 30161
L23578 28389
" />
<path d="M24137 30161
L23578 30161
" />
<path d="M24137 25547
L24137 30161
" />
<path d="M21653 25547
L24137 25547
" />
</g>
<g style="fill:#000000; fill-opacity:0.0; 
stroke:#000000; stroke-width:59.0551; stroke-opacity:1; 
stroke-linecap:round; stroke-linejoin:round;">
<path d="M16706 31124
L16687 31143
L16631 31162
L16593 31162
L16537 31143
L16499 31106
L16481 31068
L16462 30993
L16462 30937
L16481 30862
L16499 30824
L16537 30787
L16593 30768
L16631 30768
L16687 30787
L16706 30806
" />
<path d="M17062 30768
L16874 30768
L16856 30956
L16874 30937
L16912 30918
L17005 30918
L17043 30937
L17062 30956
L17080 30993
L17080 31087
L17062 31124
L17043 31143
L17005 31162
L16912 31162
L16874 31143
L16856 31124
" />
<path d="M16475 46781
L16494 46725
L16513 46706
L16550 46688
L16607 46688
L16644 46706
L16663 46725
L16682 46763
L16682 46913
L16288 46913
L16288 46781
L16307 46744
L16325 46725
L16363 46706
L16400 46706
L16438 46725
L16457 46744
L16475 46781
L16475 46913
" />
<path d="M16288 46575
L16288 46350
" />
<path d="M16682 46463
L16288 46463
" />
<path d="M16682 46013
L16682 46238
" />
<path d="M16682 46125
L16288 46125
L16344 46163
L16382 46200
L16400 46238
" />
<path d="M18802 28451
L18820 28470
L18839 28526
L18839 28563
L18820 28620
L18783 28657
L18745 28676
L18670 28695
L18614 28695
L18539 28676
L18502 28657
L18464 28620
L18445 28563
L18445 28526
L18464 28470
L18483 28451
" />
<path d="M18839 28076
L18839 28301
" />
<path d="M18839 28188
L18445 28188
L18502 28226
L18539 28263
L18558 28301
" />
<path d="M24865 29908
L24883 29926
L24902 29983
L24902 30020
L24883 30076
L24846 30114
L24808 30133
L24733 30151
L24677 30151
L24602 30133
L24565 30114
L24527 30076
L24508 30020
L24508 29983
L24527 29926
L24546 29908
" />
<path d="M24546 29758
L24527 29739
L24508 29701
L24508 29608
L24527 29570
L24546 29551
L24583 29533
L24621 29533
L24677 29551
L24902 29776
L24902 29533
" />
<path d="M20544 31439
L20525 31458
L20469 31477
L20432 31477
L20375 31458
L20338 31421
L20319 31383
L20300 31308
L20300 31252
L20319 31177
L20338 31139
L20375 31102
L20432 31083
L20469 31083
L20525 31102
L20544 31121
" />
<path d="M20675 31083
L20919 31083
L20788 31233
L20844 31233
L20882 31252
L20900 31271
L20919 31308
L20919 31402
L20900 31439
L20882 31458
L20844 31477
L20732 31477
L20694 31458
L20675 31439
" />
<path d="M27227 29908
L27245 29926
L27264 29983
L27264 30020
L27245 30076
L27208 30114
L27170 30133
L27095 30151
L27039 30151
L26964 30133
L26927 30114
L26889 30076
L26871 30020
L26871 29983
L26889 29926
L26908 29908
" />
<path d="M26871 29570
L26871 29645
L26889 29683
L26908 29701
L26964 29739
L27039 29758
L27189 29758
L27227 29739
L27245 29720
L27264 29683
L27264 29608
L27245 29570
L27227 29551
L27189 29533
L27095 29533
L27058 29551
L27039 29570
L27020 29608
L27020 29683
L27039 29720
L27058 29739
L27095 29758
" />
<path d="M19975 42502
L19956 42521
L19900 42540
L19862 42540
L19806 42521
L19769 42484
L19750 42446
L19731 42371
L19731 42315
L19750 42240
L19769 42202
L19806 42165
L19862 42146
L19900 42146
L19956 42165
L19975 42184
" />
<path d="M20125 42184
L20143 42165
L20181 42146
L20275 42146
L20312 42165
L20331 42184
L20350 42221
L20350 42259
L20331 42315
L20106 42540
L20350 42540
" />
<path d="M20481 42146
L20725 42146
L20593 42296
L20650 42296
L20687 42315
L20706 42334
L20725 42371
L20725 42465
L20706 42502
L20687 42521
L20650 42540
L20537 42540
L20500 42521
L20481 42502
" />
<path d="M26638 36241
L26638 35847
L26732 35847
L26788 35866
L26826 35903
L26844 35941
L26863 36016
L26863 36072
L26844 36147
L26826 36184
L26788 36222
L26732 36241
L26638 36241
" />
<path d="M27238 36241
L27013 36241
" />
<path d="M27125 36241
L27125 35847
L27088 35903
L27050 35941
L27013 35959
" />
<path d="M26599 38130
L26599 37737
L26692 37737
L26749 37755
L26786 37793
L26805 37830
L26824 37905
L26824 37962
L26805 38037
L26786 38074
L26749 38112
L26692 38130
L26599 38130
" />
<path d="M26974 37774
L26992 37755
L27030 37737
L27124 37737
L27161 37755
L27180 37774
L27199 37812
L27199 37849
L27180 37905
L26955 38130
L27199 38130
" />
<path d="M19115 47731
L18721 47731
L18721 47637
L18740 47581
L18777 47544
L18815 47525
L18890 47506
L18946 47506
L19021 47525
L19058 47544
L19096 47581
L19115 47637
L19115 47731
" />
<path d="M18721 47375
L18721 47131
L18871 47262
L18871 47206
L18890 47169
L18908 47150
L18946 47131
L19040 47131
L19077 47150
L19096 47169
L19115 47206
L19115 47319
L19096 47356
L19077 47375
" />
<path d="M18518 24193
L18518 23800
" />
<path d="M18518 23987
L18743 23987
" />
<path d="M18743 24193
L18743 23800
" />
<path d="M19137 24193
L18912 24193
" />
<path d="M19025 24193
L19025 23800
L18987 23856
L18950 23893
L18912 23912
" />
<path d="M24266 24193
L24266 23800
" />
<path d="M24266 23987
L24491 23987
" />
<path d="M24491 24193
L24491 23800
" />
<path d="M24660 23837
L24679 23818
L24716 23800
L24810 23800
L24848 23818
L24866 23837
L24885 23875
L24885 23912
L24866 23968
L24641 24193
L24885 24193
" />
<path d="M24188 50965
L24188 50571
" />
<path d="M24188 50759
L24413 50759
" />
<path d="M24413 50965
L24413 50571
" />
<path d="M24563 50571
L24806 50571
L24675 50721
L24731 50721
L24769 50740
L24788 50759
L24806 50796
L24806 50890
L24788 50928
L24769 50946
L24731 50965
L24619 50965
L24581 50946
L24563 50928
" />
<path d="M18518 50965
L18518 50571
" />
<path d="M18518 50759
L18743 50759
" />
<path d="M18743 50965
L18743 50571
" />
<path d="M19100 50703
L19100 50965
" />
<path d="M19006 50553
L18912 50834
L19156 50834
" />
<path d="M24587 31312
L24868 31312
L24925 31331
L24962 31368
L24981 31424
L24981 31462
" />
<path d="M24981 30918
L24981 31143
" />
<path d="M24981 31031
L24587 31031
L24643 31068
L24681 31106
L24700 31143
" />
<path d="M16319 39266
L15926 39266
L15926 39116
L15944 39079
L15963 39060
L16001 39041
L16057 39041
L16094 39060
L16113 39079
L16132 39116
L16132 39266
" />
<path d="M16319 38667
L16319 38892
" />
<path d="M16319 38779
L15926 38779
L15982 38817
L16019 38854
L16038 38892
" />
<path d="M20544 30985
L20413 30797
" />
<path d="M20319 30985
L20319 30591
L20469 30591
L20507 30610
L20525 30628
L20544 30666
L20544 30722
L20525 30760
L20507 30778
L20469 30797
L20319 30797
" />
<path d="M20919 30985
L20694 30985
" />
<path d="M20807 30985
L20807 30591
L20769 30647
L20732 30685
L20694 30703
" />
<path d="M20544 31969
L20413 31781
" />
<path d="M20319 31969
L20319 31575
L20469 31575
L20507 31594
L20525 31613
L20544 31650
L20544 31706
L20525 31744
L20507 31763
L20469 31781
L20319 31781
" />
<path d="M20694 31613
L20713 31594
L20750 31575
L20844 31575
L20882 31594
L20900 31613
L20919 31650
L20919 31688
L20900 31744
L20675 31969
L20919 31969
" />
<path d="M23359 32855
L23228 32667
" />
<path d="M23134 32855
L23134 32461
L23284 32461
L23322 32480
L23340 32499
L23359 32536
L23359 32592
L23340 32630
L23322 32649
L23284 32667
L23134 32667
" />
<path d="M23490 32461
L23734 32461
L23603 32611
L23659 32611
L23697 32630
L23715 32649
L23734 32686
L23734 32780
L23715 32817
L23697 32836
L23659 32855
L23547 32855
L23509 32836
L23490 32817
" />
<path d="M23359 33445
L23228 33258
" />
<path d="M23134 33445
L23134 33052
L23284 33052
L23322 33070
L23340 33089
L23359 33127
L23359 33183
L23340 33220
L23322 33239
L23284 33258
L23134 33258
" />
<path d="M23697 33183
L23697 33445
" />
<path d="M23603 33033
L23509 33314
L23753 33314
" />
<path d="M25052 36831
L24921 36644
" />
<path d="M24827 36831
L24827 36437
L24977 36437
L25014 36456
L25033 36475
L25052 36512
L25052 36569
L25033 36606
L25014 36625
L24977 36644
L24827 36644
" />
<path d="M25408 36437
L25221 36437
L25202 36625
L25221 36606
L25258 36587
L25352 36587
L25389 36606
L25408 36625
L25427 36662
L25427 36756
L25408 36794
L25389 36812
L25352 36831
L25258 36831
L25221 36812
L25202 36794
" />
<path d="M25052 37500
L24921 37313
" />
<path d="M24827 37500
L24827 37107
L24977 37107
L25014 37125
L25033 37144
L25052 37182
L25052 37238
L25033 37275
L25014 37294
L24977 37313
L24827 37313
" />
<path d="M25389 37107
L25314 37107
L25277 37125
L25258 37144
L25221 37200
L25202 37275
L25202 37425
L25221 37463
L25239 37482
L25277 37500
L25352 37500
L25389 37482
L25408 37463
L25427 37425
L25427 37332
L25408 37294
L25389 37275
L25352 37257
L25277 37257
L25239 37275
L25221 37294
L25202 37332
" />
<path d="M24193 42191
L24006 42322
" />
<path d="M24193 42416
L23800 42416
L23800 42266
L23818 42229
L23837 42210
L23875 42191
L23931 42191
L23968 42210
L23987 42229
L24006 42266
L24006 42416
" />
<path d="M23800 42060
L23800 41797
L24193 41966
" />
<path d="M23603 42191
L23415 42322
" />
<path d="M23603 42416
L23209 42416
L23209 42266
L23228 42229
L23247 42210
L23284 42191
L23340 42191
L23378 42210
L23397 42229
L23415 42266
L23415 42416
" />
<path d="M23378 41966
L23359 42004
L23340 42022
L23303 42041
L23284 42041
L23247 42022
L23228 42004
L23209 41966
L23209 41891
L23228 41854
L23247 41835
L23284 41816
L23303 41816
L23340 41835
L23359 41854
L23378 41891
L23378 41966
L23397 42004
L23415 42022
L23453 42041
L23528 42041
L23565 42022
L23584 42004
L23603 41966
L23603 41891
L23584 41854
L23565 41835
L23528 41816
L23453 41816
L23415 41835
L23397 41854
L23378 41891
" />
<path d="M18524 47497
L18337 47628
" />
<path d="M18524 47722
L18130 47722
L18130 47572
L18149 47534
L18168 47515
L18205 47497
L18262 47497
L18299 47515
L18318 47534
L18337 47572
L18337 47722
" />
<path d="M18524 47122
L18524 47347
" />
<path d="M18524 47234
L18130 47234
L18187 47272
L18224 47309
L18243 47347
" />
<path d="M18524 46934
L18524 46859
L18505 46822
L18487 46803
L18430 46766
L18355 46747
L18205 46747
L18168 46766
L18149 46784
L18130 46822
L18130 46897
L18149 46934
L18168 46953
L18205 46972
L18299 46972
L18337 46953
L18355 46934
L18374 46897
L18374 46822
L18355 46784
L18337 46766
L18299 46747
" />
<path d="M17810 29626
L17810 29945
L17829 29983
L17847 30001
L17885 30020
L17960 30020
L17997 30001
L18016 29983
L18035 29945
L18035 29626
" />
<path d="M18203 29664
L18222 29645
L18260 29626
L18353 29626
L18391 29645
L18410 29664
L18428 29701
L18428 29739
L18410 29795
L18185 30020
L18428 30020
" />
<path d="M25619 29857
L25619 30176
L25638 30213
L25656 30232
L25694 30251
L25769 30251
L25806 30232
L25825 30213
L25844 30176
L25844 29857
" />
<path d="M25994 29857
L26238 29857
L26106 30007
L26163 30007
L26200 30026
L26219 30044
L26238 30082
L26238 30176
L26219 30213
L26200 30232
L26163 30251
L26050 30251
L26013 30232
L25994 30213
" />
<path d="M18400 32067
L18400 32386
L18419 32424
L18438 32442
L18475 32461
L18550 32461
L18588 32442
L18607 32424
L18625 32386
L18625 32067
" />
<path d="M18982 32199
L18982 32461
" />
<path d="M18888 32049
L18794 32330
L19038 32330
" />
<path d="M21353 45335
L21353 45654
L21372 45691
L21391 45710
L21428 45729
L21503 45729
L21541 45710
L21559 45691
L21578 45654
L21578 45335
" />
<path d="M21934 45335
L21859 45335
L21822 45354
L21803 45373
L21766 45429
L21747 45504
L21747 45654
L21766 45691
L21784 45710
L21822 45729
L21897 45729
L21934 45710
L21953 45691
L21972 45654
L21972 45560
L21953 45523
L21934 45504
L21897 45485
L21822 45485
L21784 45504
L21766 45523
L21747 45560
" />
<path d="M21353 27815
L21353 28134
L21372 28172
L21391 28190
L21428 28209
L21503 28209
L21541 28190
L21559 28172
L21578 28134
L21578 27815
" />
<path d="M21972 28209
L21747 28209
" />
<path d="M21859 28209
L21859 27815
L21822 27872
L21784 27909
L21747 27928
" />
<path d="M17790 31364
L17808 31383
L17827 31439
L17827 31477
L17808 31533
L17771 31571
L17733 31589
L17658 31608
L17602 31608
L17527 31589
L17490 31571
L17452 31533
L17434 31477
L17434 31439
L17452 31383
L17471 31364
" />
<path d="M17565 31027
L17827 31027
" />
<path d="M17415 31121
L17696 31214
L17696 30971
" />
<path d="M19619 32935
L19600 32954
L19544 32973
L19506 32973
L19450 32954
L19413 32917
L19394 32879
L19375 32804
L19375 32748
L19394 32673
L19413 32635
L19450 32598
L19506 32579
L19544 32579
L19600 32598
L19619 32617
" />
<path d="M19750 32579
L20013 32579
L19844 32973
" />
<g >
</g>
</g> 
</svg>
