<?xml version="1.0" standalone="no"?>
 <!DOCTYPE svg PUBLIC "-//W3C//DTD SVG 1.1//EN" 
 "http://www.w3.org/Graphics/SVG/1.1/DTD/svg11.dtd"> 
<svg xmlns="http://www.w3.org/2000/svg" version="1.1" 
    width="29.7002cm" height="21.0007cm" viewBox="0 0 116930 82680 ">
<title>SVG Picture created as RCT-X-Logger-B_Mask.svg date 2019/09/13 06:18:06 </title>
  <desc>Picture generated by PCBNEW </desc>
<g style="fill:#000000; fill-opacity:1;stroke:#000000; stroke-opacity:1;
stroke-linecap:round; stroke-linejoin:round; "
 transform="translate(0 0) scale(1 1)">
</g>
<g style="fill:#000000; fill-opacity:0.0; 
stroke:#000000; stroke-width:-0.000393701; stroke-opacity:1; 
stroke-linecap:round; stroke-linejoin:round;">
</g>
<g style="fill:#000000; fill-opacity:1.0; 
stroke:#000000; stroke-width:0; stroke-opacity:1; 
stroke-linecap:round; stroke-linejoin:round;">
<path style="fill:#000000; fill-opacity:1.0; 
stroke:#000000; stroke-width:0; stroke-opacity:1; 
stroke-linecap:round; stroke-linejoin:round;fill-rule:evenodd;"
d="M 25797,48530
25926,48584
26042,48661
26141,48760
26218,48876
26272,49005
26299,49142
26299,49282
26272,49419
26218,49548
26141,49664
26042,49763
25926,49840
25797,49894
25660,49921
25520,49921
25383,49894
25254,49840
25138,49763
25039,49664
24962,49548
24908,49419
24881,49282
24881,49142
24908,49005
24962,48876
25039,48760
25138,48661
25254,48584
25383,48530
25520,48503
25660,48503
25797,48530
Z" /> 
<path style="fill:#000000; fill-opacity:1.0; 
stroke:#000000; stroke-width:0; stroke-opacity:1; 
stroke-linecap:round; stroke-linejoin:round;fill-rule:evenodd;"
d="M 17923,48530
18052,48584
18168,48661
18267,48760
18344,48876
18398,49005
18425,49142
18425,49282
18398,49419
18344,49548
18267,49664
18168,49763
18052,49840
17923,49894
17786,49921
17646,49921
17509,49894
17380,49840
17264,49763
17165,49664
17088,49548
17034,49419
17007,49282
17007,49142
17034,49005
17088,48876
17165,48760
17264,48661
17380,48584
17509,48530
17646,48503
17786,48503
17923,48530
Z" /> 
<path style="fill:#000000; fill-opacity:1.0; 
stroke:#000000; stroke-width:0; stroke-opacity:1; 
stroke-linecap:round; stroke-linejoin:round;fill-rule:evenodd;"
d="M 25150,46315
25158,46318
25165,46322
25172,46327
25177,46334
25181,46341
25184,46349
25185,46360
25185,46541
25184,46551
25181,46560
25177,46567
25172,46574
25165,46579
25158,46583
25150,46585
25139,46587
24939,46587
24928,46585
24920,46583
24912,46579
24906,46574
24900,46567
24896,46560
24894,46551
24893,46541
24893,46360
24894,46349
24896,46341
24900,46334
24906,46327
24912,46322
24920,46318
24928,46315
24939,46314
25139,46314
25150,46315
Z" /> 
<path style="fill:#000000; fill-opacity:1.0; 
stroke:#000000; stroke-width:0; stroke-opacity:1; 
stroke-linecap:round; stroke-linejoin:round;fill-rule:evenodd;"
d="M 25856,45571
25860,45572
25865,45574
25868,45577
25871,45581
25874,45585
25876,45593
25880,45602
25885,45610
25892,45617
25900,45622
25909,45626
25918,45627
25928,45627
25937,45626
25946,45622
25954,45617
25961,45610
25966,45603
25975,45591
25986,45582
25999,45576
26012,45572
26029,45570
26510,45570
26526,45572
26540,45576
26552,45582
26563,45591
26573,45603
26577,45610
26584,45617
26592,45622
26601,45626
26610,45627
26620,45627
26630,45626
26638,45622
26646,45617
26653,45610
26659,45602
26662,45593
26665,45585
26667,45581
26670,45577
26674,45574
26678,45572
26683,45571
26690,45570
26990,45570
26998,45571
27002,45572
27006,45574
27010,45577
27013,45581
27016,45585
27017,45590
27018,45597
27018,45740
27017,45748
27016,45752
27013,45756
27010,45760
27006,45763
27002,45766
26998,45767
26990,45768
26690,45768
26683,45767
26678,45766
26674,45763
26668,45758
26665,45756
26657,45750
26648,45747
26639,45745
26629,45745
26619,45747
26611,45750
26603,45756
26596,45762
26590,45770
26587,45779
26585,45789
26585,45794
26585,45938
26585,45947
26588,45956
26593,45965
26599,45972
26606,45979
26615,45983
26624,45986
26634,45987
26643,45986
26653,45983
26661,45979
26669,45972
26669,45972
26674,45968
26678,45966
26683,45964
26690,45964
26990,45964
26998,45964
27002,45966
27006,45968
27010,45971
27013,45975
27016,45979
27017,45984
27018,45991
27018,46134
27017,46141
27016,46146
27013,46150
27010,46154
27006,46157
27002,46159
26998,46161
26990,46161
26690,46161
26683,46161
26678,46159
26674,46157
26668,46152
26665,46149
26657,46144
26648,46140
26639,46138
26629,46138
26619,46140
26611,46144
26603,46149
26596,46156
26590,46164
26587,46173
26585,46183
26585,46187
26585,46331
26585,46341
26588,46350
26593,46359
26599,46366
26606,46372
26615,46377
26624,46380
26634,46381
26643,46380
26653,46377
26661,46372
26669,46366
26669,46365
26674,46362
26678,46359
26683,46358
26690,46357
26990,46357
26998,46358
27002,46359
27006,46362
27010,46365
27013,46369
27016,46373
27017,46377
27018,46385
27018,46528
27017,46535
27016,46540
27013,46544
27010,46548
27006,46551
27002,46553
26998,46554
26990,46555
26690,46555
26683,46554
26678,46553
26674,46551
26670,46548
26667,46544
26665,46540
26662,46532
26659,46523
26653,46515
26646,46508
26638,46503
26630,46499
26620,46498
26610,46498
26601,46499
26592,46503
26584,46508
26577,46515
26573,46522
26563,46534
26552,46543
26540,46549
26526,46553
26510,46555
26029,46555
26012,46553
25999,46549
25986,46543
25975,46534
25966,46522
25961,46515
25954,46508
25946,46503
25937,46499
25928,46498
25918,46498
25909,46499
25900,46503
25892,46508
25885,46515
25880,46523
25876,46532
25874,46540
25871,46544
25868,46548
25865,46551
25860,46553
25856,46554
25849,46555
25548,46555
25541,46554
25536,46553
25532,46551
25528,46548
25525,46544
25523,46540
25521,46535
25521,46528
25521,46385
25521,46377
25523,46373
25525,46369
25528,46365
25532,46362
25536,46359
25541,46358
25548,46357
25849,46357
25856,46358
25860,46359
25865,46362
25871,46367
25873,46369
25881,46375
25890,46378
25900,46380
25909,46380
25919,46378
25928,46375
25936,46369
25943,46363
25948,46355
25952,46346
25954,46336
25954,46331
25954,46187
25953,46178
25950,46169
25946,46160
25939,46153
25932,46146
25923,46142
25914,46139
25905,46138
25895,46139
25886,46142
25877,46146
25870,46153
25869,46153
25865,46157
25860,46159
25856,46161
25849,46161
25548,46161
25541,46161
25536,46159
25532,46157
25528,46154
25525,46150
25523,46146
25521,46141
25521,46134
25521,45991
25521,45984
25523,45979
25525,45975
25528,45971
25532,45968
25536,45966
25541,45964
25548,45964
25849,45964
25856,45964
25860,45966
25865,45968
25871,45973
25873,45976
25881,45981
25890,45985
25900,45987
25909,45987
25919,45985
25928,45981
25936,45976
25943,45969
25948,45961
25952,45952
25954,45942
25954,45938
25954,45794
25953,45784
25950,45775
25946,45766
25939,45759
25932,45753
25923,45748
25914,45745
25905,45744
25895,45745
25886,45748
25877,45753
25870,45759
25869,45760
25865,45763
25860,45766
25856,45767
25849,45768
25548,45768
25541,45767
25536,45766
25532,45763
25528,45760
25525,45756
25523,45752
25521,45748
25521,45740
25521,45597
25521,45590
25523,45585
25525,45581
25528,45577
25532,45574
25536,45572
25541,45571
25548,45570
25849,45570
25856,45571
Z" /> 
<path style="fill:#000000; fill-opacity:1.0; 
stroke:#000000; stroke-width:0; stroke-opacity:1; 
stroke-linecap:round; stroke-linejoin:round;fill-rule:evenodd;"
d="M 25150,45933
25158,45936
25165,45940
25172,45945
25177,45952
25181,45959
25184,45967
25185,45978
25185,46159
25184,46170
25181,46178
25177,46185
25172,46192
25165,46197
25158,46201
25150,46204
25139,46205
24939,46205
24928,46204
24920,46201
24912,46197
24906,46192
24900,46185
24896,46178
24894,46170
24893,46159
24893,45978
24894,45967
24896,45959
24900,45952
24906,45945
24912,45940
24920,45936
24928,45933
24939,45932
25139,45932
25150,45933
Z" /> 
<path style="fill:#000000; fill-opacity:1.0; 
stroke:#000000; stroke-width:0; stroke-opacity:1; 
stroke-linecap:round; stroke-linejoin:round;fill-rule:evenodd;"
d="M 17811,45327
17819,45329
17827,45333
17833,45339
17839,45345
17843,45353
17845,45361
17846,45372
17846,45572
17845,45583
17843,45591
17839,45599
17833,45605
17827,45610
17819,45614
17811,45617
17800,45618
17620,45618
17609,45617
17601,45614
17593,45610
17587,45605
17581,45599
17577,45591
17575,45583
17574,45572
17574,45372
17575,45361
17577,45353
17581,45345
17587,45339
17593,45333
17601,45329
17609,45327
17620,45326
17800,45326
17811,45327
Z" /> 
<path style="fill:#000000; fill-opacity:1.0; 
stroke:#000000; stroke-width:0; stroke-opacity:1; 
stroke-linecap:round; stroke-linejoin:round;fill-rule:evenodd;"
d="M 17429,45327
17438,45329
17445,45333
17452,45339
17457,45345
17461,45353
17463,45361
17464,45372
17464,45572
17463,45583
17461,45591
17457,45599
17452,45605
17445,45610
17438,45614
17429,45617
17419,45618
17238,45618
17227,45617
17219,45614
17211,45610
17205,45605
17200,45599
17196,45591
17193,45583
17192,45572
17192,45372
17193,45361
17196,45353
17200,45345
17205,45339
17211,45333
17219,45329
17227,45327
17238,45326
17419,45326
17429,45327
Z" /> 
<path style="fill:#000000; fill-opacity:1.0; 
stroke:#000000; stroke-width:0; stroke-opacity:1; 
stroke-linecap:round; stroke-linejoin:round;fill-rule:evenodd;"
d="M 26947,44933
26955,44936
26963,44940
26969,44945
26975,44952
26979,44959
26981,44967
26982,44978
26982,45178
26981,45189
26979,45197
26975,45205
26969,45211
26963,45217
26955,45221
26947,45223
26936,45224
26756,45224
26745,45223
26737,45221
26729,45217
26723,45211
26717,45205
26713,45197
26711,45189
26710,45178
26710,44978
26711,44967
26713,44959
26717,44952
26723,44945
26729,44940
26737,44936
26745,44933
26756,44932
26936,44932
26947,44933
Z" /> 
<path style="fill:#000000; fill-opacity:1.0; 
stroke:#000000; stroke-width:0; stroke-opacity:1; 
stroke-linecap:round; stroke-linejoin:round;fill-rule:evenodd;"
d="M 27329,44933
27337,44936
27345,44940
27351,44945
27357,44952
27361,44959
27363,44967
27364,44978
27364,45178
27363,45189
27361,45197
27357,45205
27351,45211
27345,45217
27337,45221
27329,45223
27318,45224
27138,45224
27127,45223
27119,45221
27111,45217
27105,45211
27099,45205
27095,45197
27093,45189
27092,45178
27092,44978
27093,44967
27095,44959
27099,44952
27105,44945
27111,44940
27119,44936
27127,44933
27138,44932
27318,44932
27329,44933
Z" /> 
<path style="fill:#000000; fill-opacity:1.0; 
stroke:#000000; stroke-width:0; stroke-opacity:1; 
stroke-linecap:round; stroke-linejoin:round;fill-rule:evenodd;"
d="M 25803,44923
25812,44926
25819,44930
25826,44935
25831,44942
25835,44949
25837,44957
25838,44968
25838,45169
25837,45179
25835,45188
25831,45195
25826,45202
25819,45207
25812,45211
25803,45213
25793,45214
25612,45214
25601,45213
25593,45211
25586,45207
25579,45202
25574,45195
25570,45188
25567,45179
25566,45169
25566,44968
25567,44957
25570,44949
25574,44942
25579,44935
25586,44930
25593,44926
25601,44923
25612,44922
25793,44922
25803,44923
Z" /> 
<path style="fill:#000000; fill-opacity:1.0; 
stroke:#000000; stroke-width:0; stroke-opacity:1; 
stroke-linecap:round; stroke-linejoin:round;fill-rule:evenodd;"
d="M 25422,44923
25430,44926
25437,44930
25444,44935
25449,44942
25453,44949
25456,44957
25457,44968
25457,45169
25456,45179
25453,45188
25449,45195
25444,45202
25437,45207
25430,45211
25422,45213
25411,45214
25230,45214
25219,45213
25211,45211
25204,45207
25197,45202
25192,45195
25188,45188
25185,45179
25184,45169
25184,44968
25185,44957
25188,44949
25192,44942
25197,44935
25204,44930
25211,44926
25219,44923
25230,44922
25411,44922
25422,44923
Z" /> 
<path style="fill:#000000; fill-opacity:1.0; 
stroke:#000000; stroke-width:0; stroke-opacity:1; 
stroke-linecap:round; stroke-linejoin:round;fill-rule:evenodd;"
d="M 16407,45118
16131,45118
16131,44645
16407,44645
16407,45118
Z" /> 
<path style="fill:#000000; fill-opacity:1.0; 
stroke:#000000; stroke-width:0; stroke-opacity:1; 
stroke-linecap:round; stroke-linejoin:round;fill-rule:evenodd;"
d="M 16900,45118
16623,45118
16623,44645
16900,44645
16900,45118
Z" /> 
<path style="fill:#000000; fill-opacity:1.0; 
stroke:#000000; stroke-width:0; stroke-opacity:1; 
stroke-linecap:round; stroke-linejoin:round;fill-rule:evenodd;"
d="M 17392,45118
17115,45118
17115,44645
17392,44645
17392,45118
Z" /> 
<path style="fill:#000000; fill-opacity:1.0; 
stroke:#000000; stroke-width:0; stroke-opacity:1; 
stroke-linecap:round; stroke-linejoin:round;fill-rule:evenodd;"
d="M 17884,45118
17607,45118
17607,44645
17884,44645
17884,45118
Z" /> 
<path style="fill:#000000; fill-opacity:1.0; 
stroke:#000000; stroke-width:0; stroke-opacity:1; 
stroke-linecap:round; stroke-linejoin:round;fill-rule:evenodd;"
d="M 16900,44252
16623,44252
16623,43779
16900,43779
16900,44252
Z" /> 
<path style="fill:#000000; fill-opacity:1.0; 
stroke:#000000; stroke-width:0; stroke-opacity:1; 
stroke-linecap:round; stroke-linejoin:round;fill-rule:evenodd;"
d="M 17884,44252
17607,44252
17607,43779
17884,43779
17884,44252
Z" /> 
<path style="fill:#000000; fill-opacity:1.0; 
stroke:#000000; stroke-width:0; stroke-opacity:1; 
stroke-linecap:round; stroke-linejoin:round;fill-rule:evenodd;"
d="M 16407,44252
16131,44252
16131,43779
16407,43779
16407,44252
Z" /> 
<path style="fill:#000000; fill-opacity:1.0; 
stroke:#000000; stroke-width:0; stroke-opacity:1; 
stroke-linecap:round; stroke-linejoin:round;fill-rule:evenodd;"
d="M 17392,44252
17115,44252
17115,43779
17392,43779
17392,44252
Z" /> 
<path style="fill:#000000; fill-opacity:1.0; 
stroke:#000000; stroke-width:0; stroke-opacity:1; 
stroke-linecap:round; stroke-linejoin:round;fill-rule:evenodd;"
d="M 17500,41319
16751,41319
16751,40570
17500,40570
17500,41319
Z" /> 
<path style="fill:#000000; fill-opacity:1.0; 
stroke:#000000; stroke-width:0; stroke-opacity:1; 
stroke-linecap:round; stroke-linejoin:round;fill-rule:evenodd;"
d="M 22858,40230
22866,40232
22874,40236
22882,40243
23024,40385
23031,40393
23035,40401
23037,40409
23038,40417
23037,40426
23035,40434
23031,40441
23024,40450
22896,40577
22888,40584
22880,40588
22872,40591
22864,40591
22855,40591
22847,40588
22840,40584
22831,40577
22689,40436
22683,40427
22679,40420
22676,40412
22675,40403
22676,40395
22679,40387
22683,40379
22689,40371
22817,40243
22826,40236
22833,40232
22841,40230
22850,40229
22858,40230
Z" /> 
<path style="fill:#000000; fill-opacity:1.0; 
stroke:#000000; stroke-width:0; stroke-opacity:1; 
stroke-linecap:round; stroke-linejoin:round;fill-rule:evenodd;"
d="M 17235,39600
17303,39628
17303,39628
17364,39669
17416,39721
17433,39746
17457,39783
17486,39851
17500,39923
17500,39997
17486,40069
17457,40137
17449,40150
17416,40199
17364,40251
17358,40255
17303,40292
17235,40320
17162,40335
17089,40335
17016,40320
16948,40292
16893,40255
16887,40251
16835,40199
16802,40150
16794,40137
16765,40069
16751,39997
16751,39923
16765,39851
16794,39783
16818,39746
16835,39721
16887,39669
16948,39628
16948,39628
17016,39600
17089,39586
17162,39586
17235,39600
Z" /> 
<path style="fill:#000000; fill-opacity:1.0; 
stroke:#000000; stroke-width:0; stroke-opacity:1; 
stroke-linecap:round; stroke-linejoin:round;fill-rule:evenodd;"
d="M 23128,39960
23136,39962
23144,39966
23152,39973
23294,40115
23301,40123
23305,40130
23307,40139
23308,40147
23307,40155
23305,40164
23301,40171
23294,40180
23166,40307
23158,40314
23150,40318
23142,40321
23134,40321
23125,40321
23117,40318
23110,40314
23101,40307
22960,40166
22953,40157
22949,40150
22946,40142
22945,40133
22946,40125
22949,40117
22953,40109
22960,40101
23087,39973
23096,39966
23103,39962
23111,39960
23120,39959
23128,39960
Z" /> 
<path style="fill:#000000; fill-opacity:1.0; 
stroke:#000000; stroke-width:0; stroke-opacity:1; 
stroke-linecap:round; stroke-linejoin:round;fill-rule:evenodd;"
d="M 21725,39954
21733,39956
21740,39960
21749,39967
21876,40095
21883,40104
21887,40111
21890,40119
21891,40128
21890,40136
21887,40144
21883,40152
21876,40160
21735,40302
21726,40309
21719,40313
21711,40315
21702,40316
21694,40315
21686,40313
21678,40309
21670,40302
21542,40174
21535,40166
21531,40158
21529,40150
21528,40141
21529,40133
21531,40125
21535,40117
21542,40109
21684,39967
21692,39960
21700,39956
21708,39954
21716,39953
21725,39954
Z" /> 
<path style="fill:#000000; fill-opacity:1.0; 
stroke:#000000; stroke-width:0; stroke-opacity:1; 
stroke-linecap:round; stroke-linejoin:round;fill-rule:evenodd;"
d="M 22543,39915
22551,39917
22559,39921
22567,39928
22709,40070
22716,40078
22720,40086
22722,40094
22723,40102
22722,40111
22720,40119
22716,40126
22709,40135
22581,40262
22573,40269
22565,40273
22557,40276
22549,40276
22540,40276
22532,40273
22525,40269
22516,40262
22375,40121
22368,40112
22364,40105
22361,40097
22360,40088
22361,40080
22364,40072
22368,40064
22375,40056
22502,39928
22511,39921
22518,39917
22526,39915
22535,39914
22543,39915
Z" /> 
<path style="fill:#000000; fill-opacity:1.0; 
stroke:#000000; stroke-width:0; stroke-opacity:1; 
stroke-linecap:round; stroke-linejoin:round;fill-rule:evenodd;"
d="M 21455,39684
21463,39686
21470,39690
21479,39697
21606,39825
21613,39833
21617,39841
21620,39849
21621,39858
21620,39866
21617,39874
21613,39882
21606,39890
21465,40032
21456,40039
21449,40043
21441,40045
21432,40046
21424,40045
21416,40043
21408,40039
21400,40032
21272,39904
21265,39895
21261,39888
21259,39880
21258,39871
21259,39863
21261,39855
21265,39847
21272,39839
21414,39697
21422,39690
21430,39686
21438,39684
21446,39683
21455,39684
Z" /> 
<path style="fill:#000000; fill-opacity:1.0; 
stroke:#000000; stroke-width:0; stroke-opacity:1; 
stroke-linecap:round; stroke-linejoin:round;fill-rule:evenodd;"
d="M 22813,39645
22821,39647
22829,39651
22837,39658
22979,39800
22986,39808
22990,39816
22992,39824
22993,39832
22992,39841
22990,39849
22986,39856
22979,39865
22851,39992
22843,39999
22835,40003
22827,40006
22819,40006
22810,40006
22802,40003
22795,39999
22786,39992
22645,39851
22638,39842
22634,39835
22631,39827
22630,39818
22631,39810
22634,39802
22638,39794
22645,39786
22772,39658
22781,39651
22788,39647
22796,39645
22805,39644
22813,39645
Z" /> 
<path style="fill:#000000; fill-opacity:1.0; 
stroke:#000000; stroke-width:0; stroke-opacity:1; 
stroke-linecap:round; stroke-linejoin:round;fill-rule:evenodd;"
d="M 23496,39521
23504,39523
23512,39527
23520,39534
23648,39662
23655,39670
23659,39678
23661,39686
23662,39694
23661,39703
23659,39711
23655,39719
23648,39727
23506,39869
23498,39876
23491,39880
23482,39882
23474,39883
23466,39882
23457,39880
23450,39876
23442,39869
23314,39741
23307,39732
23303,39725
23300,39717
23300,39708
23300,39700
23303,39692
23307,39684
23314,39676
23455,39534
23464,39527
23471,39523
23479,39521
23488,39520
23496,39521
Z" /> 
<path style="fill:#000000; fill-opacity:1.0; 
stroke:#000000; stroke-width:0; stroke-opacity:1; 
stroke-linecap:round; stroke-linejoin:round;fill-rule:evenodd;"
d="M 23226,39251
23234,39253
23242,39257
23250,39264
23378,39392
23385,39400
23389,39408
23391,39416
23392,39424
23391,39433
23389,39441
23385,39448
23378,39457
23236,39599
23228,39605
23221,39609
23212,39612
23204,39613
23196,39612
23187,39609
23180,39605
23172,39599
23044,39471
23037,39462
23033,39455
23030,39447
23030,39438
23030,39430
23033,39422
23037,39414
23044,39406
23185,39264
23194,39257
23201,39253
23209,39251
23218,39250
23226,39251
Z" /> 
<path style="fill:#000000; fill-opacity:1.0; 
stroke:#000000; stroke-width:0; stroke-opacity:1; 
stroke-linecap:round; stroke-linejoin:round;fill-rule:evenodd;"
d="M 19744,37482
19755,37485
19755,37485
19765,37491
19774,37498
19782,37507
19787,37517
19787,37517
19791,37529
19792,37543
19792,37547
19794,37557
19798,37566
19803,37574
19810,37581
19818,37586
19827,37590
19836,37592
19841,37592
19855,37593
19866,37596
19866,37596
19877,37602
19886,37609
19893,37618
19899,37629
19899,37629
19902,37640
19903,37654
19903,37659
19905,37668
19909,37677
19914,37685
19921,37692
19929,37697
19938,37701
19948,37703
19952,37703
19967,37704
19978,37708
19978,37708
19988,37713
19997,37721
20005,37730
20010,37740
20010,37740
20013,37751
20015,37765
20015,37770
20017,37780
20020,37789
20026,37797
20033,37803
20041,37809
20050,37812
20059,37814
20064,37814
20078,37816
20089,37819
20089,37819
20099,37825
20108,37832
20116,37841
20121,37851
20121,37851
20125,37863
20126,37877
20126,37882
20128,37891
20132,37900
20137,37908
20144,37915
20152,37920
20161,37924
20170,37926
20175,37926
20189,37927
20200,37931
20200,37931
20211,37936
20220,37943
20227,37953
20233,37963
20233,37963
20236,37974
20238,37988
20238,37993
20239,38002
20243,38011
20248,38019
20255,38026
20263,38031
20272,38035
20282,38037
20287,38037
20301,38038
20312,38042
20312,38042
20322,38047
20331,38055
20339,38064
20344,38074
20344,38074
20348,38085
20349,38099
20349,38104
20351,38114
20354,38123
20360,38131
20367,38137
20375,38143
20384,38147
20393,38148
20398,38148
20412,38150
20423,38153
20423,38153
20433,38159
20443,38166
20450,38175
20455,38184
20455,38186
20459,38197
20460,38211
20460,38216
20462,38225
20466,38234
20471,38242
20478,38249
20486,38254
20495,38258
20504,38260
20509,38260
20523,38261
20535,38265
20535,38265
20545,38270
20554,38278
20561,38287
20567,38297
20567,38297
20570,38308
20572,38322
20572,38327
20574,38336
20577,38345
20583,38353
20589,38360
20597,38366
20606,38369
20616,38371
20621,38371
20635,38373
20646,38376
20646,38376
20656,38381
20665,38389
20673,38398
20677,38405
20678,38408
20682,38419
20683,38434
20683,38438
20685,38448
20689,38457
20694,38465
20701,38472
20709,38477
20718,38481
20727,38482
20732,38482
20746,38484
20757,38487
20757,38487
20768,38493
20777,38500
20784,38509
20790,38520
20790,38520
20793,38531
20794,38545
20794,38550
20796,38559
20800,38568
20805,38576
20812,38583
20820,38588
20829,38592
20838,38594
20843,38594
20857,38595
20869,38599
20869,38599
20879,38604
20888,38612
20895,38621
20901,38631
20901,38631
20904,38642
20906,38656
20906,38661
20908,38671
20911,38679
20917,38687
20923,38694
20931,38700
20940,38703
20950,38705
20955,38705
20969,38707
20980,38710
20980,38710
20990,38716
20999,38723
21007,38732
21012,38742
21012,38742
21016,38754
21017,38768
21017,38772
21019,38782
21023,38791
21028,38799
21035,38806
21043,38811
21052,38815
21061,38817
21066,38817
21080,38818
21091,38821
21091,38821
21102,38827
21111,38834
21118,38843
21124,38854
21124,38854
21127,38865
21128,38879
21128,38884
21130,38893
21134,38902
21139,38910
21146,38917
21154,38922
21163,38926
21173,38928
21177,38928
21191,38929
21203,38933
21203,38933
21213,38938
21222,38946
21229,38955
21235,38965
21235,38965
21238,38976
21240,38990
21240,38995
21242,39005
21245,39013
21251,39022
21258,39028
21266,39034
21274,39037
21284,39039
21289,39039
21303,39041
21314,39044
21314,39044
21324,39050
21333,39057
21341,39066
21346,39076
21346,39076
21350,39088
21351,39102
21351,39106
21353,39116
21357,39125
21362,39133
21369,39140
21377,39145
21386,39149
21395,39151
21400,39151
21414,39152
21425,39155
21425,39155
21436,39161
21445,39168
21452,39177
21458,39188
21458,39188
21461,39199
21462,39213
21462,39218
21464,39227
21468,39236
21473,39244
21480,39251
21488,39256
21497,39260
21507,39262
21511,39262
21526,39263
21537,39267
21537,39267
21547,39272
21556,39280
21564,39289
21569,39299
21569,39299
21572,39310
21574,39322
21572,39334
21569,39345
21569,39345
21564,39355
21558,39362
21387,39533
21380,39539
21370,39544
21364,39546
21358,39548
21347,39549
21335,39548
21330,39546
21324,39544
21314,39539
21305,39531
21297,39522
21292,39512
21290,39506
21288,39501
21287,39487
21287,39482
21285,39472
21281,39463
21276,39455
21269,39449
21261,39443
21252,39439
21243,39438
21238,39438
21224,39436
21218,39435
21213,39433
21202,39427
21193,39420
21186,39411
21180,39400
21178,39394
21177,39389
21175,39375
21175,39370
21174,39361
21170,39352
21165,39344
21158,39337
21150,39332
21141,39328
21131,39326
21127,39326
21112,39325
21107,39323
21101,39321
21091,39316
21082,39309
21074,39299
21069,39289
21067,39284
21066,39278
21064,39264
21064,39259
21062,39250
21059,39241
21053,39233
21046,39226
21038,39220
21029,39217
21020,39215
21015,39215
21001,39214
20995,39212
20990,39210
20980,39205
20971,39197
20963,39188
20958,39178
20956,39172
20954,39167
20953,39153
20953,39148
20951,39138
20947,39129
20942,39121
20935,39114
20927,39109
20918,39105
20909,39104
20904,39104
20890,39102
20884,39100
20879,39099
20868,39093
20859,39086
20852,39077
20846,39066
20845,39061
20843,39055
20841,39041
20841,39036
20840,39027
20836,39018
20830,39010
20824,39003
20816,38998
20807,38994
20797,38992
20792,38992
20778,38991
20773,38989
20767,38987
20757,38982
20748,38974
20740,38965
20735,38955
20732,38946
20731,38944
20730,38930
20730,38925
20728,38916
20724,38907
20719,38899
20712,38892
20704,38886
20695,38883
20686,38881
20681,38881
20667,38879
20661,38878
20656,38876
20645,38871
20636,38863
20629,38854
20623,38844
20621,38835
20620,38833
20619,38818
20619,38814
20617,38804
20613,38795
20608,38787
20601,38780
20593,38775
20584,38771
20575,38769
20570,38769
20556,38768
20550,38766
20544,38765
20534,38759
20525,38752
20518,38743
20512,38732
20510,38727
20509,38721
20507,38707
20507,38702
20505,38693
20502,38684
20496,38676
20490,38669
20482,38664
20473,38660
20463,38658
20458,38658
20444,38657
20439,38655
20433,38653
20423,38648
20414,38640
20406,38631
20401,38621
20398,38612
20397,38610
20396,38596
20396,38591
20394,38581
20390,38573
20385,38565
20378,38558
20370,38552
20361,38549
20352,38547
20347,38547
20333,38545
20327,38544
20322,38542
20311,38536
20302,38529
20295,38520
20289,38510
20287,38500
20286,38498
20285,38484
20285,38480
20283,38470
20279,38461
20274,38453
20267,38446
20259,38441
20250,38437
20240,38435
20236,38435
20222,38434
20216,38432
20210,38431
20200,38425
20191,38418
20184,38409
20178,38398
20176,38393
20175,38387
20173,38373
20173,38368
20171,38359
20168,38350
20162,38342
20156,38335
20148,38330
20139,38326
20129,38324
20124,38324
20110,38323
20105,38321
20099,38319
20089,38314
20080,38306
20072,38297
20067,38287
20064,38278
20063,38276
20062,38262
20062,38257
20060,38247
20056,38238
20051,38230
20044,38224
20036,38218
20027,38215
20018,38213
20013,38213
19999,38211
19993,38210
19988,38208
19977,38202
19968,38195
19961,38186
19955,38176
19954,38170
19952,38164
19951,38150
19951,38145
19949,38136
19945,38127
19940,38119
19933,38112
19925,38107
19916,38103
19906,38101
19902,38101
19888,38100
19882,38098
19876,38097
19866,38091
19857,38084
19850,38075
19844,38064
19842,38059
19841,38053
19839,38039
19839,38034
19837,38025
19834,38016
19828,38008
19821,38001
19813,37996
19805,37992
19795,37990
19790,37990
19776,37989
19771,37987
19765,37985
19755,37980
19746,37972
19738,37963
19733,37953
19731,37947
19729,37942
19728,37928
19728,37923
19726,37913
19722,37904
19717,37896
19710,37890
19702,37884
19693,37881
19684,37879
19679,37879
19665,37877
19659,37876
19654,37874
19643,37868
19634,37861
19627,37852
19621,37842
19620,37836
19618,37830
19617,37816
19617,37811
19615,37802
19611,37793
19606,37785
19599,37778
19591,37773
19582,37769
19572,37767
19568,37767
19553,37766
19548,37764
19542,37762
19532,37757
19523,37750
19515,37740
19510,37730
19508,37725
19507,37719
19505,37707
19507,37696
19508,37690
19510,37684
19515,37674
19521,37667
19692,37496
19699,37491
19709,37485
19709,37485
19721,37482
19732,37481
19744,37482
Z" /> 
<path style="fill:#000000; fill-opacity:1.0; 
stroke:#000000; stroke-width:0; stroke-opacity:1; 
stroke-linecap:round; stroke-linejoin:round;fill-rule:evenodd;"
d="M 23586,37482
23591,37483
23597,37485
23607,37491
23614,37496
23785,37667
23791,37674
23792,37677
23796,37684
23800,37696
23801,37707
23800,37719
23796,37730
23796,37730
23791,37740
23783,37750
23774,37757
23764,37762
23764,37762
23753,37766
23739,37767
23734,37767
23724,37769
23715,37773
23707,37778
23701,37785
23695,37793
23691,37802
23690,37811
23690,37816
23688,37830
23685,37841
23685,37842
23679,37852
23672,37861
23663,37868
23653,37874
23652,37874
23641,37877
23627,37879
23622,37879
23613,37881
23604,37884
23596,37890
23589,37896
23584,37904
23580,37913
23578,37923
23578,37928
23577,37942
23574,37953
23573,37953
23568,37963
23560,37972
23551,37980
23541,37985
23541,37985
23530,37989
23516,37990
23511,37990
23502,37992
23493,37996
23485,38001
23478,38008
23472,38016
23469,38025
23467,38034
23467,38039
23465,38053
23462,38064
23462,38064
23457,38075
23449,38084
23440,38091
23430,38097
23430,38097
23419,38100
23404,38101
23400,38101
23390,38103
23381,38107
23373,38112
23366,38119
23361,38127
23357,38136
23356,38145
23356,38150
23354,38164
23351,38175
23351,38176
23345,38186
23338,38195
23329,38202
23318,38208
23318,38208
23307,38211
23293,38213
23288,38213
23279,38215
23270,38218
23262,38224
23255,38230
23250,38238
23246,38247
23244,38257
23244,38262
23243,38276
23239,38287
23239,38287
23234,38297
23226,38306
23217,38314
23208,38319
23207,38319
23196,38323
23182,38324
23177,38324
23167,38326
23159,38330
23151,38335
23144,38342
23138,38350
23135,38359
23133,38368
23133,38373
23131,38387
23128,38398
23128,38398
23122,38409
23115,38418
23106,38425
23096,38431
23096,38431
23084,38434
23070,38435
23066,38435
23056,38437
23047,38441
23039,38446
23032,38453
23027,38461
23023,38470
23021,38480
23021,38484
23020,38498
23017,38509
23017,38510
23011,38520
23004,38529
22995,38536
22984,38542
22984,38542
22973,38545
22959,38547
22954,38547
22945,38549
22936,38552
22928,38558
22921,38565
22916,38573
22912,38581
22910,38591
22910,38596
22909,38610
22905,38621
22905,38621
22900,38631
22892,38640
22883,38648
22873,38653
22873,38653
22862,38657
22848,38658
22843,38658
22833,38660
22825,38664
22816,38669
22810,38676
22804,38684
22801,38693
22799,38702
22799,38707
22797,38721
22794,38732
22794,38732
22788,38743
22781,38752
22772,38759
22762,38765
22762,38765
22750,38768
22736,38769
22732,38769
22722,38771
22713,38775
22705,38780
22698,38787
22693,38795
22689,38804
22687,38814
22687,38818
22686,38833
22683,38843
22683,38844
22677,38854
22670,38863
22661,38871
22650,38876
22650,38876
22639,38879
22625,38881
22620,38881
22611,38883
22602,38886
22594,38892
22587,38899
22582,38907
22578,38916
22576,38925
22576,38930
22575,38944
22571,38955
22571,38955
22566,38965
22558,38974
22549,38982
22539,38987
22539,38987
22528,38991
22514,38992
22509,38992
22499,38994
22490,38998
22482,39003
22476,39010
22470,39018
22467,39027
22465,39036
22465,39041
22463,39055
22460,39066
22460,39066
22454,39077
22447,39086
22438,39093
22428,39099
22428,39099
22416,39102
22402,39104
22397,39104
22388,39105
22379,39109
22371,39114
22364,39121
22359,39129
22355,39138
22353,39148
22353,39153
22352,39167
22349,39177
22349,39178
22343,39188
22336,39197
22327,39205
22316,39210
22316,39210
22305,39214
22291,39215
22286,39215
22277,39217
22268,39220
22260,39226
22253,39233
22248,39241
22244,39250
22242,39259
22242,39264
22241,39278
22237,39289
22237,39289
22232,39299
22224,39309
22215,39316
22205,39321
22205,39321
22194,39325
22180,39326
22175,39326
22165,39328
22156,39332
22148,39337
22142,39344
22136,39352
22132,39361
22131,39370
22131,39375
22129,39389
22126,39400
22126,39400
22120,39411
22113,39420
22104,39427
22093,39433
22093,39433
22082,39436
22068,39438
22063,39438
22054,39439
22045,39443
22037,39449
22030,39455
22025,39463
22021,39472
22019,39482
22019,39487
22018,39501
22014,39512
22014,39512
22009,39522
22002,39531
21992,39539
21982,39544
21982,39544
21971,39548
21959,39549
21948,39548
21936,39544
21936,39544
21926,39539
21919,39533
21748,39362
21743,39355
21737,39345
21734,39334
21734,39334
21733,39322
21734,39310
21737,39299
21737,39299
21743,39289
21750,39280
21759,39272
21769,39267
21775,39265
21781,39263
21795,39262
21799,39262
21809,39260
21818,39256
21826,39251
21833,39244
21838,39236
21842,39227
21844,39218
21844,39213
21845,39199
21847,39191
21848,39188
21854,39177
21861,39168
21870,39161
21881,39155
21886,39154
21892,39152
21906,39151
21911,39151
21920,39149
21929,39145
21937,39140
21944,39133
21949,39125
21953,39116
21955,39106
21955,39102
21956,39088
21958,39082
21960,39076
21965,39066
21973,39057
21982,39050
21992,39044
21998,39042
22003,39041
22017,39039
22022,39039
22032,39037
22041,39034
22049,39028
22055,39022
22061,39013
22064,39005
22066,38995
22066,38990
22068,38976
22071,38965
22071,38965
22077,38955
22084,38946
22093,38938
22103,38933
22109,38931
22115,38929
22129,38928
22134,38928
22143,38926
22152,38922
22160,38917
22167,38910
22172,38902
22176,38893
22178,38884
22178,38879
22179,38865
22181,38859
22182,38854
22188,38843
22195,38834
22204,38827
22215,38821
22220,38820
22226,38818
22240,38817
22245,38817
22254,38815
22263,38811
22271,38806
22278,38799
22283,38791
22287,38782
22289,38772
22289,38768
22290,38754
22293,38745
22294,38742
22299,38732
22307,38723
22316,38716
22326,38710
22332,38708
22337,38707
22351,38705
22356,38705
22366,38703
22375,38700
22383,38694
22389,38687
22395,38679
22399,38671
22400,38661
22400,38656
22402,38642
22405,38631
22405,38631
22411,38621
22418,38612
22427,38604
22438,38599
22443,38597
22449,38595
22463,38594
22468,38594
22477,38592
22486,38588
22494,38583
22501,38576
22506,38568
22510,38559
22512,38550
22512,38545
22513,38531
22516,38520
22517,38520
22522,38509
22529,38500
22539,38493
22549,38487
22554,38486
22560,38484
22574,38482
22579,38482
22588,38481
22597,38477
22605,38472
22612,38465
22618,38457
22621,38448
22623,38438
22623,38434
22624,38419
22626,38414
22628,38408
22633,38398
22641,38389
22650,38381
22660,38376
22666,38374
22671,38373
22685,38371
22690,38371
22700,38369
22709,38366
22717,38360
22724,38353
22729,38345
22733,38336
22734,38327
22734,38322
22736,38308
22738,38303
22739,38297
22745,38287
22752,38278
22761,38270
22772,38265
22777,38263
22783,38261
22797,38260
22802,38260
22811,38258
22820,38254
22828,38249
22835,38242
22840,38234
22844,38225
22846,38216
22846,38211
22847,38197
22850,38186
22851,38186
22856,38175
22864,38166
22873,38159
22883,38153
22889,38152
22894,38150
22908,38148
22913,38148
22922,38147
22931,38143
22939,38137
22946,38131
22952,38123
22955,38114
22957,38104
22957,38099
22959,38085
22960,38080
22962,38074
22967,38064
22975,38055
22984,38047
22994,38042
23000,38040
23005,38038
23020,38037
23024,38037
23034,38035
23043,38031
23051,38026
23058,38019
23063,38011
23067,38002
23069,37993
23069,37988
23070,37974
23072,37968
23073,37963
23079,37953
23086,37943
23095,37936
23106,37931
23111,37929
23117,37927
23131,37926
23136,37926
23145,37924
23154,37920
23162,37915
23169,37908
23174,37900
23178,37891
23180,37882
23180,37877
23181,37863
23185,37852
23185,37851
23190,37841
23198,37832
23207,37825
23217,37819
23223,37817
23228,37816
23242,37814
23247,37814
23257,37812
23265,37809
23273,37803
23280,37797
23286,37789
23289,37780
23291,37770
23291,37765
23293,37751
23296,37740
23296,37740
23302,37730
23309,37721
23318,37713
23328,37708
23334,37706
23340,37704
23354,37703
23358,37703
23368,37701
23377,37697
23385,37692
23392,37685
23397,37677
23401,37668
23403,37659
23403,37654
23404,37640
23406,37634
23407,37629
23413,37618
23420,37609
23429,37602
23440,37596
23445,37595
23451,37593
23465,37592
23470,37592
23479,37590
23488,37586
23496,37581
23503,37574
23508,37566
23512,37557
23514,37547
23514,37543
23515,37529
23518,37520
23519,37517
23524,37507
23532,37498
23541,37491
23551,37485
23557,37483
23562,37482
23574,37481
23586,37482
Z" /> 
<path style="fill:#000000; fill-opacity:1.0; 
stroke:#000000; stroke-width:0; stroke-opacity:1; 
stroke-linecap:round; stroke-linejoin:round;fill-rule:evenodd;"
d="M 20229,39150
20237,39152
20244,39156
20251,39162
20256,39168
20260,39176
20263,39184
20264,39195
20264,39375
20263,39386
20260,39394
20256,39402
20251,39408
20244,39414
20237,39418
20229,39420
20218,39421
20017,39421
20007,39420
19998,39418
19991,39414
19984,39408
19979,39402
19975,39394
19973,39386
19972,39375
19972,39195
19973,39184
19975,39176
19979,39168
19984,39162
19991,39156
19998,39152
20007,39150
20017,39149
20218,39149
20229,39150
Z" /> 
<path style="fill:#000000; fill-opacity:1.0; 
stroke:#000000; stroke-width:0; stroke-opacity:1; 
stroke-linecap:round; stroke-linejoin:round;fill-rule:evenodd;"
d="M 24468,39390
23720,39390
23720,38956
24468,38956
24468,39390
Z" /> 
<path style="fill:#000000; fill-opacity:1.0; 
stroke:#000000; stroke-width:0; stroke-opacity:1; 
stroke-linecap:round; stroke-linejoin:round;fill-rule:evenodd;"
d="M 24881,38897
24886,38899
24890,38901
24894,38904
24897,38908
24899,38912
24901,38917
24901,38924
24901,39091
24901,39098
24899,39103
24895,39110
24892,39119
24890,39129
24890,39138
24892,39148
24895,39157
24899,39164
24901,39169
24901,39176
24901,39343
24901,39350
24899,39355
24897,39359
24894,39363
24890,39366
24886,39368
24881,39369
24874,39370
24731,39370
24724,39369
24719,39368
24715,39366
24711,39363
24708,39359
24706,39355
24705,39350
24704,39343
24704,39176
24705,39169
24706,39164
24710,39157
24714,39148
24716,39138
24716,39129
24714,39119
24710,39110
24706,39103
24705,39098
24704,39091
24704,38924
24705,38917
24706,38912
24708,38908
24711,38904
24715,38901
24719,38899
24724,38897
24731,38897
24874,38897
24881,38897
Z" /> 
<path style="fill:#000000; fill-opacity:1.0; 
stroke:#000000; stroke-width:0; stroke-opacity:1; 
stroke-linecap:round; stroke-linejoin:round;fill-rule:evenodd;"
d="M 17235,38616
17303,38644
17317,38653
17364,38685
17416,38737
17427,38754
17457,38799
17486,38867
17500,38939
17500,39013
17486,39085
17457,39153
17453,39160
17416,39215
17364,39267
17333,39287
17303,39308
17235,39336
17162,39350
17089,39350
17016,39336
16948,39308
16918,39287
16887,39267
16835,39215
16798,39160
16794,39153
16765,39085
16751,39013
16751,38939
16765,38867
16794,38799
16824,38754
16835,38737
16887,38685
16934,38653
16948,38644
17016,38616
17089,38601
17162,38601
17235,38616
Z" /> 
<path style="fill:#000000; fill-opacity:1.0; 
stroke:#000000; stroke-width:0; stroke-opacity:1; 
stroke-linecap:round; stroke-linejoin:round;fill-rule:evenodd;"
d="M 20229,38768
20237,38770
20244,38774
20251,38780
20256,38786
20260,38794
20263,38802
20264,38813
20264,38993
20263,39004
20260,39012
20256,39020
20251,39026
20244,39032
20237,39036
20229,39038
20218,39039
20017,39039
20007,39038
19998,39036
19991,39032
19984,39026
19979,39020
19975,39012
19973,39004
19972,38993
19972,38813
19973,38802
19975,38794
19979,38786
19984,38780
19991,38774
19998,38770
20007,38768
20017,38767
20218,38767
20229,38768
Z" /> 
<path style="fill:#000000; fill-opacity:1.0; 
stroke:#000000; stroke-width:0; stroke-opacity:1; 
stroke-linecap:round; stroke-linejoin:round;fill-rule:evenodd;"
d="M 23268,37401
21653,39016
20038,37401
21653,35786
23268,37401
Z" /> 
<path style="fill:#000000; fill-opacity:1.0; 
stroke:#000000; stroke-width:0; stroke-opacity:1; 
stroke-linecap:round; stroke-linejoin:round;fill-rule:evenodd;"
d="M 19244,38104
19253,38106
19260,38110
19268,38117
19396,38245
19403,38253
19407,38261
19410,38269
19410,38277
19410,38286
19407,38294
19403,38301
19396,38310
19255,38451
19246,38458
19239,38462
19230,38465
19222,38465
19214,38465
19205,38462
19198,38458
19190,38451
19062,38324
19055,38315
19051,38308
19048,38300
19048,38291
19048,38283
19051,38275
19055,38267
19062,38259
19203,38117
19212,38110
19219,38106
19228,38104
19236,38103
19244,38104
Z" /> 
<path style="fill:#000000; fill-opacity:1.0; 
stroke:#000000; stroke-width:0; stroke-opacity:1; 
stroke-linecap:round; stroke-linejoin:round;fill-rule:evenodd;"
d="M 24881,37992
24886,37993
24890,37996
24894,37999
24897,38002
24899,38007
24901,38011
24901,38018
24901,38185
24901,38192
24899,38197
24895,38205
24892,38214
24890,38223
24890,38233
24892,38242
24895,38251
24899,38259
24901,38263
24901,38270
24901,38437
24901,38444
24899,38449
24897,38453
24894,38457
24890,38460
24886,38462
24881,38464
24874,38464
24731,38464
24724,38464
24719,38462
24715,38460
24711,38457
24708,38453
24706,38449
24705,38444
24704,38437
24704,38270
24705,38263
24706,38259
24710,38251
24714,38242
24716,38233
24716,38223
24714,38214
24710,38205
24706,38197
24705,38192
24704,38185
24704,38018
24705,38011
24706,38007
24708,38002
24711,37999
24715,37996
24719,37993
24724,37992
24731,37991
24874,37991
24881,37992
Z" /> 
<path style="fill:#000000; fill-opacity:1.0; 
stroke:#000000; stroke-width:0; stroke-opacity:1; 
stroke-linecap:round; stroke-linejoin:round;fill-rule:evenodd;"
d="M 24468,38405
23720,38405
23720,37972
24468,37972
24468,38405
Z" /> 
<path style="fill:#000000; fill-opacity:1.0; 
stroke:#000000; stroke-width:0; stroke-opacity:1; 
stroke-linecap:round; stroke-linejoin:round;fill-rule:evenodd;"
d="M 17235,37632
17303,37660
17325,37674
17364,37701
17416,37753
17427,37769
17457,37814
17486,37882
17500,37955
17500,38029
17486,38101
17457,38169
17446,38186
17416,38230
17364,38282
17352,38290
17303,38323
17235,38352
17162,38366
17089,38366
17016,38352
16948,38323
16899,38290
16887,38282
16835,38230
16805,38186
16794,38169
16765,38101
16751,38029
16751,37955
16765,37882
16794,37814
16824,37769
16835,37753
16887,37701
16926,37674
16948,37660
17016,37632
17089,37617
17162,37617
17235,37632
Z" /> 
<path style="fill:#000000; fill-opacity:1.0; 
stroke:#000000; stroke-width:0; stroke-opacity:1; 
stroke-linecap:round; stroke-linejoin:round;fill-rule:evenodd;"
d="M 18974,37834
18982,37836
18990,37840
18998,37847
19126,37975
19133,37983
19137,37991
19139,37999
19140,38007
19139,38016
19137,38024
19133,38031
19126,38040
18984,38181
18976,38188
18969,38192
18960,38195
18952,38195
18944,38195
18935,38192
18928,38188
18920,38181
18792,38054
18785,38045
18781,38038
18778,38029
18778,38021
18778,38013
18781,38004
18785,37997
18792,37989
18933,37847
18942,37840
18949,37836
18957,37834
18966,37833
18974,37834
Z" /> 
<path style="fill:#000000; fill-opacity:1.0; 
stroke:#000000; stroke-width:0; stroke-opacity:1; 
stroke-linecap:round; stroke-linejoin:round;fill-rule:evenodd;"
d="M 24740,37256
24749,37259
24756,37263
24763,37268
24768,37274
24772,37282
24774,37290
24775,37301
24775,37501
24774,37512
24772,37520
24768,37528
24763,37534
24756,37540
24749,37544
24740,37546
24730,37547
24549,37547
24538,37546
24530,37544
24523,37540
24516,37534
24511,37528
24507,37520
24504,37512
24503,37501
24503,37301
24504,37290
24507,37282
24511,37274
24516,37268
24523,37263
24530,37259
24538,37256
24549,37255
24730,37255
24740,37256
Z" /> 
<path style="fill:#000000; fill-opacity:1.0; 
stroke:#000000; stroke-width:0; stroke-opacity:1; 
stroke-linecap:round; stroke-linejoin:round;fill-rule:evenodd;"
d="M 24359,37256
24367,37259
24374,37263
24381,37268
24386,37274
24390,37282
24393,37290
24394,37301
24394,37501
24393,37512
24390,37520
24386,37528
24381,37534
24374,37540
24367,37544
24359,37546
24348,37547
24167,37547
24156,37546
24148,37544
24141,37540
24134,37534
24129,37528
24125,37520
24122,37512
24121,37501
24121,37301
24122,37290
24125,37282
24129,37274
24134,37268
24141,37263
24148,37259
24156,37256
24167,37255
24348,37255
24359,37256
Z" /> 
<path style="fill:#000000; fill-opacity:1.0; 
stroke:#000000; stroke-width:0; stroke-opacity:1; 
stroke-linecap:round; stroke-linejoin:round;fill-rule:evenodd;"
d="M 17235,36647
17303,36676
17315,36684
17364,36717
17416,36769
17433,36794
17457,36830
17486,36898
17500,36970
17500,37044
17486,37117
17457,37185
17443,37206
17416,37246
17364,37298
17344,37312
17303,37339
17235,37367
17162,37382
17089,37382
17016,37367
16948,37339
16907,37312
16887,37298
16835,37246
16808,37206
16794,37185
16765,37117
16751,37044
16751,36970
16765,36898
16794,36830
16817,36794
16835,36769
16887,36717
16936,36684
16948,36676
17016,36647
17089,36633
17162,36633
17235,36647
Z" /> 
<path style="fill:#000000; fill-opacity:1.0; 
stroke:#000000; stroke-width:0; stroke-opacity:1; 
stroke-linecap:round; stroke-linejoin:round;fill-rule:evenodd;"
d="M 21971,35255
21982,35258
21982,35258
21992,35263
22002,35271
22009,35280
22014,35290
22014,35290
22018,35302
22019,35316
22019,35320
22021,35330
22025,35339
22030,35347
22037,35354
22045,35359
22054,35363
22063,35365
22068,35365
22082,35366
22093,35369
22093,35369
22104,35375
22113,35382
22120,35391
22126,35402
22126,35402
22129,35413
22131,35427
22131,35432
22132,35441
22136,35450
22142,35458
22148,35465
22156,35470
22165,35474
22175,35476
22180,35476
22194,35477
22205,35481
22205,35481
22215,35486
22224,35494
22232,35503
22237,35513
22237,35513
22241,35524
22242,35538
22242,35543
22244,35553
22248,35561
22253,35569
22260,35576
22268,35582
22277,35585
22286,35587
22291,35587
22305,35589
22316,35592
22316,35592
22327,35598
22336,35605
22343,35614
22349,35624
22349,35624
22352,35636
22353,35650
22353,35654
22355,35664
22359,35673
22364,35681
22371,35688
22379,35693
22388,35697
22397,35699
22402,35699
22416,35700
22428,35703
22428,35703
22438,35709
22447,35716
22454,35725
22460,35736
22460,35736
22463,35747
22465,35761
22465,35766
22467,35775
22470,35784
22476,35792
22482,35799
22490,35804
22499,35808
22509,35810
22514,35810
22528,35811
22539,35815
22539,35815
22549,35820
22558,35828
22566,35837
22571,35847
22571,35847
22575,35858
22576,35872
22576,35877
22578,35887
22582,35896
22587,35904
22594,35910
22602,35916
22611,35919
22620,35921
22625,35921
22639,35923
22650,35926
22650,35926
22661,35932
22670,35939
22677,35948
22682,35957
22683,35958
22686,35970
22687,35984
22687,35989
22689,35998
22693,36007
22698,36015
22705,36022
22713,36027
22722,36031
22732,36033
22736,36033
22750,36034
22762,36037
22762,36037
22772,36043
22781,36050
22788,36059
22793,36069
22794,36070
22797,36081
22799,36095
22799,36100
22801,36109
22804,36118
22810,36126
22816,36133
22825,36138
22833,36142
22843,36144
22848,36144
22862,36145
22873,36149
22873,36149
22883,36154
22892,36162
22900,36171
22904,36180
22905,36181
22909,36192
22910,36206
22910,36211
22912,36221
22916,36230
22921,36238
22928,36244
22936,36250
22945,36254
22954,36255
22959,36255
22973,36257
22984,36260
22984,36260
22995,36266
23004,36273
23011,36282
23016,36291
23017,36293
23020,36304
23021,36318
23021,36323
23023,36332
23027,36341
23032,36349
23039,36356
23047,36361
23056,36365
23066,36367
23070,36367
23084,36368
23096,36372
23096,36372
23106,36377
23115,36384
23122,36394
23128,36404
23128,36404
23131,36415
23133,36429
23133,36434
23135,36443
23138,36452
23144,36460
23151,36467
23159,36473
23167,36476
23177,36478
23182,36478
23196,36479
23207,36483
23207,36483
23217,36488
23226,36496
23234,36505
23239,36515
23239,36515
23243,36526
23244,36540
23244,36545
23246,36555
23250,36564
23255,36572
23262,36579
23270,36584
23279,36588
23288,36589
23293,36589
23307,36591
23318,36594
23318,36594
23329,36600
23338,36607
23345,36616
23349,36623
23351,36627
23354,36638
23356,36652
23356,36657
23357,36666
23361,36675
23366,36683
23373,36690
23381,36695
23390,36699
23400,36701
23404,36701
23419,36702
23430,36706
23430,36706
23440,36711
23449,36719
23457,36728
23462,36738
23462,36738
23465,36749
23467,36763
23467,36768
23469,36777
23472,36786
23478,36794
23485,36801
23493,36807
23502,36810
23511,36812
23516,36812
23530,36814
23541,36817
23541,36817
23551,36822
23560,36830
23568,36839
23573,36849
23573,36849
23577,36860
23578,36875
23578,36879
23580,36889
23584,36898
23589,36906
23596,36913
23604,36918
23613,36922
23622,36924
23627,36924
23641,36925
23652,36928
23652,36928
23663,36934
23672,36941
23679,36950
23685,36961
23685,36961
23688,36972
23690,36986
23690,36991
23691,37000
23695,37009
23701,37017
23707,37024
23715,37029
23724,37033
23734,37035
23739,37035
23753,37036
23764,37040
23764,37040
23774,37045
23783,37053
23791,37062
23796,37072
23796,37072
23800,37083
23801,37095
23800,37107
23796,37118
23796,37118
23791,37128
23785,37135
23614,37306
23607,37312
23597,37317
23591,37319
23586,37320
23574,37322
23562,37320
23557,37319
23551,37317
23541,37312
23532,37304
23524,37295
23519,37285
23517,37279
23515,37274
23514,37259
23514,37255
23512,37245
23508,37236
23503,37228
23496,37221
23488,37216
23479,37212
23470,37210
23465,37210
23451,37209
23445,37207
23440,37206
23429,37200
23420,37193
23413,37184
23407,37173
23405,37165
23404,37162
23403,37148
23403,37143
23401,37134
23397,37125
23392,37117
23385,37110
23377,37105
23368,37101
23358,37099
23354,37099
23340,37098
23334,37096
23328,37094
23318,37089
23309,37081
23302,37072
23296,37062
23293,37053
23293,37051
23291,37037
23291,37032
23289,37022
23286,37014
23280,37006
23273,36999
23265,36993
23257,36990
23247,36988
23242,36988
23228,36986
23223,36985
23217,36983
23207,36977
23198,36970
23190,36961
23185,36951
23182,36941
23181,36939
23180,36925
23180,36921
23178,36911
23174,36902
23169,36894
23162,36887
23154,36882
23145,36878
23136,36876
23131,36876
23117,36875
23111,36873
23106,36872
23095,36866
23086,36859
23079,36850
23073,36839
23072,36834
23070,36828
23069,36814
23069,36809
23067,36800
23063,36791
23058,36783
23051,36776
23043,36771
23034,36767
23024,36765
23020,36765
23005,36764
22999,36762
22994,36760
22984,36755
22975,36747
22967,36738
22962,36728
22960,36722
22959,36717
22957,36703
22957,36698
22955,36688
22952,36680
22946,36671
22939,36665
22931,36659
22922,36656
22913,36654
22908,36654
22894,36652
22889,36651
22883,36649
22873,36643
22864,36636
22856,36627
22851,36617
22848,36607
22847,36605
22846,36591
22846,36587
22844,36577
22840,36568
22835,36560
22828,36553
22820,36548
22811,36544
22802,36542
22797,36542
22783,36541
22777,36539
22772,36538
22761,36532
22752,36525
22745,36516
22739,36505
22738,36500
22736,36494
22734,36480
22734,36475
22733,36466
22729,36457
22724,36449
22717,36442
22709,36437
22700,36433
22690,36431
22685,36431
22671,36430
22666,36428
22660,36426
22650,36421
22641,36413
22633,36404
22628,36394
22626,36388
22624,36383
22623,36369
22623,36364
22621,36354
22618,36345
22612,36337
22605,36331
22597,36325
22588,36322
22579,36320
22574,36320
22560,36318
22554,36317
22549,36315
22539,36309
22529,36302
22522,36293
22517,36283
22514,36273
22513,36271
22512,36257
22512,36252
22510,36243
22506,36234
22501,36226
22494,36219
22486,36214
22477,36210
22468,36208
22463,36208
22449,36207
22443,36205
22438,36204
22427,36198
22418,36191
22411,36182
22405,36171
22402,36161
22402,36160
22400,36146
22400,36141
22399,36132
22395,36123
22389,36115
22383,36108
22375,36103
22366,36099
22356,36097
22351,36097
22337,36096
22332,36094
22326,36092
22316,36087
22307,36079
22299,36070
22294,36060
22291,36052
22290,36049
22289,36035
22289,36030
22287,36020
22283,36011
22278,36003
22271,35997
22263,35991
22254,35987
22245,35986
22240,35986
22226,35984
22220,35983
22215,35981
22204,35975
22195,35968
22188,35959
22182,35948
22181,35943
22179,35937
22178,35923
22178,35918
22176,35909
22172,35900
22167,35892
22160,35885
22152,35880
22143,35876
22134,35874
22129,35874
22115,35873
22109,35871
22103,35869
22093,35864
22084,35857
22077,35847
22071,35837
22068,35828
22068,35826
22066,35812
22066,35807
22064,35798
22061,35789
22055,35781
22049,35774
22041,35768
22032,35765
22022,35763
22017,35763
22003,35761
21998,35760
21992,35758
21982,35753
21973,35745
21965,35736
21960,35726
21958,35720
21956,35715
21955,35700
21955,35696
21953,35686
21949,35677
21944,35669
21937,35662
21929,35657
21920,35653
21911,35652
21906,35652
21892,35650
21886,35648
21881,35647
21870,35641
21861,35634
21854,35625
21848,35614
21847,35609
21845,35603
21844,35589
21844,35584
21842,35575
21838,35566
21833,35558
21826,35551
21818,35546
21809,35542
21799,35540
21795,35540
21781,35539
21775,35537
21769,35535
21759,35530
21750,35522
21743,35513
21737,35503
21734,35494
21734,35492
21733,35480
21734,35469
21735,35463
21737,35457
21743,35447
21748,35440
21919,35269
21926,35263
21936,35258
21936,35258
21948,35255
21959,35253
21971,35255
Z" /> 
<path style="fill:#000000; fill-opacity:1.0; 
stroke:#000000; stroke-width:0; stroke-opacity:1; 
stroke-linecap:round; stroke-linejoin:round;fill-rule:evenodd;"
d="M 21358,35255
21364,35256
21370,35258
21380,35263
21387,35269
21558,35440
21564,35447
21565,35450
21569,35457
21572,35469
21574,35480
21572,35492
21569,35503
21569,35503
21564,35513
21556,35522
21547,35530
21537,35535
21537,35535
21526,35539
21511,35540
21507,35540
21497,35542
21488,35546
21480,35551
21473,35558
21468,35566
21464,35575
21462,35584
21462,35589
21461,35603
21458,35614
21458,35614
21452,35625
21445,35634
21436,35641
21425,35647
21425,35647
21414,35650
21400,35652
21395,35652
21386,35653
21377,35657
21369,35662
21362,35669
21357,35677
21353,35686
21351,35696
21351,35700
21350,35715
21346,35725
21346,35726
21341,35736
21333,35745
21324,35753
21314,35758
21314,35758
21303,35761
21289,35763
21284,35763
21274,35765
21266,35768
21258,35774
21251,35781
21245,35789
21242,35798
21240,35807
21240,35812
21238,35826
21235,35837
21235,35837
21229,35847
21222,35857
21213,35864
21203,35869
21203,35869
21191,35873
21177,35874
21173,35874
21163,35876
21154,35880
21146,35885
21139,35892
21134,35900
21130,35909
21128,35918
21128,35923
21127,35937
21124,35948
21124,35948
21118,35959
21111,35968
21102,35975
21091,35981
21091,35981
21080,35984
21066,35986
21061,35986
21052,35987
21043,35991
21035,35997
21028,36003
21023,36011
21019,36020
21017,36030
21017,36035
21016,36049
21012,36059
21012,36060
21007,36070
20999,36079
20990,36087
20980,36092
20980,36092
20969,36096
20955,36097
20950,36097
20940,36099
20931,36103
20923,36108
20917,36115
20911,36123
20908,36132
20906,36141
20906,36146
20904,36160
20901,36171
20901,36171
20895,36182
20888,36191
20879,36198
20869,36204
20869,36204
20857,36207
20843,36208
20838,36208
20829,36210
20820,36214
20812,36219
20805,36226
20800,36234
20796,36243
20794,36252
20794,36257
20793,36271
20790,36282
20790,36283
20784,36293
20777,36302
20768,36309
20757,36315
20757,36315
20746,36318
20732,36320
20727,36320
20718,36322
20709,36325
20701,36331
20694,36337
20689,36345
20685,36354
20683,36364
20683,36369
20682,36383
20678,36394
20678,36394
20673,36404
20665,36413
20656,36421
20646,36426
20646,36426
20635,36430
20621,36431
20616,36431
20606,36433
20597,36437
20589,36442
20583,36449
20577,36457
20574,36466
20572,36475
20572,36480
20570,36494
20567,36505
20567,36505
20561,36516
20554,36525
20545,36532
20535,36538
20535,36538
20523,36541
20509,36542
20504,36542
20495,36544
20486,36548
20478,36553
20471,36560
20466,36568
20462,36577
20460,36587
20460,36591
20459,36605
20456,36616
20455,36617
20450,36627
20443,36636
20433,36643
20423,36649
20423,36649
20412,36652
20398,36654
20393,36654
20384,36656
20375,36659
20367,36665
20360,36671
20354,36679
20351,36688
20349,36698
20349,36703
20348,36717
20344,36728
20344,36728
20339,36738
20331,36747
20322,36755
20312,36760
20312,36760
20301,36764
20287,36765
20282,36765
20272,36767
20263,36771
20255,36776
20248,36783
20243,36791
20239,36800
20238,36809
20238,36814
20236,36828
20233,36839
20233,36839
20227,36850
20220,36859
20211,36866
20200,36872
20200,36872
20189,36875
20175,36876
20170,36876
20161,36878
20152,36882
20144,36887
20137,36894
20132,36902
20128,36911
20126,36921
20126,36925
20125,36939
20122,36950
20121,36951
20116,36961
20108,36970
20099,36977
20089,36983
20089,36983
20078,36986
20064,36988
20059,36988
20050,36990
20041,36993
20033,36999
20026,37006
20020,37014
20017,37022
20015,37032
20015,37037
20013,37051
20010,37062
20010,37062
20005,37072
19997,37081
19988,37089
19978,37094
19978,37094
19967,37098
19952,37099
19948,37099
19938,37101
19929,37105
19921,37110
19914,37117
19909,37125
19905,37134
19903,37143
19903,37148
19902,37162
19899,37173
19899,37173
19893,37184
19886,37193
19877,37200
19866,37206
19866,37206
19855,37209
19841,37210
19836,37210
19827,37212
19818,37216
19810,37221
19803,37228
19798,37236
19794,37245
19792,37255
19792,37259
19791,37274
19788,37282
19787,37285
19782,37295
19774,37304
19765,37312
19755,37317
19755,37317
19744,37320
19732,37322
19721,37320
19709,37317
19709,37317
19699,37312
19692,37306
19521,37135
19515,37128
19510,37118
19508,37110
19507,37107
19505,37095
19507,37083
19510,37072
19510,37072
19515,37062
19523,37053
19532,37045
19542,37040
19548,37038
19553,37036
19568,37035
19572,37035
19582,37033
19591,37029
19599,37024
19606,37017
19611,37009
19615,37000
19617,36991
19617,36986
19618,36972
19621,36961
19621,36961
19627,36950
19634,36941
19643,36934
19654,36928
19659,36927
19665,36925
19679,36924
19684,36924
19693,36922
19702,36918
19710,36913
19717,36906
19722,36898
19726,36889
19728,36879
19728,36875
19729,36860
19731,36855
19733,36849
19738,36839
19746,36830
19755,36822
19765,36817
19771,36815
19776,36814
19790,36812
19795,36812
19805,36810
19813,36807
19821,36801
19828,36794
19834,36786
19837,36777
19839,36768
19839,36763
19841,36749
19842,36744
19844,36738
19850,36728
19857,36719
19866,36711
19876,36706
19882,36704
19888,36702
19902,36701
19906,36701
19916,36699
19925,36695
19933,36690
19940,36683
19945,36675
19949,36666
19951,36657
19951,36652
19952,36638
19955,36627
19955,36627
19961,36616
19968,36607
19977,36600
19988,36594
19993,36593
19999,36591
20013,36589
20018,36589
20027,36588
20036,36584
20044,36579
20051,36572
20056,36564
20060,36555
20062,36545
20062,36540
20063,36526
20065,36521
20067,36515
20072,36505
20080,36496
20089,36488
20099,36483
20105,36481
20110,36479
20124,36478
20129,36478
20139,36476
20148,36473
20156,36467
20162,36460
20168,36452
20171,36443
20173,36434
20173,36429
20175,36415
20176,36409
20178,36404
20184,36394
20191,36384
20200,36377
20210,36372
20216,36370
20222,36368
20236,36367
20240,36367
20250,36365
20259,36361
20267,36356
20274,36349
20279,36341
20283,36332
20285,36323
20285,36318
20286,36304
20288,36298
20289,36293
20295,36282
20302,36273
20311,36266
20322,36260
20327,36258
20333,36257
20347,36255
20352,36255
20361,36254
20370,36250
20378,36244
20385,36238
20390,36230
20394,36221
20396,36211
20396,36206
20397,36192
20399,36187
20401,36181
20406,36171
20414,36162
20423,36154
20433,36149
20439,36147
20444,36145
20458,36144
20463,36144
20473,36142
20482,36138
20490,36133
20496,36126
20502,36118
20505,36109
20507,36100
20507,36095
20509,36081
20510,36075
20512,36070
20518,36059
20525,36050
20534,36043
20544,36037
20551,36036
20556,36034
20570,36033
20575,36033
20584,36031
20593,36027
20601,36022
20608,36015
20613,36007
20617,35998
20619,35989
20619,35984
20620,35970
20622,35964
20623,35958
20629,35948
20636,35939
20645,35932
20656,35926
20661,35924
20667,35923
20681,35921
20686,35921
20695,35919
20704,35916
20712,35910
20719,35904
20724,35896
20728,35887
20730,35877
20730,35872
20731,35858
20735,35847
20735,35847
20740,35837
20748,35828
20757,35820
20767,35815
20773,35813
20778,35811
20792,35810
20797,35810
20807,35808
20816,35804
20824,35799
20830,35792
20836,35784
20840,35775
20841,35766
20841,35761
20843,35747
20845,35741
20846,35736
20852,35725
20859,35716
20868,35709
20879,35703
20884,35702
20890,35700
20904,35699
20909,35699
20918,35697
20927,35693
20935,35688
20942,35681
20947,35673
20951,35664
20953,35654
20953,35650
20954,35636
20956,35630
20958,35624
20963,35614
20971,35605
20980,35598
20990,35592
20995,35590
21001,35589
21015,35587
21020,35587
21029,35585
21038,35582
21046,35576
21053,35569
21059,35561
21062,35553
21064,35543
21064,35538
21066,35524
21069,35513
21069,35513
21074,35503
21082,35494
21091,35486
21101,35481
21107,35479
21112,35477
21127,35476
21131,35476
21141,35474
21150,35470
21158,35465
21165,35458
21170,35450
21174,35441
21175,35432
21175,35427
21177,35413
21179,35407
21180,35402
21186,35391
21193,35382
21202,35375
21213,35369
21218,35368
21224,35366
21238,35365
21243,35365
21252,35363
21261,35359
21269,35354
21276,35347
21281,35339
21285,35330
21287,35320
21287,35316
21288,35302
21291,35292
21292,35290
21297,35280
21305,35271
21314,35263
21324,35258
21330,35256
21335,35255
21347,35253
21358,35255
Z" /> 
<path style="fill:#000000; fill-opacity:1.0; 
stroke:#000000; stroke-width:0; stroke-opacity:1; 
stroke-linecap:round; stroke-linejoin:round;fill-rule:evenodd;"
d="M 25057,35735
24416,36376
24012,35972
24653,35331
25057,35735
Z" /> 
<path style="fill:#000000; fill-opacity:1.0; 
stroke:#000000; stroke-width:0; stroke-opacity:1; 
stroke-linecap:round; stroke-linejoin:round;fill-rule:evenodd;"
d="M 25200,35856
25205,35857
25209,35860
25215,35864
25230,35880
25230,35880
25300,35950
25300,35950
25316,35965
25320,35971
25323,35975
25324,35980
25325,35985
25324,35990
25323,35994
25320,35998
25316,36004
25300,36020
25300,36020
25214,36106
25214,36106
25198,36122
25192,36127
25188,36129
25180,36131
25171,36135
25163,36140
25156,36147
25151,36155
25147,36164
25145,36172
25142,36177
25138,36182
25122,36198
25122,36198
25035,36284
25035,36284
25020,36300
25014,36305
25010,36307
25005,36308
25000,36309
24996,36308
24991,36307
24987,36305
24981,36300
24966,36284
24966,36284
24896,36215
24896,36215
24880,36199
24875,36193
24873,36189
24872,36184
24871,36180
24872,36175
24873,36170
24875,36166
24880,36160
24896,36145
24896,36145
24982,36058
24982,36058
24998,36042
25004,36038
25008,36036
25016,36033
25025,36029
25033,36024
25040,36017
25045,36009
25049,36000
25051,35992
25054,35988
25058,35982
25074,35967
25074,35967
25160,35880
25160,35880
25176,35864
25182,35860
25186,35857
25191,35856
25195,35856
25200,35856
Z" /> 
<path style="fill:#000000; fill-opacity:1.0; 
stroke:#000000; stroke-width:0; stroke-opacity:1; 
stroke-linecap:round; stroke-linejoin:round;fill-rule:evenodd;"
d="M 24570,35248
23929,35889
23525,35484
24166,34844
24570,35248
Z" /> 
<path style="fill:#000000; fill-opacity:1.0; 
stroke:#000000; stroke-width:0; stroke-opacity:1; 
stroke-linecap:round; stroke-linejoin:round;fill-rule:evenodd;"
d="M 19402,35230
19410,35232
19417,35236
19426,35243
19554,35371
19561,35379
19565,35387
19567,35395
19568,35403
19567,35412
19565,35420
19561,35427
19554,35436
19412,35577
19404,35584
19396,35588
19388,35591
19380,35591
19371,35591
19363,35588
19355,35584
19347,35577
19219,35450
19212,35441
19208,35434
19206,35426
19205,35417
19206,35409
19208,35401
19212,35393
19219,35385
19361,35243
19369,35236
19377,35232
19385,35230
19393,35229
19402,35230
Z" /> 
<path style="fill:#000000; fill-opacity:1.0; 
stroke:#000000; stroke-width:0; stroke-opacity:1; 
stroke-linecap:round; stroke-linejoin:round;fill-rule:evenodd;"
d="M 19132,34960
19140,34962
19147,34966
19156,34973
19284,35101
19291,35109
19295,35117
19297,35125
19298,35133
19297,35142
19295,35150
19291,35157
19284,35166
19142,35307
19134,35314
19126,35318
19118,35321
19109,35321
19101,35321
19093,35318
19085,35314
19077,35307
18949,35180
18942,35171
18938,35164
18936,35155
18935,35147
18936,35139
18938,35130
18942,35123
18949,35115
19091,34973
19099,34966
19107,34962
19115,34960
19123,34959
19132,34960
Z" /> 
<path style="fill:#000000; fill-opacity:1.0; 
stroke:#000000; stroke-width:0; stroke-opacity:1; 
stroke-linecap:round; stroke-linejoin:round;fill-rule:evenodd;"
d="M 19717,34915
19725,34917
19732,34921
19741,34928
19869,35056
19876,35064
19880,35072
19882,35080
19883,35088
19882,35097
19880,35105
19876,35112
19869,35121
19727,35262
19719,35269
19711,35273
19703,35276
19694,35276
19686,35276
19678,35273
19670,35269
19662,35262
19534,35135
19527,35126
19523,35119
19521,35111
19520,35102
19521,35094
19523,35086
19527,35078
19534,35070
19676,34928
19684,34921
19692,34917
19700,34915
19708,34914
19717,34915
Z" /> 
<path style="fill:#000000; fill-opacity:1.0; 
stroke:#000000; stroke-width:0; stroke-opacity:1; 
stroke-linecap:round; stroke-linejoin:round;fill-rule:evenodd;"
d="M 23094,34718
23102,34720
23110,34724
23118,34731
23260,34873
23267,34881
23271,34889
23273,34897
23274,34905
23273,34914
23271,34922
23267,34929
23260,34938
23132,35065
23124,35072
23116,35076
23108,35079
23100,35080
23091,35079
23083,35076
23076,35072
23067,35065
22926,34924
22919,34915
22915,34908
22912,34900
22911,34891
22912,34883
22915,34875
22919,34867
22926,34859
23053,34731
23062,34724
23069,34720
23077,34718
23086,34717
23094,34718
Z" /> 
<path style="fill:#000000; fill-opacity:1.0; 
stroke:#000000; stroke-width:0; stroke-opacity:1; 
stroke-linecap:round; stroke-linejoin:round;fill-rule:evenodd;"
d="M 21264,34659
21272,34661
21279,34665
21288,34672
21429,34814
21436,34822
21440,34830
21443,34838
21443,34846
21443,34855
21440,34863
21436,34870
21429,34879
21302,35006
21293,35013
21286,35017
21278,35020
21269,35021
21261,35020
21253,35017
21245,35013
21237,35006
21095,34865
21088,34856
21084,34849
21082,34841
21081,34832
21082,34824
21084,34816
21088,34808
21095,34800
21223,34672
21231,34665
21239,34661
21247,34659
21255,34658
21264,34659
Z" /> 
<path style="fill:#000000; fill-opacity:1.0; 
stroke:#000000; stroke-width:0; stroke-opacity:1; 
stroke-linecap:round; stroke-linejoin:round;fill-rule:evenodd;"
d="M 23940,34557
23945,34558
23949,34560
23955,34565
23970,34581
23970,34581
24040,34651
24040,34651
24056,34666
24061,34672
24063,34676
24064,34681
24065,34686
24064,34690
24063,34695
24061,34699
24056,34705
24040,34720
24040,34720
23954,34807
23954,34807
23938,34823
23932,34827
23928,34830
23920,34832
23911,34836
23903,34841
23896,34848
23891,34856
23887,34865
23885,34873
23882,34877
23878,34883
23862,34899
23862,34899
23776,34985
23776,34985
23760,35001
23754,35005
23750,35008
23745,35009
23741,35010
23736,35009
23731,35008
23727,35005
23721,35001
23706,34985
23706,34985
23636,34915
23636,34915
23620,34900
23616,34894
23613,34890
23612,34885
23611,34880
23612,34876
23613,34871
23616,34867
23620,34861
23636,34845
23636,34845
23722,34759
23722,34759
23738,34743
23744,34739
23748,34736
23756,34734
23765,34730
23773,34725
23780,34718
23785,34710
23789,34701
23791,34693
23794,34689
23798,34683
23814,34667
23814,34667
23901,34581
23901,34581
23916,34565
23922,34560
23926,34558
23931,34557
23936,34556
23940,34557
Z" /> 
<path style="fill:#000000; fill-opacity:1.0; 
stroke:#000000; stroke-width:0; stroke-opacity:1; 
stroke-linecap:round; stroke-linejoin:round;fill-rule:evenodd;"
d="M 19447,34645
19455,34647
19462,34651
19471,34658
19599,34786
19605,34794
19609,34802
19612,34810
19613,34818
19612,34827
19609,34835
19605,34842
19599,34851
19457,34992
19448,34999
19441,35003
19433,35006
19424,35006
19416,35006
19408,35003
19400,34999
19392,34992
19264,34865
19257,34856
19253,34849
19251,34841
19250,34832
19251,34824
19253,34816
19257,34808
19264,34800
19406,34658
19414,34651
19422,34647
19430,34645
19438,34644
19447,34645
Z" /> 
<path style="fill:#000000; fill-opacity:1.0; 
stroke:#000000; stroke-width:0; stroke-opacity:1; 
stroke-linecap:round; stroke-linejoin:round;fill-rule:evenodd;"
d="M 20032,34600
20040,34602
20047,34606
20056,34613
20184,34741
20190,34749
20194,34757
20197,34765
20198,34773
20197,34782
20194,34790
20190,34797
20184,34806
20042,34947
20033,34954
20026,34958
20018,34961
20009,34962
20001,34961
19993,34958
19985,34954
19977,34947
19849,34820
19842,34811
19838,34804
19836,34796
19835,34787
19836,34779
19838,34771
19842,34763
19849,34755
19991,34613
19999,34606
20007,34602
20015,34600
20023,34599
20032,34600
Z" /> 
<path style="fill:#000000; fill-opacity:1.0; 
stroke:#000000; stroke-width:0; stroke-opacity:1; 
stroke-linecap:round; stroke-linejoin:round;fill-rule:evenodd;"
d="M 22681,34560
22689,34563
22697,34567
22705,34574
22847,34715
22853,34724
22857,34731
22860,34739
22861,34748
22860,34756
22857,34764
22853,34772
22847,34780
22719,34908
22710,34915
22703,34919
22695,34921
22686,34922
22678,34921
22670,34919
22662,34915
22654,34908
22512,34766
22505,34758
22501,34750
22499,34742
22498,34734
22499,34725
22501,34717
22505,34710
22512,34701
22640,34574
22648,34567
22656,34563
22664,34560
22672,34559
22681,34560
Z" /> 
<path style="fill:#000000; fill-opacity:1.0; 
stroke:#000000; stroke-width:0; stroke-opacity:1; 
stroke-linecap:round; stroke-linejoin:round;fill-rule:evenodd;"
d="M 23364,34448
23372,34450
23380,34454
23388,34461
23530,34603
23537,34611
23541,34619
23543,34627
23544,34635
23543,34644
23541,34652
23537,34659
23530,34668
23402,34795
23394,34802
23386,34806
23378,34809
23370,34810
23361,34809
23353,34806
23346,34802
23337,34795
23196,34654
23189,34645
23185,34638
23182,34630
23182,34621
23182,34613
23185,34605
23189,34597
23196,34589
23323,34461
23332,34454
23339,34450
23347,34448
23356,34447
23364,34448
Z" /> 
<path style="fill:#000000; fill-opacity:1.0; 
stroke:#000000; stroke-width:0; stroke-opacity:1; 
stroke-linecap:round; stroke-linejoin:round;fill-rule:evenodd;"
d="M 21534,34389
21542,34391
21549,34395
21558,34402
21699,34544
21706,34552
21710,34560
21713,34568
21714,34576
21713,34585
21710,34593
21706,34600
21699,34609
21572,34736
21563,34743
21556,34747
21548,34750
21539,34751
21531,34750
21523,34747
21515,34743
21507,34736
21365,34595
21358,34586
21354,34579
21352,34571
21351,34562
21352,34554
21354,34546
21358,34538
21365,34530
21493,34402
21501,34395
21509,34391
21517,34389
21525,34388
21534,34389
Z" /> 
<path style="fill:#000000; fill-opacity:1.0; 
stroke:#000000; stroke-width:0; stroke-opacity:1; 
stroke-linecap:round; stroke-linejoin:round;fill-rule:evenodd;"
d="M 20968,34363
20976,34366
20984,34370
20992,34377
21134,34518
21141,34527
21145,34534
21147,34542
21148,34551
21147,34559
21145,34567
21141,34575
21134,34583
21006,34711
20998,34718
20990,34722
20982,34724
20974,34725
20965,34724
20957,34722
20950,34718
20941,34711
20800,34569
20793,34561
20789,34554
20786,34545
20785,34537
20786,34529
20789,34520
20793,34513
20800,34505
20927,34377
20936,34370
20943,34366
20951,34363
20960,34363
20968,34363
Z" /> 
<path style="fill:#000000; fill-opacity:1.0; 
stroke:#000000; stroke-width:0; stroke-opacity:1; 
stroke-linecap:round; stroke-linejoin:round;fill-rule:evenodd;"
d="M 26653,34705
25865,34705
25865,33838
26653,33838
26653,34705
Z" /> 
<path style="fill:#000000; fill-opacity:1.0; 
stroke:#000000; stroke-width:0; stroke-opacity:1; 
stroke-linecap:round; stroke-linejoin:round;fill-rule:evenodd;"
d="M 19762,34330
19770,34332
19777,34336
19786,34343
19914,34471
19920,34479
19924,34487
19927,34495
19928,34503
19927,34512
19924,34520
19920,34527
19914,34536
19772,34677
19763,34684
19756,34688
19748,34691
19739,34691
19731,34691
19723,34688
19715,34684
19707,34677
19579,34550
19572,34541
19568,34534
19566,34526
19565,34517
19566,34509
19568,34501
19572,34493
19579,34485
19721,34343
19729,34336
19737,34332
19745,34330
19753,34329
19762,34330
Z" /> 
<path style="fill:#000000; fill-opacity:1.0; 
stroke:#000000; stroke-width:0; stroke-opacity:1; 
stroke-linecap:round; stroke-linejoin:round;fill-rule:evenodd;"
d="M 22951,34290
22959,34293
22967,34297
22975,34304
23117,34445
23124,34454
23128,34461
23130,34469
23131,34478
23130,34486
23128,34494
23124,34502
23117,34510
22989,34638
22980,34645
22973,34649
22965,34651
22956,34652
22948,34651
22940,34649
22932,34645
22924,34638
22782,34496
22775,34488
22771,34480
22769,34472
22768,34464
22769,34455
22771,34447
22775,34440
22782,34431
22910,34304
22918,34297
22926,34293
22934,34290
22943,34289
22951,34290
Z" /> 
<path style="fill:#000000; fill-opacity:1.0; 
stroke:#000000; stroke-width:0; stroke-opacity:1; 
stroke-linecap:round; stroke-linejoin:round;fill-rule:evenodd;"
d="M 20347,34285
20355,34287
20362,34291
20371,34298
20499,34426
20505,34434
20509,34442
20512,34450
20513,34458
20512,34467
20509,34475
20505,34482
20499,34491
20357,34632
20348,34639
20341,34643
20333,34646
20324,34647
20316,34646
20308,34643
20300,34639
20292,34632
20164,34505
20157,34496
20153,34489
20151,34481
20150,34472
20151,34464
20153,34456
20157,34448
20164,34440
20306,34298
20314,34291
20322,34287
20330,34285
20338,34284
20347,34285
Z" /> 
<path style="fill:#000000; fill-opacity:1.0; 
stroke:#000000; stroke-width:0; stroke-opacity:1; 
stroke-linecap:round; stroke-linejoin:round;fill-rule:evenodd;"
d="M 21238,34093
21246,34096
21254,34100
21262,34107
21404,34248
21411,34257
21415,34264
21417,34272
21418,34281
21417,34289
21415,34297
21411,34305
21404,34313
21276,34441
21268,34448
21260,34452
21252,34454
21244,34455
21235,34454
21227,34452
21220,34448
21211,34441
21070,34299
21063,34291
21059,34284
21056,34275
21056,34267
21056,34259
21059,34250
21063,34243
21070,34235
21197,34107
21206,34100
21213,34096
21221,34093
21230,34093
21238,34093
Z" /> 
<path style="fill:#000000; fill-opacity:1.0; 
stroke:#000000; stroke-width:0; stroke-opacity:1; 
stroke-linecap:round; stroke-linejoin:round;fill-rule:evenodd;"
d="M 20077,34015
20085,34017
20092,34021
20101,34028
20228,34156
20235,34164
20239,34172
20242,34180
20243,34188
20242,34197
20239,34205
20235,34212
20228,34221
20087,34362
20078,34369
20071,34373
20063,34376
20054,34377
20046,34376
20038,34373
20030,34369
20022,34362
19894,34235
19887,34226
19883,34219
19881,34211
19880,34202
19881,34194
19883,34186
19887,34178
19894,34170
20036,34028
20044,34021
20052,34017
20060,34015
20068,34014
20077,34015
Z" /> 
<path style="fill:#000000; fill-opacity:1.0; 
stroke:#000000; stroke-width:0; stroke-opacity:1; 
stroke-linecap:round; stroke-linejoin:round;fill-rule:evenodd;"
d="M 25162,33565
25205,33578
25205,33578
25219,33586
25244,33599
25279,33628
25307,33662
25321,33687
25328,33702
25328,33702
25341,33744
25345,33789
25341,33833
25328,33876
25328,33876
25321,33890
25307,33915
25279,33950
25244,33978
25219,33992
25205,33999
25205,33999
25162,34012
25129,34016
25028,34016
24994,34012
24952,33999
24952,33999
24937,33992
24912,33978
24878,33950
24849,33915
24836,33890
24828,33876
24828,33876
24815,33833
24811,33789
24815,33744
24828,33702
24828,33702
24836,33687
24849,33662
24878,33628
24912,33599
24937,33586
24952,33578
24952,33578
24994,33565
25028,33562
25129,33562
25162,33565
Z" /> 
<path style="fill:#000000; fill-opacity:1.0; 
stroke:#000000; stroke-width:0; stroke-opacity:1; 
stroke-linecap:round; stroke-linejoin:round;fill-rule:evenodd;"
d="M 19252,33602
17361,33602
17361,31751
19252,31751
19252,33602
Z" /> 
<path style="fill:#000000; fill-opacity:1.0; 
stroke:#000000; stroke-width:0; stroke-opacity:1; 
stroke-linecap:round; stroke-linejoin:round;fill-rule:evenodd;"
d="M 20098,33525
19664,33525
19664,33328
20098,33328
20098,33525
Z" /> 
<path style="fill:#000000; fill-opacity:1.0; 
stroke:#000000; stroke-width:0; stroke-opacity:1; 
stroke-linecap:round; stroke-linejoin:round;fill-rule:evenodd;"
d="M 16949,33525
16515,33525
16515,33328
16949,33328
16949,33525
Z" /> 
<path style="fill:#000000; fill-opacity:1.0; 
stroke:#000000; stroke-width:0; stroke-opacity:1; 
stroke-linecap:round; stroke-linejoin:round;fill-rule:evenodd;"
d="M 20544,33205
20552,33207
20559,33211
20566,33217
20571,33223
20575,33231
20578,33239
20579,33250
20579,33430
20578,33441
20575,33449
20571,33457
20566,33463
20559,33469
20552,33473
20544,33475
20533,33476
20332,33476
20322,33475
20313,33473
20306,33469
20299,33463
20294,33457
20290,33449
20288,33441
20287,33430
20287,33250
20288,33239
20290,33231
20294,33223
20299,33217
20306,33211
20313,33207
20322,33205
20332,33204
20533,33204
20544,33205
Z" /> 
<path style="fill:#000000; fill-opacity:1.0; 
stroke:#000000; stroke-width:0; stroke-opacity:1; 
stroke-linecap:round; stroke-linejoin:round;fill-rule:evenodd;"
d="M 21016,33205
21024,33207
21032,33211
21038,33217
21044,33223
21048,33231
21050,33239
21051,33250
21051,33430
21050,33441
21048,33449
21044,33457
21038,33463
21032,33469
21024,33473
21016,33475
21005,33476
20805,33476
20794,33475
20786,33473
20778,33469
20772,33463
20766,33457
20762,33449
20760,33441
20759,33430
20759,33250
20760,33239
20762,33231
20766,33223
20772,33217
20778,33211
20786,33207
20794,33205
20805,33204
21005,33204
21016,33205
Z" /> 
<path style="fill:#000000; fill-opacity:1.0; 
stroke:#000000; stroke-width:0; stroke-opacity:1; 
stroke-linecap:round; stroke-linejoin:round;fill-rule:evenodd;"
d="M 21016,32823
21024,32825
21032,32829
21038,32835
21044,32841
21048,32849
21050,32857
21051,32868
21051,33048
21050,33059
21048,33067
21044,33075
21038,33081
21032,33087
21024,33091
21016,33093
21005,33094
20805,33094
20794,33093
20786,33091
20778,33087
20772,33081
20766,33075
20762,33067
20760,33059
20759,33048
20759,32868
20760,32857
20762,32849
20766,32841
20772,32835
20778,32829
20786,32825
20794,32823
20805,32822
21005,32822
21016,32823
Z" /> 
<path style="fill:#000000; fill-opacity:1.0; 
stroke:#000000; stroke-width:0; stroke-opacity:1; 
stroke-linecap:round; stroke-linejoin:round;fill-rule:evenodd;"
d="M 20544,32823
20552,32825
20559,32829
20566,32835
20571,32841
20575,32849
20578,32857
20579,32868
20579,33048
20578,33059
20575,33067
20571,33075
20566,33081
20559,33087
20552,33091
20544,33093
20533,33094
20332,33094
20322,33093
20313,33091
20306,33087
20299,33081
20294,33075
20290,33067
20288,33059
20287,33048
20287,32868
20288,32857
20290,32849
20294,32841
20299,32835
20306,32829
20313,32825
20322,32823
20332,32822
20533,32822
20544,32823
Z" /> 
<path style="fill:#000000; fill-opacity:1.0; 
stroke:#000000; stroke-width:0; stroke-opacity:1; 
stroke-linecap:round; stroke-linejoin:round;fill-rule:evenodd;"
d="M 16949,33025
16515,33025
16515,32828
16949,32828
16949,33025
Z" /> 
<path style="fill:#000000; fill-opacity:1.0; 
stroke:#000000; stroke-width:0; stroke-opacity:1; 
stroke-linecap:round; stroke-linejoin:round;fill-rule:evenodd;"
d="M 20098,33025
19664,33025
19664,32828
20098,32828
20098,33025
Z" /> 
<path style="fill:#000000; fill-opacity:1.0; 
stroke:#000000; stroke-width:0; stroke-opacity:1; 
stroke-linecap:round; stroke-linejoin:round;fill-rule:evenodd;"
d="M 16949,32525
16515,32525
16515,32328
16949,32328
16949,32525
Z" /> 
<path style="fill:#000000; fill-opacity:1.0; 
stroke:#000000; stroke-width:0; stroke-opacity:1; 
stroke-linecap:round; stroke-linejoin:round;fill-rule:evenodd;"
d="M 20098,32525
19664,32525
19664,32328
20098,32328
20098,32525
Z" /> 
<path style="fill:#000000; fill-opacity:1.0; 
stroke:#000000; stroke-width:0; stroke-opacity:1; 
stroke-linecap:round; stroke-linejoin:round;fill-rule:evenodd;"
d="M 16331,32221
16339,32223
16347,32227
16353,32232
16359,32239
16363,32247
16365,32255
16366,32266
16366,32446
16365,32457
16363,32465
16359,32473
16353,32479
16347,32484
16339,32488
16331,32491
16320,32492
16120,32492
16109,32491
16101,32488
16093,32484
16087,32479
16081,32473
16077,32465
16075,32457
16074,32446
16074,32266
16075,32255
16077,32247
16081,32239
16087,32232
16093,32227
16101,32223
16109,32221
16120,32220
16320,32220
16331,32221
Z" /> 
<path style="fill:#000000; fill-opacity:1.0; 
stroke:#000000; stroke-width:0; stroke-opacity:1; 
stroke-linecap:round; stroke-linejoin:round;fill-rule:evenodd;"
d="M 16331,31839
16339,31841
16347,31845
16353,31851
16359,31857
16363,31865
16365,31873
16366,31884
16366,32064
16365,32075
16363,32083
16359,32091
16353,32097
16347,32103
16339,32107
16331,32109
16320,32110
16120,32110
16109,32109
16101,32107
16093,32103
16087,32097
16081,32091
16077,32083
16075,32075
16074,32064
16074,31884
16075,31873
16077,31865
16081,31857
16087,31851
16093,31845
16101,31841
16109,31839
16120,31838
16320,31838
16331,31839
Z" /> 
<path style="fill:#000000; fill-opacity:1.0; 
stroke:#000000; stroke-width:0; stroke-opacity:1; 
stroke-linecap:round; stroke-linejoin:round;fill-rule:evenodd;"
d="M 25162,31656
25205,31669
25205,31669
25219,31676
25244,31690
25279,31718
25307,31753
25318,31774
25328,31792
25328,31792
25341,31835
25345,31879
25341,31924
25329,31965
25328,31967
25324,31974
25307,32006
25279,32041
25244,32069
25224,32080
25205,32090
25205,32090
25162,32103
25129,32106
25028,32106
24994,32103
24952,32090
24952,32090
24933,32080
24912,32069
24878,32041
24849,32006
24832,31974
24828,31967
24828,31965
24815,31924
24811,31879
24815,31835
24828,31792
24828,31792
24838,31774
24849,31753
24878,31718
24912,31690
24937,31676
24952,31669
24952,31669
24994,31656
25028,31653
25129,31653
25162,31656
Z" /> 
<path style="fill:#000000; fill-opacity:1.0; 
stroke:#000000; stroke-width:0; stroke-opacity:1; 
stroke-linecap:round; stroke-linejoin:round;fill-rule:evenodd;"
d="M 20098,32025
19664,32025
19664,31828
20098,31828
20098,32025
Z" /> 
<path style="fill:#000000; fill-opacity:1.0; 
stroke:#000000; stroke-width:0; stroke-opacity:1; 
stroke-linecap:round; stroke-linejoin:round;fill-rule:evenodd;"
d="M 16949,32025
16515,32025
16515,31828
16949,31828
16949,32025
Z" /> 
<path style="fill:#000000; fill-opacity:1.0; 
stroke:#000000; stroke-width:0; stroke-opacity:1; 
stroke-linecap:round; stroke-linejoin:round;fill-rule:evenodd;"
d="M 20583,31748
20591,31751
20599,31755
20605,31760
20610,31767
20614,31774
20617,31782
20618,31793
20618,31974
20617,31985
20614,31993
20610,32000
20605,32007
20599,32012
20591,32016
20583,32019
20572,32020
20372,32020
20361,32019
20353,32016
20345,32012
20339,32007
20333,32000
20329,31993
20327,31985
20326,31974
20326,31793
20327,31782
20329,31774
20333,31767
20339,31760
20345,31755
20353,31751
20361,31748
20372,31747
20572,31747
20583,31748
Z" /> 
<path style="fill:#000000; fill-opacity:1.0; 
stroke:#000000; stroke-width:0; stroke-opacity:1; 
stroke-linecap:round; stroke-linejoin:round;fill-rule:evenodd;"
d="M 26653,31831
25865,31831
25865,30964
26653,30964
26653,31831
Z" /> 
<path style="fill:#000000; fill-opacity:1.0; 
stroke:#000000; stroke-width:0; stroke-opacity:1; 
stroke-linecap:round; stroke-linejoin:round;fill-rule:evenodd;"
d="M 20583,31366
20591,31369
20599,31373
20605,31378
20610,31385
20614,31392
20617,31400
20618,31411
20618,31592
20617,31603
20614,31611
20610,31618
20605,31625
20599,31630
20591,31634
20583,31637
20572,31638
20372,31638
20361,31637
20353,31634
20345,31630
20339,31625
20333,31618
20329,31611
20327,31603
20326,31592
20326,31411
20327,31400
20329,31392
20333,31385
20339,31378
20345,31373
20353,31369
20361,31366
20372,31365
20572,31365
20583,31366
Z" /> 
<path style="fill:#000000; fill-opacity:1.0; 
stroke:#000000; stroke-width:0; stroke-opacity:1; 
stroke-linecap:round; stroke-linejoin:round;fill-rule:evenodd;"
d="M 16331,31355
16339,31357
16347,31361
16353,31366
16359,31373
16363,31380
16365,31389
16366,31399
16366,31580
16365,31591
16363,31599
16359,31606
16353,31613
16347,31618
16339,31622
16331,31625
16320,31626
16120,31626
16109,31625
16101,31622
16093,31618
16087,31613
16081,31606
16077,31599
16075,31591
16074,31580
16074,31399
16075,31389
16077,31380
16081,31373
16087,31366
16093,31361
16101,31357
16109,31355
16120,31353
16320,31353
16331,31355
Z" /> 
<path style="fill:#000000; fill-opacity:1.0; 
stroke:#000000; stroke-width:0; stroke-opacity:1; 
stroke-linecap:round; stroke-linejoin:round;fill-rule:evenodd;"
d="M 16331,30973
16339,30975
16347,30979
16353,30984
16359,30991
16363,30998
16365,31007
16366,31017
16366,31198
16365,31209
16363,31217
16359,31225
16353,31231
16347,31236
16339,31240
16331,31243
16320,31244
16120,31244
16109,31243
16101,31240
16093,31236
16087,31231
16081,31225
16077,31217
16075,31209
16074,31198
16074,31017
16075,31007
16077,30998
16081,30991
16087,30984
16093,30979
16101,30975
16109,30973
16120,30972
16320,30972
16331,30973
Z" /> 
<path style="fill:#000000; fill-opacity:1.0; 
stroke:#000000; stroke-width:0; stroke-opacity:1; 
stroke-linecap:round; stroke-linejoin:round;fill-rule:evenodd;"
d="M 22215,28813
22282,28834
22343,28867
22357,28878
22397,28911
22430,28951
22442,28965
22474,29026
22495,29093
22500,29145
22500,29279
22495,29331
22474,29398
22442,29459
22430,29473
22397,29513
22343,29558
22282,29591
22282,29591
22215,29611
22145,29618
22076,29611
22009,29591
21947,29558
21931,29544
21893,29513
21849,29459
21816,29398
21816,29398
21796,29331
21790,29279
21790,29145
21796,29093
21816,29026
21849,28965
21893,28911
21947,28867
22009,28834
22076,28813
22145,28806
22215,28813
Z" /> 
<path style="fill:#000000; fill-opacity:1.0; 
stroke:#000000; stroke-width:0; stroke-opacity:1; 
stroke-linecap:round; stroke-linejoin:round;fill-rule:evenodd;"
d="M 21230,28813
21297,28834
21359,28867
21373,28878
21413,28911
21446,28951
21457,28965
21490,29026
21511,29093
21516,29145
21516,29279
21511,29331
21490,29398
21457,29459
21446,29473
21413,29513
21359,29558
21297,29591
21297,29591
21230,29611
21161,29618
21091,29611
21025,29591
20963,29558
20946,29544
20909,29513
20865,29459
20832,29398
20832,29398
20811,29331
20806,29279
20806,29145
20811,29093
20832,29026
20865,28965
20909,28911
20963,28867
21025,28834
21091,28813
21161,28806
21230,28813
Z" /> 
<path style="fill:#000000; fill-opacity:1.0; 
stroke:#000000; stroke-width:0; stroke-opacity:1; 
stroke-linecap:round; stroke-linejoin:round;fill-rule:evenodd;"
d="M 20246,28813
20313,28834
20375,28867
20389,28878
20429,28911
20461,28951
20473,28965
20506,29026
20526,29093
20531,29145
20531,29279
20526,29331
20506,29398
20473,29459
20461,29473
20429,29513
20375,29558
20313,29591
20313,29591
20246,29611
20177,29618
20107,29611
20040,29591
19979,29558
19962,29544
19925,29513
19880,29459
19847,29398
19847,29398
19827,29331
19822,29279
19822,29145
19827,29093
19847,29026
19880,28965
19925,28911
19979,28867
20040,28834
20107,28813
20177,28806
20246,28813
Z" /> 
<path style="fill:#000000; fill-opacity:1.0; 
stroke:#000000; stroke-width:0; stroke-opacity:1; 
stroke-linecap:round; stroke-linejoin:round;fill-rule:evenodd;"
d="M 23428,28810
23441,28814
23453,28820
23464,28829
23472,28839
23479,28851
23483,28864
23484,28880
23484,29544
23483,29560
23479,29573
23472,29585
23464,29595
23453,29604
23441,29611
23428,29614
23412,29616
22847,29616
22831,29614
22818,29611
22806,29604
22795,29595
22787,29585
22780,29573
22776,29560
22775,29544
22775,28880
22776,28864
22780,28851
22787,28839
22795,28829
22806,28820
22818,28814
22831,28810
22847,28808
23412,28808
23428,28810
Z" /> 
<path style="fill:#000000; fill-opacity:1.0; 
stroke:#000000; stroke-width:0; stroke-opacity:1; 
stroke-linecap:round; stroke-linejoin:round;fill-rule:evenodd;"
d="M 25797,24908
25926,24962
26042,25039
26141,25138
26218,25254
26272,25383
26299,25520
26299,25660
26272,25797
26218,25926
26141,26042
26042,26141
25926,26218
25797,26272
25660,26299
25520,26299
25383,26272
25254,26218
25138,26141
25039,26042
24962,25926
24908,25797
24881,25660
24881,25520
24908,25383
24962,25254
25039,25138
25138,25039
25254,24962
25383,24908
25520,24881
25660,24881
25797,24908
Z" /> 
<path style="fill:#000000; fill-opacity:1.0; 
stroke:#000000; stroke-width:0; stroke-opacity:1; 
stroke-linecap:round; stroke-linejoin:round;fill-rule:evenodd;"
d="M 17923,24908
18052,24962
18168,25039
18267,25138
18344,25254
18398,25383
18425,25520
18425,25660
18398,25797
18344,25926
18267,26042
18168,26141
18052,26218
17923,26272
17786,26299
17646,26299
17509,26272
17380,26218
17264,26141
17165,26042
17088,25926
17034,25797
17007,25660
17007,25520
17034,25383
17088,25254
17165,25138
17264,25039
17380,24962
17509,24908
17646,24881
17786,24881
17923,24908
Z" /> 
</g> 
</svg>
