<?xml version="1.0" standalone="no"?>
 <!DOCTYPE svg PUBLIC "-//W3C//DTD SVG 1.1//EN" 
 "http://www.w3.org/Graphics/SVG/1.1/DTD/svg11.dtd"> 
<svg xmlns="http://www.w3.org/2000/svg" version="1.1" 
    width="29.7002cm" height="21.0007cm" viewBox="0 0 116930 82680 ">
<title>SVG Picture created as RCT-X-Logger-F_Mask.svg date 2019/09/13 06:18:06 </title>
  <desc>Picture generated by PCBNEW </desc>
<g style="fill:#000000; fill-opacity:1;stroke:#000000; stroke-opacity:1;
stroke-linecap:round; stroke-linejoin:round; "
 transform="translate(0 0) scale(1 1)">
</g>
<g style="fill:#000000; fill-opacity:0.0; 
stroke:#000000; stroke-width:-0.000393701; stroke-opacity:1; 
stroke-linecap:round; stroke-linejoin:round;">
</g>
<g style="fill:#000000; fill-opacity:1.0; 
stroke:#000000; stroke-width:0; stroke-opacity:1; 
stroke-linecap:round; stroke-linejoin:round;">
<path style="fill:#000000; fill-opacity:1.0; 
stroke:#000000; stroke-width:0; stroke-opacity:1; 
stroke-linecap:round; stroke-linejoin:round;fill-rule:evenodd;"
d="M 25797,48530
25926,48584
26042,48661
26141,48760
26218,48876
26272,49005
26299,49142
26299,49282
26272,49419
26218,49548
26141,49664
26042,49763
25926,49840
25797,49894
25660,49921
25520,49921
25383,49894
25254,49840
25138,49763
25039,49664
24962,49548
24908,49419
24881,49282
24881,49142
24908,49005
24962,48876
25039,48760
25138,48661
25254,48584
25383,48530
25520,48503
25660,48503
25797,48530
Z" /> 
<path style="fill:#000000; fill-opacity:1.0; 
stroke:#000000; stroke-width:0; stroke-opacity:1; 
stroke-linecap:round; stroke-linejoin:round;fill-rule:evenodd;"
d="M 17923,48530
18052,48584
18168,48661
18267,48760
18344,48876
18398,49005
18425,49142
18425,49282
18398,49419
18344,49548
18267,49664
18168,49763
18052,49840
17923,49894
17786,49921
17646,49921
17509,49894
17380,49840
17264,49763
17165,49664
17088,49548
17034,49419
17007,49282
17007,49142
17034,49005
17088,48876
17165,48760
17264,48661
17380,48584
17509,48530
17646,48503
17786,48503
17923,48530
Z" /> 
<path style="fill:#000000; fill-opacity:1.0; 
stroke:#000000; stroke-width:0; stroke-opacity:1; 
stroke-linecap:round; stroke-linejoin:round;fill-rule:evenodd;"
d="M 20236,48898
19605,48898
19605,43739
20236,43739
20236,48898
Z" /> 
<path style="fill:#000000; fill-opacity:1.0; 
stroke:#000000; stroke-width:0; stroke-opacity:1; 
stroke-linecap:round; stroke-linejoin:round;fill-rule:evenodd;"
d="M 23701,48898
23070,48898
23070,43739
23701,43739
23701,48898
Z" /> 
<path style="fill:#000000; fill-opacity:1.0; 
stroke:#000000; stroke-width:0; stroke-opacity:1; 
stroke-linecap:round; stroke-linejoin:round;fill-rule:evenodd;"
d="M 17291,46925
16936,46925
16936,46098
17291,46098
17291,46925
Z" /> 
<path style="fill:#000000; fill-opacity:1.0; 
stroke:#000000; stroke-width:0; stroke-opacity:1; 
stroke-linecap:round; stroke-linejoin:round;fill-rule:evenodd;"
d="M 17882,46925
17527,46925
17527,46098
17882,46098
17882,46925
Z" /> 
<path style="fill:#000000; fill-opacity:1.0; 
stroke:#000000; stroke-width:0; stroke-opacity:1; 
stroke-linecap:round; stroke-linejoin:round;fill-rule:evenodd;"
d="M 19071,46701
18834,46701
18834,46464
19071,46464
19071,46701
Z" /> 
<path style="fill:#000000; fill-opacity:1.0; 
stroke:#000000; stroke-width:0; stroke-opacity:1; 
stroke-linecap:round; stroke-linejoin:round;fill-rule:evenodd;"
d="M 18433,46358
18441,46361
18449,46365
18455,46370
18461,46377
18465,46384
18467,46392
18468,46403
18468,46584
18467,46595
18465,46603
18461,46610
18455,46617
18449,46622
18441,46626
18433,46629
18422,46630
18222,46630
18211,46629
18203,46626
18196,46622
18189,46617
18184,46610
18180,46603
18177,46595
18176,46584
18176,46403
18177,46392
18180,46384
18184,46377
18189,46370
18196,46365
18203,46361
18211,46358
18222,46357
18422,46357
18433,46358
Z" /> 
<path style="fill:#000000; fill-opacity:1.0; 
stroke:#000000; stroke-width:0; stroke-opacity:1; 
stroke-linecap:round; stroke-linejoin:round;fill-rule:evenodd;"
d="M 18433,45977
18441,45979
18449,45983
18455,45988
18461,45995
18465,46002
18467,46011
18468,46021
18468,46202
18467,46213
18465,46221
18461,46228
18455,46235
18449,46240
18441,46244
18433,46247
18422,46248
18222,46248
18211,46247
18203,46244
18196,46240
18189,46235
18184,46228
18180,46221
18177,46213
18176,46202
18176,46021
18177,46011
18180,46002
18184,45995
18189,45988
18196,45983
18203,45979
18211,45977
18222,45975
18422,45975
18433,45977
Z" /> 
<path style="fill:#000000; fill-opacity:1.0; 
stroke:#000000; stroke-width:0; stroke-opacity:1; 
stroke-linecap:round; stroke-linejoin:round;fill-rule:evenodd;"
d="M 19071,46228
18834,46228
18834,45991
19071,45991
19071,46228
Z" /> 
<path style="fill:#000000; fill-opacity:1.0; 
stroke:#000000; stroke-width:0; stroke-opacity:1; 
stroke-linecap:round; stroke-linejoin:round;fill-rule:evenodd;"
d="M 22598,44055
20708,44055
20708,43424
22598,43424
22598,44055
Z" /> 
<path style="fill:#000000; fill-opacity:1.0; 
stroke:#000000; stroke-width:0; stroke-opacity:1; 
stroke-linecap:round; stroke-linejoin:round;fill-rule:evenodd;"
d="M 24126,42969
24134,42971
24142,42975
24148,42981
24154,42987
24158,42995
24160,43003
24161,43014
24161,43194
24160,43205
24158,43213
24154,43221
24148,43227
24142,43233
24134,43237
24126,43239
24115,43240
23915,43240
23904,43239
23896,43237
23889,43233
23882,43227
23877,43221
23873,43213
23870,43205
23869,43194
23869,43014
23870,43003
23873,42995
23877,42987
23882,42981
23889,42975
23896,42971
23904,42969
23915,42968
24115,42968
24126,42969
Z" /> 
<path style="fill:#000000; fill-opacity:1.0; 
stroke:#000000; stroke-width:0; stroke-opacity:1; 
stroke-linecap:round; stroke-linejoin:round;fill-rule:evenodd;"
d="M 23536,42969
23544,42971
23551,42975
23558,42981
23563,42987
23567,42995
23570,43003
23571,43014
23571,43194
23570,43205
23567,43213
23563,43221
23558,43227
23551,43233
23544,43237
23536,43239
23525,43240
23325,43240
23314,43239
23306,43237
23298,43233
23292,43227
23286,43221
23282,43213
23280,43205
23279,43194
23279,43014
23280,43003
23282,42995
23286,42987
23292,42981
23298,42975
23306,42971
23314,42969
23325,42968
23525,42968
23536,42969
Z" /> 
<path style="fill:#000000; fill-opacity:1.0; 
stroke:#000000; stroke-width:0; stroke-opacity:1; 
stroke-linecap:round; stroke-linejoin:round;fill-rule:evenodd;"
d="M 20673,42759
20686,42763
20698,42769
20709,42778
20718,42789
20725,42801
20729,42815
20730,42831
20730,43097
20729,43114
20725,43127
20718,43139
20709,43150
20698,43159
20686,43165
20673,43170
20656,43171
20420,43171
20403,43170
20390,43165
20377,43159
20367,43150
20358,43139
20351,43127
20347,43114
20346,43097
20346,42831
20347,42815
20351,42801
20358,42789
20367,42778
20377,42769
20390,42763
20403,42759
20420,42757
20656,42757
20673,42759
Z" /> 
<path style="fill:#000000; fill-opacity:1.0; 
stroke:#000000; stroke-width:0; stroke-opacity:1; 
stroke-linecap:round; stroke-linejoin:round;fill-rule:evenodd;"
d="M 20052,42759
20066,42763
20078,42769
20089,42778
20098,42789
20104,42801
20109,42815
20110,42831
20110,43097
20109,43114
20104,43127
20098,43139
20089,43150
20078,43159
20066,43165
20052,43170
20036,43171
19799,43171
19783,43170
19770,43165
19757,43159
19747,43150
19738,43139
19731,43127
19727,43114
19725,43097
19725,42831
19727,42815
19731,42801
19738,42789
19747,42778
19757,42769
19770,42763
19783,42759
19799,42757
20036,42757
20052,42759
Z" /> 
<path style="fill:#000000; fill-opacity:1.0; 
stroke:#000000; stroke-width:0; stroke-opacity:1; 
stroke-linecap:round; stroke-linejoin:round;fill-rule:evenodd;"
d="M 24126,42587
24134,42589
24142,42593
24148,42599
24154,42605
24158,42613
24160,42621
24161,42632
24161,42812
24160,42823
24158,42831
24154,42839
24148,42845
24142,42851
24134,42855
24126,42857
24115,42858
23915,42858
23904,42857
23896,42855
23889,42851
23882,42845
23877,42839
23873,42831
23870,42823
23869,42812
23869,42632
23870,42621
23873,42613
23877,42605
23882,42599
23889,42593
23896,42589
23904,42587
23915,42586
24115,42586
24126,42587
Z" /> 
<path style="fill:#000000; fill-opacity:1.0; 
stroke:#000000; stroke-width:0; stroke-opacity:1; 
stroke-linecap:round; stroke-linejoin:round;fill-rule:evenodd;"
d="M 23536,42587
23544,42589
23551,42593
23558,42599
23563,42605
23567,42613
23570,42621
23571,42632
23571,42812
23570,42823
23567,42831
23563,42839
23558,42845
23551,42851
23544,42855
23536,42857
23525,42858
23325,42858
23314,42857
23306,42855
23298,42851
23292,42845
23286,42839
23282,42831
23280,42823
23279,42812
23279,42632
23280,42621
23282,42613
23286,42605
23292,42599
23298,42593
23306,42589
23314,42587
23325,42586
23525,42586
23536,42587
Z" /> 
<path style="fill:#000000; fill-opacity:1.0; 
stroke:#000000; stroke-width:0; stroke-opacity:1; 
stroke-linecap:round; stroke-linejoin:round;fill-rule:evenodd;"
d="M 17500,41319
16751,41319
16751,40570
17500,40570
17500,41319
Z" /> 
<path style="fill:#000000; fill-opacity:1.0; 
stroke:#000000; stroke-width:0; stroke-opacity:1; 
stroke-linecap:round; stroke-linejoin:round;fill-rule:evenodd;"
d="M 17235,39600
17303,39628
17303,39628
17364,39669
17416,39721
17416,39721
17457,39783
17486,39851
17500,39923
17500,39997
17486,40069
17457,40137
17457,40137
17416,40199
17364,40251
17333,40272
17303,40292
17235,40320
17162,40335
17089,40335
17016,40320
16948,40292
16918,40272
16887,40251
16835,40199
16794,40137
16794,40137
16765,40069
16751,39997
16751,39923
16765,39851
16794,39783
16835,39721
16835,39721
16887,39669
16948,39628
16948,39628
17016,39600
17089,39586
17162,39586
17235,39600
Z" /> 
<path style="fill:#000000; fill-opacity:1.0; 
stroke:#000000; stroke-width:0; stroke-opacity:1; 
stroke-linecap:round; stroke-linejoin:round;fill-rule:evenodd;"
d="M 17235,38616
17303,38644
17303,38644
17364,38685
17416,38737
17437,38768
17457,38799
17486,38867
17500,38939
17500,39013
17486,39085
17457,39153
17457,39153
17416,39215
17364,39267
17333,39287
17303,39308
17235,39336
17162,39350
17089,39350
17016,39336
16948,39308
16918,39287
16887,39267
16835,39215
16794,39153
16794,39153
16765,39085
16751,39013
16751,38939
16765,38867
16794,38799
16814,38768
16835,38737
16887,38685
16948,38644
16948,38644
17016,38616
17089,38601
17162,38601
17235,38616
Z" /> 
<path style="fill:#000000; fill-opacity:1.0; 
stroke:#000000; stroke-width:0; stroke-opacity:1; 
stroke-linecap:round; stroke-linejoin:round;fill-rule:evenodd;"
d="M 21679,38433
21700,38437
21729,38449
21755,38467
21778,38489
21795,38515
21807,38544
21813,38575
21813,38607
21807,38638
21795,38667
21778,38693
21755,38716
21729,38733
21700,38745
21679,38749
21669,38752
21637,38752
21627,38749
21606,38745
21577,38733
21551,38716
21529,38693
21511,38667
21499,38638
21493,38607
21493,38575
21499,38544
21511,38515
21529,38489
21551,38467
21577,38449
21606,38437
21627,38433
21637,38431
21669,38431
21679,38433
Z" /> 
<path style="fill:#000000; fill-opacity:1.0; 
stroke:#000000; stroke-width:0; stroke-opacity:1; 
stroke-linecap:round; stroke-linejoin:round;fill-rule:evenodd;"
d="M 17235,37632
17303,37660
17303,37660
17364,37701
17416,37753
17416,37753
17457,37814
17486,37882
17500,37955
17500,38029
17486,38101
17457,38169
17457,38169
17416,38230
17364,38282
17343,38297
17303,38323
17235,38352
17162,38366
17089,38366
17016,38352
16948,38323
16908,38297
16887,38282
16835,38230
16794,38169
16794,38169
16765,38101
16751,38029
16751,37955
16765,37882
16794,37814
16835,37753
16835,37753
16887,37701
16948,37660
16948,37660
17016,37632
17089,37617
17162,37617
17235,37632
Z" /> 
<path style="fill:#000000; fill-opacity:1.0; 
stroke:#000000; stroke-width:0; stroke-opacity:1; 
stroke-linecap:round; stroke-linejoin:round;fill-rule:evenodd;"
d="M 21282,38036
21303,38040
21332,38052
21359,38070
21381,38092
21398,38119
21411,38148
21417,38179
21417,38210
21411,38241
21398,38270
21381,38297
21359,38319
21332,38337
21303,38349
21288,38352
21272,38355
21241,38355
21225,38352
21210,38349
21180,38337
21154,38319
21132,38297
21114,38270
21102,38241
21096,38210
21096,38179
21102,38148
21114,38119
21132,38092
21154,38070
21180,38052
21210,38040
21230,38036
21241,38034
21272,38034
21282,38036
Z" /> 
<path style="fill:#000000; fill-opacity:1.0; 
stroke:#000000; stroke-width:0; stroke-opacity:1; 
stroke-linecap:round; stroke-linejoin:round;fill-rule:evenodd;"
d="M 22076,38036
22097,38040
22126,38052
22152,38070
22174,38092
22192,38119
22204,38148
22210,38179
22210,38210
22204,38241
22192,38270
22174,38297
22152,38319
22126,38337
22097,38349
22081,38352
22066,38355
22034,38355
22018,38352
22003,38349
21974,38337
21948,38319
21925,38297
21908,38270
21896,38241
21889,38210
21889,38179
21896,38148
21908,38119
21925,38092
21948,38070
21974,38052
22003,38040
22024,38036
22034,38034
22066,38034
22076,38036
Z" /> 
<path style="fill:#000000; fill-opacity:1.0; 
stroke:#000000; stroke-width:0; stroke-opacity:1; 
stroke-linecap:round; stroke-linejoin:round;fill-rule:evenodd;"
d="M 20886,37639
20906,37644
20936,37656
20962,37673
20984,37696
21002,37722
21014,37751
21020,37782
21020,37814
21014,37845
21002,37874
20984,37900
20962,37922
20936,37940
20906,37952
20886,37956
20875,37958
20844,37958
20834,37956
20813,37952
20784,37940
20757,37922
20735,37900
20718,37874
20705,37845
20699,37814
20699,37782
20705,37751
20718,37722
20735,37696
20757,37673
20784,37656
20813,37644
20834,37639
20844,37637
20875,37637
20886,37639
Z" /> 
<path style="fill:#000000; fill-opacity:1.0; 
stroke:#000000; stroke-width:0; stroke-opacity:1; 
stroke-linecap:round; stroke-linejoin:round;fill-rule:evenodd;"
d="M 21679,37639
21700,37644
21729,37656
21755,37673
21778,37696
21795,37722
21807,37751
21813,37782
21813,37814
21807,37845
21795,37874
21778,37900
21755,37922
21729,37940
21700,37952
21679,37956
21669,37958
21637,37958
21627,37956
21606,37952
21577,37940
21551,37922
21529,37900
21511,37874
21499,37845
21493,37814
21493,37782
21499,37751
21511,37722
21529,37696
21551,37673
21577,37656
21606,37644
21627,37639
21637,37637
21669,37637
21679,37639
Z" /> 
<path style="fill:#000000; fill-opacity:1.0; 
stroke:#000000; stroke-width:0; stroke-opacity:1; 
stroke-linecap:round; stroke-linejoin:round;fill-rule:evenodd;"
d="M 22473,37639
22493,37644
22522,37656
22549,37673
22571,37696
22589,37722
22601,37751
22607,37782
22607,37814
22601,37845
22589,37874
22571,37900
22549,37922
22522,37940
22493,37952
22473,37956
22462,37958
22431,37958
22420,37956
22400,37952
22371,37940
22344,37922
22322,37900
22304,37874
22292,37845
22286,37814
22286,37782
22292,37751
22304,37722
22322,37696
22344,37673
22371,37656
22400,37644
22420,37639
22431,37637
22462,37637
22473,37639
Z" /> 
<path style="fill:#000000; fill-opacity:1.0; 
stroke:#000000; stroke-width:0; stroke-opacity:1; 
stroke-linecap:round; stroke-linejoin:round;fill-rule:evenodd;"
d="M 20489,37243
20510,37247
20539,37259
20565,37277
20587,37299
20605,37325
20617,37354
20623,37385
20623,37417
20617,37448
20605,37477
20587,37503
20565,37526
20539,37543
20510,37555
20489,37559
20479,37561
20447,37561
20437,37559
20416,37555
20387,37543
20361,37526
20338,37503
20321,37477
20309,37448
20303,37417
20303,37385
20309,37354
20321,37325
20338,37299
20361,37277
20387,37259
20416,37247
20437,37243
20447,37241
20479,37241
20489,37243
Z" /> 
<path style="fill:#000000; fill-opacity:1.0; 
stroke:#000000; stroke-width:0; stroke-opacity:1; 
stroke-linecap:round; stroke-linejoin:round;fill-rule:evenodd;"
d="M 21282,37243
21303,37247
21332,37259
21359,37277
21381,37299
21398,37325
21411,37354
21417,37385
21417,37417
21411,37448
21398,37477
21381,37503
21359,37526
21332,37543
21303,37555
21282,37559
21272,37561
21241,37561
21230,37559
21210,37555
21180,37543
21154,37526
21132,37503
21114,37477
21102,37448
21096,37417
21096,37385
21102,37354
21114,37325
21132,37299
21154,37277
21180,37259
21210,37247
21230,37243
21241,37241
21272,37241
21282,37243
Z" /> 
<path style="fill:#000000; fill-opacity:1.0; 
stroke:#000000; stroke-width:0; stroke-opacity:1; 
stroke-linecap:round; stroke-linejoin:round;fill-rule:evenodd;"
d="M 22076,37243
22097,37247
22126,37259
22152,37277
22174,37299
22192,37325
22204,37354
22210,37385
22210,37417
22204,37448
22192,37477
22174,37503
22152,37526
22126,37543
22097,37555
22076,37559
22066,37561
22034,37561
22024,37559
22003,37555
21974,37543
21948,37526
21925,37503
21908,37477
21896,37448
21889,37417
21889,37385
21896,37354
21908,37325
21925,37299
21948,37277
21974,37259
22003,37247
22024,37243
22034,37241
22066,37241
22076,37243
Z" /> 
<path style="fill:#000000; fill-opacity:1.0; 
stroke:#000000; stroke-width:0; stroke-opacity:1; 
stroke-linecap:round; stroke-linejoin:round;fill-rule:evenodd;"
d="M 22869,37243
22890,37247
22919,37259
22945,37277
22968,37299
22985,37325
22997,37354
23003,37385
23003,37417
22997,37448
22985,37477
22968,37503
22945,37526
22919,37543
22890,37555
22869,37559
22859,37561
22827,37561
22817,37559
22796,37555
22767,37543
22741,37526
22719,37503
22701,37477
22689,37448
22683,37417
22683,37385
22689,37354
22701,37325
22719,37299
22741,37277
22767,37259
22796,37247
22817,37243
22827,37241
22859,37241
22869,37243
Z" /> 
<path style="fill:#000000; fill-opacity:1.0; 
stroke:#000000; stroke-width:0; stroke-opacity:1; 
stroke-linecap:round; stroke-linejoin:round;fill-rule:evenodd;"
d="M 27334,37117
27347,37121
27360,37128
27370,37136
27379,37147
27386,37160
27390,37173
27392,37189
27392,37455
27390,37472
27386,37485
27379,37497
27370,37508
27360,37517
27347,37524
27334,37528
27318,37529
27081,37529
27065,37528
27051,37524
27039,37517
27028,37508
27019,37497
27013,37485
27009,37472
27007,37455
27007,37189
27009,37173
27013,37160
27019,37147
27028,37136
27039,37128
27051,37121
27065,37117
27081,37115
27318,37115
27334,37117
Z" /> 
<path style="fill:#000000; fill-opacity:1.0; 
stroke:#000000; stroke-width:0; stroke-opacity:1; 
stroke-linecap:round; stroke-linejoin:round;fill-rule:evenodd;"
d="M 26714,37117
26727,37121
26740,37128
26750,37136
26759,37147
26766,37160
26770,37173
26772,37189
26772,37455
26770,37472
26766,37485
26759,37497
26750,37508
26740,37517
26727,37524
26714,37528
26698,37529
26461,37529
26445,37528
26431,37524
26419,37517
26408,37508
26399,37497
26393,37485
26389,37472
26387,37455
26387,37189
26389,37173
26393,37160
26399,37147
26408,37136
26419,37128
26431,37121
26445,37117
26461,37115
26698,37115
26714,37117
Z" /> 
<path style="fill:#000000; fill-opacity:1.0; 
stroke:#000000; stroke-width:0; stroke-opacity:1; 
stroke-linecap:round; stroke-linejoin:round;fill-rule:evenodd;"
d="M 26197,37177
26205,37180
26213,37184
26219,37189
26225,37196
26229,37203
26231,37211
26232,37222
26232,37422
26231,37433
26229,37441
26225,37449
26219,37455
26213,37461
26205,37465
26197,37467
26186,37468
26006,37468
25995,37467
25987,37465
25979,37461
25973,37455
25967,37449
25963,37441
25961,37433
25960,37422
25960,37222
25961,37211
25963,37203
25967,37196
25973,37189
25979,37184
25987,37180
25995,37177
26006,37176
26186,37176
26197,37177
Z" /> 
<path style="fill:#000000; fill-opacity:1.0; 
stroke:#000000; stroke-width:0; stroke-opacity:1; 
stroke-linecap:round; stroke-linejoin:round;fill-rule:evenodd;"
d="M 25815,37177
25823,37180
25831,37184
25837,37189
25843,37196
25847,37203
25849,37211
25850,37222
25850,37422
25849,37433
25847,37441
25843,37449
25837,37455
25831,37461
25823,37465
25815,37467
25804,37468
25624,37468
25613,37467
25605,37465
25597,37461
25591,37455
25585,37449
25581,37441
25579,37433
25578,37422
25578,37222
25579,37211
25581,37203
25585,37196
25591,37189
25597,37184
25605,37180
25613,37177
25624,37176
25804,37176
25815,37177
Z" /> 
<path style="fill:#000000; fill-opacity:1.0; 
stroke:#000000; stroke-width:0; stroke-opacity:1; 
stroke-linecap:round; stroke-linejoin:round;fill-rule:evenodd;"
d="M 17235,36647
17303,36676
17333,36696
17364,36717
17416,36769
17416,36769
17457,36830
17486,36898
17500,36970
17500,37044
17486,37117
17457,37185
17450,37196
17416,37246
17364,37298
17333,37319
17303,37339
17235,37367
17162,37382
17089,37382
17016,37367
16948,37339
16918,37319
16887,37298
16835,37246
16801,37196
16794,37185
16765,37117
16751,37044
16751,36970
16765,36898
16794,36830
16835,36769
16835,36769
16887,36717
16918,36696
16948,36676
17016,36647
17089,36633
17162,36633
17235,36647
Z" /> 
<path style="fill:#000000; fill-opacity:1.0; 
stroke:#000000; stroke-width:0; stroke-opacity:1; 
stroke-linecap:round; stroke-linejoin:round;fill-rule:evenodd;"
d="M 22473,36846
22493,36850
22522,36862
22549,36880
22571,36902
22589,36928
22601,36958
22607,36989
22607,37020
22601,37051
22589,37080
22571,37107
22549,37129
22522,37146
22493,37159
22473,37163
22462,37165
22431,37165
22420,37163
22400,37159
22371,37146
22344,37129
22322,37107
22304,37080
22292,37051
22286,37020
22286,36989
22292,36958
22304,36928
22322,36902
22344,36880
22371,36862
22400,36850
22420,36846
22431,36844
22462,36844
22473,36846
Z" /> 
<path style="fill:#000000; fill-opacity:1.0; 
stroke:#000000; stroke-width:0; stroke-opacity:1; 
stroke-linecap:round; stroke-linejoin:round;fill-rule:evenodd;"
d="M 20886,36846
20906,36850
20936,36862
20962,36880
20984,36902
21002,36928
21014,36958
21020,36989
21020,37020
21014,37051
21002,37080
20984,37107
20962,37129
20936,37146
20906,37159
20886,37163
20875,37165
20844,37165
20834,37163
20813,37159
20784,37146
20757,37129
20735,37107
20718,37080
20705,37051
20699,37020
20699,36989
20705,36958
20718,36928
20735,36902
20757,36880
20784,36862
20813,36850
20834,36846
20844,36844
20875,36844
20886,36846
Z" /> 
<path style="fill:#000000; fill-opacity:1.0; 
stroke:#000000; stroke-width:0; stroke-opacity:1; 
stroke-linecap:round; stroke-linejoin:round;fill-rule:evenodd;"
d="M 21679,36846
21700,36850
21729,36862
21755,36880
21778,36902
21795,36928
21807,36958
21813,36989
21813,37020
21807,37051
21795,37080
21778,37107
21755,37129
21729,37146
21700,37159
21679,37163
21669,37165
21637,37165
21627,37163
21606,37159
21577,37146
21551,37129
21529,37107
21511,37080
21499,37051
21493,37020
21493,36989
21499,36958
21511,36928
21529,36902
21551,36880
21577,36862
21606,36850
21627,36846
21637,36844
21669,36844
21679,36846
Z" /> 
<path style="fill:#000000; fill-opacity:1.0; 
stroke:#000000; stroke-width:0; stroke-opacity:1; 
stroke-linecap:round; stroke-linejoin:round;fill-rule:evenodd;"
d="M 26714,36448
26727,36452
26740,36458
26750,36467
26759,36478
26766,36490
26770,36504
26772,36520
26772,36786
26770,36802
26766,36816
26759,36828
26750,36839
26740,36848
26727,36854
26714,36859
26698,36860
26461,36860
26445,36859
26431,36854
26419,36848
26408,36839
26399,36828
26393,36816
26389,36802
26387,36786
26387,36520
26389,36504
26393,36490
26399,36478
26408,36467
26419,36458
26431,36452
26445,36448
26461,36446
26698,36446
26714,36448
Z" /> 
<path style="fill:#000000; fill-opacity:1.0; 
stroke:#000000; stroke-width:0; stroke-opacity:1; 
stroke-linecap:round; stroke-linejoin:round;fill-rule:evenodd;"
d="M 27334,36448
27347,36452
27360,36458
27370,36467
27379,36478
27386,36490
27390,36504
27392,36520
27392,36786
27390,36802
27386,36816
27379,36828
27370,36839
27360,36848
27347,36854
27334,36859
27318,36860
27081,36860
27065,36859
27051,36854
27039,36848
27028,36839
27019,36828
27013,36816
27009,36802
27007,36786
27007,36520
27009,36504
27013,36490
27019,36478
27028,36467
27039,36458
27051,36452
27065,36448
27081,36446
27318,36446
27334,36448
Z" /> 
<path style="fill:#000000; fill-opacity:1.0; 
stroke:#000000; stroke-width:0; stroke-opacity:1; 
stroke-linecap:round; stroke-linejoin:round;fill-rule:evenodd;"
d="M 26197,36508
26205,36511
26213,36515
26219,36520
26225,36526
26229,36534
26231,36542
26232,36553
26232,36753
26231,36764
26229,36772
26225,36780
26219,36786
26213,36792
26205,36796
26197,36798
26186,36799
26006,36799
25995,36798
25987,36796
25979,36792
25973,36786
25967,36780
25963,36772
25961,36764
25960,36753
25960,36553
25961,36542
25963,36534
25967,36526
25973,36520
25979,36515
25987,36511
25995,36508
26006,36507
26186,36507
26197,36508
Z" /> 
<path style="fill:#000000; fill-opacity:1.0; 
stroke:#000000; stroke-width:0; stroke-opacity:1; 
stroke-linecap:round; stroke-linejoin:round;fill-rule:evenodd;"
d="M 25815,36508
25823,36511
25831,36515
25837,36520
25843,36526
25847,36534
25849,36542
25850,36553
25850,36753
25849,36764
25847,36772
25843,36780
25837,36786
25831,36792
25823,36796
25815,36798
25804,36799
25624,36799
25613,36798
25605,36796
25597,36792
25591,36786
25585,36780
25581,36772
25579,36764
25578,36753
25578,36553
25579,36542
25581,36534
25585,36526
25591,36520
25597,36515
25605,36511
25613,36508
25624,36507
25804,36507
25815,36508
Z" /> 
<path style="fill:#000000; fill-opacity:1.0; 
stroke:#000000; stroke-width:0; stroke-opacity:1; 
stroke-linecap:round; stroke-linejoin:round;fill-rule:evenodd;"
d="M 22076,36449
22097,36453
22126,36466
22152,36483
22174,36505
22192,36532
22204,36561
22210,36592
22210,36623
22204,36654
22192,36684
22174,36710
22152,36732
22126,36750
22097,36762
22076,36766
22066,36768
22034,36768
22024,36766
22003,36762
21974,36750
21948,36732
21925,36710
21908,36684
21896,36654
21889,36623
21889,36592
21896,36561
21908,36532
21925,36505
21948,36483
21974,36466
22003,36453
22024,36449
22034,36447
22066,36447
22076,36449
Z" /> 
<path style="fill:#000000; fill-opacity:1.0; 
stroke:#000000; stroke-width:0; stroke-opacity:1; 
stroke-linecap:round; stroke-linejoin:round;fill-rule:evenodd;"
d="M 21282,36449
21303,36453
21332,36466
21359,36483
21381,36505
21398,36532
21411,36561
21417,36592
21417,36623
21411,36654
21398,36684
21381,36710
21359,36732
21332,36750
21303,36762
21282,36766
21272,36768
21241,36768
21230,36766
21210,36762
21180,36750
21154,36732
21132,36710
21114,36684
21102,36654
21096,36623
21096,36592
21102,36561
21114,36532
21132,36505
21154,36483
21180,36466
21210,36453
21230,36449
21241,36447
21272,36447
21282,36449
Z" /> 
<path style="fill:#000000; fill-opacity:1.0; 
stroke:#000000; stroke-width:0; stroke-opacity:1; 
stroke-linecap:round; stroke-linejoin:round;fill-rule:evenodd;"
d="M 21679,36053
21700,36057
21729,36069
21755,36086
21778,36109
21795,36135
21807,36164
21813,36195
21813,36227
21807,36258
21795,36287
21778,36313
21755,36336
21729,36353
21700,36365
21679,36369
21669,36371
21637,36371
21627,36369
21606,36365
21577,36353
21551,36336
21529,36313
21511,36287
21499,36258
21493,36227
21493,36195
21499,36164
21511,36135
21529,36109
21551,36086
21577,36069
21606,36057
21627,36053
21637,36051
21669,36051
21679,36053
Z" /> 
<path style="fill:#000000; fill-opacity:1.0; 
stroke:#000000; stroke-width:0; stroke-opacity:1; 
stroke-linecap:round; stroke-linejoin:round;fill-rule:evenodd;"
d="M 26653,34705
25865,34705
25865,33838
26653,33838
26653,34705
Z" /> 
<path style="fill:#000000; fill-opacity:1.0; 
stroke:#000000; stroke-width:0; stroke-opacity:1; 
stroke-linecap:round; stroke-linejoin:round;fill-rule:evenodd;"
d="M 25162,33565
25205,33578
25205,33578
25219,33586
25244,33599
25279,33628
25307,33662
25321,33687
25328,33702
25328,33702
25341,33744
25345,33789
25341,33833
25328,33876
25328,33876
25321,33890
25307,33915
25279,33950
25244,33978
25219,33992
25205,33999
25205,33999
25162,34012
25129,34016
25028,34016
24994,34012
24952,33999
24952,33999
24937,33992
24912,33978
24878,33950
24849,33915
24836,33890
24828,33876
24828,33876
24815,33833
24811,33789
24815,33744
24828,33702
24828,33702
24836,33687
24849,33662
24878,33628
24912,33599
24937,33586
24952,33578
24952,33578
24994,33565
25028,33562
25129,33562
25162,33565
Z" /> 
<path style="fill:#000000; fill-opacity:1.0; 
stroke:#000000; stroke-width:0; stroke-opacity:1; 
stroke-linecap:round; stroke-linejoin:round;fill-rule:evenodd;"
d="M 26653,33661
25865,33661
25865,32912
26653,32912
26653,33661
Z" /> 
<path style="fill:#000000; fill-opacity:1.0; 
stroke:#000000; stroke-width:0; stroke-opacity:1; 
stroke-linecap:round; stroke-linejoin:round;fill-rule:evenodd;"
d="M 25492,33445
24920,33445
24920,32224
25492,32224
25492,33445
Z" /> 
<path style="fill:#000000; fill-opacity:1.0; 
stroke:#000000; stroke-width:0; stroke-opacity:1; 
stroke-linecap:round; stroke-linejoin:round;fill-rule:evenodd;"
d="M 24504,33122
24512,33125
24520,33129
24526,33134
24532,33141
24536,33148
24538,33156
24539,33167
24539,33367
24538,33378
24536,33386
24532,33394
24526,33400
24520,33406
24512,33410
24504,33412
24493,33413
24313,33413
24302,33412
24294,33410
24286,33406
24280,33400
24274,33394
24270,33386
24268,33378
24267,33367
24267,33167
24268,33156
24270,33148
24274,33141
24280,33134
24286,33129
24294,33125
24302,33122
24313,33121
24493,33121
24504,33122
Z" /> 
<path style="fill:#000000; fill-opacity:1.0; 
stroke:#000000; stroke-width:0; stroke-opacity:1; 
stroke-linecap:round; stroke-linejoin:round;fill-rule:evenodd;"
d="M 24122,33122
24130,33125
24138,33129
24144,33134
24150,33141
24154,33148
24156,33156
24157,33167
24157,33367
24156,33378
24154,33386
24150,33394
24144,33400
24138,33406
24130,33410
24122,33412
24111,33413
23931,33413
23920,33412
23912,33410
23904,33406
23898,33400
23892,33394
23888,33386
23886,33378
23885,33367
23885,33167
23886,33156
23888,33148
23892,33141
23898,33134
23904,33129
23912,33125
23920,33122
23931,33121
24111,33121
24122,33122
Z" /> 
<path style="fill:#000000; fill-opacity:1.0; 
stroke:#000000; stroke-width:0; stroke-opacity:1; 
stroke-linecap:round; stroke-linejoin:round;fill-rule:evenodd;"
d="M 24504,32532
24512,32534
24520,32538
24526,32544
24532,32550
24536,32558
24538,32566
24539,32577
24539,32777
24538,32788
24536,32796
24532,32803
24526,32810
24520,32815
24512,32819
24504,32822
24493,32823
24313,32823
24302,32822
24294,32819
24286,32815
24280,32810
24274,32803
24270,32796
24268,32788
24267,32777
24267,32577
24268,32566
24270,32558
24274,32550
24280,32544
24286,32538
24294,32534
24302,32532
24313,32531
24493,32531
24504,32532
Z" /> 
<path style="fill:#000000; fill-opacity:1.0; 
stroke:#000000; stroke-width:0; stroke-opacity:1; 
stroke-linecap:round; stroke-linejoin:round;fill-rule:evenodd;"
d="M 24122,32532
24130,32534
24138,32538
24144,32544
24150,32550
24154,32558
24156,32566
24157,32577
24157,32777
24156,32788
24154,32796
24150,32803
24144,32810
24138,32815
24130,32819
24122,32822
24111,32823
23931,32823
23920,32822
23912,32819
23904,32815
23898,32810
23892,32803
23888,32796
23886,32788
23885,32777
23885,32577
23886,32566
23888,32558
23892,32550
23898,32544
23904,32538
23912,32534
23920,32532
23931,32531
24111,32531
24122,32532
Z" /> 
<path style="fill:#000000; fill-opacity:1.0; 
stroke:#000000; stroke-width:0; stroke-opacity:1; 
stroke-linecap:round; stroke-linejoin:round;fill-rule:evenodd;"
d="M 26653,32756
25865,32756
25865,32007
26653,32007
26653,32756
Z" /> 
<path style="fill:#000000; fill-opacity:1.0; 
stroke:#000000; stroke-width:0; stroke-opacity:1; 
stroke-linecap:round; stroke-linejoin:round;fill-rule:evenodd;"
d="M 19595,32138
19603,32140
19610,32144
19617,32150
19622,32156
19626,32164
19629,32172
19630,32183
19630,32383
19629,32394
19626,32402
19622,32410
19617,32416
19610,32421
19603,32425
19595,32428
19584,32429
19403,32429
19392,32428
19384,32425
19377,32421
19370,32416
19365,32410
19361,32402
19358,32394
19357,32383
19357,32183
19358,32172
19361,32164
19365,32156
19370,32150
19377,32144
19384,32140
19392,32138
19403,32137
19584,32137
19595,32138
Z" /> 
<path style="fill:#000000; fill-opacity:1.0; 
stroke:#000000; stroke-width:0; stroke-opacity:1; 
stroke-linecap:round; stroke-linejoin:round;fill-rule:evenodd;"
d="M 19977,32138
19985,32140
19992,32144
19999,32150
20004,32156
20008,32164
20011,32172
20012,32183
20012,32383
20011,32394
20008,32402
20004,32410
19999,32416
19992,32421
19985,32425
19977,32428
19966,32429
19785,32429
19774,32428
19766,32425
19759,32421
19752,32416
19747,32410
19743,32402
19740,32394
19739,32383
19739,32183
19740,32172
19743,32164
19747,32156
19752,32150
19759,32144
19766,32140
19774,32138
19785,32137
19966,32137
19977,32138
Z" /> 
<path style="fill:#000000; fill-opacity:1.0; 
stroke:#000000; stroke-width:0; stroke-opacity:1; 
stroke-linecap:round; stroke-linejoin:round;fill-rule:evenodd;"
d="M 25162,31656
25205,31669
25205,31669
25216,31675
25244,31690
25279,31718
25307,31753
25317,31772
25328,31792
25328,31792
25341,31835
25345,31879
25341,31924
25328,31967
25328,31967
25321,31981
25307,32006
25279,32041
25244,32069
25219,32082
25205,32090
25205,32090
25162,32103
25129,32106
25028,32106
24994,32103
24952,32090
24952,32090
24937,32082
24912,32069
24878,32041
24849,32006
24836,31981
24828,31967
24828,31967
24815,31924
24811,31879
24815,31835
24828,31792
24828,31792
24839,31772
24849,31753
24878,31718
24912,31690
24940,31675
24952,31669
24952,31669
24994,31656
25028,31653
25129,31653
25162,31656
Z" /> 
<path style="fill:#000000; fill-opacity:1.0; 
stroke:#000000; stroke-width:0; stroke-opacity:1; 
stroke-linecap:round; stroke-linejoin:round;fill-rule:evenodd;"
d="M 21268,31646
21276,31648
21284,31652
21290,31658
21296,31664
21300,31672
21302,31680
21303,31691
21303,31891
21302,31902
21300,31910
21296,31917
21290,31924
21284,31929
21276,31933
21268,31936
21257,31937
21077,31937
21066,31936
21058,31933
21050,31929
21044,31924
21038,31917
21034,31910
21032,31902
21031,31891
21031,31691
21032,31680
21034,31672
21038,31664
21044,31658
21050,31652
21058,31648
21066,31646
21077,31645
21257,31645
21268,31646
Z" /> 
<path style="fill:#000000; fill-opacity:1.0; 
stroke:#000000; stroke-width:0; stroke-opacity:1; 
stroke-linecap:round; stroke-linejoin:round;fill-rule:evenodd;"
d="M 21650,31646
21658,31648
21665,31652
21672,31658
21677,31664
21681,31672
21684,31680
21685,31691
21685,31891
21684,31902
21681,31910
21677,31917
21672,31924
21665,31929
21658,31933
21650,31936
21639,31937
21458,31937
21448,31936
21439,31933
21432,31929
21425,31924
21420,31917
21416,31910
21414,31902
21412,31891
21412,31691
21414,31680
21416,31672
21420,31664
21425,31658
21432,31652
21439,31648
21448,31646
21458,31645
21639,31645
21650,31646
Z" /> 
<path style="fill:#000000; fill-opacity:1.0; 
stroke:#000000; stroke-width:0; stroke-opacity:1; 
stroke-linecap:round; stroke-linejoin:round;fill-rule:evenodd;"
d="M 26653,31831
25865,31831
25865,30964
26653,30964
26653,31831
Z" /> 
<path style="fill:#000000; fill-opacity:1.0; 
stroke:#000000; stroke-width:0; stroke-opacity:1; 
stroke-linecap:round; stroke-linejoin:round;fill-rule:evenodd;"
d="M 19616,31791
18966,31791
18966,30806
19616,30806
19616,31791
Z" /> 
<path style="fill:#000000; fill-opacity:1.0; 
stroke:#000000; stroke-width:0; stroke-opacity:1; 
stroke-linecap:round; stroke-linejoin:round;fill-rule:evenodd;"
d="M 18829,31772
18533,31772
18533,30826
18829,30826
18829,31772
Z" /> 
<path style="fill:#000000; fill-opacity:1.0; 
stroke:#000000; stroke-width:0; stroke-opacity:1; 
stroke-linecap:round; stroke-linejoin:round;fill-rule:evenodd;"
d="M 20049,31772
19753,31772
19753,30826
20049,30826
20049,31772
Z" /> 
<path style="fill:#000000; fill-opacity:1.0; 
stroke:#000000; stroke-width:0; stroke-opacity:1; 
stroke-linecap:round; stroke-linejoin:round;fill-rule:evenodd;"
d="M 18221,31355
18229,31357
18236,31361
18243,31366
18248,31373
18252,31380
18255,31389
18256,31399
18256,31580
18255,31591
18252,31599
18248,31606
18243,31613
18236,31618
18229,31622
18221,31625
18210,31626
18010,31626
17999,31625
17991,31622
17983,31618
17977,31613
17971,31606
17967,31599
17965,31591
17964,31580
17964,31399
17965,31389
17967,31380
17971,31373
17977,31366
17983,31361
17991,31357
17999,31355
18010,31353
18210,31353
18221,31355
Z" /> 
<path style="fill:#000000; fill-opacity:1.0; 
stroke:#000000; stroke-width:0; stroke-opacity:1; 
stroke-linecap:round; stroke-linejoin:round;fill-rule:evenodd;"
d="M 21268,31154
21276,31156
21284,31160
21290,31166
21296,31172
21300,31180
21302,31188
21303,31199
21303,31399
21302,31410
21300,31418
21296,31425
21290,31432
21284,31437
21276,31441
21268,31444
21257,31445
21077,31445
21066,31444
21058,31441
21050,31437
21044,31432
21038,31425
21034,31418
21032,31410
21031,31399
21031,31199
21032,31188
21034,31180
21038,31172
21044,31166
21050,31160
21058,31156
21066,31154
21077,31153
21257,31153
21268,31154
Z" /> 
<path style="fill:#000000; fill-opacity:1.0; 
stroke:#000000; stroke-width:0; stroke-opacity:1; 
stroke-linecap:round; stroke-linejoin:round;fill-rule:evenodd;"
d="M 21650,31154
21658,31156
21665,31160
21672,31166
21677,31172
21681,31180
21684,31188
21685,31199
21685,31399
21684,31410
21681,31418
21677,31425
21672,31432
21665,31437
21658,31441
21650,31444
21639,31445
21458,31445
21448,31444
21439,31441
21432,31437
21425,31432
21420,31425
21416,31418
21414,31410
21412,31399
21412,31199
21414,31188
21416,31180
21420,31172
21425,31166
21432,31160
21439,31156
21448,31154
21458,31153
21639,31153
21650,31154
Z" /> 
<path style="fill:#000000; fill-opacity:1.0; 
stroke:#000000; stroke-width:0; stroke-opacity:1; 
stroke-linecap:round; stroke-linejoin:round;fill-rule:evenodd;"
d="M 18221,30973
18229,30975
18236,30979
18243,30984
18248,30991
18252,30998
18255,31007
18256,31017
18256,31198
18255,31209
18252,31217
18248,31225
18243,31231
18236,31236
18229,31240
18221,31243
18210,31244
18010,31244
17999,31243
17991,31240
17983,31236
17977,31231
17971,31225
17967,31217
17965,31209
17964,31198
17964,31017
17965,31007
17967,30998
17971,30991
17977,30984
17983,30979
17991,30975
17999,30973
18010,30972
18210,30972
18221,30973
Z" /> 
<path style="fill:#000000; fill-opacity:1.0; 
stroke:#000000; stroke-width:0; stroke-opacity:1; 
stroke-linecap:round; stroke-linejoin:round;fill-rule:evenodd;"
d="M 21650,30662
21658,30664
21665,30668
21672,30673
21677,30680
21681,30687
21684,30696
21685,30706
21685,30907
21684,30918
21681,30926
21677,30933
21672,30940
21665,30945
21658,30949
21650,30952
21639,30953
21458,30953
21448,30952
21439,30949
21432,30945
21425,30940
21420,30933
21416,30926
21414,30918
21412,30907
21412,30706
21414,30696
21416,30687
21420,30680
21425,30673
21432,30668
21439,30664
21448,30662
21458,30661
21639,30661
21650,30662
Z" /> 
<path style="fill:#000000; fill-opacity:1.0; 
stroke:#000000; stroke-width:0; stroke-opacity:1; 
stroke-linecap:round; stroke-linejoin:round;fill-rule:evenodd;"
d="M 21268,30662
21276,30664
21284,30668
21290,30673
21296,30680
21300,30687
21302,30696
21303,30706
21303,30907
21302,30918
21300,30926
21296,30933
21290,30940
21284,30945
21276,30949
21268,30952
21257,30953
21077,30953
21066,30952
21058,30949
21050,30945
21044,30940
21038,30933
21034,30926
21032,30918
21031,30907
21031,30706
21032,30696
21034,30687
21038,30680
21044,30673
21050,30668
21058,30664
21066,30662
21077,30661
21257,30661
21268,30662
Z" /> 
<path style="fill:#000000; fill-opacity:1.0; 
stroke:#000000; stroke-width:0; stroke-opacity:1; 
stroke-linecap:round; stroke-linejoin:round;fill-rule:evenodd;"
d="M 17472,30207
17485,30211
17497,30218
17508,30227
17517,30238
17524,30250
17528,30263
17529,30280
17529,30546
17528,30562
17524,30576
17517,30588
17508,30599
17497,30608
17485,30614
17472,30618
17455,30620
17219,30620
17202,30618
17189,30614
17177,30608
17166,30599
17157,30588
17150,30576
17146,30562
17145,30546
17145,30280
17146,30263
17150,30250
17157,30238
17166,30227
17177,30218
17189,30211
17202,30207
17219,30206
17455,30206
17472,30207
Z" /> 
<path style="fill:#000000; fill-opacity:1.0; 
stroke:#000000; stroke-width:0; stroke-opacity:1; 
stroke-linecap:round; stroke-linejoin:round;fill-rule:evenodd;"
d="M 16852,30207
16865,30211
16877,30218
16888,30227
16897,30238
16904,30250
16908,30263
16909,30280
16909,30546
16908,30562
16904,30576
16897,30588
16888,30599
16877,30608
16865,30614
16852,30618
16835,30620
16599,30620
16582,30618
16569,30614
16557,30608
16546,30599
16537,30588
16530,30576
16526,30562
16525,30546
16525,30280
16526,30263
16530,30250
16537,30238
16546,30227
16557,30218
16569,30211
16582,30207
16599,30206
16835,30206
16852,30207
Z" /> 
<path style="fill:#000000; fill-opacity:1.0; 
stroke:#000000; stroke-width:0; stroke-opacity:1; 
stroke-linecap:round; stroke-linejoin:round;fill-rule:evenodd;"
d="M 16801,30008
16505,30008
16505,29487
16801,29487
16801,30008
Z" /> 
<path style="fill:#000000; fill-opacity:1.0; 
stroke:#000000; stroke-width:0; stroke-opacity:1; 
stroke-linecap:round; stroke-linejoin:round;fill-rule:evenodd;"
d="M 17549,30008
17253,30008
17253,29487
17549,29487
17549,30008
Z" /> 
<path style="fill:#000000; fill-opacity:1.0; 
stroke:#000000; stroke-width:0; stroke-opacity:1; 
stroke-linecap:round; stroke-linejoin:round;fill-rule:evenodd;"
d="M 20246,28813
20313,28834
20375,28867
20389,28878
20429,28911
20461,28951
20473,28965
20506,29026
20526,29093
20531,29145
20531,29279
20526,29331
20506,29398
20473,29459
20470,29463
20429,29513
20375,29558
20313,29591
20313,29591
20246,29611
20177,29618
20107,29611
20040,29591
19979,29558
19962,29544
19925,29513
19880,29459
19847,29398
19847,29398
19827,29331
19822,29279
19822,29145
19827,29093
19847,29026
19880,28965
19925,28911
19979,28867
20040,28834
20107,28813
20177,28806
20246,28813
Z" /> 
<path style="fill:#000000; fill-opacity:1.0; 
stroke:#000000; stroke-width:0; stroke-opacity:1; 
stroke-linecap:round; stroke-linejoin:round;fill-rule:evenodd;"
d="M 21230,28813
21297,28834
21359,28867
21373,28878
21413,28911
21446,28951
21457,28965
21490,29026
21511,29093
21516,29145
21516,29279
21511,29331
21490,29398
21457,29459
21454,29463
21413,29513
21359,29558
21297,29591
21297,29591
21230,29611
21161,29618
21091,29611
21025,29591
20963,29558
20946,29544
20909,29513
20865,29459
20832,29398
20832,29398
20811,29331
20806,29279
20806,29145
20811,29093
20832,29026
20865,28965
20909,28911
20963,28867
21025,28834
21091,28813
21161,28806
21230,28813
Z" /> 
<path style="fill:#000000; fill-opacity:1.0; 
stroke:#000000; stroke-width:0; stroke-opacity:1; 
stroke-linecap:round; stroke-linejoin:round;fill-rule:evenodd;"
d="M 22215,28813
22282,28834
22343,28867
22357,28878
22397,28911
22430,28951
22442,28965
22474,29026
22495,29093
22500,29145
22500,29279
22495,29331
22474,29398
22442,29459
22438,29463
22397,29513
22343,29558
22282,29591
22282,29591
22215,29611
22145,29618
22076,29611
22009,29591
21947,29558
21931,29544
21893,29513
21849,29459
21816,29398
21816,29398
21796,29331
21790,29279
21790,29145
21796,29093
21816,29026
21849,28965
21893,28911
21947,28867
22009,28834
22076,28813
22145,28806
22215,28813
Z" /> 
<path style="fill:#000000; fill-opacity:1.0; 
stroke:#000000; stroke-width:0; stroke-opacity:1; 
stroke-linecap:round; stroke-linejoin:round;fill-rule:evenodd;"
d="M 23428,28810
23441,28814
23453,28820
23464,28829
23472,28839
23479,28851
23483,28864
23484,28880
23484,29544
23483,29560
23479,29573
23472,29585
23464,29595
23453,29604
23441,29611
23428,29614
23412,29616
22847,29616
22831,29614
22818,29611
22806,29604
22795,29595
22787,29585
22780,29573
22776,29560
22775,29544
22775,28880
22776,28864
22780,28851
22787,28839
22795,28829
22806,28820
22818,28814
22831,28810
22847,28808
23412,28808
23428,28810
Z" /> 
<path style="fill:#000000; fill-opacity:1.0; 
stroke:#000000; stroke-width:0; stroke-opacity:1; 
stroke-linecap:round; stroke-linejoin:round;fill-rule:evenodd;"
d="M 26266,28655
26267,28664
26270,28674
26274,28682
26280,28690
26288,28696
26296,28700
26305,28703
26315,28704
26628,28704
26628,29433
26315,29433
26305,29434
26296,29437
26288,29441
26280,29448
26274,29455
26270,29463
26267,29473
26266,29482
26266,29557
25572,29557
25572,29482
25571,29473
25568,29463
25564,29455
25558,29448
25550,29441
25542,29437
25532,29434
25523,29433
25210,29433
25210,28704
25523,28704
25532,28703
25542,28700
25550,28696
25558,28690
25564,28682
25568,28674
25571,28664
25572,28655
25572,28580
26266,28580
26266,28655
Z" /> 
<path style="fill:#000000; fill-opacity:1.0; 
stroke:#000000; stroke-width:0; stroke-opacity:1; 
stroke-linecap:round; stroke-linejoin:round;fill-rule:evenodd;"
d="M 24887,28991
24901,28995
24913,29002
24924,29011
24933,29021
24939,29034
24943,29047
24945,29063
24945,29300
24943,29316
24939,29330
24933,29342
24924,29353
24913,29362
24901,29368
24887,29372
24871,29374
24605,29374
24588,29372
24575,29368
24563,29362
24552,29353
24543,29342
24536,29330
24532,29316
24531,29300
24531,29063
24532,29047
24536,29034
24543,29021
24552,29011
24563,29002
24575,28995
24588,28991
24605,28989
24871,28989
24887,28991
Z" /> 
<path style="fill:#000000; fill-opacity:1.0; 
stroke:#000000; stroke-width:0; stroke-opacity:1; 
stroke-linecap:round; stroke-linejoin:round;fill-rule:evenodd;"
d="M 27236,28977
27249,28981
27261,28988
27272,28997
27281,29007
27288,29020
27292,29033
27293,29049
27293,29286
27292,29302
27288,29316
27281,29328
27272,29339
27261,29348
27249,29354
27236,29359
27219,29360
26953,29360
26937,29359
26923,29354
26911,29348
26900,29339
26891,29328
26885,29316
26881,29302
26879,29286
26879,29049
26881,29033
26885,29020
26891,29007
26900,28997
26911,28988
26923,28981
26937,28977
26953,28975
27219,28975
27236,28977
Z" /> 
<path style="fill:#000000; fill-opacity:1.0; 
stroke:#000000; stroke-width:0; stroke-opacity:1; 
stroke-linecap:round; stroke-linejoin:round;fill-rule:evenodd;"
d="M 17549,28976
16505,28976
16505,28456
17549,28456
17549,28976
Z" /> 
<path style="fill:#000000; fill-opacity:1.0; 
stroke:#000000; stroke-width:0; stroke-opacity:1; 
stroke-linecap:round; stroke-linejoin:round;fill-rule:evenodd;"
d="M 18200,28505
18214,28509
18226,28515
18237,28524
18246,28535
18252,28547
18256,28561
18258,28577
18258,28814
18256,28830
18252,28843
18246,28856
18237,28867
18226,28875
18214,28882
18200,28886
18184,28888
17918,28888
17901,28886
17888,28882
17876,28875
17865,28867
17856,28856
17849,28843
17845,28830
17844,28814
17844,28577
17845,28561
17849,28547
17856,28535
17865,28524
17876,28515
17888,28509
17901,28505
17918,28503
18184,28503
18200,28505
Z" /> 
<path style="fill:#000000; fill-opacity:1.0; 
stroke:#000000; stroke-width:0; stroke-opacity:1; 
stroke-linecap:round; stroke-linejoin:round;fill-rule:evenodd;"
d="M 24887,28371
24901,28375
24913,28382
24924,28390
24933,28401
24939,28414
24943,28427
24945,28443
24945,28680
24943,28696
24939,28710
24933,28722
24924,28733
24913,28742
24901,28748
24887,28752
24871,28754
24605,28754
24588,28752
24575,28748
24563,28742
24552,28733
24543,28722
24536,28710
24532,28696
24531,28680
24531,28443
24532,28427
24536,28414
24543,28401
24552,28390
24563,28382
24575,28375
24588,28371
24605,28369
24871,28369
24887,28371
Z" /> 
<path style="fill:#000000; fill-opacity:1.0; 
stroke:#000000; stroke-width:0; stroke-opacity:1; 
stroke-linecap:round; stroke-linejoin:round;fill-rule:evenodd;"
d="M 27236,28357
27249,28361
27261,28368
27272,28377
27281,28387
27288,28400
27292,28413
27293,28429
27293,28666
27292,28682
27288,28696
27281,28708
27272,28719
27261,28728
27249,28734
27236,28738
27219,28740
26953,28740
26937,28738
26923,28734
26911,28728
26900,28719
26891,28708
26885,28696
26881,28682
26879,28666
26879,28429
26881,28413
26885,28400
26891,28387
26900,28377
26911,28368
26923,28361
26937,28357
26953,28355
27219,28355
27236,28357
Z" /> 
<path style="fill:#000000; fill-opacity:1.0; 
stroke:#000000; stroke-width:0; stroke-opacity:1; 
stroke-linecap:round; stroke-linejoin:round;fill-rule:evenodd;"
d="M 18200,27885
18214,27889
18226,27895
18237,27904
18246,27915
18252,27927
18256,27941
18258,27957
18258,28194
18256,28210
18252,28223
18246,28236
18237,28246
18226,28255
18214,28262
18200,28266
18184,28268
17918,28268
17901,28266
17888,28262
17876,28255
17865,28246
17856,28236
17849,28223
17845,28210
17844,28194
17844,27957
17845,27941
17849,27927
17856,27915
17865,27904
17876,27895
17888,27889
17901,27885
17918,27883
18184,27883
18200,27885
Z" /> 
<path style="fill:#000000; fill-opacity:1.0; 
stroke:#000000; stroke-width:0; stroke-opacity:1; 
stroke-linecap:round; stroke-linejoin:round;fill-rule:evenodd;"
d="M 25797,24908
25926,24962
26042,25039
26141,25138
26218,25254
26272,25383
26299,25520
26299,25660
26272,25797
26218,25926
26141,26042
26042,26141
25926,26218
25797,26272
25660,26299
25520,26299
25383,26272
25254,26218
25138,26141
25039,26042
24962,25926
24908,25797
24881,25660
24881,25520
24908,25383
24962,25254
25039,25138
25138,25039
25254,24962
25383,24908
25520,24881
25660,24881
25797,24908
Z" /> 
<path style="fill:#000000; fill-opacity:1.0; 
stroke:#000000; stroke-width:0; stroke-opacity:1; 
stroke-linecap:round; stroke-linejoin:round;fill-rule:evenodd;"
d="M 17923,24908
18052,24962
18168,25039
18267,25138
18344,25254
18398,25383
18425,25520
18425,25660
18398,25797
18344,25926
18267,26042
18168,26141
18052,26218
17923,26272
17786,26299
17646,26299
17509,26272
17380,26218
17264,26141
17165,26042
17088,25926
17034,25797
17007,25660
17007,25520
17034,25383
17088,25254
17165,25138
17264,25039
17380,24962
17509,24908
17646,24881
17786,24881
17923,24908
Z" /> 
</g> 
</svg>
