<?xml version="1.0" standalone="no"?>
 <!DOCTYPE svg PUBLIC "-//W3C//DTD SVG 1.1//EN" 
 "http://www.w3.org/Graphics/SVG/1.1/DTD/svg11.dtd"> 
<svg xmlns="http://www.w3.org/2000/svg" version="1.1" 
    width="29.7002cm" height="21.0007cm" viewBox="0 0 116930 82680 ">
<title>SVG Picture created as RCT-X-Logger-F_Paste.svg date 2019/09/13 06:18:06 </title>
  <desc>Picture generated by PCBNEW </desc>
<g style="fill:#000000; fill-opacity:1;stroke:#000000; stroke-opacity:1;
stroke-linecap:round; stroke-linejoin:round; "
 transform="translate(0 0) scale(1 1)">
</g>
<g style="fill:#000000; fill-opacity:0.0; 
stroke:#000000; stroke-width:-0.000393701; stroke-opacity:1; 
stroke-linecap:round; stroke-linejoin:round;">
<g >
</g>
<g >
</g>
<g >
</g>
<g >
</g>
<g >
</g>
<g >
</g>
<g style="fill:#000000; fill-opacity:0.0; 
stroke:#000000; stroke-width:-0.000393701; stroke-opacity:1; 
stroke-linecap:round; stroke-linejoin:round;">
</g>
<g style="fill:#000000; fill-opacity:0.0; 
stroke:#000000; stroke-width:0; stroke-opacity:1; 
stroke-linecap:round; stroke-linejoin:round;">
</g>
<g style="fill:#000000; fill-opacity:1.0; 
stroke:#000000; stroke-width:0; stroke-opacity:1; 
stroke-linecap:round; stroke-linejoin:round;">
<path style="fill:#000000; fill-opacity:1.0; 
stroke:#000000; stroke-width:0; stroke-opacity:1; 
stroke-linecap:round; stroke-linejoin:round;fill-rule:evenodd;"
d="M 16812,30226
16820,30228
16828,30230
16836,30232
16844,30236
16851,30240
16858,30245
16864,30251
16870,30257
16875,30264
16879,30271
16883,30279
16886,30287
16888,30295
16889,30304
16889,30312
16889,30514
16889,30522
16888,30531
16886,30539
16883,30547
16879,30554
16875,30562
16870,30568
16864,30575
16858,30580
16851,30585
16844,30590
16836,30593
16828,30596
16820,30598
16812,30599
16803,30600
16631,30600
16622,30599
16614,30598
16606,30596
16598,30593
16590,30590
16583,30585
16576,30580
16570,30575
16564,30568
16559,30562
16555,30554
16551,30547
16548,30539
16546,30531
16545,30522
16545,30514
16545,30312
16545,30304
16546,30295
16548,30287
16551,30279
16555,30271
16559,30264
16564,30257
16570,30251
16576,30245
16583,30240
16590,30236
16598,30232
16606,30230
16614,30228
16622,30226
16631,30226
16803,30226
16812,30226
Z" /> 
<path style="fill:#000000; fill-opacity:1.0; 
stroke:#000000; stroke-width:0; stroke-opacity:1; 
stroke-linecap:round; stroke-linejoin:round;fill-rule:evenodd;"
d="M 17432,30226
17440,30228
17448,30230
17456,30232
17464,30236
17471,30240
17478,30245
17484,30251
17490,30257
17495,30264
17499,30271
17503,30279
17506,30287
17508,30295
17509,30304
17509,30312
17509,30514
17509,30522
17508,30531
17506,30539
17503,30547
17499,30554
17495,30562
17490,30568
17484,30575
17478,30580
17471,30585
17464,30590
17456,30593
17448,30596
17440,30598
17432,30599
17423,30600
17251,30600
17243,30599
17234,30598
17226,30596
17218,30593
17210,30590
17203,30585
17196,30580
17190,30575
17184,30568
17179,30562
17175,30554
17171,30547
17169,30539
17167,30531
17165,30522
17165,30514
17165,30312
17165,30304
17167,30295
17169,30287
17171,30279
17175,30271
17179,30264
17184,30257
17190,30251
17196,30245
17203,30240
17210,30236
17218,30232
17226,30230
17234,30228
17243,30226
17251,30226
17423,30226
17432,30226
Z" /> 
</g>
<g >
</g>
<g >
</g>
<g >
</g>
<g >
</g>
<g style="fill:#000000; fill-opacity:1.0; 
stroke:#000000; stroke-width:0; stroke-opacity:1; 
stroke-linecap:round; stroke-linejoin:round;">
<path style="fill:#000000; fill-opacity:1.0; 
stroke:#000000; stroke-width:0; stroke-opacity:1; 
stroke-linecap:round; stroke-linejoin:round;fill-rule:evenodd;"
d="M 16956,46118
17271,46118
17271,46905
16956,46905
16956,46118
Z" /> 
<path style="fill:#000000; fill-opacity:1.0; 
stroke:#000000; stroke-width:0; stroke-opacity:1; 
stroke-linecap:round; stroke-linejoin:round;fill-rule:evenodd;"
d="M 17547,46118
17862,46118
17862,46905
17547,46905
17547,46118
Z" /> 
</g>
<g >
</g>
<g style="fill:#000000; fill-opacity:1.0; 
stroke:#000000; stroke-width:0; stroke-opacity:1; 
stroke-linecap:round; stroke-linejoin:round;">
<path style="fill:#000000; fill-opacity:1.0; 
stroke:#000000; stroke-width:0; stroke-opacity:1; 
stroke-linecap:round; stroke-linejoin:round;fill-rule:evenodd;"
d="M 18160,27903
18168,27905
18177,27907
18185,27910
18192,27913
18199,27918
18206,27923
18212,27928
18218,27935
18223,27941
18228,27949
18231,27956
18234,27964
18236,27972
18237,27981
18238,27989
18238,28161
18237,28170
18236,28178
18234,28186
18231,28194
18228,28202
18223,28209
18218,28216
18212,28222
18206,28228
18199,28233
18192,28237
18185,28241
18177,28244
18168,28246
18160,28247
18152,28248
17950,28248
17941,28247
17933,28246
17925,28244
17917,28241
17909,28237
17902,28233
17895,28228
17889,28222
17883,28216
17878,28209
17874,28202
17870,28194
17867,28186
17865,28178
17864,28170
17864,28161
17864,27989
17864,27981
17865,27972
17867,27964
17870,27956
17874,27949
17878,27941
17883,27935
17889,27928
17895,27923
17902,27918
17909,27913
17917,27910
17925,27907
17933,27905
17941,27903
17950,27903
18152,27903
18160,27903
Z" /> 
<path style="fill:#000000; fill-opacity:1.0; 
stroke:#000000; stroke-width:0; stroke-opacity:1; 
stroke-linecap:round; stroke-linejoin:round;fill-rule:evenodd;"
d="M 18160,28524
18168,28525
18177,28527
18185,28530
18192,28533
18199,28538
18206,28543
18212,28548
18218,28555
18223,28561
18228,28569
18231,28576
18234,28584
18236,28592
18237,28601
18238,28609
18238,28781
18237,28790
18236,28798
18234,28806
18231,28814
18228,28822
18223,28829
18218,28836
18212,28842
18206,28848
18199,28853
18192,28857
18185,28861
18177,28864
18168,28866
18160,28867
18152,28868
17950,28868
17941,28867
17933,28866
17925,28864
17917,28861
17909,28857
17902,28853
17895,28848
17889,28842
17883,28836
17878,28829
17874,28822
17870,28814
17867,28806
17865,28798
17864,28790
17864,28781
17864,28609
17864,28601
17865,28592
17867,28584
17870,28576
17874,28569
17878,28561
17883,28555
17889,28548
17895,28543
17902,28538
17909,28533
17917,28530
17925,28527
17933,28525
17941,28524
17950,28523
18152,28523
18160,28524
Z" /> 
</g>
<g >
</g>
<g style="fill:#000000; fill-opacity:1.0; 
stroke:#000000; stroke-width:0; stroke-opacity:1; 
stroke-linecap:round; stroke-linejoin:round;">
<path style="fill:#000000; fill-opacity:1.0; 
stroke:#000000; stroke-width:0; stroke-opacity:1; 
stroke-linecap:round; stroke-linejoin:round;fill-rule:evenodd;"
d="M 24847,28390
24856,28391
24864,28393
24872,28396
24879,28400
24887,28404
24893,28409
24900,28415
24905,28421
24910,28428
24915,28435
24918,28443
24921,28451
24923,28459
24924,28467
24925,28476
24925,28648
24924,28656
24923,28665
24921,28673
24918,28681
24915,28688
24910,28696
24905,28702
24900,28709
24893,28714
24887,28719
24879,28724
24872,28727
24864,28730
24856,28732
24847,28733
24839,28734
24637,28734
24629,28733
24620,28732
24612,28730
24604,28727
24596,28724
24589,28719
24582,28714
24576,28709
24570,28702
24565,28696
24561,28688
24557,28681
24555,28673
24552,28665
24551,28656
24551,28648
24551,28476
24551,28467
24552,28459
24555,28451
24557,28443
24561,28435
24565,28428
24570,28421
24576,28415
24582,28409
24589,28404
24596,28400
24604,28396
24612,28393
24620,28391
24629,28390
24637,28389
24839,28389
24847,28390
Z" /> 
<path style="fill:#000000; fill-opacity:1.0; 
stroke:#000000; stroke-width:0; stroke-opacity:1; 
stroke-linecap:round; stroke-linejoin:round;fill-rule:evenodd;"
d="M 24847,29010
24856,29011
24864,29013
24872,29016
24879,29020
24887,29024
24893,29029
24900,29035
24905,29041
24910,29048
24915,29055
24918,29063
24921,29071
24923,29079
24924,29087
24925,29096
24925,29268
24924,29276
24923,29285
24921,29293
24918,29301
24915,29308
24910,29316
24905,29322
24900,29329
24893,29334
24887,29339
24879,29344
24872,29347
24864,29350
24856,29352
24847,29354
24839,29354
24637,29354
24629,29354
24620,29352
24612,29350
24604,29347
24596,29344
24589,29339
24582,29334
24576,29329
24570,29322
24565,29316
24561,29308
24557,29301
24555,29293
24552,29285
24551,29276
24551,29268
24551,29096
24551,29087
24552,29079
24555,29071
24557,29063
24561,29055
24565,29048
24570,29041
24576,29035
24582,29029
24589,29024
24596,29020
24604,29016
24612,29013
24620,29011
24629,29010
24637,29009
24839,29009
24847,29010
Z" /> 
</g>
<g >
</g>
<g style="fill:#000000; fill-opacity:1.0; 
stroke:#000000; stroke-width:0; stroke-opacity:1; 
stroke-linecap:round; stroke-linejoin:round;">
<path style="fill:#000000; fill-opacity:1.0; 
stroke:#000000; stroke-width:0; stroke-opacity:1; 
stroke-linecap:round; stroke-linejoin:round;fill-rule:evenodd;"
d="M 21612,31173
21618,31174
21624,31175
21629,31177
21634,31180
21639,31183
21644,31186
21648,31190
21652,31194
21655,31199
21658,31203
21660,31209
21662,31214
21664,31219
21665,31225
21665,31231
21665,31367
21665,31372
21664,31378
21662,31383
21660,31389
21658,31394
21655,31399
21652,31403
21648,31408
21644,31412
21639,31415
21634,31418
21629,31420
21624,31422
21618,31424
21612,31424
21607,31425
21491,31425
21485,31424
21479,31424
21474,31422
21468,31420
21463,31418
21458,31415
21454,31412
21450,31408
21446,31403
21442,31399
21439,31394
21437,31389
21435,31383
21434,31378
21433,31372
21433,31367
21433,31231
21433,31225
21434,31219
21435,31214
21437,31209
21439,31203
21442,31199
21446,31194
21450,31190
21454,31186
21458,31183
21463,31180
21468,31177
21474,31175
21479,31174
21485,31173
21491,31173
21607,31173
21612,31173
Z" /> 
<path style="fill:#000000; fill-opacity:1.0; 
stroke:#000000; stroke-width:0; stroke-opacity:1; 
stroke-linecap:round; stroke-linejoin:round;fill-rule:evenodd;"
d="M 21231,31173
21236,31174
21242,31175
21247,31177
21252,31180
21257,31183
21262,31186
21266,31190
21270,31194
21273,31199
21276,31203
21279,31209
21280,31214
21282,31219
21283,31225
21283,31231
21283,31367
21283,31372
21282,31378
21280,31383
21279,31389
21276,31394
21273,31399
21270,31403
21266,31408
21262,31412
21257,31415
21252,31418
21247,31420
21242,31422
21236,31424
21231,31424
21225,31425
21109,31425
21103,31424
21097,31424
21092,31422
21087,31420
21081,31418
21076,31415
21072,31412
21068,31408
21064,31403
21060,31399
21058,31394
21055,31389
21053,31383
21052,31378
21051,31372
21051,31367
21051,31231
21051,31225
21052,31219
21053,31214
21055,31209
21058,31203
21060,31199
21064,31194
21068,31190
21072,31186
21076,31183
21081,31180
21087,31177
21092,31175
21097,31174
21103,31173
21109,31173
21225,31173
21231,31173
Z" /> 
</g>
<g >
</g>
<g style="fill:#000000; fill-opacity:1.0; 
stroke:#000000; stroke-width:0; stroke-opacity:1; 
stroke-linecap:round; stroke-linejoin:round;">
<path style="fill:#000000; fill-opacity:1.0; 
stroke:#000000; stroke-width:0; stroke-opacity:1; 
stroke-linecap:round; stroke-linejoin:round;fill-rule:evenodd;"
d="M 27195,28376
27204,28377
27212,28379
27220,28382
27228,28386
27235,28390
27242,28395
27248,28401
27254,28407
27259,28414
27263,28421
27267,28429
27269,28437
27271,28445
27273,28453
27273,28462
27273,28634
27273,28642
27271,28651
27269,28659
27267,28667
27263,28674
27259,28682
27254,28688
27248,28695
27242,28700
27235,28705
27228,28710
27220,28713
27212,28716
27204,28718
27195,28720
27187,28720
26985,28720
26977,28720
26968,28718
26960,28716
26952,28713
26945,28710
26937,28705
26931,28700
26924,28695
26919,28688
26914,28682
26909,28674
26906,28667
26903,28659
26901,28651
26900,28642
26899,28634
26899,28462
26900,28453
26901,28445
26903,28437
26906,28429
26909,28421
26914,28414
26919,28407
26924,28401
26931,28395
26937,28390
26945,28386
26952,28382
26960,28379
26968,28377
26977,28376
26985,28375
27187,28375
27195,28376
Z" /> 
<path style="fill:#000000; fill-opacity:1.0; 
stroke:#000000; stroke-width:0; stroke-opacity:1; 
stroke-linecap:round; stroke-linejoin:round;fill-rule:evenodd;"
d="M 27195,28996
27204,28997
27212,28999
27220,29002
27228,29006
27235,29010
27242,29015
27248,29021
27254,29027
27259,29034
27263,29041
27267,29049
27269,29057
27271,29065
27273,29073
27273,29082
27273,29254
27273,29262
27271,29271
27269,29279
27267,29287
27263,29295
27259,29302
27254,29309
27248,29315
27242,29321
27235,29326
27228,29330
27220,29333
27212,29336
27204,29338
27195,29340
27187,29340
26985,29340
26977,29340
26968,29338
26960,29336
26952,29333
26945,29330
26937,29326
26931,29321
26924,29315
26919,29309
26914,29302
26909,29295
26906,29287
26903,29279
26901,29271
26900,29262
26899,29254
26899,29082
26900,29073
26901,29065
26903,29057
26906,29049
26909,29041
26914,29034
26919,29027
26924,29021
26931,29015
26937,29010
26945,29006
26952,29002
26960,28999
26968,28997
26977,28996
26985,28996
27187,28996
27195,28996
Z" /> 
</g>
<g >
</g>
<g >
</g>
<g >
</g>
<g >
</g>
<g >
</g>
<g style="fill:#000000; fill-opacity:1.0; 
stroke:#000000; stroke-width:0; stroke-opacity:1; 
stroke-linecap:round; stroke-linejoin:round;">
<path style="fill:#000000; fill-opacity:1.0; 
stroke:#000000; stroke-width:0; stroke-opacity:1; 
stroke-linecap:round; stroke-linejoin:round;fill-rule:evenodd;"
d="M 20012,42777
20021,42779
20029,42781
20037,42784
20045,42787
20052,42792
20059,42797
20065,42802
20071,42809
20076,42815
20080,42823
20083,42830
20086,42838
20088,42846
20090,42855
20090,42863
20090,43065
20090,43073
20088,43082
20086,43090
20083,43098
20080,43106
20076,43113
20071,43120
20065,43126
20059,43132
20052,43137
20045,43141
20037,43145
20029,43147
20021,43149
20012,43151
20004,43151
19832,43151
19823,43151
19815,43149
19807,43147
19799,43145
19791,43141
19784,43137
19777,43132
19771,43126
19765,43120
19760,43113
19756,43106
19752,43098
19749,43090
19747,43082
19746,43073
19746,43065
19746,42863
19746,42855
19747,42846
19749,42838
19752,42830
19756,42823
19760,42815
19765,42809
19771,42802
19777,42797
19784,42792
19791,42787
19799,42784
19807,42781
19815,42779
19823,42777
19832,42777
20004,42777
20012,42777
Z" /> 
<path style="fill:#000000; fill-opacity:1.0; 
stroke:#000000; stroke-width:0; stroke-opacity:1; 
stroke-linecap:round; stroke-linejoin:round;fill-rule:evenodd;"
d="M 20632,42777
20641,42779
20649,42781
20657,42784
20665,42787
20672,42792
20679,42797
20685,42802
20691,42809
20696,42815
20700,42823
20704,42830
20706,42838
20708,42846
20710,42855
20710,42863
20710,43065
20710,43073
20708,43082
20706,43090
20704,43098
20700,43106
20696,43113
20691,43120
20685,43126
20679,43132
20672,43137
20665,43141
20657,43145
20649,43147
20641,43149
20632,43151
20624,43151
20452,43151
20443,43151
20435,43149
20427,43147
20419,43145
20411,43141
20404,43137
20397,43132
20391,43126
20385,43120
20380,43113
20376,43106
20372,43098
20369,43090
20367,43082
20366,43073
20366,43065
20366,42863
20366,42855
20367,42846
20369,42838
20372,42830
20376,42823
20380,42815
20385,42809
20391,42802
20397,42797
20404,42792
20411,42787
20419,42784
20427,42781
20435,42779
20443,42777
20452,42777
20624,42777
20632,42777
Z" /> 
</g>
<g >
</g>
<g style="fill:#000000; fill-opacity:1.0; 
stroke:#000000; stroke-width:0; stroke-opacity:1; 
stroke-linecap:round; stroke-linejoin:round;">
<path style="fill:#000000; fill-opacity:1.0; 
stroke:#000000; stroke-width:0; stroke-opacity:1; 
stroke-linecap:round; stroke-linejoin:round;fill-rule:evenodd;"
d="M 26674,36466
26682,36468
26690,36470
26698,36473
26706,36476
26713,36481
26720,36486
26726,36491
26732,36498
26737,36504
26741,36512
26745,36519
26748,36527
26750,36535
26751,36544
26751,36552
26751,36754
26751,36762
26750,36771
26748,36779
26745,36787
26741,36795
26737,36802
26732,36809
26726,36815
26720,36821
26713,36826
26706,36830
26698,36833
26690,36836
26682,36838
26674,36840
26665,36840
26493,36840
26485,36840
26476,36838
26468,36836
26460,36833
26453,36830
26445,36826
26438,36821
26432,36815
26427,36809
26421,36802
26417,36795
26414,36787
26411,36779
26409,36771
26407,36762
26407,36754
26407,36552
26407,36544
26409,36535
26411,36527
26414,36519
26417,36512
26421,36504
26427,36498
26432,36491
26438,36486
26445,36481
26453,36476
26460,36473
26468,36470
26476,36468
26485,36466
26493,36466
26665,36466
26674,36466
Z" /> 
<path style="fill:#000000; fill-opacity:1.0; 
stroke:#000000; stroke-width:0; stroke-opacity:1; 
stroke-linecap:round; stroke-linejoin:round;fill-rule:evenodd;"
d="M 27294,36466
27302,36468
27310,36470
27318,36473
27326,36476
27333,36481
27340,36486
27346,36491
27352,36498
27357,36504
27361,36512
27365,36519
27368,36527
27370,36535
27371,36544
27372,36552
27372,36754
27371,36762
27370,36771
27368,36779
27365,36787
27361,36795
27357,36802
27352,36809
27346,36815
27340,36821
27333,36826
27326,36830
27318,36833
27310,36836
27302,36838
27294,36840
27285,36840
27113,36840
27105,36840
27096,36838
27088,36836
27080,36833
27073,36830
27065,36826
27059,36821
27052,36815
27047,36809
27042,36802
27037,36795
27034,36787
27031,36779
27029,36771
27027,36762
27027,36754
27027,36552
27027,36544
27029,36535
27031,36527
27034,36519
27037,36512
27042,36504
27047,36498
27052,36491
27059,36486
27065,36481
27073,36476
27080,36473
27088,36470
27096,36468
27105,36466
27113,36466
27285,36466
27294,36466
Z" /> 
</g>
<g >
</g>
<g style="fill:#000000; fill-opacity:1.0; 
stroke:#000000; stroke-width:0; stroke-opacity:1; 
stroke-linecap:round; stroke-linejoin:round;">
<path style="fill:#000000; fill-opacity:1.0; 
stroke:#000000; stroke-width:0; stroke-opacity:1; 
stroke-linecap:round; stroke-linejoin:round;fill-rule:evenodd;"
d="M 26674,37136
26682,37137
26690,37139
26698,37142
26706,37145
26713,37150
26720,37155
26726,37161
26732,37167
26737,37174
26741,37181
26745,37188
26748,37196
26750,37205
26751,37213
26751,37221
26751,37423
26751,37432
26750,37440
26748,37448
26745,37456
26741,37464
26737,37471
26732,37478
26726,37484
26720,37490
26713,37495
26706,37499
26698,37503
26690,37506
26682,37508
26674,37509
26665,37509
26493,37509
26485,37509
26476,37508
26468,37506
26460,37503
26453,37499
26445,37495
26438,37490
26432,37484
26427,37478
26421,37471
26417,37464
26414,37456
26411,37448
26409,37440
26407,37432
26407,37423
26407,37221
26407,37213
26409,37205
26411,37196
26414,37188
26417,37181
26421,37174
26427,37167
26432,37161
26438,37155
26445,37150
26453,37145
26460,37142
26468,37139
26476,37137
26485,37136
26493,37135
26665,37135
26674,37136
Z" /> 
<path style="fill:#000000; fill-opacity:1.0; 
stroke:#000000; stroke-width:0; stroke-opacity:1; 
stroke-linecap:round; stroke-linejoin:round;fill-rule:evenodd;"
d="M 27294,37136
27302,37137
27310,37139
27318,37142
27326,37145
27333,37150
27340,37155
27346,37161
27352,37167
27357,37174
27361,37181
27365,37188
27368,37196
27370,37205
27371,37213
27372,37221
27372,37423
27371,37432
27370,37440
27368,37448
27365,37456
27361,37464
27357,37471
27352,37478
27346,37484
27340,37490
27333,37495
27326,37499
27318,37503
27310,37506
27302,37508
27294,37509
27285,37509
27113,37509
27105,37509
27096,37508
27088,37506
27080,37503
27073,37499
27065,37495
27059,37490
27052,37484
27047,37478
27042,37471
27037,37464
27034,37456
27031,37448
27029,37440
27027,37432
27027,37423
27027,37221
27027,37213
27029,37205
27031,37196
27034,37188
27037,37181
27042,37174
27047,37167
27052,37161
27059,37155
27065,37150
27073,37145
27080,37142
27088,37139
27096,37137
27105,37136
27113,37135
27285,37135
27294,37136
Z" /> 
</g>
<g >
</g>
<g style="fill:#000000; fill-opacity:1.0; 
stroke:#000000; stroke-width:0; stroke-opacity:1; 
stroke-linecap:round; stroke-linejoin:round;">
<path style="fill:#000000; fill-opacity:1.0; 
stroke:#000000; stroke-width:0; stroke-opacity:1; 
stroke-linecap:round; stroke-linejoin:round;fill-rule:evenodd;"
d="M 18854,46484
19051,46484
19051,46681
18854,46681
18854,46484
Z" /> 
<path style="fill:#000000; fill-opacity:1.0; 
stroke:#000000; stroke-width:0; stroke-opacity:1; 
stroke-linecap:round; stroke-linejoin:round;fill-rule:evenodd;"
d="M 18854,46011
19051,46011
19051,46208
18854,46208
18854,46011
Z" /> 
</g>
<g >
</g>
<g >
</g>
<g >
</g>
<g >
</g>
<g >
</g>
<g style="fill:#000000; fill-opacity:1.0; 
stroke:#000000; stroke-width:0; stroke-opacity:1; 
stroke-linecap:round; stroke-linejoin:round;">
<path style="fill:#000000; fill-opacity:1.0; 
stroke:#000000; stroke-width:0; stroke-opacity:1; 
stroke-linecap:round; stroke-linejoin:round;fill-rule:evenodd;"
d="M 26633,32736
25885,32736
25885,32027
26633,32027
26633,32736
Z" /> 
<path style="fill:#000000; fill-opacity:1.0; 
stroke:#000000; stroke-width:0; stroke-opacity:1; 
stroke-linecap:round; stroke-linejoin:round;fill-rule:evenodd;"
d="M 26633,33641
25885,33641
25885,32933
26633,32933
26633,33641
Z" /> 
<path style="fill:#000000; fill-opacity:1.0; 
stroke:#000000; stroke-width:0; stroke-opacity:1; 
stroke-linecap:round; stroke-linejoin:round;fill-rule:evenodd;"
d="M 25472,32401
24940,32401
24940,32244
25472,32244
25472,32401
Z" /> 
<path style="fill:#000000; fill-opacity:1.0; 
stroke:#000000; stroke-width:0; stroke-opacity:1; 
stroke-linecap:round; stroke-linejoin:round;fill-rule:evenodd;"
d="M 25472,32657
24940,32657
24940,32500
25472,32500
25472,32657
Z" /> 
<path style="fill:#000000; fill-opacity:1.0; 
stroke:#000000; stroke-width:0; stroke-opacity:1; 
stroke-linecap:round; stroke-linejoin:round;fill-rule:evenodd;"
d="M 25472,32913
24940,32913
24940,32755
25472,32755
25472,32913
Z" /> 
<path style="fill:#000000; fill-opacity:1.0; 
stroke:#000000; stroke-width:0; stroke-opacity:1; 
stroke-linecap:round; stroke-linejoin:round;fill-rule:evenodd;"
d="M 25472,33169
24940,33169
24940,33011
25472,33011
25472,33169
Z" /> 
<path style="fill:#000000; fill-opacity:1.0; 
stroke:#000000; stroke-width:0; stroke-opacity:1; 
stroke-linecap:round; stroke-linejoin:round;fill-rule:evenodd;"
d="M 25472,33425
24940,33425
24940,33267
25472,33267
25472,33425
Z" /> 
</g>
<g >
</g>
<g >
</g>
<g style="fill:#000000; fill-opacity:1.0; 
stroke:#000000; stroke-width:0; stroke-opacity:1; 
stroke-linecap:round; stroke-linejoin:round;">
<path style="fill:#000000; fill-opacity:1.0; 
stroke:#000000; stroke-width:0; stroke-opacity:1; 
stroke-linecap:round; stroke-linejoin:round;fill-rule:evenodd;"
d="M 21612,30681
21618,30682
21624,30683
21629,30685
21634,30687
21639,30690
21644,30694
21648,30698
21652,30702
21655,30706
21658,30711
21660,30716
21662,30722
21664,30727
21665,30733
21665,30739
21665,30875
21665,30880
21664,30886
21662,30891
21660,30897
21658,30902
21655,30907
21652,30911
21648,30916
21644,30919
21639,30923
21634,30926
21629,30928
21624,30930
21618,30931
21612,30932
21607,30933
21491,30933
21485,30932
21479,30931
21474,30930
21468,30928
21463,30926
21458,30923
21454,30919
21450,30916
21446,30911
21442,30907
21439,30902
21437,30897
21435,30891
21434,30886
21433,30880
21433,30875
21433,30739
21433,30733
21434,30727
21435,30722
21437,30716
21439,30711
21442,30706
21446,30702
21450,30698
21454,30694
21458,30690
21463,30687
21468,30685
21474,30683
21479,30682
21485,30681
21491,30681
21607,30681
21612,30681
Z" /> 
<path style="fill:#000000; fill-opacity:1.0; 
stroke:#000000; stroke-width:0; stroke-opacity:1; 
stroke-linecap:round; stroke-linejoin:round;fill-rule:evenodd;"
d="M 21231,30681
21236,30682
21242,30683
21247,30685
21252,30687
21257,30690
21262,30694
21266,30698
21270,30702
21273,30706
21276,30711
21279,30716
21280,30722
21282,30727
21283,30733
21283,30739
21283,30875
21283,30880
21282,30886
21280,30891
21279,30897
21276,30902
21273,30907
21270,30911
21266,30916
21262,30919
21257,30923
21252,30926
21247,30928
21242,30930
21236,30931
21231,30932
21225,30933
21109,30933
21103,30932
21097,30931
21092,30930
21087,30928
21081,30926
21076,30923
21072,30919
21068,30916
21064,30911
21060,30907
21058,30902
21055,30897
21053,30891
21052,30886
21051,30880
21051,30875
21051,30739
21051,30733
21052,30727
21053,30722
21055,30716
21058,30711
21060,30706
21064,30702
21068,30698
21072,30694
21076,30690
21081,30687
21087,30685
21092,30683
21097,30682
21103,30681
21109,30681
21225,30681
21231,30681
Z" /> 
</g>
<g >
</g>
<g style="fill:#000000; fill-opacity:1.0; 
stroke:#000000; stroke-width:0; stroke-opacity:1; 
stroke-linecap:round; stroke-linejoin:round;">
<path style="fill:#000000; fill-opacity:1.0; 
stroke:#000000; stroke-width:0; stroke-opacity:1; 
stroke-linecap:round; stroke-linejoin:round;fill-rule:evenodd;"
d="M 21231,31665
21236,31666
21242,31667
21247,31669
21252,31672
21257,31675
21262,31678
21266,31682
21270,31686
21273,31691
21276,31696
21279,31701
21280,31706
21282,31712
21283,31717
21283,31723
21283,31859
21283,31864
21282,31870
21280,31876
21279,31881
21276,31886
21273,31891
21270,31896
21266,31900
21262,31904
21257,31907
21252,31910
21247,31912
21242,31914
21236,31916
21231,31917
21225,31917
21109,31917
21103,31917
21097,31916
21092,31914
21087,31912
21081,31910
21076,31907
21072,31904
21068,31900
21064,31896
21060,31891
21058,31886
21055,31881
21053,31876
21052,31870
21051,31864
21051,31859
21051,31723
21051,31717
21052,31712
21053,31706
21055,31701
21058,31696
21060,31691
21064,31686
21068,31682
21072,31678
21076,31675
21081,31672
21087,31669
21092,31667
21097,31666
21103,31665
21109,31665
21225,31665
21231,31665
Z" /> 
<path style="fill:#000000; fill-opacity:1.0; 
stroke:#000000; stroke-width:0; stroke-opacity:1; 
stroke-linecap:round; stroke-linejoin:round;fill-rule:evenodd;"
d="M 21612,31665
21618,31666
21624,31667
21629,31669
21634,31672
21639,31675
21644,31678
21648,31682
21652,31686
21655,31691
21658,31696
21660,31701
21662,31706
21664,31712
21665,31717
21665,31723
21665,31859
21665,31864
21664,31870
21662,31876
21660,31881
21658,31886
21655,31891
21652,31896
21648,31900
21644,31904
21639,31907
21634,31910
21629,31912
21624,31914
21618,31916
21612,31917
21607,31917
21491,31917
21485,31917
21479,31916
21474,31914
21468,31912
21463,31910
21458,31907
21454,31904
21450,31900
21446,31896
21442,31891
21439,31886
21437,31881
21435,31876
21434,31870
21433,31864
21433,31859
21433,31723
21433,31717
21434,31712
21435,31706
21437,31701
21439,31696
21442,31691
21446,31686
21450,31682
21454,31678
21458,31675
21463,31672
21468,31669
21474,31667
21479,31666
21485,31665
21491,31665
21607,31665
21612,31665
Z" /> 
</g>
<g >
</g>
<g style="fill:#000000; fill-opacity:1.0; 
stroke:#000000; stroke-width:0; stroke-opacity:1; 
stroke-linecap:round; stroke-linejoin:round;">
<path style="fill:#000000; fill-opacity:1.0; 
stroke:#000000; stroke-width:0; stroke-opacity:1; 
stroke-linecap:round; stroke-linejoin:round;fill-rule:evenodd;"
d="M 24085,32551
24091,32552
24096,32553
24101,32555
24107,32558
24111,32560
24116,32564
24120,32568
24124,32572
24128,32576
24130,32581
24133,32587
24135,32592
24136,32597
24137,32603
24137,32609
24137,32745
24137,32750
24136,32756
24135,32761
24133,32767
24130,32772
24128,32777
24124,32781
24120,32786
24116,32789
24111,32793
24107,32796
24101,32798
24096,32800
24091,32802
24085,32802
24079,32803
23963,32803
23957,32802
23952,32802
23946,32800
23941,32798
23936,32796
23931,32793
23926,32789
23922,32786
23918,32781
23915,32777
23912,32772
23909,32767
23908,32761
23906,32756
23905,32750
23905,32745
23905,32609
23905,32603
23906,32597
23908,32592
23909,32587
23912,32581
23915,32576
23918,32572
23922,32568
23926,32564
23931,32560
23936,32558
23941,32555
23946,32553
23952,32552
23957,32551
23963,32551
24079,32551
24085,32551
Z" /> 
<path style="fill:#000000; fill-opacity:1.0; 
stroke:#000000; stroke-width:0; stroke-opacity:1; 
stroke-linecap:round; stroke-linejoin:round;fill-rule:evenodd;"
d="M 24467,32551
24472,32552
24478,32553
24483,32555
24488,32558
24493,32560
24498,32564
24502,32568
24506,32572
24509,32576
24512,32581
24515,32587
24517,32592
24518,32597
24519,32603
24519,32609
24519,32745
24519,32750
24518,32756
24517,32761
24515,32767
24512,32772
24509,32777
24506,32781
24502,32786
24498,32789
24493,32793
24488,32796
24483,32798
24478,32800
24472,32802
24467,32802
24461,32803
24345,32803
24339,32802
24334,32802
24328,32800
24323,32798
24318,32796
24313,32793
24308,32789
24304,32786
24300,32781
24297,32777
24294,32772
24291,32767
24289,32761
24288,32756
24287,32750
24287,32745
24287,32609
24287,32603
24288,32597
24289,32592
24291,32587
24294,32581
24297,32576
24300,32572
24304,32568
24308,32564
24313,32560
24318,32558
24323,32555
24328,32553
24334,32552
24339,32551
24345,32551
24461,32551
24467,32551
Z" /> 
</g>
<g >
</g>
<g style="fill:#000000; fill-opacity:1.0; 
stroke:#000000; stroke-width:0; stroke-opacity:1; 
stroke-linecap:round; stroke-linejoin:round;">
<path style="fill:#000000; fill-opacity:1.0; 
stroke:#000000; stroke-width:0; stroke-opacity:1; 
stroke-linecap:round; stroke-linejoin:round;fill-rule:evenodd;"
d="M 24085,33142
24091,33142
24096,33144
24101,33146
24107,33148
24111,33151
24116,33154
24120,33158
24124,33162
24128,33167
24130,33172
24133,33177
24135,33182
24136,33188
24137,33194
24137,33199
24137,33335
24137,33341
24136,33346
24135,33352
24133,33357
24130,33363
24128,33367
24124,33372
24120,33376
24116,33380
24111,33383
24107,33386
24101,33389
24096,33391
24091,33392
24085,33393
24079,33393
23963,33393
23957,33393
23952,33392
23946,33391
23941,33389
23936,33386
23931,33383
23926,33380
23922,33376
23918,33372
23915,33367
23912,33363
23909,33357
23908,33352
23906,33346
23905,33341
23905,33335
23905,33199
23905,33194
23906,33188
23908,33182
23909,33177
23912,33172
23915,33167
23918,33162
23922,33158
23926,33154
23931,33151
23936,33148
23941,33146
23946,33144
23952,33142
23957,33142
23963,33141
24079,33141
24085,33142
Z" /> 
<path style="fill:#000000; fill-opacity:1.0; 
stroke:#000000; stroke-width:0; stroke-opacity:1; 
stroke-linecap:round; stroke-linejoin:round;fill-rule:evenodd;"
d="M 24467,33142
24472,33142
24478,33144
24483,33146
24488,33148
24493,33151
24498,33154
24502,33158
24506,33162
24509,33167
24512,33172
24515,33177
24517,33182
24518,33188
24519,33194
24519,33199
24519,33335
24519,33341
24518,33346
24517,33352
24515,33357
24512,33363
24509,33367
24506,33372
24502,33376
24498,33380
24493,33383
24488,33386
24483,33389
24478,33391
24472,33392
24467,33393
24461,33393
24345,33393
24339,33393
24334,33392
24328,33391
24323,33389
24318,33386
24313,33383
24308,33380
24304,33376
24300,33372
24297,33367
24294,33363
24291,33357
24289,33352
24288,33346
24287,33341
24287,33335
24287,33199
24287,33194
24288,33188
24289,33182
24291,33177
24294,33172
24297,33167
24300,33162
24304,33158
24308,33154
24313,33151
24318,33148
24323,33146
24328,33144
24334,33142
24339,33142
24345,33141
24461,33141
24467,33142
Z" /> 
</g>
<g >
</g>
<g style="fill:#000000; fill-opacity:1.0; 
stroke:#000000; stroke-width:0; stroke-opacity:1; 
stroke-linecap:round; stroke-linejoin:round;">
<path style="fill:#000000; fill-opacity:1.0; 
stroke:#000000; stroke-width:0; stroke-opacity:1; 
stroke-linecap:round; stroke-linejoin:round;fill-rule:evenodd;"
d="M 25778,36527
25783,36528
25789,36530
25794,36531
25800,36534
25804,36537
25809,36540
25813,36544
25817,36548
25820,36553
25823,36558
25826,36563
25828,36568
25829,36574
25830,36579
25830,36585
25830,36721
25830,36727
25829,36732
25828,36738
25826,36743
25823,36748
25820,36753
25817,36758
25813,36762
25809,36766
25804,36769
25800,36772
25794,36775
25789,36777
25783,36778
25778,36779
25772,36779
25656,36779
25650,36779
25645,36778
25639,36777
25634,36775
25629,36772
25624,36769
25619,36766
25615,36762
25611,36758
25608,36753
25605,36748
25602,36743
25600,36738
25599,36732
25598,36727
25598,36721
25598,36585
25598,36579
25599,36574
25600,36568
25602,36563
25605,36558
25608,36553
25611,36548
25615,36544
25619,36540
25624,36537
25629,36534
25634,36531
25639,36530
25645,36528
25650,36527
25656,36527
25772,36527
25778,36527
Z" /> 
<path style="fill:#000000; fill-opacity:1.0; 
stroke:#000000; stroke-width:0; stroke-opacity:1; 
stroke-linecap:round; stroke-linejoin:round;fill-rule:evenodd;"
d="M 26160,36527
26165,36528
26171,36530
26176,36531
26181,36534
26186,36537
26191,36540
26195,36544
26199,36548
26202,36553
26205,36558
26208,36563
26210,36568
26211,36574
26212,36579
26212,36585
26212,36721
26212,36727
26211,36732
26210,36738
26208,36743
26205,36748
26202,36753
26199,36758
26195,36762
26191,36766
26186,36769
26181,36772
26176,36775
26171,36777
26165,36778
26160,36779
26154,36779
26038,36779
26032,36779
26027,36778
26021,36777
26016,36775
26011,36772
26006,36769
26001,36766
25997,36762
25993,36758
25990,36753
25987,36748
25984,36743
25982,36738
25981,36732
25980,36727
25980,36721
25980,36585
25980,36579
25981,36574
25982,36568
25984,36563
25987,36558
25990,36553
25993,36548
25997,36544
26001,36540
26006,36537
26011,36534
26016,36531
26021,36530
26027,36528
26032,36527
26038,36527
26154,36527
26160,36527
Z" /> 
</g>
<g >
</g>
<g style="fill:#000000; fill-opacity:1.0; 
stroke:#000000; stroke-width:0; stroke-opacity:1; 
stroke-linecap:round; stroke-linejoin:round;">
<path style="fill:#000000; fill-opacity:1.0; 
stroke:#000000; stroke-width:0; stroke-opacity:1; 
stroke-linecap:round; stroke-linejoin:round;fill-rule:evenodd;"
d="M 25778,37197
25783,37197
25789,37199
25794,37201
25800,37203
25804,37206
25809,37210
25813,37213
25817,37218
25820,37222
25823,37227
25826,37232
25828,37238
25829,37243
25830,37249
25830,37254
25830,37390
25830,37396
25829,37402
25828,37407
25826,37412
25823,37418
25820,37423
25817,37427
25813,37431
25809,37435
25804,37439
25800,37441
25794,37444
25789,37446
25783,37447
25778,37448
25772,37448
25656,37448
25650,37448
25645,37447
25639,37446
25634,37444
25629,37441
25624,37439
25619,37435
25615,37431
25611,37427
25608,37423
25605,37418
25602,37412
25600,37407
25599,37402
25598,37396
25598,37390
25598,37254
25598,37249
25599,37243
25600,37238
25602,37232
25605,37227
25608,37222
25611,37218
25615,37213
25619,37210
25624,37206
25629,37203
25634,37201
25639,37199
25645,37197
25650,37197
25656,37196
25772,37196
25778,37197
Z" /> 
<path style="fill:#000000; fill-opacity:1.0; 
stroke:#000000; stroke-width:0; stroke-opacity:1; 
stroke-linecap:round; stroke-linejoin:round;fill-rule:evenodd;"
d="M 26160,37197
26165,37197
26171,37199
26176,37201
26181,37203
26186,37206
26191,37210
26195,37213
26199,37218
26202,37222
26205,37227
26208,37232
26210,37238
26211,37243
26212,37249
26212,37254
26212,37390
26212,37396
26211,37402
26210,37407
26208,37412
26205,37418
26202,37423
26199,37427
26195,37431
26191,37435
26186,37439
26181,37441
26176,37444
26171,37446
26165,37447
26160,37448
26154,37448
26038,37448
26032,37448
26027,37447
26021,37446
26016,37444
26011,37441
26006,37439
26001,37435
25997,37431
25993,37427
25990,37423
25987,37418
25984,37412
25982,37407
25981,37402
25980,37396
25980,37390
25980,37254
25980,37249
25981,37243
25982,37238
25984,37232
25987,37227
25990,37222
25993,37218
25997,37213
26001,37210
26006,37206
26011,37203
26016,37201
26021,37199
26027,37197
26032,37197
26038,37196
26154,37196
26160,37197
Z" /> 
</g>
<g >
</g>
<g style="fill:#000000; fill-opacity:1.0; 
stroke:#000000; stroke-width:0; stroke-opacity:1; 
stroke-linecap:round; stroke-linejoin:round;">
<path style="fill:#000000; fill-opacity:1.0; 
stroke:#000000; stroke-width:0; stroke-opacity:1; 
stroke-linecap:round; stroke-linejoin:round;fill-rule:evenodd;"
d="M 24089,42606
24094,42607
24100,42608
24105,42610
24111,42613
24115,42616
24120,42619
24124,42623
24128,42627
24131,42632
24134,42636
24137,42642
24139,42647
24140,42653
24141,42658
24141,42664
24141,42780
24141,42786
24140,42791
24139,42797
24137,42802
24134,42807
24131,42812
24128,42817
24124,42821
24120,42825
24115,42828
24111,42831
24105,42834
24100,42836
24094,42837
24089,42838
24083,42838
23947,42838
23942,42838
23936,42837
23930,42836
23925,42834
23920,42831
23915,42828
23910,42825
23906,42821
23902,42817
23899,42812
23896,42807
23894,42802
23892,42797
23890,42791
23890,42786
23889,42780
23889,42664
23890,42658
23890,42653
23892,42647
23894,42642
23896,42636
23899,42632
23902,42627
23906,42623
23910,42619
23915,42616
23920,42613
23925,42610
23930,42608
23936,42607
23942,42606
23947,42606
24083,42606
24089,42606
Z" /> 
<path style="fill:#000000; fill-opacity:1.0; 
stroke:#000000; stroke-width:0; stroke-opacity:1; 
stroke-linecap:round; stroke-linejoin:round;fill-rule:evenodd;"
d="M 24089,42988
24094,42989
24100,42990
24105,42992
24111,42995
24115,42997
24120,43001
24124,43005
24128,43009
24131,43013
24134,43018
24137,43024
24139,43029
24140,43034
24141,43040
24141,43046
24141,43162
24141,43168
24140,43173
24139,43179
24137,43184
24134,43189
24131,43194
24128,43199
24124,43203
24120,43207
24115,43210
24111,43213
24105,43216
24100,43217
24094,43219
24089,43220
24083,43220
23947,43220
23942,43220
23936,43219
23930,43217
23925,43216
23920,43213
23915,43210
23910,43207
23906,43203
23902,43199
23899,43194
23896,43189
23894,43184
23892,43179
23890,43173
23890,43168
23889,43162
23889,43046
23890,43040
23890,43034
23892,43029
23894,43024
23896,43018
23899,43013
23902,43009
23906,43005
23910,43001
23915,42997
23920,42995
23925,42992
23930,42990
23936,42989
23942,42988
23947,42988
24083,42988
24089,42988
Z" /> 
</g>
<g >
</g>
<g style="fill:#000000; fill-opacity:1.0; 
stroke:#000000; stroke-width:0; stroke-opacity:1; 
stroke-linecap:round; stroke-linejoin:round;">
<path style="fill:#000000; fill-opacity:1.0; 
stroke:#000000; stroke-width:0; stroke-opacity:1; 
stroke-linecap:round; stroke-linejoin:round;fill-rule:evenodd;"
d="M 23498,42606
23504,42607
23509,42608
23515,42610
23520,42613
23525,42616
23529,42619
23534,42623
23537,42627
23541,42632
23544,42636
23546,42642
23548,42647
23550,42653
23550,42658
23551,42664
23551,42780
23550,42786
23550,42791
23548,42797
23546,42802
23544,42807
23541,42812
23537,42817
23534,42821
23529,42825
23525,42828
23520,42831
23515,42834
23509,42836
23504,42837
23498,42838
23493,42838
23357,42838
23351,42838
23345,42837
23340,42836
23335,42834
23329,42831
23325,42828
23320,42825
23316,42821
23312,42817
23308,42812
23306,42807
23303,42802
23301,42797
23300,42791
23299,42786
23299,42780
23299,42664
23299,42658
23300,42653
23301,42647
23303,42642
23306,42636
23308,42632
23312,42627
23316,42623
23320,42619
23325,42616
23329,42613
23335,42610
23340,42608
23345,42607
23351,42606
23357,42606
23493,42606
23498,42606
Z" /> 
<path style="fill:#000000; fill-opacity:1.0; 
stroke:#000000; stroke-width:0; stroke-opacity:1; 
stroke-linecap:round; stroke-linejoin:round;fill-rule:evenodd;"
d="M 23498,42988
23504,42989
23509,42990
23515,42992
23520,42995
23525,42997
23529,43001
23534,43005
23537,43009
23541,43013
23544,43018
23546,43024
23548,43029
23550,43034
23550,43040
23551,43046
23551,43162
23550,43168
23550,43173
23548,43179
23546,43184
23544,43189
23541,43194
23537,43199
23534,43203
23529,43207
23525,43210
23520,43213
23515,43216
23509,43217
23504,43219
23498,43220
23493,43220
23357,43220
23351,43220
23345,43219
23340,43217
23335,43216
23329,43213
23325,43210
23320,43207
23316,43203
23312,43199
23308,43194
23306,43189
23303,43184
23301,43179
23300,43173
23299,43168
23299,43162
23299,43046
23299,43040
23300,43034
23301,43029
23303,43024
23306,43018
23308,43013
23312,43009
23316,43005
23320,43001
23325,42997
23329,42995
23335,42992
23340,42990
23345,42989
23351,42988
23357,42988
23493,42988
23498,42988
Z" /> 
</g>
<g >
</g>
<g >
</g>
<g >
</g>
<g >
</g>
<g >
</g>
<g >
</g>
<g >
</g>
<g >
</g>
<g >
</g>
<g >
</g>
<g >
</g>
<g style="fill:#000000; fill-opacity:1.0; 
stroke:#000000; stroke-width:0; stroke-opacity:1; 
stroke-linecap:round; stroke-linejoin:round;">
<path style="fill:#000000; fill-opacity:1.0; 
stroke:#000000; stroke-width:0; stroke-opacity:1; 
stroke-linecap:round; stroke-linejoin:round;fill-rule:evenodd;"
d="M 18396,45996
18402,45997
18407,45998
18412,46000
18418,46002
18423,46005
18427,46009
18431,46013
18435,46017
18439,46021
18441,46026
18444,46031
18446,46037
18447,46042
18448,46048
18448,46054
18448,46170
18448,46175
18447,46181
18446,46187
18444,46192
18441,46197
18439,46202
18435,46207
18431,46211
18427,46215
18423,46218
18418,46221
18412,46223
18407,46225
18402,46227
18396,46228
18390,46228
18254,46228
18249,46228
18243,46227
18238,46225
18232,46223
18227,46221
18222,46218
18218,46215
18213,46211
18210,46207
18206,46202
18203,46197
18201,46192
18199,46187
18197,46181
18197,46175
18196,46170
18196,46054
18197,46048
18197,46042
18199,46037
18201,46031
18203,46026
18206,46021
18210,46017
18213,46013
18218,46009
18222,46005
18227,46002
18232,46000
18238,45998
18243,45997
18249,45996
18254,45996
18390,45996
18396,45996
Z" /> 
<path style="fill:#000000; fill-opacity:1.0; 
stroke:#000000; stroke-width:0; stroke-opacity:1; 
stroke-linecap:round; stroke-linejoin:round;fill-rule:evenodd;"
d="M 18396,46378
18402,46379
18407,46380
18412,46382
18418,46384
18423,46387
18427,46391
18431,46394
18435,46399
18439,46403
18441,46408
18444,46413
18446,46419
18447,46424
18448,46430
18448,46436
18448,46552
18448,46557
18447,46563
18446,46569
18444,46574
18441,46579
18439,46584
18435,46589
18431,46593
18427,46597
18423,46600
18418,46603
18412,46605
18407,46607
18402,46609
18396,46609
18390,46610
18254,46610
18249,46609
18243,46609
18238,46607
18232,46605
18227,46603
18222,46600
18218,46597
18213,46593
18210,46589
18206,46584
18203,46579
18201,46574
18199,46569
18197,46563
18197,46557
18196,46552
18196,46436
18197,46430
18197,46424
18199,46419
18201,46413
18203,46408
18206,46403
18210,46399
18213,46394
18218,46391
18222,46387
18227,46384
18232,46382
18238,46380
18243,46379
18249,46378
18254,46377
18390,46377
18396,46378
Z" /> 
</g>
<g >
</g>
<g style="fill:#000000; fill-opacity:1.0; 
stroke:#000000; stroke-width:0; stroke-opacity:1; 
stroke-linecap:round; stroke-linejoin:round;">
<path style="fill:#000000; fill-opacity:1.0; 
stroke:#000000; stroke-width:0; stroke-opacity:1; 
stroke-linecap:round; stroke-linejoin:round;fill-rule:evenodd;"
d="M 17273,29507
17529,29507
17529,29988
17273,29988
17273,29507
Z" /> 
<path style="fill:#000000; fill-opacity:1.0; 
stroke:#000000; stroke-width:0; stroke-opacity:1; 
stroke-linecap:round; stroke-linejoin:round;fill-rule:evenodd;"
d="M 16525,29507
16781,29507
16781,29988
16525,29988
16525,29507
Z" /> 
<path style="fill:#000000; fill-opacity:1.0; 
stroke:#000000; stroke-width:0; stroke-opacity:1; 
stroke-linecap:round; stroke-linejoin:round;fill-rule:evenodd;"
d="M 16525,28476
16781,28476
16781,28956
16525,28956
16525,28476
Z" /> 
<path style="fill:#000000; fill-opacity:1.0; 
stroke:#000000; stroke-width:0; stroke-opacity:1; 
stroke-linecap:round; stroke-linejoin:round;fill-rule:evenodd;"
d="M 16899,28476
17155,28476
17155,28956
16899,28956
16899,28476
Z" /> 
<path style="fill:#000000; fill-opacity:1.0; 
stroke:#000000; stroke-width:0; stroke-opacity:1; 
stroke-linecap:round; stroke-linejoin:round;fill-rule:evenodd;"
d="M 17273,28476
17529,28476
17529,28956
17273,28956
17273,28476
Z" /> 
</g>
<g >
</g>
<g style="fill:#000000; fill-opacity:1.0; 
stroke:#000000; stroke-width:0; stroke-opacity:1; 
stroke-linecap:round; stroke-linejoin:round;">
<path style="fill:#000000; fill-opacity:1.0; 
stroke:#000000; stroke-width:0; stroke-opacity:1; 
stroke-linecap:round; stroke-linejoin:round;fill-rule:evenodd;"
d="M 26208,29106
26208,29500
25956,29500
25956,29106
26208,29106
Z" /> 
<path style="fill:#000000; fill-opacity:1.0; 
stroke:#000000; stroke-width:0; stroke-opacity:1; 
stroke-linecap:round; stroke-linejoin:round;fill-rule:evenodd;"
d="M 25882,29106
25882,29500
25630,29500
25630,29106
25882,29106
Z" /> 
<path style="fill:#000000; fill-opacity:1.0; 
stroke:#000000; stroke-width:0; stroke-opacity:1; 
stroke-linecap:round; stroke-linejoin:round;fill-rule:evenodd;"
d="M 26208,28637
26208,29031
25956,29031
25956,28637
26208,28637
Z" /> 
<path style="fill:#000000; fill-opacity:1.0; 
stroke:#000000; stroke-width:0; stroke-opacity:1; 
stroke-linecap:round; stroke-linejoin:round;fill-rule:evenodd;"
d="M 25882,28637
25882,29031
25630,29031
25630,28637
25882,28637
Z" /> 
<path style="fill:#000000; fill-opacity:1.0; 
stroke:#000000; stroke-width:0; stroke-opacity:1; 
stroke-linecap:round; stroke-linejoin:round;fill-rule:evenodd;"
d="M 25506,29315
25506,29413
25230,29413
25230,29315
25506,29315
Z" /> 
<path style="fill:#000000; fill-opacity:1.0; 
stroke:#000000; stroke-width:0; stroke-opacity:1; 
stroke-linecap:round; stroke-linejoin:round;fill-rule:evenodd;"
d="M 25506,29118
25506,29216
25230,29216
25230,29118
25506,29118
Z" /> 
<path style="fill:#000000; fill-opacity:1.0; 
stroke:#000000; stroke-width:0; stroke-opacity:1; 
stroke-linecap:round; stroke-linejoin:round;fill-rule:evenodd;"
d="M 25506,28921
25506,29019
25230,29019
25230,28921
25506,28921
Z" /> 
<path style="fill:#000000; fill-opacity:1.0; 
stroke:#000000; stroke-width:0; stroke-opacity:1; 
stroke-linecap:round; stroke-linejoin:round;fill-rule:evenodd;"
d="M 25506,28724
25506,28822
25230,28822
25230,28724
25506,28724
Z" /> 
<path style="fill:#000000; fill-opacity:1.0; 
stroke:#000000; stroke-width:0; stroke-opacity:1; 
stroke-linecap:round; stroke-linejoin:round;fill-rule:evenodd;"
d="M 26608,28724
26608,28822
26332,28822
26332,28724
26608,28724
Z" /> 
<path style="fill:#000000; fill-opacity:1.0; 
stroke:#000000; stroke-width:0; stroke-opacity:1; 
stroke-linecap:round; stroke-linejoin:round;fill-rule:evenodd;"
d="M 26608,28921
26608,29019
26332,29019
26332,28921
26608,28921
Z" /> 
<path style="fill:#000000; fill-opacity:1.0; 
stroke:#000000; stroke-width:0; stroke-opacity:1; 
stroke-linecap:round; stroke-linejoin:round;fill-rule:evenodd;"
d="M 26608,29118
26608,29216
26332,29216
26332,29118
26608,29118
Z" /> 
<path style="fill:#000000; fill-opacity:1.0; 
stroke:#000000; stroke-width:0; stroke-opacity:1; 
stroke-linecap:round; stroke-linejoin:round;fill-rule:evenodd;"
d="M 26608,29315
26608,29413
26332,29413
26332,29315
26608,29315
Z" /> 
</g>
<g >
</g>
<g style="fill:#000000; fill-opacity:1.0; 
stroke:#000000; stroke-width:0; stroke-opacity:1; 
stroke-linecap:round; stroke-linejoin:round;">
<path style="fill:#000000; fill-opacity:1.0; 
stroke:#000000; stroke-width:0; stroke-opacity:1; 
stroke-linecap:round; stroke-linejoin:round;fill-rule:evenodd;"
d="M 19020,31259
19020,30866
19256,30866
19256,31259
19020,31259
Z" /> 
<path style="fill:#000000; fill-opacity:1.0; 
stroke:#000000; stroke-width:0; stroke-opacity:1; 
stroke-linecap:round; stroke-linejoin:round;fill-rule:evenodd;"
d="M 19325,31259
19325,30866
19562,30866
19562,31259
19325,31259
Z" /> 
<path style="fill:#000000; fill-opacity:1.0; 
stroke:#000000; stroke-width:0; stroke-opacity:1; 
stroke-linecap:round; stroke-linejoin:round;fill-rule:evenodd;"
d="M 19325,31732
19325,31338
19562,31338
19562,31732
19325,31732
Z" /> 
<path style="fill:#000000; fill-opacity:1.0; 
stroke:#000000; stroke-width:0; stroke-opacity:1; 
stroke-linecap:round; stroke-linejoin:round;fill-rule:evenodd;"
d="M 19020,31732
19020,31338
19256,31338
19256,31732
19020,31732
Z" /> 
<path style="fill:#000000; fill-opacity:1.0; 
stroke:#000000; stroke-width:0; stroke-opacity:1; 
stroke-linecap:round; stroke-linejoin:round;fill-rule:evenodd;"
d="M 19773,30984
19773,30846
20029,30846
20029,30984
19773,30984
Z" /> 
<path style="fill:#000000; fill-opacity:1.0; 
stroke:#000000; stroke-width:0; stroke-opacity:1; 
stroke-linecap:round; stroke-linejoin:round;fill-rule:evenodd;"
d="M 19773,31240
19773,31102
20029,31102
20029,31240
19773,31240
Z" /> 
<path style="fill:#000000; fill-opacity:1.0; 
stroke:#000000; stroke-width:0; stroke-opacity:1; 
stroke-linecap:round; stroke-linejoin:round;fill-rule:evenodd;"
d="M 19773,31496
19773,31358
20029,31358
20029,31496
19773,31496
Z" /> 
<path style="fill:#000000; fill-opacity:1.0; 
stroke:#000000; stroke-width:0; stroke-opacity:1; 
stroke-linecap:round; stroke-linejoin:round;fill-rule:evenodd;"
d="M 19773,31751
19773,31614
20029,31614
20029,31751
19773,31751
Z" /> 
<path style="fill:#000000; fill-opacity:1.0; 
stroke:#000000; stroke-width:0; stroke-opacity:1; 
stroke-linecap:round; stroke-linejoin:round;fill-rule:evenodd;"
d="M 18553,31751
18553,31614
18809,31614
18809,31751
18553,31751
Z" /> 
<path style="fill:#000000; fill-opacity:1.0; 
stroke:#000000; stroke-width:0; stroke-opacity:1; 
stroke-linecap:round; stroke-linejoin:round;fill-rule:evenodd;"
d="M 18553,31496
18553,31358
18809,31358
18809,31496
18553,31496
Z" /> 
<path style="fill:#000000; fill-opacity:1.0; 
stroke:#000000; stroke-width:0; stroke-opacity:1; 
stroke-linecap:round; stroke-linejoin:round;fill-rule:evenodd;"
d="M 18553,31240
18553,31102
18809,31102
18809,31240
18553,31240
Z" /> 
<path style="fill:#000000; fill-opacity:1.0; 
stroke:#000000; stroke-width:0; stroke-opacity:1; 
stroke-linecap:round; stroke-linejoin:round;fill-rule:evenodd;"
d="M 18553,30984
18553,30846
18809,30846
18809,30984
18553,30984
Z" /> 
</g>
<g >
</g>
<g >
</g>
<g style="fill:#000000; fill-opacity:1.0; 
stroke:#000000; stroke-width:0; stroke-opacity:1; 
stroke-linecap:round; stroke-linejoin:round;">
<path style="fill:#000000; fill-opacity:1.0; 
stroke:#000000; stroke-width:0; stroke-opacity:1; 
stroke-linecap:round; stroke-linejoin:round;fill-rule:evenodd;"
d="M 20728,43444
21003,43444
21003,44035
20728,44035
20728,43444
Z" /> 
<path style="fill:#000000; fill-opacity:1.0; 
stroke:#000000; stroke-width:0; stroke-opacity:1; 
stroke-linecap:round; stroke-linejoin:round;fill-rule:evenodd;"
d="M 21122,43444
21397,43444
21397,44035
21122,44035
21122,43444
Z" /> 
<path style="fill:#000000; fill-opacity:1.0; 
stroke:#000000; stroke-width:0; stroke-opacity:1; 
stroke-linecap:round; stroke-linejoin:round;fill-rule:evenodd;"
d="M 21515,43444
21791,43444
21791,44035
21515,44035
21515,43444
Z" /> 
<path style="fill:#000000; fill-opacity:1.0; 
stroke:#000000; stroke-width:0; stroke-opacity:1; 
stroke-linecap:round; stroke-linejoin:round;fill-rule:evenodd;"
d="M 21909,43444
22185,43444
22185,44035
21909,44035
21909,43444
Z" /> 
<path style="fill:#000000; fill-opacity:1.0; 
stroke:#000000; stroke-width:0; stroke-opacity:1; 
stroke-linecap:round; stroke-linejoin:round;fill-rule:evenodd;"
d="M 22303,43444
22578,43444
22578,44035
22303,44035
22303,43444
Z" /> 
<path style="fill:#000000; fill-opacity:1.0; 
stroke:#000000; stroke-width:0; stroke-opacity:1; 
stroke-linecap:round; stroke-linejoin:round;fill-rule:evenodd;"
d="M 23681,43759
23681,44035
23090,44035
23090,43759
23681,43759
Z" /> 
<path style="fill:#000000; fill-opacity:1.0; 
stroke:#000000; stroke-width:0; stroke-opacity:1; 
stroke-linecap:round; stroke-linejoin:round;fill-rule:evenodd;"
d="M 23681,44153
23681,44429
23090,44429
23090,44153
23681,44153
Z" /> 
<path style="fill:#000000; fill-opacity:1.0; 
stroke:#000000; stroke-width:0; stroke-opacity:1; 
stroke-linecap:round; stroke-linejoin:round;fill-rule:evenodd;"
d="M 23681,44547
23681,44822
23090,44822
23090,44547
23681,44547
Z" /> 
<path style="fill:#000000; fill-opacity:1.0; 
stroke:#000000; stroke-width:0; stroke-opacity:1; 
stroke-linecap:round; stroke-linejoin:round;fill-rule:evenodd;"
d="M 23681,44940
23681,45216
23090,45216
23090,44940
23681,44940
Z" /> 
<path style="fill:#000000; fill-opacity:1.0; 
stroke:#000000; stroke-width:0; stroke-opacity:1; 
stroke-linecap:round; stroke-linejoin:round;fill-rule:evenodd;"
d="M 23681,45334
23681,45610
23090,45610
23090,45334
23681,45334
Z" /> 
<path style="fill:#000000; fill-opacity:1.0; 
stroke:#000000; stroke-width:0; stroke-opacity:1; 
stroke-linecap:round; stroke-linejoin:round;fill-rule:evenodd;"
d="M 23681,45728
23681,46003
23090,46003
23090,45728
23681,45728
Z" /> 
<path style="fill:#000000; fill-opacity:1.0; 
stroke:#000000; stroke-width:0; stroke-opacity:1; 
stroke-linecap:round; stroke-linejoin:round;fill-rule:evenodd;"
d="M 23681,46122
23681,46397
23090,46397
23090,46122
23681,46122
Z" /> 
<path style="fill:#000000; fill-opacity:1.0; 
stroke:#000000; stroke-width:0; stroke-opacity:1; 
stroke-linecap:round; stroke-linejoin:round;fill-rule:evenodd;"
d="M 23681,46515
23681,46791
23090,46791
23090,46515
23681,46515
Z" /> 
<path style="fill:#000000; fill-opacity:1.0; 
stroke:#000000; stroke-width:0; stroke-opacity:1; 
stroke-linecap:round; stroke-linejoin:round;fill-rule:evenodd;"
d="M 23681,46909
23681,47185
23090,47185
23090,46909
23681,46909
Z" /> 
<path style="fill:#000000; fill-opacity:1.0; 
stroke:#000000; stroke-width:0; stroke-opacity:1; 
stroke-linecap:round; stroke-linejoin:round;fill-rule:evenodd;"
d="M 23681,47303
23681,47578
23090,47578
23090,47303
23681,47303
Z" /> 
<path style="fill:#000000; fill-opacity:1.0; 
stroke:#000000; stroke-width:0; stroke-opacity:1; 
stroke-linecap:round; stroke-linejoin:round;fill-rule:evenodd;"
d="M 23681,47696
23681,47972
23090,47972
23090,47696
23681,47696
Z" /> 
<path style="fill:#000000; fill-opacity:1.0; 
stroke:#000000; stroke-width:0; stroke-opacity:1; 
stroke-linecap:round; stroke-linejoin:round;fill-rule:evenodd;"
d="M 23681,48090
23681,48366
23090,48366
23090,48090
23681,48090
Z" /> 
<path style="fill:#000000; fill-opacity:1.0; 
stroke:#000000; stroke-width:0; stroke-opacity:1; 
stroke-linecap:round; stroke-linejoin:round;fill-rule:evenodd;"
d="M 23681,48484
23681,48877
23090,48877
23090,48484
23681,48484
Z" /> 
<path style="fill:#000000; fill-opacity:1.0; 
stroke:#000000; stroke-width:0; stroke-opacity:1; 
stroke-linecap:round; stroke-linejoin:round;fill-rule:evenodd;"
d="M 20216,48484
20216,48877
19625,48877
19625,48484
20216,48484
Z" /> 
<path style="fill:#000000; fill-opacity:1.0; 
stroke:#000000; stroke-width:0; stroke-opacity:1; 
stroke-linecap:round; stroke-linejoin:round;fill-rule:evenodd;"
d="M 20216,48090
20216,48366
19625,48366
19625,48090
20216,48090
Z" /> 
<path style="fill:#000000; fill-opacity:1.0; 
stroke:#000000; stroke-width:0; stroke-opacity:1; 
stroke-linecap:round; stroke-linejoin:round;fill-rule:evenodd;"
d="M 20216,47696
20216,47972
19625,47972
19625,47696
20216,47696
Z" /> 
<path style="fill:#000000; fill-opacity:1.0; 
stroke:#000000; stroke-width:0; stroke-opacity:1; 
stroke-linecap:round; stroke-linejoin:round;fill-rule:evenodd;"
d="M 20216,47303
20216,47578
19625,47578
19625,47303
20216,47303
Z" /> 
<path style="fill:#000000; fill-opacity:1.0; 
stroke:#000000; stroke-width:0; stroke-opacity:1; 
stroke-linecap:round; stroke-linejoin:round;fill-rule:evenodd;"
d="M 20216,46909
20216,47185
19625,47185
19625,46909
20216,46909
Z" /> 
<path style="fill:#000000; fill-opacity:1.0; 
stroke:#000000; stroke-width:0; stroke-opacity:1; 
stroke-linecap:round; stroke-linejoin:round;fill-rule:evenodd;"
d="M 20216,46515
20216,46791
19625,46791
19625,46515
20216,46515
Z" /> 
<path style="fill:#000000; fill-opacity:1.0; 
stroke:#000000; stroke-width:0; stroke-opacity:1; 
stroke-linecap:round; stroke-linejoin:round;fill-rule:evenodd;"
d="M 20216,46122
20216,46397
19625,46397
19625,46122
20216,46122
Z" /> 
<path style="fill:#000000; fill-opacity:1.0; 
stroke:#000000; stroke-width:0; stroke-opacity:1; 
stroke-linecap:round; stroke-linejoin:round;fill-rule:evenodd;"
d="M 20216,45728
20216,46003
19625,46003
19625,45728
20216,45728
Z" /> 
<path style="fill:#000000; fill-opacity:1.0; 
stroke:#000000; stroke-width:0; stroke-opacity:1; 
stroke-linecap:round; stroke-linejoin:round;fill-rule:evenodd;"
d="M 20216,45334
20216,45610
19625,45610
19625,45334
20216,45334
Z" /> 
<path style="fill:#000000; fill-opacity:1.0; 
stroke:#000000; stroke-width:0; stroke-opacity:1; 
stroke-linecap:round; stroke-linejoin:round;fill-rule:evenodd;"
d="M 20216,44940
20216,45216
19625,45216
19625,44940
20216,44940
Z" /> 
<path style="fill:#000000; fill-opacity:1.0; 
stroke:#000000; stroke-width:0; stroke-opacity:1; 
stroke-linecap:round; stroke-linejoin:round;fill-rule:evenodd;"
d="M 20216,44547
20216,44822
19625,44822
19625,44547
20216,44547
Z" /> 
<path style="fill:#000000; fill-opacity:1.0; 
stroke:#000000; stroke-width:0; stroke-opacity:1; 
stroke-linecap:round; stroke-linejoin:round;fill-rule:evenodd;"
d="M 20216,44153
20216,44429
19625,44429
19625,44153
20216,44153
Z" /> 
<path style="fill:#000000; fill-opacity:1.0; 
stroke:#000000; stroke-width:0; stroke-opacity:1; 
stroke-linecap:round; stroke-linejoin:round;fill-rule:evenodd;"
d="M 20216,43759
20216,44035
19625,44035
19625,43759
20216,43759
Z" /> 
</g>
<g >
</g>
<g >
</g>
<g >
</g>
<g >
</g>
<g >
</g>
<g style="fill:#000000; fill-opacity:1.0; 
stroke:#000000; stroke-width:0; stroke-opacity:1; 
stroke-linecap:round; stroke-linejoin:round;">
<path style="fill:#000000; fill-opacity:1.0; 
stroke:#000000; stroke-width:0; stroke-opacity:1; 
stroke-linecap:round; stroke-linejoin:round;fill-rule:evenodd;"
d="M 18183,30992
18189,30993
18195,30994
18200,30996
18205,30998
18210,31001
18214,31005
18219,31009
18223,31013
18226,31017
18229,31022
18231,31027
18233,31033
18235,31038
18235,31044
18236,31050
18236,31166
18235,31172
18235,31177
18233,31183
18231,31188
18229,31193
18226,31198
18223,31203
18219,31207
18214,31211
18210,31214
18205,31217
18200,31219
18195,31221
18189,31223
18183,31224
18178,31224
18042,31224
18036,31224
18030,31223
18025,31221
18020,31219
18014,31217
18010,31214
18005,31211
18001,31207
17997,31203
17994,31198
17991,31193
17988,31188
17986,31183
17985,31177
17984,31172
17984,31166
17984,31050
17984,31044
17985,31038
17986,31033
17988,31027
17991,31022
17994,31017
17997,31013
18001,31009
18005,31005
18010,31001
18014,30998
18020,30996
18025,30994
18030,30993
18036,30992
18042,30992
18178,30992
18183,30992
Z" /> 
<path style="fill:#000000; fill-opacity:1.0; 
stroke:#000000; stroke-width:0; stroke-opacity:1; 
stroke-linecap:round; stroke-linejoin:round;fill-rule:evenodd;"
d="M 18183,31374
18189,31375
18195,31376
18200,31378
18205,31380
18210,31383
18214,31387
18219,31391
18223,31395
18226,31399
18229,31404
18231,31409
18233,31415
18235,31420
18235,31426
18236,31432
18236,31548
18235,31553
18235,31559
18233,31565
18231,31570
18229,31575
18226,31580
18223,31585
18219,31589
18214,31593
18210,31596
18205,31599
18200,31601
18195,31603
18189,31605
18183,31606
18178,31606
18042,31606
18036,31606
18030,31605
18025,31603
18020,31601
18014,31599
18010,31596
18005,31593
18001,31589
17997,31585
17994,31580
17991,31575
17988,31570
17986,31565
17985,31559
17984,31553
17984,31548
17984,31432
17984,31426
17985,31420
17986,31415
17988,31409
17991,31404
17994,31399
17997,31395
18001,31391
18005,31387
18010,31383
18014,31380
18020,31378
18025,31376
18030,31375
18036,31374
18042,31374
18178,31374
18183,31374
Z" /> 
</g>
<g >
</g>
<g style="fill:#000000; fill-opacity:1.0; 
stroke:#000000; stroke-width:0; stroke-opacity:1; 
stroke-linecap:round; stroke-linejoin:round;">
<path style="fill:#000000; fill-opacity:1.0; 
stroke:#000000; stroke-width:0; stroke-opacity:1; 
stroke-linecap:round; stroke-linejoin:round;fill-rule:evenodd;"
d="M 19557,32157
19563,32158
19569,32159
19574,32161
19579,32164
19584,32167
19589,32170
19593,32174
19597,32178
19600,32183
19603,32188
19605,32193
19607,32198
19609,32204
19609,32209
19610,32215
19610,32351
19609,32357
19609,32362
19607,32368
19605,32373
19603,32378
19600,32383
19597,32388
19593,32392
19589,32396
19584,32399
19579,32402
19574,32405
19569,32406
19563,32408
19557,32409
19552,32409
19436,32409
19430,32409
19424,32408
19419,32406
19413,32405
19408,32402
19403,32399
19399,32396
19394,32392
19391,32388
19387,32383
19384,32378
19382,32373
19380,32368
19379,32362
19378,32357
19377,32351
19377,32215
19378,32209
19379,32204
19380,32198
19382,32193
19384,32188
19387,32183
19391,32178
19394,32174
19399,32170
19403,32167
19408,32164
19413,32161
19419,32159
19424,32158
19430,32157
19436,32157
19552,32157
19557,32157
Z" /> 
<path style="fill:#000000; fill-opacity:1.0; 
stroke:#000000; stroke-width:0; stroke-opacity:1; 
stroke-linecap:round; stroke-linejoin:round;fill-rule:evenodd;"
d="M 19939,32157
19945,32158
19950,32159
19956,32161
19961,32164
19966,32167
19970,32170
19975,32174
19978,32178
19982,32183
19985,32188
19987,32193
19989,32198
19991,32204
19991,32209
19992,32215
19992,32351
19991,32357
19991,32362
19989,32368
19987,32373
19985,32378
19982,32383
19978,32388
19975,32392
19970,32396
19966,32399
19961,32402
19956,32405
19950,32406
19945,32408
19939,32409
19934,32409
19817,32409
19812,32409
19806,32408
19801,32406
19795,32405
19790,32402
19785,32399
19781,32396
19776,32392
19773,32388
19769,32383
19766,32378
19764,32373
19762,32368
19760,32362
19760,32357
19759,32351
19759,32215
19760,32209
19760,32204
19762,32198
19764,32193
19766,32188
19769,32183
19773,32178
19776,32174
19781,32170
19785,32167
19790,32164
19795,32161
19801,32159
19806,32158
19812,32157
19817,32157
19934,32157
19939,32157
Z" /> 
</g>
<g >
</g>
<g >
</g>
<g >
</g>
<g >
</g>
<g >
</g>
<g >
</g>
<g >
</g>
<g >
</g>
<g >
</g>
<g >
</g>
<g >
</g>
<g >
</g>
<g >
</g>
</g> 
</svg>
