<?xml version="1.0" standalone="no"?>
 <!DOCTYPE svg PUBLIC "-//W3C//DTD SVG 1.1//EN" 
 "http://www.w3.org/Graphics/SVG/1.1/DTD/svg11.dtd"> 
<svg xmlns="http://www.w3.org/2000/svg" version="1.1" 
    width="29.7002cm" height="21.0007cm" viewBox="0 0 116930 82680 ">
<title>SVG Picture created as RCT-X-Logger-B_Paste.svg date 2019/09/13 06:18:06 </title>
  <desc>Picture generated by PCBNEW </desc>
<g style="fill:#000000; fill-opacity:1;stroke:#000000; stroke-opacity:1;
stroke-linecap:round; stroke-linejoin:round; "
 transform="translate(0 0) scale(1 1)">
</g>
<g style="fill:#000000; fill-opacity:0.0; 
stroke:#000000; stroke-width:-0.000393701; stroke-opacity:1; 
stroke-linecap:round; stroke-linejoin:round;">
<g >
</g>
<g >
</g>
<g >
</g>
<g style="fill:#000000; fill-opacity:0.0; 
stroke:#000000; stroke-width:-0.000393701; stroke-opacity:1; 
stroke-linecap:round; stroke-linejoin:round;">
</g>
<g style="fill:#000000; fill-opacity:0.0; 
stroke:#000000; stroke-width:0; stroke-opacity:1; 
stroke-linecap:round; stroke-linejoin:round;">
</g>
<g style="fill:#000000; fill-opacity:1.0; 
stroke:#000000; stroke-width:0; stroke-opacity:1; 
stroke-linecap:round; stroke-linejoin:round;">
<path style="fill:#000000; fill-opacity:1.0; 
stroke:#000000; stroke-width:0; stroke-opacity:1; 
stroke-linecap:round; stroke-linejoin:round;fill-rule:evenodd;"
d="M 25029,35735
24416,36347
24040,35972
24653,35359
25029,35735
Z" /> 
<path style="fill:#000000; fill-opacity:1.0; 
stroke:#000000; stroke-width:0; stroke-opacity:1; 
stroke-linecap:round; stroke-linejoin:round;fill-rule:evenodd;"
d="M 24541,35248
23929,35860
23553,35484
24166,34872
24541,35248
Z" /> 
</g>
<g >
</g>
<g style="fill:#000000; fill-opacity:1.0; 
stroke:#000000; stroke-width:0; stroke-opacity:1; 
stroke-linecap:round; stroke-linejoin:round;">
<path style="fill:#000000; fill-opacity:1.0; 
stroke:#000000; stroke-width:0; stroke-opacity:1; 
stroke-linecap:round; stroke-linejoin:round;fill-rule:evenodd;"
d="M 24999,36097
25002,36097
25005,36098
25008,36099
25011,36101
25013,36102
25016,36104
25018,36106
25074,36162
25076,36164
25078,36167
25080,36169
25081,36172
25082,36175
25083,36178
25083,36181
25083,36184
25083,36187
25083,36190
25082,36193
25081,36196
25080,36199
25078,36201
25076,36204
25074,36206
25030,36250
25028,36253
25025,36254
25022,36256
25020,36257
25017,36258
25014,36259
25011,36259
25008,36260
25005,36259
25002,36259
24999,36258
24996,36257
24993,36256
24990,36254
24988,36253
24986,36250
24930,36195
24928,36192
24926,36190
24924,36187
24923,36184
24922,36181
24921,36178
24921,36175
24920,36172
24921,36169
24921,36166
24922,36163
24923,36160
24924,36158
24926,36155
24928,36153
24930,36150
24974,36106
24976,36104
24979,36102
24981,36101
24984,36099
24987,36098
24990,36097
24993,36097
24996,36097
24999,36097
Z" /> 
<path style="fill:#000000; fill-opacity:1.0; 
stroke:#000000; stroke-width:0; stroke-opacity:1; 
stroke-linecap:round; stroke-linejoin:round;fill-rule:evenodd;"
d="M 25191,35905
25194,35905
25197,35906
25200,35907
25203,35908
25206,35910
25208,35912
25210,35914
25266,35970
25268,35972
25270,35975
25272,35977
25273,35980
25274,35983
25275,35986
25275,35989
25275,35992
25275,35995
25275,35998
25274,36001
25273,36004
25272,36007
25270,36009
25268,36012
25266,36014
25222,36058
25220,36060
25217,36062
25215,36064
25212,36065
25209,36066
25206,36067
25203,36067
25200,36068
25197,36067
25194,36067
25191,36066
25188,36065
25185,36064
25182,36062
25180,36060
25178,36058
25122,36002
25120,36000
25118,35998
25116,35995
25115,35992
25114,35989
25113,35986
25113,35983
25113,35980
25113,35977
25113,35974
25114,35971
25115,35968
25116,35966
25118,35963
25120,35960
25122,35958
25166,35914
25168,35912
25171,35910
25173,35908
25176,35907
25179,35906
25182,35905
25185,35905
25188,35905
25191,35905
Z" /> 
</g>
<g >
</g>
<g style="fill:#000000; fill-opacity:1.0; 
stroke:#000000; stroke-width:0; stroke-opacity:1; 
stroke-linecap:round; stroke-linejoin:round;">
<path style="fill:#000000; fill-opacity:1.0; 
stroke:#000000; stroke-width:0; stroke-opacity:1; 
stroke-linecap:round; stroke-linejoin:round;fill-rule:evenodd;"
d="M 23739,34798
23742,34798
23745,34799
23748,34800
23751,34801
23754,34803
23756,34805
23758,34807
23814,34863
23816,34865
23818,34867
23820,34870
23821,34873
23822,34876
23823,34879
23823,34882
23823,34885
23823,34888
23823,34891
23822,34894
23821,34897
23820,34900
23818,34902
23816,34905
23814,34907
23770,34951
23768,34953
23765,34955
23763,34957
23760,34958
23757,34959
23754,34960
23751,34960
23748,34960
23745,34960
23742,34960
23739,34959
23736,34958
23733,34957
23730,34955
23728,34953
23726,34951
23670,34895
23668,34893
23666,34891
23664,34888
23663,34885
23662,34882
23661,34879
23661,34876
23661,34873
23661,34870
23661,34867
23662,34864
23663,34861
23664,34858
23666,34856
23668,34853
23670,34851
23714,34807
23716,34805
23719,34803
23721,34801
23724,34800
23727,34799
23730,34798
23733,34798
23736,34798
23739,34798
Z" /> 
<path style="fill:#000000; fill-opacity:1.0; 
stroke:#000000; stroke-width:0; stroke-opacity:1; 
stroke-linecap:round; stroke-linejoin:round;fill-rule:evenodd;"
d="M 23931,34606
23934,34606
23937,34607
23940,34608
23943,34609
23946,34611
23948,34613
23950,34615
24006,34671
24008,34673
24010,34675
24012,34678
24013,34681
24014,34684
24015,34687
24015,34690
24016,34693
24015,34696
24015,34699
24014,34702
24013,34705
24012,34708
24010,34710
24008,34713
24006,34715
23962,34759
23960,34761
23957,34763
23955,34765
23952,34766
23949,34767
23946,34768
23943,34768
23940,34768
23937,34768
23934,34768
23931,34767
23928,34766
23925,34765
23923,34763
23920,34761
23918,34759
23862,34703
23860,34701
23858,34698
23856,34696
23855,34693
23854,34690
23853,34687
23853,34684
23853,34681
23853,34678
23853,34675
23854,34672
23855,34669
23856,34666
23858,34664
23860,34661
23862,34659
23906,34615
23908,34613
23911,34611
23914,34609
23916,34608
23919,34607
23922,34606
23925,34606
23928,34606
23931,34606
Z" /> 
</g>
<g >
</g>
<g >
</g>
<g style="fill:#000000; fill-opacity:1.0; 
stroke:#000000; stroke-width:0; stroke-opacity:1; 
stroke-linecap:round; stroke-linejoin:round;">
<path style="fill:#000000; fill-opacity:1.0; 
stroke:#000000; stroke-width:0; stroke-opacity:1; 
stroke-linecap:round; stroke-linejoin:round;fill-rule:evenodd;"
d="M 24845,38030
24848,38030
24851,38031
24854,38032
24857,38033
24860,38035
24862,38037
24864,38039
24866,38041
24868,38043
24870,38046
24871,38049
24872,38052
24873,38055
24873,38058
24874,38061
24874,38123
24873,38126
24873,38129
24872,38132
24871,38135
24870,38138
24868,38141
24866,38143
24864,38145
24862,38148
24860,38149
24857,38151
24854,38152
24851,38153
24848,38154
24845,38154
24842,38155
24763,38155
24760,38154
24757,38154
24754,38153
24751,38152
24748,38151
24746,38149
24743,38148
24741,38145
24739,38143
24737,38141
24735,38138
24734,38135
24733,38132
24732,38129
24732,38126
24732,38123
24732,38061
24732,38058
24732,38055
24733,38052
24734,38049
24735,38046
24737,38043
24739,38041
24741,38039
24743,38037
24746,38035
24748,38033
24751,38032
24754,38031
24757,38030
24760,38030
24763,38029
24842,38029
24845,38030
Z" /> 
<path style="fill:#000000; fill-opacity:1.0; 
stroke:#000000; stroke-width:0; stroke-opacity:1; 
stroke-linecap:round; stroke-linejoin:round;fill-rule:evenodd;"
d="M 24845,38301
24848,38302
24851,38302
24854,38303
24857,38305
24860,38306
24862,38308
24864,38310
24866,38313
24868,38315
24870,38318
24871,38320
24872,38323
24873,38326
24873,38329
24874,38332
24874,38395
24873,38398
24873,38401
24872,38404
24871,38407
24870,38410
24868,38412
24866,38415
24864,38417
24862,38419
24860,38421
24857,38423
24854,38424
24851,38425
24848,38426
24845,38426
24842,38426
24763,38426
24760,38426
24757,38426
24754,38425
24751,38424
24748,38423
24746,38421
24743,38419
24741,38417
24739,38415
24737,38412
24735,38410
24734,38407
24733,38404
24732,38401
24732,38398
24732,38395
24732,38332
24732,38329
24732,38326
24733,38323
24734,38320
24735,38318
24737,38315
24739,38313
24741,38310
24743,38308
24746,38306
24748,38305
24751,38303
24754,38302
24757,38302
24760,38301
24763,38301
24842,38301
24845,38301
Z" /> 
</g>
<g >
</g>
<g style="fill:#000000; fill-opacity:1.0; 
stroke:#000000; stroke-width:0; stroke-opacity:1; 
stroke-linecap:round; stroke-linejoin:round;">
<path style="fill:#000000; fill-opacity:1.0; 
stroke:#000000; stroke-width:0; stroke-opacity:1; 
stroke-linecap:round; stroke-linejoin:round;fill-rule:evenodd;"
d="M 17864,45098
17627,45098
17627,44665
17864,44665
17864,45098
Z" /> 
<path style="fill:#000000; fill-opacity:1.0; 
stroke:#000000; stroke-width:0; stroke-opacity:1; 
stroke-linecap:round; stroke-linejoin:round;fill-rule:evenodd;"
d="M 17372,45098
17135,45098
17135,44665
17372,44665
17372,45098
Z" /> 
<path style="fill:#000000; fill-opacity:1.0; 
stroke:#000000; stroke-width:0; stroke-opacity:1; 
stroke-linecap:round; stroke-linejoin:round;fill-rule:evenodd;"
d="M 16879,45098
16643,45098
16643,44665
16879,44665
16879,45098
Z" /> 
<path style="fill:#000000; fill-opacity:1.0; 
stroke:#000000; stroke-width:0; stroke-opacity:1; 
stroke-linecap:round; stroke-linejoin:round;fill-rule:evenodd;"
d="M 16387,45098
16151,45098
16151,44665
16387,44665
16387,45098
Z" /> 
<path style="fill:#000000; fill-opacity:1.0; 
stroke:#000000; stroke-width:0; stroke-opacity:1; 
stroke-linecap:round; stroke-linejoin:round;fill-rule:evenodd;"
d="M 16387,44232
16151,44232
16151,43799
16387,43799
16387,44232
Z" /> 
<path style="fill:#000000; fill-opacity:1.0; 
stroke:#000000; stroke-width:0; stroke-opacity:1; 
stroke-linecap:round; stroke-linejoin:round;fill-rule:evenodd;"
d="M 16879,44232
16643,44232
16643,43799
16879,43799
16879,44232
Z" /> 
<path style="fill:#000000; fill-opacity:1.0; 
stroke:#000000; stroke-width:0; stroke-opacity:1; 
stroke-linecap:round; stroke-linejoin:round;fill-rule:evenodd;"
d="M 17372,44232
17135,44232
17135,43799
17372,43799
17372,44232
Z" /> 
<path style="fill:#000000; fill-opacity:1.0; 
stroke:#000000; stroke-width:0; stroke-opacity:1; 
stroke-linecap:round; stroke-linejoin:round;fill-rule:evenodd;"
d="M 17864,44232
17627,44232
17627,43799
17864,43799
17864,44232
Z" /> 
</g>
<g >
</g>
<g style="fill:#000000; fill-opacity:1.0; 
stroke:#000000; stroke-width:0; stroke-opacity:1; 
stroke-linecap:round; stroke-linejoin:round;">
<path style="fill:#000000; fill-opacity:1.0; 
stroke:#000000; stroke-width:0; stroke-opacity:1; 
stroke-linecap:round; stroke-linejoin:round;fill-rule:evenodd;"
d="M 23362,34481
23367,34482
23373,34484
23378,34486
23383,34488
23388,34491
23393,34494
23397,34498
23493,34594
23497,34598
23500,34603
23503,34608
23506,34613
23508,34618
23509,34624
23510,34630
23510,34635
23510,34641
23509,34647
23508,34652
23506,34657
23503,34663
23500,34667
23497,34672
23493,34676
23411,34758
23407,34762
23402,34766
23397,34769
23392,34771
23387,34773
23381,34774
23376,34775
23370,34775
23364,34775
23358,34774
23353,34773
23348,34771
23342,34769
23338,34766
23333,34762
23329,34758
23233,34662
23229,34658
23225,34654
23223,34649
23220,34644
23218,34638
23217,34633
23216,34627
23216,34621
23216,34616
23217,34610
23218,34604
23220,34599
23223,34594
23225,34589
23229,34584
23233,34580
23315,34498
23319,34494
23324,34491
23329,34488
23334,34486
23339,34484
23345,34482
23350,34481
23356,34481
23362,34481
Z" /> 
<path style="fill:#000000; fill-opacity:1.0; 
stroke:#000000; stroke-width:0; stroke-opacity:1; 
stroke-linecap:round; stroke-linejoin:round;fill-rule:evenodd;"
d="M 23092,34751
23097,34752
23103,34754
23108,34756
23113,34758
23118,34761
23123,34764
23127,34768
23223,34864
23227,34868
23230,34873
23233,34878
23236,34883
23237,34888
23239,34894
23240,34900
23240,34905
23240,34911
23239,34917
23237,34922
23236,34927
23233,34933
23230,34938
23227,34942
23223,34946
23141,35028
23137,35032
23132,35036
23127,35039
23122,35041
23117,35043
23111,35044
23105,35045
23100,35045
23094,35045
23088,35044
23083,35043
23078,35041
23072,35039
23068,35036
23063,35032
23059,35028
22963,34932
22959,34928
22955,34924
22953,34919
22950,34914
22948,34908
22947,34903
22946,34897
22946,34891
22946,34886
22947,34880
22948,34874
22950,34869
22953,34864
22955,34859
22959,34854
22963,34850
23045,34768
23049,34764
23054,34761
23058,34758
23064,34756
23069,34754
23075,34752
23080,34751
23086,34751
23092,34751
Z" /> 
</g>
<g >
</g>
<g >
</g>
<g >
</g>
<g >
</g>
<g >
</g>
<g >
</g>
<g style="fill:#000000; fill-opacity:1.0; 
stroke:#000000; stroke-width:0; stroke-opacity:1; 
stroke-linecap:round; stroke-linejoin:round;">
<path style="fill:#000000; fill-opacity:1.0; 
stroke:#000000; stroke-width:0; stroke-opacity:1; 
stroke-linecap:round; stroke-linejoin:round;fill-rule:evenodd;"
d="M 20191,39169
20197,39170
20202,39171
20208,39173
20213,39176
20218,39179
20222,39182
20227,39186
20230,39190
20234,39195
20237,39199
20239,39205
20241,39210
20242,39216
20243,39221
20244,39227
20244,39343
20243,39349
20242,39354
20241,39360
20239,39365
20237,39370
20234,39375
20230,39380
20227,39384
20222,39388
20218,39391
20213,39394
20208,39397
20202,39399
20197,39400
20191,39401
20186,39401
20050,39401
20044,39401
20038,39400
20033,39399
20027,39397
20022,39394
20017,39391
20013,39388
20009,39384
20005,39380
20001,39375
19998,39370
19996,39365
19994,39360
19993,39354
19992,39349
19992,39343
19992,39227
19992,39221
19993,39216
19994,39210
19996,39205
19998,39199
20001,39195
20005,39190
20009,39186
20013,39182
20017,39179
20022,39176
20027,39173
20033,39171
20038,39170
20044,39169
20050,39169
20186,39169
20191,39169
Z" /> 
<path style="fill:#000000; fill-opacity:1.0; 
stroke:#000000; stroke-width:0; stroke-opacity:1; 
stroke-linecap:round; stroke-linejoin:round;fill-rule:evenodd;"
d="M 20191,38787
20197,38788
20202,38789
20208,38791
20213,38794
20218,38797
20222,38800
20227,38804
20230,38808
20234,38813
20237,38818
20239,38823
20241,38828
20242,38834
20243,38839
20244,38845
20244,38961
20243,38967
20242,38972
20241,38978
20239,38983
20237,38988
20234,38993
20230,38998
20227,39002
20222,39006
20218,39009
20213,39012
20208,39015
20202,39017
20197,39018
20191,39019
20186,39019
20050,39019
20044,39019
20038,39018
20033,39017
20027,39015
20022,39012
20017,39009
20013,39006
20009,39002
20005,38998
20001,38993
19998,38988
19996,38983
19994,38978
19993,38972
19992,38967
19992,38961
19992,38845
19992,38839
19993,38834
19994,38828
19996,38823
19998,38818
20001,38813
20005,38808
20009,38804
20013,38800
20017,38797
20022,38794
20027,38791
20033,38789
20038,38788
20044,38787
20050,38787
20186,38787
20191,38787
Z" /> 
</g>
<g >
</g>
<g style="fill:#000000; fill-opacity:1.0; 
stroke:#000000; stroke-width:0; stroke-opacity:1; 
stroke-linecap:round; stroke-linejoin:round;">
<path style="fill:#000000; fill-opacity:1.0; 
stroke:#000000; stroke-width:0; stroke-opacity:1; 
stroke-linecap:round; stroke-linejoin:round;fill-rule:evenodd;"
d="M 22948,34324
22954,34325
22959,34326
22965,34328
22970,34330
22975,34333
22979,34337
22984,34341
23080,34437
23083,34441
23087,34445
23090,34450
23092,34456
23094,34461
23096,34466
23096,34472
23097,34478
23096,34483
23096,34489
23094,34495
23092,34500
23090,34505
23087,34510
23083,34515
23080,34519
22998,34601
22993,34605
22989,34608
22984,34611
22979,34614
22973,34615
22968,34617
22962,34618
22956,34618
22951,34618
22945,34617
22940,34615
22934,34614
22929,34611
22924,34608
22920,34605
22915,34601
22819,34505
22816,34501
22812,34496
22809,34491
22807,34486
22805,34481
22803,34475
22803,34470
22802,34464
22803,34458
22803,34452
22805,34447
22807,34442
22809,34436
22812,34432
22816,34427
22819,34423
22901,34341
22906,34337
22910,34333
22915,34330
22920,34328
22926,34326
22931,34325
22937,34324
22943,34324
22948,34324
Z" /> 
<path style="fill:#000000; fill-opacity:1.0; 
stroke:#000000; stroke-width:0; stroke-opacity:1; 
stroke-linecap:round; stroke-linejoin:round;fill-rule:evenodd;"
d="M 22678,34594
22684,34595
22689,34596
22695,34598
22700,34601
22705,34603
22709,34607
22714,34611
22810,34707
22813,34711
22817,34716
22820,34720
22822,34726
22824,34731
22825,34736
22826,34742
22827,34748
22826,34753
22825,34759
22824,34765
22822,34770
22820,34775
22817,34780
22813,34785
22810,34789
22727,34871
22723,34875
22719,34878
22714,34881
22709,34884
22703,34885
22698,34887
22692,34888
22686,34888
22681,34888
22675,34887
22670,34885
22664,34884
22659,34881
22654,34878
22650,34875
22645,34871
22549,34775
22545,34771
22542,34766
22539,34761
22537,34756
22535,34751
22533,34745
22533,34740
22532,34734
22533,34728
22533,34723
22535,34717
22537,34712
22539,34706
22542,34702
22545,34697
22549,34693
22631,34611
22636,34607
22640,34603
22645,34601
22650,34598
22656,34596
22661,34595
22667,34594
22672,34594
22678,34594
Z" /> 
</g>
<g >
</g>
<g style="fill:#000000; fill-opacity:1.0; 
stroke:#000000; stroke-width:0; stroke-opacity:1; 
stroke-linecap:round; stroke-linejoin:round;">
<path style="fill:#000000; fill-opacity:1.0; 
stroke:#000000; stroke-width:0; stroke-opacity:1; 
stroke-linecap:round; stroke-linejoin:round;fill-rule:evenodd;"
d="M 23494,39555
23499,39555
23505,39557
23510,39559
23515,39561
23520,39564
23525,39567
23529,39571
23611,39653
23615,39658
23618,39662
23621,39667
23624,39672
23626,39678
23627,39683
23628,39689
23628,39694
23628,39700
23627,39706
23626,39711
23624,39717
23621,39722
23618,39727
23615,39731
23611,39736
23515,39832
23511,39835
23506,39839
23501,39842
23496,39844
23491,39846
23485,39847
23480,39848
23474,39849
23468,39848
23463,39847
23457,39846
23452,39844
23447,39842
23442,39839
23437,39835
23433,39832
23351,39749
23347,39745
23344,39741
23341,39736
23338,39731
23336,39725
23335,39720
23334,39714
23334,39708
23334,39703
23335,39697
23336,39692
23338,39686
23341,39681
23344,39676
23347,39672
23351,39667
23447,39571
23451,39567
23456,39564
23461,39561
23466,39559
23471,39557
23477,39555
23482,39555
23488,39554
23494,39555
Z" /> 
<path style="fill:#000000; fill-opacity:1.0; 
stroke:#000000; stroke-width:0; stroke-opacity:1; 
stroke-linecap:round; stroke-linejoin:round;fill-rule:evenodd;"
d="M 23224,39285
23229,39285
23235,39287
23240,39289
23245,39291
23250,39294
23255,39297
23259,39301
23341,39383
23345,39388
23348,39392
23351,39397
23354,39402
23356,39408
23357,39413
23358,39419
23358,39424
23358,39430
23357,39436
23356,39441
23354,39447
23351,39452
23348,39457
23345,39461
23341,39466
23245,39562
23241,39565
23236,39569
23231,39572
23226,39574
23221,39576
23215,39577
23210,39578
23204,39579
23198,39578
23193,39577
23187,39576
23182,39574
23177,39572
23172,39569
23167,39565
23163,39562
23081,39479
23077,39475
23074,39471
23071,39466
23068,39461
23066,39455
23065,39450
23064,39444
23064,39438
23064,39433
23065,39427
23066,39422
23068,39416
23071,39411
23074,39406
23077,39402
23081,39397
23177,39301
23181,39297
23186,39294
23191,39291
23196,39289
23201,39287
23207,39285
23212,39285
23218,39284
23224,39285
Z" /> 
</g>
<g >
</g>
<g style="fill:#000000; fill-opacity:1.0; 
stroke:#000000; stroke-width:0; stroke-opacity:1; 
stroke-linecap:round; stroke-linejoin:round;">
<path style="fill:#000000; fill-opacity:1.0; 
stroke:#000000; stroke-width:0; stroke-opacity:1; 
stroke-linecap:round; stroke-linejoin:round;fill-rule:evenodd;"
d="M 24845,39207
24848,39207
24851,39208
24854,39209
24857,39210
24860,39212
24862,39214
24864,39216
24866,39218
24868,39220
24870,39223
24871,39226
24872,39229
24873,39232
24873,39235
24874,39238
24874,39300
24873,39304
24873,39307
24872,39310
24871,39312
24870,39315
24868,39318
24866,39320
24864,39323
24862,39325
24860,39327
24857,39328
24854,39329
24851,39330
24848,39331
24845,39332
24842,39332
24763,39332
24760,39332
24757,39331
24754,39330
24751,39329
24748,39328
24746,39327
24743,39325
24741,39323
24739,39320
24737,39318
24735,39315
24734,39312
24733,39310
24732,39307
24732,39304
24732,39300
24732,39238
24732,39235
24732,39232
24733,39229
24734,39226
24735,39223
24737,39220
24739,39218
24741,39216
24743,39214
24746,39212
24748,39210
24751,39209
24754,39208
24757,39207
24760,39207
24763,39207
24842,39207
24845,39207
Z" /> 
<path style="fill:#000000; fill-opacity:1.0; 
stroke:#000000; stroke-width:0; stroke-opacity:1; 
stroke-linecap:round; stroke-linejoin:round;fill-rule:evenodd;"
d="M 24845,38935
24848,38936
24851,38936
24854,38937
24857,38939
24860,38940
24862,38942
24864,38944
24866,38946
24868,38949
24870,38951
24871,38954
24872,38957
24873,38960
24873,38963
24874,38966
24874,39029
24873,39032
24873,39035
24872,39038
24871,39041
24870,39044
24868,39046
24866,39049
24864,39051
24862,39053
24860,39055
24857,39056
24854,39058
24851,39059
24848,39060
24845,39060
24842,39060
24763,39060
24760,39060
24757,39060
24754,39059
24751,39058
24748,39056
24746,39055
24743,39053
24741,39051
24739,39049
24737,39046
24735,39044
24734,39041
24733,39038
24732,39035
24732,39032
24732,39029
24732,38966
24732,38963
24732,38960
24733,38957
24734,38954
24735,38951
24737,38949
24739,38946
24741,38944
24743,38942
24746,38940
24748,38939
24751,38937
24754,38936
24757,38936
24760,38935
24763,38935
24842,38935
24845,38935
Z" /> 
</g>
<g >
</g>
<g >
</g>
<g >
</g>
<g >
</g>
<g >
</g>
<g >
</g>
<g >
</g>
<g >
</g>
<g >
</g>
<g >
</g>
<g >
</g>
<g >
</g>
<g >
</g>
<g >
</g>
<g >
</g>
<g >
</g>
<g >
</g>
<g >
</g>
<g >
</g>
<g style="fill:#000000; fill-opacity:1.0; 
stroke:#000000; stroke-width:0; stroke-opacity:1; 
stroke-linecap:round; stroke-linejoin:round;">
<path style="fill:#000000; fill-opacity:1.0; 
stroke:#000000; stroke-width:0; stroke-opacity:1; 
stroke-linecap:round; stroke-linejoin:round;fill-rule:evenodd;"
d="M 20029,34633
20035,34634
20040,34636
20046,34637
20051,34640
20056,34643
20060,34646
20064,34650
20147,34732
20150,34736
20154,34741
20157,34746
20159,34751
20161,34756
20162,34762
20163,34768
20164,34773
20163,34779
20162,34785
20161,34790
20159,34795
20157,34801
20154,34805
20150,34810
20147,34814
20051,34910
20046,34914
20042,34918
20037,34920
20032,34923
20026,34925
20021,34926
20015,34927
20009,34927
20004,34927
19998,34926
19993,34925
19987,34923
19982,34920
19977,34918
19973,34914
19968,34910
19886,34828
19882,34824
19879,34819
19876,34815
19874,34809
19872,34804
19870,34798
19870,34793
19869,34787
19870,34781
19870,34776
19872,34770
19874,34765
19876,34760
19879,34755
19882,34750
19886,34746
19982,34650
19987,34646
19991,34643
19996,34640
20001,34637
20007,34636
20012,34634
20018,34633
20023,34633
20029,34633
Z" /> 
<path style="fill:#000000; fill-opacity:1.0; 
stroke:#000000; stroke-width:0; stroke-opacity:1; 
stroke-linecap:round; stroke-linejoin:round;fill-rule:evenodd;"
d="M 19759,34363
19765,34364
19770,34365
19776,34367
19781,34370
19786,34373
19790,34376
19794,34380
19877,34462
19880,34466
19884,34471
19887,34476
19889,34481
19891,34486
19892,34492
19893,34497
19894,34503
19893,34509
19892,34515
19891,34520
19889,34525
19887,34531
19884,34535
19880,34540
19877,34544
19780,34640
19776,34644
19772,34648
19767,34650
19762,34653
19756,34655
19751,34656
19745,34657
19739,34657
19734,34657
19728,34656
19723,34655
19717,34653
19712,34650
19707,34648
19703,34644
19698,34640
19616,34558
19612,34554
19609,34549
19606,34544
19604,34539
19602,34534
19600,34528
19599,34523
19599,34517
19599,34511
19600,34506
19602,34500
19604,34495
19606,34490
19609,34485
19612,34480
19616,34476
19712,34380
19716,34376
19721,34373
19726,34370
19731,34367
19736,34365
19742,34364
19748,34363
19753,34363
19759,34363
Z" /> 
</g>
<g >
</g>
<g style="fill:#000000; fill-opacity:1.0; 
stroke:#000000; stroke-width:0; stroke-opacity:1; 
stroke-linecap:round; stroke-linejoin:round;">
<path style="fill:#000000; fill-opacity:1.0; 
stroke:#000000; stroke-width:0; stroke-opacity:1; 
stroke-linecap:round; stroke-linejoin:round;fill-rule:evenodd;"
d="M 19714,34948
19720,34949
19725,34950
19731,34952
19736,34955
19741,34958
19745,34961
19749,34965
19832,35047
19835,35051
19839,35056
19842,35061
19844,35066
19846,35071
19847,35077
19848,35082
19849,35088
19848,35094
19847,35100
19846,35105
19844,35110
19842,35116
19839,35120
19835,35125
19832,35129
19736,35225
19731,35229
19727,35233
19722,35235
19717,35238
19711,35240
19706,35241
19700,35242
19694,35242
19689,35242
19683,35241
19678,35240
19672,35238
19667,35235
19662,35233
19658,35229
19653,35225
19571,35143
19567,35139
19564,35134
19561,35129
19559,35124
19557,35119
19555,35113
19555,35108
19554,35102
19555,35096
19555,35091
19557,35085
19559,35080
19561,35075
19564,35070
19567,35065
19571,35061
19667,34965
19672,34961
19676,34958
19681,34955
19686,34952
19692,34950
19697,34949
19703,34948
19708,34948
19714,34948
Z" /> 
<path style="fill:#000000; fill-opacity:1.0; 
stroke:#000000; stroke-width:0; stroke-opacity:1; 
stroke-linecap:round; stroke-linejoin:round;fill-rule:evenodd;"
d="M 19444,34678
19450,34679
19455,34680
19461,34682
19466,34685
19471,34688
19475,34691
19479,34695
19562,34777
19565,34781
19569,34786
19572,34791
19574,34796
19576,34801
19577,34807
19578,34812
19579,34818
19578,34824
19577,34829
19576,34835
19574,34840
19572,34846
19569,34850
19565,34855
19562,34859
19466,34955
19461,34959
19457,34962
19452,34965
19447,34968
19441,34970
19436,34971
19430,34972
19424,34972
19419,34972
19413,34971
19408,34970
19402,34968
19397,34965
19392,34962
19388,34959
19383,34955
19301,34873
19297,34869
19294,34864
19291,34859
19289,34854
19287,34849
19285,34843
19285,34838
19284,34832
19285,34826
19285,34821
19287,34815
19289,34810
19291,34805
19294,34800
19297,34795
19301,34791
19397,34695
19402,34691
19406,34688
19411,34685
19416,34682
19422,34680
19427,34679
19433,34678
19438,34678
19444,34678
Z" /> 
</g>
<g >
</g>
<g style="fill:#000000; fill-opacity:1.0; 
stroke:#000000; stroke-width:0; stroke-opacity:1; 
stroke-linecap:round; stroke-linejoin:round;">
<path style="fill:#000000; fill-opacity:1.0; 
stroke:#000000; stroke-width:0; stroke-opacity:1; 
stroke-linecap:round; stroke-linejoin:round;fill-rule:evenodd;"
d="M 19399,35263
19405,35264
19410,35265
19416,35267
19421,35270
19426,35273
19430,35276
19435,35280
19517,35362
19520,35366
19524,35371
19527,35376
19529,35381
19531,35386
19533,35392
19533,35397
19534,35403
19533,35409
19533,35414
19531,35420
19529,35425
19527,35431
19524,35435
19520,35440
19517,35444
19421,35540
19416,35544
19412,35547
19407,35550
19402,35553
19396,35555
19391,35556
19385,35557
19380,35557
19374,35557
19368,35556
19363,35555
19357,35553
19352,35550
19347,35547
19343,35544
19338,35540
19256,35458
19253,35454
19249,35449
19246,35444
19244,35439
19242,35434
19240,35428
19240,35423
19239,35417
19240,35411
19240,35406
19242,35400
19244,35395
19246,35390
19249,35385
19253,35380
19256,35376
19352,35280
19357,35276
19361,35273
19366,35270
19371,35267
19377,35265
19382,35264
19388,35263
19393,35263
19399,35263
Z" /> 
<path style="fill:#000000; fill-opacity:1.0; 
stroke:#000000; stroke-width:0; stroke-opacity:1; 
stroke-linecap:round; stroke-linejoin:round;fill-rule:evenodd;"
d="M 19129,34993
19135,34994
19140,34995
19146,34997
19151,35000
19156,35003
19160,35006
19164,35010
19247,35092
19250,35096
19254,35101
19257,35106
19259,35111
19261,35116
19262,35122
19263,35127
19264,35133
19263,35139
19262,35144
19261,35150
19259,35155
19257,35160
19254,35165
19250,35170
19247,35174
19151,35270
19146,35274
19142,35277
19137,35280
19132,35283
19126,35285
19121,35286
19115,35287
19109,35287
19104,35287
19098,35286
19093,35285
19087,35283
19082,35280
19077,35277
19073,35274
19068,35270
18986,35188
18982,35184
18979,35179
18976,35174
18974,35169
18972,35164
18970,35158
18970,35153
18969,35147
18970,35141
18970,35136
18972,35130
18974,35125
18976,35120
18979,35115
18982,35110
18986,35106
19082,35010
19087,35006
19091,35003
19096,35000
19101,34997
19107,34995
19112,34994
19118,34993
19123,34993
19129,34993
Z" /> 
</g>
<g >
</g>
<g style="fill:#000000; fill-opacity:1.0; 
stroke:#000000; stroke-width:0; stroke-opacity:1; 
stroke-linecap:round; stroke-linejoin:round;">
<path style="fill:#000000; fill-opacity:1.0; 
stroke:#000000; stroke-width:0; stroke-opacity:1; 
stroke-linecap:round; stroke-linejoin:round;fill-rule:evenodd;"
d="M 20344,34318
20350,34319
20355,34321
20361,34322
20366,34325
20371,34328
20375,34331
20379,34335
20462,34417
20465,34421
20469,34426
20472,34431
20474,34436
20476,34441
20477,34447
20478,34453
20479,34458
20478,34464
20477,34470
20476,34475
20474,34480
20472,34486
20469,34491
20465,34495
20462,34499
20365,34595
20361,34599
20357,34603
20352,34606
20347,34608
20341,34610
20336,34611
20330,34612
20324,34612
20319,34612
20313,34611
20308,34610
20302,34608
20297,34606
20292,34603
20288,34599
20283,34595
20201,34513
20197,34509
20194,34504
20191,34500
20189,34494
20187,34489
20185,34484
20184,34478
20184,34472
20184,34466
20185,34461
20187,34455
20189,34450
20191,34445
20194,34440
20197,34435
20201,34431
20297,34335
20301,34331
20306,34328
20311,34325
20316,34322
20321,34321
20327,34319
20333,34318
20338,34318
20344,34318
Z" /> 
<path style="fill:#000000; fill-opacity:1.0; 
stroke:#000000; stroke-width:0; stroke-opacity:1; 
stroke-linecap:round; stroke-linejoin:round;fill-rule:evenodd;"
d="M 20074,34048
20080,34049
20085,34051
20091,34052
20096,34055
20101,34058
20105,34061
20109,34065
20191,34147
20195,34151
20199,34156
20202,34161
20204,34166
20206,34171
20207,34177
20208,34183
20208,34188
20208,34194
20207,34200
20206,34205
20204,34210
20202,34216
20199,34220
20195,34225
20191,34229
20095,34325
20091,34329
20087,34333
20082,34335
20077,34338
20071,34340
20066,34341
20060,34342
20054,34342
20049,34342
20043,34341
20038,34340
20032,34338
20027,34335
20022,34333
20018,34329
20013,34325
19931,34243
19927,34239
19924,34234
19921,34230
19919,34224
19917,34219
19915,34213
19914,34208
19914,34202
19914,34196
19915,34191
19917,34185
19919,34180
19921,34175
19924,34170
19927,34165
19931,34161
20027,34065
20031,34061
20036,34058
20041,34055
20046,34052
20051,34051
20057,34049
20063,34048
20068,34048
20074,34048
Z" /> 
</g>
<g >
</g>
<g style="fill:#000000; fill-opacity:1.0; 
stroke:#000000; stroke-width:0; stroke-opacity:1; 
stroke-linecap:round; stroke-linejoin:round;">
<path style="fill:#000000; fill-opacity:1.0; 
stroke:#000000; stroke-width:0; stroke-opacity:1; 
stroke-linecap:round; stroke-linejoin:round;fill-rule:evenodd;"
d="M 16294,31858
16299,31859
16305,31860
16310,31862
16315,31865
16320,31868
16325,31871
16329,31875
16333,31879
16336,31884
16339,31888
16342,31894
16343,31899
16345,31905
16346,31910
16346,31916
16346,32032
16346,32038
16345,32043
16343,32049
16342,32054
16339,32059
16336,32064
16333,32069
16329,32073
16325,32077
16320,32080
16315,32083
16310,32086
16305,32088
16299,32089
16294,32090
16288,32090
16152,32090
16146,32090
16141,32089
16135,32088
16130,32086
16125,32083
16120,32080
16115,32077
16111,32073
16107,32069
16104,32064
16101,32059
16098,32054
16096,32049
16095,32043
16094,32038
16094,32032
16094,31916
16094,31910
16095,31905
16096,31899
16098,31894
16101,31888
16104,31884
16107,31879
16111,31875
16115,31871
16120,31868
16125,31865
16130,31862
16135,31860
16141,31859
16146,31858
16152,31858
16288,31858
16294,31858
Z" /> 
<path style="fill:#000000; fill-opacity:1.0; 
stroke:#000000; stroke-width:0; stroke-opacity:1; 
stroke-linecap:round; stroke-linejoin:round;fill-rule:evenodd;"
d="M 16294,32240
16299,32241
16305,32242
16310,32244
16315,32247
16320,32249
16325,32253
16329,32257
16333,32261
16336,32265
16339,32270
16342,32276
16343,32281
16345,32286
16346,32292
16346,32298
16346,32414
16346,32420
16345,32425
16343,32431
16342,32436
16339,32441
16336,32446
16333,32451
16329,32455
16325,32459
16320,32462
16315,32465
16310,32468
16305,32469
16299,32471
16294,32472
16288,32472
16152,32472
16146,32472
16141,32471
16135,32469
16130,32468
16125,32465
16120,32462
16115,32459
16111,32455
16107,32451
16104,32446
16101,32441
16098,32436
16096,32431
16095,32425
16094,32420
16094,32414
16094,32298
16094,32292
16095,32286
16096,32281
16098,32276
16101,32270
16104,32265
16107,32261
16111,32257
16115,32253
16120,32249
16125,32247
16130,32244
16135,32242
16141,32241
16146,32240
16152,32240
16288,32240
16294,32240
Z" /> 
</g>
<g >
</g>
<g style="fill:#000000; fill-opacity:1.0; 
stroke:#000000; stroke-width:0; stroke-opacity:1; 
stroke-linecap:round; stroke-linejoin:round;">
<path style="fill:#000000; fill-opacity:1.0; 
stroke:#000000; stroke-width:0; stroke-opacity:1; 
stroke-linecap:round; stroke-linejoin:round;fill-rule:evenodd;"
d="M 20506,33224
20512,33225
20517,33226
20523,33228
20528,33231
20533,33234
20537,33237
20542,33241
20545,33245
20549,33250
20552,33255
20554,33260
20556,33265
20557,33271
20558,33276
20559,33282
20559,33398
20558,33404
20557,33409
20556,33415
20554,33420
20552,33425
20549,33430
20545,33435
20542,33439
20537,33443
20533,33446
20528,33449
20523,33452
20517,33454
20512,33455
20506,33456
20500,33456
20365,33456
20359,33456
20353,33455
20348,33454
20342,33452
20337,33449
20332,33446
20328,33443
20324,33439
20320,33435
20316,33430
20313,33425
20311,33420
20309,33415
20308,33409
20307,33404
20307,33398
20307,33282
20307,33276
20308,33271
20309,33265
20311,33260
20313,33255
20316,33250
20320,33245
20324,33241
20328,33237
20332,33234
20337,33231
20342,33228
20348,33226
20353,33225
20359,33224
20365,33224
20500,33224
20506,33224
Z" /> 
<path style="fill:#000000; fill-opacity:1.0; 
stroke:#000000; stroke-width:0; stroke-opacity:1; 
stroke-linecap:round; stroke-linejoin:round;fill-rule:evenodd;"
d="M 20506,32842
20512,32843
20517,32845
20523,32846
20528,32849
20533,32852
20537,32855
20542,32859
20545,32863
20549,32868
20552,32873
20554,32878
20556,32883
20557,32889
20558,32894
20559,32900
20559,33016
20558,33022
20557,33028
20556,33033
20554,33038
20552,33044
20549,33048
20545,33053
20542,33057
20537,33061
20533,33065
20528,33067
20523,33070
20517,33072
20512,33073
20506,33074
20500,33074
20365,33074
20359,33074
20353,33073
20348,33072
20342,33070
20337,33067
20332,33065
20328,33061
20324,33057
20320,33053
20316,33048
20313,33044
20311,33038
20309,33033
20308,33028
20307,33022
20307,33016
20307,32900
20307,32894
20308,32889
20309,32883
20311,32878
20313,32873
20316,32868
20320,32863
20324,32859
20328,32855
20332,32852
20337,32849
20342,32846
20348,32845
20353,32843
20359,32842
20365,32842
20500,32842
20506,32842
Z" /> 
</g>
<g >
</g>
<g style="fill:#000000; fill-opacity:1.0; 
stroke:#000000; stroke-width:0; stroke-opacity:1; 
stroke-linecap:round; stroke-linejoin:round;">
<path style="fill:#000000; fill-opacity:1.0; 
stroke:#000000; stroke-width:0; stroke-opacity:1; 
stroke-linecap:round; stroke-linejoin:round;fill-rule:evenodd;"
d="M 27292,44953
27297,44953
27303,44955
27308,44957
27313,44959
27318,44962
27323,44965
27327,44969
27331,44973
27334,44978
27337,44983
27340,44988
27341,44993
27343,44999
27344,45005
27344,45010
27344,45146
27344,45152
27343,45157
27341,45163
27340,45168
27337,45174
27334,45178
27331,45183
27327,45187
27323,45191
27318,45194
27313,45197
27308,45200
27303,45202
27297,45203
27292,45204
27286,45204
27170,45204
27164,45204
27158,45203
27153,45202
27148,45200
27142,45197
27138,45194
27133,45191
27129,45187
27125,45183
27121,45178
27119,45174
27116,45168
27114,45163
27113,45157
27112,45152
27112,45146
27112,45010
27112,45005
27113,44999
27114,44993
27116,44988
27119,44983
27121,44978
27125,44973
27129,44969
27133,44965
27138,44962
27142,44959
27148,44957
27153,44955
27158,44953
27164,44953
27170,44952
27286,44952
27292,44953
Z" /> 
<path style="fill:#000000; fill-opacity:1.0; 
stroke:#000000; stroke-width:0; stroke-opacity:1; 
stroke-linecap:round; stroke-linejoin:round;fill-rule:evenodd;"
d="M 26910,44953
26915,44953
26921,44955
26926,44957
26931,44959
26936,44962
26941,44965
26945,44969
26949,44973
26952,44978
26955,44983
26958,44988
26960,44993
26961,44999
26962,45005
26962,45010
26962,45146
26962,45152
26961,45157
26960,45163
26958,45168
26955,45174
26952,45178
26949,45183
26945,45187
26941,45191
26936,45194
26931,45197
26926,45200
26921,45202
26915,45203
26910,45204
26904,45204
26788,45204
26782,45204
26777,45203
26771,45202
26766,45200
26761,45197
26756,45194
26751,45191
26747,45187
26743,45183
26740,45178
26737,45174
26734,45168
26732,45163
26731,45157
26730,45152
26730,45146
26730,45010
26730,45005
26731,44999
26732,44993
26734,44988
26737,44983
26740,44978
26743,44973
26747,44969
26751,44965
26756,44962
26761,44959
26766,44957
26771,44955
26777,44953
26782,44953
26788,44952
26904,44952
26910,44953
Z" /> 
</g>
<g >
</g>
<g style="fill:#000000; fill-opacity:1.0; 
stroke:#000000; stroke-width:0; stroke-opacity:1; 
stroke-linecap:round; stroke-linejoin:round;">
<path style="fill:#000000; fill-opacity:1.0; 
stroke:#000000; stroke-width:0; stroke-opacity:1; 
stroke-linecap:round; stroke-linejoin:round;fill-rule:evenodd;"
d="M 20546,31386
20551,31386
20557,31388
20562,31390
20567,31392
20572,31395
20577,31399
20581,31402
20585,31407
20588,31411
20591,31416
20594,31421
20595,31427
20597,31432
20598,31438
20598,31443
20598,31560
20598,31565
20597,31571
20595,31576
20594,31582
20591,31587
20588,31592
20585,31596
20581,31601
20577,31604
20572,31608
20567,31611
20562,31613
20557,31615
20551,31616
20546,31617
20540,31618
20404,31618
20398,31617
20393,31616
20387,31615
20382,31613
20377,31611
20372,31608
20367,31604
20363,31601
20359,31596
20356,31592
20353,31587
20350,31582
20348,31576
20347,31571
20346,31565
20346,31560
20346,31443
20346,31438
20347,31432
20348,31427
20350,31421
20353,31416
20356,31411
20359,31407
20363,31402
20367,31399
20372,31395
20377,31392
20382,31390
20387,31388
20393,31386
20398,31386
20404,31385
20540,31385
20546,31386
Z" /> 
<path style="fill:#000000; fill-opacity:1.0; 
stroke:#000000; stroke-width:0; stroke-opacity:1; 
stroke-linecap:round; stroke-linejoin:round;fill-rule:evenodd;"
d="M 20546,31767
20551,31768
20557,31770
20562,31772
20567,31774
20572,31777
20577,31780
20581,31784
20585,31788
20588,31793
20591,31798
20594,31803
20595,31808
20597,31814
20598,31820
20598,31825
20598,31941
20598,31947
20597,31953
20595,31958
20594,31964
20591,31969
20588,31974
20585,31978
20581,31982
20577,31986
20572,31990
20567,31993
20562,31995
20557,31997
20551,31998
20546,31999
20540,32000
20404,32000
20398,31999
20393,31998
20387,31997
20382,31995
20377,31993
20372,31990
20367,31986
20363,31982
20359,31978
20356,31974
20353,31969
20350,31964
20348,31958
20347,31953
20346,31947
20346,31941
20346,31825
20346,31820
20347,31814
20348,31808
20350,31803
20353,31798
20356,31793
20359,31788
20363,31784
20367,31780
20372,31777
20377,31774
20382,31772
20387,31770
20393,31768
20398,31767
20404,31767
20540,31767
20546,31767
Z" /> 
</g>
<g >
</g>
<g style="fill:#000000; fill-opacity:1.0; 
stroke:#000000; stroke-width:0; stroke-opacity:1; 
stroke-linecap:round; stroke-linejoin:round;">
<path style="fill:#000000; fill-opacity:1.0; 
stroke:#000000; stroke-width:0; stroke-opacity:1; 
stroke-linecap:round; stroke-linejoin:round;fill-rule:evenodd;"
d="M 25384,44943
25390,44944
25395,44945
25401,44947
25406,44949
25411,44952
25415,44956
25419,44959
25423,44964
25427,44968
25430,44973
25432,44978
25434,44984
25435,44989
25436,44995
25437,45000
25437,45136
25436,45142
25435,45148
25434,45153
25432,45159
25430,45164
25427,45169
25423,45173
25419,45177
25415,45181
25411,45185
25406,45188
25401,45190
25395,45192
25390,45193
25384,45194
25378,45194
25262,45194
25257,45194
25251,45193
25245,45192
25240,45190
25235,45188
25230,45185
25225,45181
25221,45177
25217,45173
25214,45169
25211,45164
25209,45159
25207,45153
25205,45148
25205,45142
25204,45136
25204,45000
25205,44995
25205,44989
25207,44984
25209,44978
25211,44973
25214,44968
25217,44964
25221,44959
25225,44956
25230,44952
25235,44949
25240,44947
25245,44945
25251,44944
25257,44943
25262,44942
25378,44942
25384,44943
Z" /> 
<path style="fill:#000000; fill-opacity:1.0; 
stroke:#000000; stroke-width:0; stroke-opacity:1; 
stroke-linecap:round; stroke-linejoin:round;fill-rule:evenodd;"
d="M 25766,44943
25772,44944
25777,44945
25783,44947
25788,44949
25793,44952
25797,44956
25801,44959
25805,44964
25809,44968
25812,44973
25814,44978
25816,44984
25817,44989
25818,44995
25818,45000
25818,45136
25818,45142
25817,45148
25816,45153
25814,45159
25812,45164
25809,45169
25805,45173
25801,45177
25797,45181
25793,45185
25788,45188
25783,45190
25777,45192
25772,45193
25766,45194
25760,45194
25644,45194
25638,45194
25633,45193
25627,45192
25622,45190
25617,45188
25612,45185
25607,45181
25603,45177
25599,45173
25596,45169
25593,45164
25591,45159
25589,45153
25587,45148
25586,45142
25586,45136
25586,45000
25586,44995
25587,44989
25589,44984
25591,44978
25593,44973
25596,44968
25599,44964
25603,44959
25607,44956
25612,44952
25617,44949
25622,44947
25627,44945
25633,44944
25638,44943
25644,44942
25760,44942
25766,44943
Z" /> 
</g>
<g >
</g>
<g style="fill:#000000; fill-opacity:1.0; 
stroke:#000000; stroke-width:0; stroke-opacity:1; 
stroke-linecap:round; stroke-linejoin:round;">
<path style="fill:#000000; fill-opacity:1.0; 
stroke:#000000; stroke-width:0; stroke-opacity:1; 
stroke-linecap:round; stroke-linejoin:round;fill-rule:evenodd;"
d="M 20979,33224
20984,33225
20990,33226
20995,33228
21000,33231
21005,33234
21010,33237
21014,33241
21018,33245
21021,33250
21024,33255
21027,33260
21028,33265
21030,33271
21031,33276
21031,33282
21031,33398
21031,33404
21030,33409
21028,33415
21027,33420
21024,33425
21021,33430
21018,33435
21014,33439
21010,33443
21005,33446
21000,33449
20995,33452
20990,33454
20984,33455
20979,33456
20973,33456
20837,33456
20831,33456
20826,33455
20820,33454
20815,33452
20810,33449
20805,33446
20800,33443
20796,33439
20792,33435
20789,33430
20786,33425
20783,33420
20782,33415
20780,33409
20779,33404
20779,33398
20779,33282
20779,33276
20780,33271
20782,33265
20783,33260
20786,33255
20789,33250
20792,33245
20796,33241
20800,33237
20805,33234
20810,33231
20815,33228
20820,33226
20826,33225
20831,33224
20837,33224
20973,33224
20979,33224
Z" /> 
<path style="fill:#000000; fill-opacity:1.0; 
stroke:#000000; stroke-width:0; stroke-opacity:1; 
stroke-linecap:round; stroke-linejoin:round;fill-rule:evenodd;"
d="M 20979,32842
20984,32843
20990,32845
20995,32846
21000,32849
21005,32852
21010,32855
21014,32859
21018,32863
21021,32868
21024,32873
21027,32878
21028,32883
21030,32889
21031,32894
21031,32900
21031,33016
21031,33022
21030,33028
21028,33033
21027,33038
21024,33044
21021,33048
21018,33053
21014,33057
21010,33061
21005,33065
21000,33067
20995,33070
20990,33072
20984,33073
20979,33074
20973,33074
20837,33074
20831,33074
20826,33073
20820,33072
20815,33070
20810,33067
20805,33065
20800,33061
20796,33057
20792,33053
20789,33048
20786,33044
20783,33038
20782,33033
20780,33028
20779,33022
20779,33016
20779,32900
20779,32894
20780,32889
20782,32883
20783,32878
20786,32873
20789,32868
20792,32863
20796,32859
20800,32855
20805,32852
20810,32849
20815,32846
20820,32845
20826,32843
20831,32842
20837,32842
20973,32842
20979,32842
Z" /> 
</g>
<g >
</g>
<g >
</g>
<g >
</g>
<g >
</g>
<g >
</g>
<g style="fill:#000000; fill-opacity:1.0; 
stroke:#000000; stroke-width:0; stroke-opacity:1; 
stroke-linecap:round; stroke-linejoin:round;">
</g>
<g style="fill:#000000; fill-opacity:1.0; 
stroke:#000000; stroke-width:78.7402; stroke-opacity:1; 
stroke-linecap:round; stroke-linejoin:round;">
</g>
<g style="fill:#000000; fill-opacity:0.0; 
stroke:#000000; stroke-width:78.7402; stroke-opacity:1; 
stroke-linecap:round; stroke-linejoin:round;">
<path d="M19732 37540
L19565 37707
" />
<path d="M19844 37652
L19676 37819
" />
<path d="M19955 37763
L19788 37930
" />
<path d="M20066 37874
L19899 38041
" />
<path d="M20178 37986
L20011 38153
" />
<path d="M20289 38097
L20122 38264
" />
<path d="M20400 38208
L20233 38375
" />
<path d="M20512 38320
L20345 38487
" />
<path d="M20623 38431
L20456 38598
" />
<path d="M20734 38542
L20567 38710
" />
<path d="M20846 38654
L20679 38821
" />
<path d="M20957 38765
L20790 38932
" />
<path d="M21068 38877
L20901 39044
" />
<path d="M21180 38988
L21013 39155
" />
<path d="M21291 39099
L21124 39266
" />
<path d="M21402 39211
L21235 39378
" />
<path d="M21514 39322
L21347 39489
" />
<path d="M21959 39489
L21792 39322
" />
<path d="M22071 39378
L21904 39211
" />
<path d="M22182 39266
L22015 39099
" />
<path d="M22293 39155
L22126 38988
" />
<path d="M22405 39044
L22238 38877
" />
<path d="M22516 38932
L22349 38765
" />
<path d="M22627 38821
L22460 38654
" />
<path d="M22739 38710
L22572 38542
" />
<path d="M22850 38598
L22683 38431
" />
<path d="M22961 38487
L22794 38320
" />
<path d="M23073 38375
L22906 38208
" />
<path d="M23184 38264
L23017 38097
" />
<path d="M23296 38153
L23129 37986
" />
<path d="M23407 38041
L23240 37874
" />
<path d="M23518 37930
L23351 37763
" />
<path d="M23630 37819
L23463 37652
" />
<path d="M23741 37707
L23574 37540
" />
<path d="M23741 37095
L23574 37262
" />
<path d="M23630 36983
L23463 37151
" />
<path d="M23518 36872
L23351 37039
" />
<path d="M23407 36761
L23240 36928
" />
<path d="M23296 36649
L23129 36816
" />
<path d="M23184 36538
L23017 36705
" />
<path d="M23073 36427
L22906 36594
" />
<path d="M22961 36315
L22794 36482
" />
<path d="M22850 36204
L22683 36371
" />
<path d="M22739 36093
L22572 36260
" />
<path d="M22627 35981
L22460 36148
" />
<path d="M22516 35870
L22349 36037
" />
<path d="M22405 35759
L22238 35926
" />
<path d="M22293 35647
L22126 35814
" />
<path d="M22182 35536
L22015 35703
" />
<path d="M22071 35425
L21904 35592
" />
<path d="M21959 35313
L21792 35480
" />
<path d="M21514 35480
L21347 35313
" />
<path d="M21402 35592
L21235 35425
" />
<path d="M21291 35703
L21124 35536
" />
<path d="M21180 35814
L21013 35647
" />
<path d="M21068 35926
L20901 35759
" />
<path d="M20957 36037
L20790 35870
" />
<path d="M20846 36148
L20679 35981
" />
<path d="M20734 36260
L20567 36093
" />
<path d="M20623 36371
L20456 36204
" />
<path d="M20512 36482
L20345 36315
" />
<path d="M20400 36594
L20233 36427
" />
<path d="M20289 36705
L20122 36538
" />
<path d="M20178 36816
L20011 36649
" />
<path d="M20066 36928
L19899 36761
" />
<path d="M19955 37039
L19788 36872
" />
<path d="M19844 37151
L19676 36983
" />
<path d="M19732 37262
L19565 37095
" />
</g>
<g >
</g>
<g >
</g>
<g style="fill:#000000; fill-opacity:0.0; 
stroke:#000000; stroke-width:78.7402; stroke-opacity:1; 
stroke-linecap:round; stroke-linejoin:round;">
</g>
<g style="fill:#000000; fill-opacity:0.0; 
stroke:#000000; stroke-width:0; stroke-opacity:1; 
stroke-linecap:round; stroke-linejoin:round;">
</g>
<g style="fill:#000000; fill-opacity:1.0; 
stroke:#000000; stroke-width:0; stroke-opacity:1; 
stroke-linecap:round; stroke-linejoin:round;">
<path style="fill:#000000; fill-opacity:1.0; 
stroke:#000000; stroke-width:0; stroke-opacity:1; 
stroke-linecap:round; stroke-linejoin:round;fill-rule:evenodd;"
d="M 20078,31848
20078,32005
19685,32005
19685,31848
20078,31848
Z" /> 
<path style="fill:#000000; fill-opacity:1.0; 
stroke:#000000; stroke-width:0; stroke-opacity:1; 
stroke-linecap:round; stroke-linejoin:round;fill-rule:evenodd;"
d="M 20078,32848
20078,33005
19685,33005
19685,32848
20078,32848
Z" /> 
<path style="fill:#000000; fill-opacity:1.0; 
stroke:#000000; stroke-width:0; stroke-opacity:1; 
stroke-linecap:round; stroke-linejoin:round;fill-rule:evenodd;"
d="M 19232,31771
19232,33582
17381,33582
17381,31771
19232,31771
Z" /> 
<path style="fill:#000000; fill-opacity:1.0; 
stroke:#000000; stroke-width:0; stroke-opacity:1; 
stroke-linecap:round; stroke-linejoin:round;fill-rule:evenodd;"
d="M 16929,31848
16929,32005
16535,32005
16535,31848
16929,31848
Z" /> 
<path style="fill:#000000; fill-opacity:1.0; 
stroke:#000000; stroke-width:0; stroke-opacity:1; 
stroke-linecap:round; stroke-linejoin:round;fill-rule:evenodd;"
d="M 16929,33348
16929,33505
16535,33505
16535,33348
16929,33348
Z" /> 
<path style="fill:#000000; fill-opacity:1.0; 
stroke:#000000; stroke-width:0; stroke-opacity:1; 
stroke-linecap:round; stroke-linejoin:round;fill-rule:evenodd;"
d="M 20078,32348
20078,32505
19685,32505
19685,32348
20078,32348
Z" /> 
<path style="fill:#000000; fill-opacity:1.0; 
stroke:#000000; stroke-width:0; stroke-opacity:1; 
stroke-linecap:round; stroke-linejoin:round;fill-rule:evenodd;"
d="M 16929,32348
16929,32505
16535,32505
16535,32348
16929,32348
Z" /> 
<path style="fill:#000000; fill-opacity:1.0; 
stroke:#000000; stroke-width:0; stroke-opacity:1; 
stroke-linecap:round; stroke-linejoin:round;fill-rule:evenodd;"
d="M 16929,32848
16929,33005
16535,33005
16535,32848
16929,32848
Z" /> 
<path style="fill:#000000; fill-opacity:1.0; 
stroke:#000000; stroke-width:0; stroke-opacity:1; 
stroke-linecap:round; stroke-linejoin:round;fill-rule:evenodd;"
d="M 20078,33348
20078,33505
19685,33505
19685,33348
20078,33348
Z" /> 
</g>
<g >
</g>
<g style="fill:#000000; fill-opacity:1.0; 
stroke:#000000; stroke-width:0; stroke-opacity:1; 
stroke-linecap:round; stroke-linejoin:round;">
<path style="fill:#000000; fill-opacity:1.0; 
stroke:#000000; stroke-width:0; stroke-opacity:1; 
stroke-linecap:round; stroke-linejoin:round;fill-rule:evenodd;"
d="M 25820,45590
25824,45591
25828,45592
25831,45593
25835,45595
25838,45597
25841,45599
25844,45602
25847,45604
25849,45608
25851,45611
25853,45614
25854,45618
25855,45622
25856,45626
25856,45629
25856,45708
25856,45712
25855,45716
25854,45720
25853,45723
25851,45727
25849,45730
25847,45733
25844,45736
25841,45739
25838,45741
25835,45743
25831,45745
25828,45746
25824,45747
25820,45747
25816,45748
25580,45748
25576,45747
25573,45747
25569,45746
25565,45745
25562,45743
25558,45741
25555,45739
25552,45736
25550,45733
25547,45730
25545,45727
25544,45723
25543,45720
25542,45716
25541,45712
25541,45708
25541,45629
25541,45626
25542,45622
25543,45618
25544,45614
25545,45611
25547,45608
25550,45604
25552,45602
25555,45599
25558,45597
25562,45595
25565,45593
25569,45592
25573,45591
25576,45590
25580,45590
25816,45590
25820,45590
Z" /> 
<path style="fill:#000000; fill-opacity:1.0; 
stroke:#000000; stroke-width:0; stroke-opacity:1; 
stroke-linecap:round; stroke-linejoin:round;fill-rule:evenodd;"
d="M 25820,45984
25824,45985
25828,45985
25831,45987
25835,45988
25838,45990
25841,45993
25844,45995
25847,45998
25849,46001
25851,46005
25853,46008
25854,46012
25855,46015
25856,46019
25856,46023
25856,46102
25856,46106
25855,46110
25854,46113
25853,46117
25851,46120
25849,46124
25847,46127
25844,46130
25841,46132
25838,46135
25835,46137
25831,46138
25828,46140
25824,46140
25820,46141
25816,46141
25580,46141
25576,46141
25573,46140
25569,46140
25565,46138
25562,46137
25558,46135
25555,46132
25552,46130
25550,46127
25547,46124
25545,46120
25544,46117
25543,46113
25542,46110
25541,46106
25541,46102
25541,46023
25541,46019
25542,46015
25543,46012
25544,46008
25545,46005
25547,46001
25550,45998
25552,45995
25555,45993
25558,45990
25562,45988
25565,45987
25569,45985
25573,45985
25576,45984
25580,45984
25816,45984
25820,45984
Z" /> 
<path style="fill:#000000; fill-opacity:1.0; 
stroke:#000000; stroke-width:0; stroke-opacity:1; 
stroke-linecap:round; stroke-linejoin:round;fill-rule:evenodd;"
d="M 25820,46378
25824,46378
25828,46379
25831,46380
25835,46382
25838,46384
25841,46386
25844,46389
25847,46392
25849,46395
25851,46398
25853,46402
25854,46405
25855,46409
25856,46413
25856,46417
25856,46496
25856,46499
25855,46503
25854,46507
25853,46511
25851,46514
25849,46517
25847,46521
25844,46523
25841,46526
25838,46528
25835,46530
25831,46532
25828,46533
25824,46534
25820,46535
25816,46535
25580,46535
25576,46535
25573,46534
25569,46533
25565,46532
25562,46530
25558,46528
25555,46526
25552,46523
25550,46521
25547,46517
25545,46514
25544,46511
25543,46507
25542,46503
25541,46499
25541,46496
25541,46417
25541,46413
25542,46409
25543,46405
25544,46402
25545,46398
25547,46395
25550,46392
25552,46389
25555,46386
25558,46384
25562,46382
25565,46380
25569,46379
25573,46378
25576,46378
25580,46377
25816,46377
25820,46378
Z" /> 
<path style="fill:#000000; fill-opacity:1.0; 
stroke:#000000; stroke-width:0; stroke-opacity:1; 
stroke-linecap:round; stroke-linejoin:round;fill-rule:evenodd;"
d="M 26962,46378
26966,46378
26970,46379
26973,46380
26977,46382
26980,46384
26983,46386
26986,46389
26989,46392
26991,46395
26993,46398
26995,46402
26996,46405
26997,46409
26997,46413
26998,46417
26998,46496
26997,46499
26997,46503
26996,46507
26995,46511
26993,46514
26991,46517
26989,46521
26986,46523
26983,46526
26980,46528
26977,46530
26973,46532
26970,46533
26966,46534
26962,46535
26958,46535
26722,46535
26718,46535
26714,46534
26711,46533
26707,46532
26703,46530
26700,46528
26697,46526
26694,46523
26692,46521
26689,46517
26687,46514
26686,46511
26684,46507
26683,46503
26683,46499
26683,46496
26683,46417
26683,46413
26683,46409
26684,46405
26686,46402
26687,46398
26689,46395
26692,46392
26694,46389
26697,46386
26700,46384
26703,46382
26707,46380
26711,46379
26714,46378
26718,46378
26722,46377
26958,46377
26962,46378
Z" /> 
<path style="fill:#000000; fill-opacity:1.0; 
stroke:#000000; stroke-width:0; stroke-opacity:1; 
stroke-linecap:round; stroke-linejoin:round;fill-rule:evenodd;"
d="M 26962,45984
26966,45985
26970,45985
26973,45987
26977,45988
26980,45990
26983,45993
26986,45995
26989,45998
26991,46001
26993,46005
26995,46008
26996,46012
26997,46015
26997,46019
26998,46023
26998,46102
26997,46106
26997,46110
26996,46113
26995,46117
26993,46120
26991,46124
26989,46127
26986,46130
26983,46132
26980,46135
26977,46137
26973,46138
26970,46140
26966,46140
26962,46141
26958,46141
26722,46141
26718,46141
26714,46140
26711,46140
26707,46138
26703,46137
26700,46135
26697,46132
26694,46130
26692,46127
26689,46124
26687,46120
26686,46117
26684,46113
26683,46110
26683,46106
26683,46102
26683,46023
26683,46019
26683,46015
26684,46012
26686,46008
26687,46005
26689,46001
26692,45998
26694,45995
26697,45993
26700,45990
26703,45988
26707,45987
26711,45985
26714,45985
26718,45984
26722,45984
26958,45984
26962,45984
Z" /> 
<path style="fill:#000000; fill-opacity:1.0; 
stroke:#000000; stroke-width:0; stroke-opacity:1; 
stroke-linecap:round; stroke-linejoin:round;fill-rule:evenodd;"
d="M 26962,45590
26966,45591
26970,45592
26973,45593
26977,45595
26980,45597
26983,45599
26986,45602
26989,45604
26991,45608
26993,45611
26995,45614
26996,45618
26997,45622
26997,45626
26998,45629
26998,45708
26997,45712
26997,45716
26996,45720
26995,45723
26993,45727
26991,45730
26989,45733
26986,45736
26983,45739
26980,45741
26977,45743
26973,45745
26970,45746
26966,45747
26962,45747
26958,45748
26722,45748
26718,45747
26714,45747
26711,45746
26707,45745
26703,45743
26700,45741
26697,45739
26694,45736
26692,45733
26689,45730
26687,45727
26686,45723
26684,45720
26683,45716
26683,45712
26683,45708
26683,45629
26683,45626
26683,45622
26684,45618
26686,45614
26687,45611
26689,45608
26692,45604
26694,45602
26697,45599
26700,45597
26703,45595
26707,45593
26711,45592
26714,45591
26718,45590
26722,45590
26958,45590
26962,45590
Z" /> 
<path style="fill:#000000; fill-opacity:1.0; 
stroke:#000000; stroke-width:0; stroke-opacity:1; 
stroke-linecap:round; stroke-linejoin:round;fill-rule:evenodd;"
d="M 26186,46108
26192,46109
26198,46110
26203,46112
26208,46115
26213,46118
26218,46121
26222,46125
26226,46129
26230,46134
26233,46139
26235,46144
26237,46150
26239,46155
26239,46161
26240,46167
26240,46431
26239,46436
26239,46442
26237,46448
26235,46453
26233,46458
26230,46463
26226,46468
26222,46472
26218,46476
26213,46480
26208,46483
26203,46485
26198,46487
26192,46489
26186,46489
26181,46490
26062,46490
26057,46489
26051,46489
26045,46487
26040,46485
26035,46483
26030,46480
26025,46476
26021,46472
26017,46468
26013,46463
26010,46458
26008,46453
26006,46448
26005,46442
26004,46436
26003,46431
26003,46167
26004,46161
26005,46155
26006,46150
26008,46144
26010,46139
26013,46134
26017,46129
26021,46125
26025,46121
26030,46118
26035,46115
26040,46112
26045,46110
26051,46109
26057,46108
26062,46108
26181,46108
26186,46108
Z" /> 
<path style="fill:#000000; fill-opacity:1.0; 
stroke:#000000; stroke-width:0; stroke-opacity:1; 
stroke-linecap:round; stroke-linejoin:round;fill-rule:evenodd;"
d="M 26186,45636
26192,45636
26198,45638
26203,45640
26208,45642
26213,45645
26218,45649
26222,45653
26226,45657
26230,45662
26233,45667
26235,45672
26237,45677
26239,45683
26239,45689
26240,45694
26240,45958
26239,45964
26239,45970
26237,45975
26235,45981
26233,45986
26230,45991
26226,45996
26222,46000
26218,46004
26213,46007
26208,46010
26203,46013
26198,46015
26192,46016
26186,46017
26181,46017
26062,46017
26057,46017
26051,46016
26045,46015
26040,46013
26035,46010
26030,46007
26025,46004
26021,46000
26017,45996
26013,45991
26010,45986
26008,45981
26006,45975
26005,45970
26004,45964
26003,45958
26003,45694
26004,45689
26005,45683
26006,45677
26008,45672
26010,45667
26013,45662
26017,45657
26021,45653
26025,45649
26030,45645
26035,45642
26040,45640
26045,45638
26051,45636
26057,45636
26062,45635
26181,45635
26186,45636
Z" /> 
<path style="fill:#000000; fill-opacity:1.0; 
stroke:#000000; stroke-width:0; stroke-opacity:1; 
stroke-linecap:round; stroke-linejoin:round;fill-rule:evenodd;"
d="M 26482,46108
26487,46109
26493,46110
26498,46112
26504,46115
26509,46118
26513,46121
26518,46125
26522,46129
26525,46134
26528,46139
26530,46144
26532,46150
26534,46155
26535,46161
26535,46167
26535,46431
26535,46436
26534,46442
26532,46448
26530,46453
26528,46458
26525,46463
26522,46468
26518,46472
26513,46476
26509,46480
26504,46483
26498,46485
26493,46487
26487,46489
26482,46489
26476,46490
26358,46490
26352,46489
26346,46489
26341,46487
26335,46485
26330,46483
26325,46480
26320,46476
26316,46472
26312,46468
26309,46463
26306,46458
26303,46453
26301,46448
26300,46442
26299,46436
26299,46431
26299,46167
26299,46161
26300,46155
26301,46150
26303,46144
26306,46139
26309,46134
26312,46129
26316,46125
26320,46121
26325,46118
26330,46115
26335,46112
26341,46110
26346,46109
26352,46108
26358,46108
26476,46108
26482,46108
Z" /> 
<path style="fill:#000000; fill-opacity:1.0; 
stroke:#000000; stroke-width:0; stroke-opacity:1; 
stroke-linecap:round; stroke-linejoin:round;fill-rule:evenodd;"
d="M 26482,45636
26487,45636
26493,45638
26498,45640
26504,45642
26509,45645
26513,45649
26518,45653
26522,45657
26525,45662
26528,45667
26530,45672
26532,45677
26534,45683
26535,45689
26535,45694
26535,45958
26535,45964
26534,45970
26532,45975
26530,45981
26528,45986
26525,45991
26522,45996
26518,46000
26513,46004
26509,46007
26504,46010
26498,46013
26493,46015
26487,46016
26482,46017
26476,46017
26358,46017
26352,46017
26346,46016
26341,46015
26335,46013
26330,46010
26325,46007
26320,46004
26316,46000
26312,45996
26309,45991
26306,45986
26303,45981
26301,45975
26300,45970
26299,45964
26299,45958
26299,45694
26299,45689
26300,45683
26301,45677
26303,45672
26306,45667
26309,45662
26312,45657
26316,45653
26320,45649
26325,45645
26330,45642
26335,45640
26341,45638
26346,45636
26352,45636
26358,45635
26476,45635
26482,45636
Z" /> 
</g>
<g >
</g>
<g style="fill:#000000; fill-opacity:1.0; 
stroke:#000000; stroke-width:0; stroke-opacity:1; 
stroke-linecap:round; stroke-linejoin:round;">
<path style="fill:#000000; fill-opacity:1.0; 
stroke:#000000; stroke-width:0; stroke-opacity:1; 
stroke-linecap:round; stroke-linejoin:round;fill-rule:evenodd;"
d="M 24448,39370
23740,39370
23740,38976
24448,38976
24448,39370
Z" /> 
<path style="fill:#000000; fill-opacity:1.0; 
stroke:#000000; stroke-width:0; stroke-opacity:1; 
stroke-linecap:round; stroke-linejoin:round;fill-rule:evenodd;"
d="M 24448,38385
23740,38385
23740,37992
24448,37992
24448,38385
Z" /> 
</g>
<g >
</g>
<g >
</g>
<g >
</g>
<g >
</g>
<g style="fill:#000000; fill-opacity:1.0; 
stroke:#000000; stroke-width:0; stroke-opacity:1; 
stroke-linecap:round; stroke-linejoin:round;">
<path style="fill:#000000; fill-opacity:1.0; 
stroke:#000000; stroke-width:0; stroke-opacity:1; 
stroke-linecap:round; stroke-linejoin:round;fill-rule:evenodd;"
d="M 22810,39678
22816,39679
22822,39680
22827,39682
22832,39685
22837,39688
22842,39691
22846,39695
22942,39791
22946,39795
22949,39800
22952,39805
22954,39810
22956,39815
22958,39821
22959,39826
22959,39832
22959,39838
22958,39843
22956,39849
22954,39854
22952,39859
22949,39864
22946,39869
22942,39873
22860,39955
22855,39959
22851,39962
22846,39965
22841,39968
22836,39970
22830,39971
22824,39972
22819,39972
22813,39972
22807,39971
22802,39970
22796,39968
22791,39965
22786,39962
22782,39959
22778,39955
22682,39859
22678,39855
22674,39850
22671,39846
22669,39840
22667,39835
22666,39829
22665,39824
22665,39818
22665,39812
22666,39807
22667,39801
22669,39796
22671,39791
22674,39786
22678,39781
22682,39777
22764,39695
22768,39691
22772,39688
22777,39685
22783,39682
22788,39680
22793,39679
22799,39678
22805,39678
22810,39678
Z" /> 
<path style="fill:#000000; fill-opacity:1.0; 
stroke:#000000; stroke-width:0; stroke-opacity:1; 
stroke-linecap:round; stroke-linejoin:round;fill-rule:evenodd;"
d="M 22540,39948
22546,39949
22552,39950
22557,39952
22562,39955
22567,39958
22572,39961
22576,39965
22672,40061
22676,40065
22679,40070
22682,40075
22684,40080
22686,40085
22688,40091
22689,40096
22689,40102
22689,40108
22688,40113
22686,40119
22684,40124
22682,40129
22679,40134
22676,40139
22672,40143
22590,40225
22585,40229
22581,40233
22576,40235
22571,40238
22565,40240
22560,40241
22554,40242
22549,40242
22543,40242
22537,40241
22532,40240
22526,40238
22521,40235
22516,40233
22512,40229
22508,40225
22412,40129
22408,40125
22404,40120
22401,40116
22399,40110
22397,40105
22396,40100
22395,40094
22394,40088
22395,40082
22396,40077
22397,40071
22399,40066
22401,40061
22404,40056
22408,40051
22412,40047
22494,39965
22498,39961
22502,39958
22507,39955
22512,39952
22518,39950
22523,39949
22529,39948
22535,39948
22540,39948
Z" /> 
</g>
<g >
</g>
<g style="fill:#000000; fill-opacity:1.0; 
stroke:#000000; stroke-width:0; stroke-opacity:1; 
stroke-linecap:round; stroke-linejoin:round;">
<path style="fill:#000000; fill-opacity:1.0; 
stroke:#000000; stroke-width:0; stroke-opacity:1; 
stroke-linecap:round; stroke-linejoin:round;fill-rule:evenodd;"
d="M 23125,39993
23131,39994
23137,39995
23142,39997
23147,40000
23152,40003
23157,40006
23161,40010
23257,40106
23261,40110
23264,40115
23267,40120
23269,40125
23271,40130
23273,40136
23274,40141
23274,40147
23274,40153
23273,40158
23271,40164
23269,40169
23267,40174
23264,40179
23261,40184
23257,40188
23175,40270
23170,40274
23166,40277
23161,40280
23156,40283
23150,40285
23145,40286
23139,40287
23134,40287
23128,40287
23122,40286
23117,40285
23111,40283
23106,40280
23101,40277
23097,40274
23093,40270
22996,40174
22993,40170
22989,40165
22986,40160
22984,40155
22982,40150
22981,40144
22980,40139
22979,40133
22980,40127
22981,40122
22982,40116
22984,40111
22986,40106
22989,40101
22993,40096
22996,40092
23079,40010
23083,40006
23087,40003
23092,40000
23097,39997
23103,39995
23108,39994
23114,39993
23120,39993
23125,39993
Z" /> 
<path style="fill:#000000; fill-opacity:1.0; 
stroke:#000000; stroke-width:0; stroke-opacity:1; 
stroke-linecap:round; stroke-linejoin:round;fill-rule:evenodd;"
d="M 22855,40263
22861,40264
22867,40265
22872,40267
22877,40270
22882,40273
22886,40276
22891,40280
22987,40376
22991,40380
22994,40385
22997,40390
22999,40395
23001,40400
23003,40406
23003,40411
23004,40417
23003,40423
23003,40428
23001,40434
22999,40439
22997,40444
22994,40449
22991,40454
22987,40458
22905,40540
22900,40544
22896,40547
22891,40550
22886,40553
22880,40555
22875,40556
22869,40557
22864,40557
22858,40557
22852,40556
22847,40555
22841,40553
22836,40550
22831,40547
22827,40544
22823,40540
22726,40444
22723,40440
22719,40435
22716,40431
22714,40425
22712,40420
22711,40414
22710,40409
22709,40403
22710,40397
22711,40392
22712,40386
22714,40381
22716,40376
22719,40371
22723,40366
22726,40362
22809,40280
22813,40276
22817,40273
22822,40270
22827,40267
22833,40265
22838,40264
22844,40263
22850,40263
22855,40263
Z" /> 
</g>
<g >
</g>
<g style="fill:#000000; fill-opacity:1.0; 
stroke:#000000; stroke-width:0; stroke-opacity:1; 
stroke-linecap:round; stroke-linejoin:round;">
<path style="fill:#000000; fill-opacity:1.0; 
stroke:#000000; stroke-width:0; stroke-opacity:1; 
stroke-linecap:round; stroke-linejoin:round;fill-rule:evenodd;"
d="M 20966,34397
20971,34398
20977,34399
20982,34401
20987,34404
20992,34407
20997,34410
21001,34414
21097,34510
21101,34514
21104,34519
21107,34524
21110,34529
21111,34534
21113,34540
21114,34545
21114,34551
21114,34557
21113,34562
21111,34568
21110,34573
21107,34578
21104,34583
21101,34588
21097,34592
21015,34674
21011,34678
21006,34681
21001,34684
20996,34687
20991,34689
20985,34690
20979,34691
20974,34691
20968,34691
20962,34690
20957,34689
20952,34687
20946,34684
20942,34681
20937,34678
20933,34674
20837,34578
20833,34574
20829,34569
20827,34564
20824,34559
20822,34554
20821,34548
20820,34543
20820,34537
20820,34531
20821,34526
20822,34520
20824,34515
20827,34510
20829,34505
20833,34500
20837,34496
20919,34414
20923,34410
20928,34407
20933,34404
20938,34401
20943,34399
20949,34398
20954,34397
20960,34397
20966,34397
Z" /> 
<path style="fill:#000000; fill-opacity:1.0; 
stroke:#000000; stroke-width:0; stroke-opacity:1; 
stroke-linecap:round; stroke-linejoin:round;fill-rule:evenodd;"
d="M 21236,34127
21241,34128
21247,34129
21252,34131
21257,34134
21262,34137
21267,34140
21271,34144
21367,34240
21371,34244
21374,34249
21377,34254
21380,34259
21382,34264
21383,34270
21384,34275
21384,34281
21384,34287
21383,34292
21382,34298
21380,34303
21377,34308
21374,34313
21371,34318
21367,34322
21285,34404
21281,34408
21276,34411
21271,34414
21266,34417
21261,34419
21255,34420
21250,34421
21244,34421
21238,34421
21233,34420
21227,34419
21222,34417
21216,34414
21212,34411
21207,34408
21203,34404
21107,34308
21103,34304
21100,34299
21097,34294
21094,34289
21092,34284
21091,34278
21090,34273
21090,34267
21090,34261
21091,34256
21092,34250
21094,34245
21097,34240
21100,34235
21103,34230
21107,34226
21189,34144
21193,34140
21198,34137
21203,34134
21208,34131
21213,34129
21219,34128
21224,34127
21230,34127
21236,34127
Z" /> 
</g>
<g >
</g>
<g style="fill:#000000; fill-opacity:1.0; 
stroke:#000000; stroke-width:0; stroke-opacity:1; 
stroke-linecap:round; stroke-linejoin:round;">
<path style="fill:#000000; fill-opacity:1.0; 
stroke:#000000; stroke-width:0; stroke-opacity:1; 
stroke-linecap:round; stroke-linejoin:round;fill-rule:evenodd;"
d="M 21261,34692
21266,34693
21272,34695
21277,34697
21283,34699
21287,34702
21292,34705
21296,34709
21392,34805
21396,34809
21399,34814
21402,34819
21405,34824
21407,34829
21408,34835
21409,34841
21409,34846
21409,34852
21408,34858
21407,34863
21405,34868
21402,34874
21399,34878
21396,34883
21392,34887
21310,34969
21306,34973
21301,34977
21296,34980
21291,34982
21286,34984
21280,34985
21275,34986
21269,34986
21263,34986
21258,34985
21252,34984
21247,34982
21242,34980
21237,34977
21232,34973
21228,34969
21132,34873
21128,34869
21125,34865
21122,34860
21119,34855
21117,34849
21116,34844
21115,34838
21115,34832
21115,34827
21116,34821
21117,34815
21119,34810
21122,34805
21125,34800
21128,34795
21132,34791
21214,34709
21218,34705
21223,34702
21228,34699
21233,34697
21238,34695
21244,34693
21249,34692
21255,34692
21261,34692
Z" /> 
<path style="fill:#000000; fill-opacity:1.0; 
stroke:#000000; stroke-width:0; stroke-opacity:1; 
stroke-linecap:round; stroke-linejoin:round;fill-rule:evenodd;"
d="M 21531,34422
21537,34423
21542,34425
21547,34426
21553,34429
21557,34432
21562,34435
21566,34439
21662,34535
21666,34539
21670,34544
21672,34549
21675,34554
21677,34559
21678,34565
21679,34570
21679,34576
21679,34582
21678,34587
21677,34593
21675,34598
21672,34604
21670,34608
21666,34613
21662,34617
21580,34699
21576,34703
21571,34707
21566,34710
21561,34712
21556,34714
21550,34715
21545,34716
21539,34716
21533,34716
21528,34715
21522,34714
21517,34712
21512,34710
21507,34707
21502,34703
21498,34699
21402,34603
21398,34599
21395,34595
21392,34590
21389,34584
21388,34579
21386,34574
21385,34568
21385,34562
21385,34557
21386,34551
21388,34545
21389,34540
21392,34535
21395,34530
21398,34525
21402,34521
21484,34439
21488,34435
21493,34432
21498,34429
21503,34426
21508,34425
21514,34423
21520,34422
21525,34422
21531,34422
Z" /> 
</g>
<g >
</g>
<g style="fill:#000000; fill-opacity:1.0; 
stroke:#000000; stroke-width:0; stroke-opacity:1; 
stroke-linecap:round; stroke-linejoin:round;">
<path style="fill:#000000; fill-opacity:1.0; 
stroke:#000000; stroke-width:0; stroke-opacity:1; 
stroke-linecap:round; stroke-linejoin:round;fill-rule:evenodd;"
d="M 21452,39718
21458,39718
21463,39720
21468,39722
21474,39724
21479,39727
21483,39731
21487,39734
21569,39816
21573,39821
21577,39825
21580,39830
21582,39835
21584,39841
21585,39846
21586,39852
21586,39858
21586,39863
21585,39869
21584,39874
21582,39880
21580,39885
21577,39890
21573,39894
21569,39899
21473,39995
21469,39998
21465,40002
21460,40005
21455,40007
21449,40009
21444,40011
21438,40011
21432,40012
21427,40011
21421,40011
21415,40009
21410,40007
21405,40005
21400,40002
21395,39998
21391,39995
21309,39913
21305,39908
21302,39904
21299,39899
21297,39894
21295,39888
21293,39883
21292,39877
21292,39871
21292,39866
21293,39860
21295,39855
21297,39849
21299,39844
21302,39839
21305,39835
21309,39830
21405,39734
21409,39731
21414,39727
21419,39724
21424,39722
21429,39720
21435,39718
21441,39718
21446,39717
21452,39718
Z" /> 
<path style="fill:#000000; fill-opacity:1.0; 
stroke:#000000; stroke-width:0; stroke-opacity:1; 
stroke-linecap:round; stroke-linejoin:round;fill-rule:evenodd;"
d="M 21722,39988
21728,39988
21733,39990
21739,39992
21744,39994
21749,39997
21753,40001
21757,40004
21839,40086
21843,40091
21847,40095
21850,40100
21852,40105
21854,40111
21855,40116
21856,40122
21856,40128
21856,40133
21855,40139
21854,40144
21852,40150
21850,40155
21847,40160
21843,40164
21839,40169
21743,40265
21739,40268
21735,40272
21730,40275
21725,40277
21719,40279
21714,40281
21708,40281
21702,40282
21697,40281
21691,40281
21686,40279
21680,40277
21675,40275
21670,40272
21666,40268
21661,40265
21579,40183
21575,40178
21572,40174
21569,40169
21567,40164
21565,40158
21563,40153
21562,40147
21562,40141
21562,40136
21563,40130
21565,40125
21567,40119
21569,40114
21572,40109
21575,40105
21579,40100
21675,40004
21679,40001
21684,39997
21689,39994
21694,39992
21699,39990
21705,39988
21711,39988
21716,39987
21722,39988
Z" /> 
</g>
<g >
</g>
<g style="fill:#000000; fill-opacity:1.0; 
stroke:#000000; stroke-width:0; stroke-opacity:1; 
stroke-linecap:round; stroke-linejoin:round;">
<path style="fill:#000000; fill-opacity:1.0; 
stroke:#000000; stroke-width:0; stroke-opacity:1; 
stroke-linecap:round; stroke-linejoin:round;fill-rule:evenodd;"
d="M 24321,37275
24327,37276
24332,37278
24338,37280
24343,37282
24348,37285
24352,37288
24357,37292
24360,37296
24364,37301
24367,37306
24369,37311
24371,37316
24372,37322
24373,37327
24374,37333
24374,37469
24373,37475
24372,37480
24371,37486
24369,37491
24367,37496
24364,37501
24360,37506
24357,37510
24352,37514
24348,37517
24343,37520
24338,37523
24332,37525
24327,37526
24321,37527
24315,37527
24199,37527
24194,37527
24188,37526
24182,37525
24177,37523
24172,37520
24167,37517
24162,37514
24158,37510
24154,37506
24151,37501
24148,37496
24146,37491
24144,37486
24142,37480
24142,37475
24141,37469
24141,37333
24142,37327
24142,37322
24144,37316
24146,37311
24148,37306
24151,37301
24154,37296
24158,37292
24162,37288
24167,37285
24172,37282
24177,37280
24182,37278
24188,37276
24194,37275
24199,37275
24315,37275
24321,37275
Z" /> 
<path style="fill:#000000; fill-opacity:1.0; 
stroke:#000000; stroke-width:0; stroke-opacity:1; 
stroke-linecap:round; stroke-linejoin:round;fill-rule:evenodd;"
d="M 24703,37275
24709,37276
24714,37278
24720,37280
24725,37282
24730,37285
24734,37288
24738,37292
24742,37296
24746,37301
24749,37306
24751,37311
24753,37316
24754,37322
24755,37327
24755,37333
24755,37469
24755,37475
24754,37480
24753,37486
24751,37491
24749,37496
24746,37501
24742,37506
24738,37510
24734,37514
24730,37517
24725,37520
24720,37523
24714,37525
24709,37526
24703,37527
24697,37527
24581,37527
24576,37527
24570,37526
24564,37525
24559,37523
24554,37520
24549,37517
24544,37514
24540,37510
24536,37506
24533,37501
24530,37496
24528,37491
24526,37486
24524,37480
24523,37475
24523,37469
24523,37333
24523,37327
24524,37322
24526,37316
24528,37311
24530,37306
24533,37301
24536,37296
24540,37292
24544,37288
24549,37285
24554,37282
24559,37280
24564,37278
24570,37276
24576,37275
24581,37275
24697,37275
24703,37275
Z" /> 
</g>
<g >
</g>
<g style="fill:#000000; fill-opacity:1.0; 
stroke:#000000; stroke-width:0; stroke-opacity:1; 
stroke-linecap:round; stroke-linejoin:round;">
<path style="fill:#000000; fill-opacity:1.0; 
stroke:#000000; stroke-width:0; stroke-opacity:1; 
stroke-linecap:round; stroke-linejoin:round;fill-rule:evenodd;"
d="M 19242,38137
19247,38138
19253,38139
19258,38141
19263,38144
19268,38147
19273,38150
19277,38154
19359,38236
19363,38240
19366,38245
19369,38250
19372,38255
19374,38260
19375,38266
19376,38271
19376,38277
19376,38283
19375,38288
19374,38294
19372,38299
19369,38305
19366,38309
19363,38314
19359,38318
19263,38414
19259,38418
19254,38421
19249,38424
19244,38427
19239,38429
19233,38430
19228,38431
19222,38431
19216,38431
19211,38430
19205,38429
19200,38427
19195,38424
19190,38421
19185,38418
19181,38414
19099,38332
19095,38328
19092,38323
19089,38318
19086,38313
19084,38308
19083,38302
19082,38297
19082,38291
19082,38285
19083,38280
19084,38274
19086,38269
19089,38264
19092,38259
19095,38254
19099,38250
19195,38154
19199,38150
19204,38147
19209,38144
19214,38141
19219,38139
19225,38138
19230,38137
19236,38137
19242,38137
Z" /> 
<path style="fill:#000000; fill-opacity:1.0; 
stroke:#000000; stroke-width:0; stroke-opacity:1; 
stroke-linecap:round; stroke-linejoin:round;fill-rule:evenodd;"
d="M 18972,37867
18977,37868
18983,37869
18988,37871
18993,37874
18998,37877
19003,37880
19007,37884
19089,37966
19093,37970
19096,37975
19099,37980
19102,37985
19104,37990
19105,37996
19106,38001
19106,38007
19106,38013
19105,38018
19104,38024
19102,38029
19099,38035
19096,38039
19093,38044
19089,38048
18993,38144
18989,38148
18984,38151
18979,38154
18974,38157
18969,38159
18963,38160
18958,38161
18952,38161
18946,38161
18941,38160
18935,38159
18930,38157
18925,38154
18920,38151
18915,38148
18911,38144
18829,38062
18825,38058
18822,38053
18819,38048
18816,38043
18814,38038
18813,38032
18812,38027
18812,38021
18812,38015
18813,38010
18814,38004
18816,37999
18819,37994
18822,37989
18825,37984
18829,37980
18925,37884
18929,37880
18934,37877
18939,37874
18944,37871
18949,37869
18955,37868
18960,37867
18966,37867
18972,37867
Z" /> 
</g>
<g >
</g>
<g style="fill:#000000; fill-opacity:1.0; 
stroke:#000000; stroke-width:0; stroke-opacity:1; 
stroke-linecap:round; stroke-linejoin:round;">
<path style="fill:#000000; fill-opacity:1.0; 
stroke:#000000; stroke-width:0; stroke-opacity:1; 
stroke-linecap:round; stroke-linejoin:round;fill-rule:evenodd;"
d="M 17774,45346
17780,45347
17785,45348
17790,45350
17796,45353
17800,45356
17805,45359
17809,45363
17813,45367
17816,45372
17819,45377
17822,45382
17824,45387
17825,45393
17826,45398
17826,45404
17826,45540
17826,45546
17825,45551
17824,45557
17822,45562
17819,45567
17816,45572
17813,45577
17809,45581
17805,45585
17800,45588
17796,45591
17790,45594
17785,45595
17780,45597
17774,45598
17768,45598
17652,45598
17646,45598
17641,45597
17635,45595
17630,45594
17625,45591
17620,45588
17615,45585
17611,45581
17607,45577
17604,45572
17601,45567
17598,45562
17596,45557
17595,45551
17594,45546
17594,45540
17594,45404
17594,45398
17595,45393
17596,45387
17598,45382
17601,45377
17604,45372
17607,45367
17611,45363
17615,45359
17620,45356
17625,45353
17630,45350
17635,45348
17641,45347
17646,45346
17652,45346
17768,45346
17774,45346
Z" /> 
<path style="fill:#000000; fill-opacity:1.0; 
stroke:#000000; stroke-width:0; stroke-opacity:1; 
stroke-linecap:round; stroke-linejoin:round;fill-rule:evenodd;"
d="M 17392,45346
17398,45347
17403,45348
17409,45350
17414,45353
17419,45356
17423,45359
17427,45363
17431,45367
17435,45372
17438,45377
17440,45382
17442,45387
17443,45393
17444,45398
17444,45404
17444,45540
17444,45546
17443,45551
17442,45557
17440,45562
17438,45567
17435,45572
17431,45577
17427,45581
17423,45585
17419,45588
17414,45591
17409,45594
17403,45595
17398,45597
17392,45598
17386,45598
17270,45598
17264,45598
17259,45597
17253,45595
17248,45594
17243,45591
17238,45588
17233,45585
17229,45581
17225,45577
17222,45572
17219,45567
17217,45562
17215,45557
17213,45551
17212,45546
17212,45540
17212,45404
17212,45398
17213,45393
17215,45387
17217,45382
17219,45377
17222,45372
17225,45367
17229,45363
17233,45359
17238,45356
17243,45353
17248,45350
17253,45348
17259,45347
17264,45346
17270,45346
17386,45346
17392,45346
Z" /> 
</g>
<g >
</g>
<g style="fill:#000000; fill-opacity:1.0; 
stroke:#000000; stroke-width:0; stroke-opacity:1; 
stroke-linecap:round; stroke-linejoin:round;">
<path style="fill:#000000; fill-opacity:1.0; 
stroke:#000000; stroke-width:0; stroke-opacity:1; 
stroke-linecap:round; stroke-linejoin:round;fill-rule:evenodd;"
d="M 25112,45953
25118,45953
25124,45955
25129,45957
25134,45959
25139,45962
25144,45965
25148,45969
25152,45973
25155,45978
25158,45983
25160,45988
25162,45993
25164,45999
25165,46005
25165,46010
25165,46126
25165,46132
25164,46138
25162,46143
25160,46149
25158,46154
25155,46159
25152,46163
25148,46168
25144,46171
25139,46175
25134,46178
25129,46180
25124,46182
25118,46183
25112,46184
25107,46185
24971,46185
24965,46184
24960,46183
24954,46182
24949,46180
24944,46178
24939,46175
24934,46171
24930,46168
24926,46163
24923,46159
24920,46154
24917,46149
24915,46143
24914,46138
24913,46132
24913,46126
24913,46010
24913,46005
24914,45999
24915,45993
24917,45988
24920,45983
24923,45978
24926,45973
24930,45969
24934,45965
24939,45962
24944,45959
24949,45957
24954,45955
24960,45953
24965,45953
24971,45952
25107,45952
25112,45953
Z" /> 
<path style="fill:#000000; fill-opacity:1.0; 
stroke:#000000; stroke-width:0; stroke-opacity:1; 
stroke-linecap:round; stroke-linejoin:round;fill-rule:evenodd;"
d="M 25112,46334
25118,46335
25124,46337
25129,46339
25134,46341
25139,46344
25144,46347
25148,46351
25152,46355
25155,46360
25158,46365
25160,46370
25162,46375
25164,46381
25165,46387
25165,46392
25165,46508
25165,46514
25164,46520
25162,46525
25160,46531
25158,46536
25155,46541
25152,46545
25148,46549
25144,46553
25139,46557
25134,46560
25129,46562
25124,46564
25118,46565
25112,46566
25107,46566
24971,46566
24965,46566
24960,46565
24954,46564
24949,46562
24944,46560
24939,46557
24934,46553
24930,46549
24926,46545
24923,46541
24920,46536
24917,46531
24915,46525
24914,46520
24913,46514
24913,46508
24913,46392
24913,46387
24914,46381
24915,46375
24917,46370
24920,46365
24923,46360
24926,46355
24930,46351
24934,46347
24939,46344
24944,46341
24949,46339
24954,46337
24960,46335
24965,46334
24971,46334
25107,46334
25112,46334
Z" /> 
</g>
<g >
</g>
<g style="fill:#000000; fill-opacity:1.0; 
stroke:#000000; stroke-width:0; stroke-opacity:1; 
stroke-linecap:round; stroke-linejoin:round;">
<path style="fill:#000000; fill-opacity:1.0; 
stroke:#000000; stroke-width:0; stroke-opacity:1; 
stroke-linecap:round; stroke-linejoin:round;fill-rule:evenodd;"
d="M 16294,31374
16299,31375
16305,31376
16310,31378
16315,31380
16320,31383
16325,31387
16329,31391
16333,31395
16336,31399
16339,31404
16342,31409
16343,31415
16345,31420
16346,31426
16346,31432
16346,31548
16346,31553
16345,31559
16343,31565
16342,31570
16339,31575
16336,31580
16333,31585
16329,31589
16325,31593
16320,31596
16315,31599
16310,31601
16305,31603
16299,31605
16294,31606
16288,31606
16152,31606
16146,31606
16141,31605
16135,31603
16130,31601
16125,31599
16120,31596
16115,31593
16111,31589
16107,31585
16104,31580
16101,31575
16098,31570
16096,31565
16095,31559
16094,31553
16094,31548
16094,31432
16094,31426
16095,31420
16096,31415
16098,31409
16101,31404
16104,31399
16107,31395
16111,31391
16115,31387
16120,31383
16125,31380
16130,31378
16135,31376
16141,31375
16146,31374
16152,31374
16288,31374
16294,31374
Z" /> 
<path style="fill:#000000; fill-opacity:1.0; 
stroke:#000000; stroke-width:0; stroke-opacity:1; 
stroke-linecap:round; stroke-linejoin:round;fill-rule:evenodd;"
d="M 16294,30992
16299,30993
16305,30994
16310,30996
16315,30998
16320,31001
16325,31005
16329,31009
16333,31013
16336,31017
16339,31022
16342,31027
16343,31033
16345,31038
16346,31044
16346,31050
16346,31166
16346,31172
16345,31177
16343,31183
16342,31188
16339,31193
16336,31198
16333,31203
16329,31207
16325,31211
16320,31214
16315,31217
16310,31219
16305,31221
16299,31223
16294,31224
16288,31224
16152,31224
16146,31224
16141,31223
16135,31221
16130,31219
16125,31217
16120,31214
16115,31211
16111,31207
16107,31203
16104,31198
16101,31193
16098,31188
16096,31183
16095,31177
16094,31172
16094,31166
16094,31050
16094,31044
16095,31038
16096,31033
16098,31027
16101,31022
16104,31017
16107,31013
16111,31009
16115,31005
16120,31001
16125,30998
16130,30996
16135,30994
16141,30993
16146,30992
16152,30992
16288,30992
16294,30992
Z" /> 
</g>
<g >
</g>
<g >
</g>
<g >
</g>
</g> 
</svg>
