  0
SECTION
  2
HEADER
  9
$ANGBASE
  50
0.0
  9
$ANGDIR
  70
1
  9
$MEASUREMENT
  70
1
  0
ENDSEC
  0
SECTION
  2
TABLES
  0
TABLE
  2
LTYPE
  70
4
  0
LTYPE
  5
40F
  2
CONTINUOUS
  70
0
  3
Solid line
  72
65
  73
0
  40
0.0
  0
LTYPE
  5
410
  2
DASHDOT
 70
0
  3
Dash Dot ____ _ ____ _
 72
65
 73
4
 40
2.0
 49
1.25
 49
-0.25
 49
0.25
 49
-0.25
  0
LTYPE
  5
411
  2
DASHED
 70
0
  3
Dashed __ __ __ __ __
 72
65
 73
2
 40
0.75
 49
0.5
 49
-0.25
  0
LTYPE
  5
43B
  2
DOTTED
 70
0
  3
Dotted .  .  .  .
 72
65
 73
2
 40
0.2
 49
0.0
 49
-0.2
  0
ENDTAB
  0
TABLE
  2
STYLE
  70
4
  0
STYLE
  2
KICAD
  70
0
  40
0
  41
1
  42
1
  50
0
  71
0
  3
isocp.shx
  0
STYLE
  2
KICADB
  70
0
  40
0
  41
1
  42
1
  50
0
  71
0
  3
isocp.shx
  0
STYLE
  2
KICADI
  70
0
  40
0
  41
1
  42
1
  50
15
  71
0
  3
isocp.shx
  0
STYLE
  2
KICADBI
  70
0
  40
0
  41
1
  42
1
  50
15
  71
0
  3
isocp.shx
  0
ENDTAB
  0
TABLE
  2
LAYER
  70
1
  0
LAYER
  2
BLACK
  70
0
  62
7
  6
CONTINUOUS
  0
ENDTAB
  0
ENDSEC
  0
SECTION
  2
ENTITIES
0
LINE
8
BLACK
6
CONTINUOUS
10
44.1123
20
-129.946
11
44.1095
21
-129.945
0
LINE
8
BLACK
6
CONTINUOUS
10
44.1095
20
-129.945
11
44.1088
21
-129.945
0
LINE
8
BLACK
6
CONTINUOUS
10
44.1088
20
-129.945
11
44.108
21
-129.945
0
LINE
8
BLACK
6
CONTINUOUS
10
44.108
20
-129.945
11
43.2505
21
-129.711
0
LINE
8
BLACK
6
CONTINUOUS
10
43.2505
20
-129.711
11
43.2478
21
-129.71
0
LINE
8
BLACK
6
CONTINUOUS
10
43.2478
20
-129.71
11
43.2471
21
-129.709
0
LINE
8
BLACK
6
CONTINUOUS
10
43.2471
20
-129.709
11
43.2464
21
-129.709
0
LINE
8
BLACK
6
CONTINUOUS
10
43.2464
20
-129.709
11
42.444
21
-129.326
0
LINE
8
BLACK
6
CONTINUOUS
10
42.444
20
-129.326
11
42.4415
21
-129.325
0
LINE
8
BLACK
6
CONTINUOUS
10
42.4415
20
-129.325
11
42.4409
21
-129.324
0
LINE
8
BLACK
6
CONTINUOUS
10
42.4409
20
-129.324
11
42.4402
21
-129.324
0
LINE
8
BLACK
6
CONTINUOUS
10
42.4402
20
-129.324
11
41.7183
21
-128.805
0
LINE
8
BLACK
6
CONTINUOUS
10
41.7183
20
-128.805
11
41.7161
21
-128.803
0
LINE
8
BLACK
6
CONTINUOUS
10
41.7161
20
-128.803
11
41.7155
21
-128.803
0
LINE
8
BLACK
6
CONTINUOUS
10
41.7155
20
-128.803
11
41.7149
21
-128.802
0
LINE
8
BLACK
6
CONTINUOUS
10
41.7149
20
-128.802
11
41.0963
21
-128.164
0
LINE
8
BLACK
6
CONTINUOUS
10
41.0963
20
-128.164
11
41.0944
21
-128.162
0
LINE
8
BLACK
6
CONTINUOUS
10
41.0944
20
-128.162
11
41.094
21
-128.161
0
LINE
8
BLACK
6
CONTINUOUS
10
41.094
20
-128.161
11
41.0935
21
-128.161
0
LINE
8
BLACK
6
CONTINUOUS
10
41.0935
20
-128.161
11
40.5977
21
-127.423
0
LINE
8
BLACK
6
CONTINUOUS
10
40.5977
20
-127.423
11
40.5963
21
-127.42
0
LINE
8
BLACK
6
CONTINUOUS
10
40.5963
20
-127.42
11
40.596
21
-127.42
0
LINE
8
BLACK
6
CONTINUOUS
10
40.596
20
-127.42
11
40.5956
21
-127.419
0
LINE
8
BLACK
6
CONTINUOUS
10
40.5956
20
-127.419
11
40.2383
21
-126.605
0
LINE
8
BLACK
6
CONTINUOUS
10
40.2383
20
-126.605
11
40.2373
21
-126.602
0
LINE
8
BLACK
6
CONTINUOUS
10
40.2373
20
-126.602
11
40.2371
21
-126.601
0
LINE
8
BLACK
6
CONTINUOUS
10
40.2371
20
-126.601
11
40.2368
21
-126.601
0
LINE
8
BLACK
6
CONTINUOUS
10
40.2368
20
-126.601
11
40.0293
21
-125.736
0
LINE
8
BLACK
6
CONTINUOUS
10
40.0293
20
-125.736
11
40.0288
21
-125.733
0
LINE
8
BLACK
6
CONTINUOUS
10
40.0288
20
-125.733
11
40.0288
21
-125.733
0
LINE
8
BLACK
6
CONTINUOUS
10
40.0288
20
-125.733
11
40.0287
21
-125.732
0
LINE
8
BLACK
6
CONTINUOUS
10
40.0287
20
-125.732
11
39.9751
21
-125.002
0
LINE
8
BLACK
6
CONTINUOUS
10
39.9751
20
-125.002
11
39.975
21
-125.001
0
LINE
8
BLACK
6
CONTINUOUS
10
39.975
20
-125.001
11
39.975
21
-64.9988
0
LINE
8
BLACK
6
CONTINUOUS
10
39.975
20
-64.9988
11
39.9751
21
-64.9978
0
LINE
8
BLACK
6
CONTINUOUS
10
39.9751
20
-64.9978
11
40.0541
21
-64.1124
0
LINE
8
BLACK
6
CONTINUOUS
10
40.0541
20
-64.1124
11
40.0545
21
-64.1095
0
LINE
8
BLACK
6
CONTINUOUS
10
40.0545
20
-64.1095
11
40.0548
21
-64.1088
0
LINE
8
BLACK
6
CONTINUOUS
10
40.0548
20
-64.1088
11
40.0549
21
-64.108
0
LINE
8
BLACK
6
CONTINUOUS
10
40.0549
20
-64.108
11
40.2895
21
-63.2505
0
LINE
8
BLACK
6
CONTINUOUS
10
40.2895
20
-63.2505
11
40.2904
21
-63.2478
0
LINE
8
BLACK
6
CONTINUOUS
10
40.2904
20
-63.2478
11
40.2907
21
-63.2471
0
LINE
8
BLACK
6
CONTINUOUS
10
40.2907
20
-63.2471
11
40.291
21
-63.2464
0
LINE
8
BLACK
6
CONTINUOUS
10
40.291
20
-63.2464
11
40.6737
21
-62.444
0
LINE
8
BLACK
6
CONTINUOUS
10
40.6737
20
-62.444
11
40.6751
21
-62.4415
0
LINE
8
BLACK
6
CONTINUOUS
10
40.6751
20
-62.4415
11
40.6756
21
-62.4409
0
LINE
8
BLACK
6
CONTINUOUS
10
40.6756
20
-62.4409
11
40.676
21
-62.4402
0
LINE
8
BLACK
6
CONTINUOUS
10
40.676
20
-62.4402
11
41.1947
21
-61.7183
0
LINE
8
BLACK
6
CONTINUOUS
10
41.1947
20
-61.7183
11
41.1947
21
-61.7183
0
LINE
8
BLACK
6
CONTINUOUS
10
41.1947
20
-61.7183
11
41.1947
21
-61.7183
0
LINE
8
BLACK
6
CONTINUOUS
10
41.1947
20
-61.7183
11
41.1965
21
-61.7161
0
LINE
8
BLACK
6
CONTINUOUS
10
41.1965
20
-61.7161
11
41.1971
21
-61.7155
0
LINE
8
BLACK
6
CONTINUOUS
10
41.1971
20
-61.7155
11
41.1976
21
-61.7149
0
LINE
8
BLACK
6
CONTINUOUS
10
41.1976
20
-61.7149
11
41.836
21
-61.0963
0
LINE
8
BLACK
6
CONTINUOUS
10
41.836
20
-61.0963
11
41.8382
21
-61.0944
0
LINE
8
BLACK
6
CONTINUOUS
10
41.8382
20
-61.0944
11
41.8388
21
-61.094
0
LINE
8
BLACK
6
CONTINUOUS
10
41.8388
20
-61.094
11
41.8395
21
-61.0935
0
LINE
8
BLACK
6
CONTINUOUS
10
41.8395
20
-61.0935
11
42.5773
21
-60.5977
0
LINE
8
BLACK
6
CONTINUOUS
10
42.5773
20
-60.5977
11
42.5798
21
-60.5963
0
LINE
8
BLACK
6
CONTINUOUS
10
42.5798
20
-60.5963
11
42.5805
21
-60.596
0
LINE
8
BLACK
6
CONTINUOUS
10
42.5805
20
-60.596
11
42.5812
21
-60.5956
0
LINE
8
BLACK
6
CONTINUOUS
10
42.5812
20
-60.5956
11
43.3951
21
-60.2383
0
LINE
8
BLACK
6
CONTINUOUS
10
43.3951
20
-60.2383
11
43.3952
21
-60.2383
0
LINE
8
BLACK
6
CONTINUOUS
10
43.3952
20
-60.2383
11
43.3952
21
-60.2383
0
LINE
8
BLACK
6
CONTINUOUS
10
43.3952
20
-60.2383
11
43.3979
21
-60.2373
0
LINE
8
BLACK
6
CONTINUOUS
10
43.3979
20
-60.2373
11
43.3986
21
-60.2371
0
LINE
8
BLACK
6
CONTINUOUS
10
43.3986
20
-60.2371
11
43.3994
21
-60.2368
0
LINE
8
BLACK
6
CONTINUOUS
10
43.3994
20
-60.2368
11
44.2637
21
-60.0293
0
LINE
8
BLACK
6
CONTINUOUS
10
44.2637
20
-60.0293
11
44.2666
21
-60.0288
0
LINE
8
BLACK
6
CONTINUOUS
10
44.2666
20
-60.0288
11
44.2672
21
-60.0288
0
LINE
8
BLACK
6
CONTINUOUS
10
44.2672
20
-60.0288
11
44.2678
21
-60.0287
0
LINE
8
BLACK
6
CONTINUOUS
10
44.2678
20
-60.0287
11
44.9979
21
-59.9751
0
LINE
8
BLACK
6
CONTINUOUS
10
44.9979
20
-59.9751
11
44.9988
21
-59.975
0
LINE
8
BLACK
6
CONTINUOUS
10
44.9988
20
-59.975
11
65.0012
21
-59.975
0
LINE
8
BLACK
6
CONTINUOUS
10
65.0012
20
-59.975
11
65.0022
21
-59.9751
0
LINE
8
BLACK
6
CONTINUOUS
10
65.0022
20
-59.9751
11
65.8876
21
-60.0541
0
LINE
8
BLACK
6
CONTINUOUS
10
65.8876
20
-60.0541
11
65.8876
21
-60.0541
0
LINE
8
BLACK
6
CONTINUOUS
10
65.8876
20
-60.0541
11
65.8877
21
-60.0541
0
LINE
8
BLACK
6
CONTINUOUS
10
65.8877
20
-60.0541
11
65.8905
21
-60.0545
0
LINE
8
BLACK
6
CONTINUOUS
10
65.8905
20
-60.0545
11
65.8912
21
-60.0548
0
LINE
8
BLACK
6
CONTINUOUS
10
65.8912
20
-60.0548
11
65.892
21
-60.0549
0
LINE
8
BLACK
6
CONTINUOUS
10
65.892
20
-60.0549
11
66.7495
21
-60.2895
0
LINE
8
BLACK
6
CONTINUOUS
10
66.7495
20
-60.2895
11
66.7495
21
-60.2895
0
LINE
8
BLACK
6
CONTINUOUS
10
66.7495
20
-60.2895
11
66.7495
21
-60.2895
0
LINE
8
BLACK
6
CONTINUOUS
10
66.7495
20
-60.2895
11
66.7522
21
-60.2904
0
LINE
8
BLACK
6
CONTINUOUS
10
66.7522
20
-60.2904
11
66.7529
21
-60.2907
0
LINE
8
BLACK
6
CONTINUOUS
10
66.7529
20
-60.2907
11
66.7536
21
-60.291
0
LINE
8
BLACK
6
CONTINUOUS
10
66.7536
20
-60.291
11
67.556
21
-60.6737
0
LINE
8
BLACK
6
CONTINUOUS
10
67.556
20
-60.6737
11
67.5585
21
-60.6751
0
LINE
8
BLACK
6
CONTINUOUS
10
67.5585
20
-60.6751
11
67.5591
21
-60.6756
0
LINE
8
BLACK
6
CONTINUOUS
10
67.5591
20
-60.6756
11
67.5598
21
-60.676
0
LINE
8
BLACK
6
CONTINUOUS
10
67.5598
20
-60.676
11
68.2817
21
-61.1947
0
LINE
8
BLACK
6
CONTINUOUS
10
68.2817
20
-61.1947
11
68.2817
21
-61.1947
0
LINE
8
BLACK
6
CONTINUOUS
10
68.2817
20
-61.1947
11
68.2817
21
-61.1947
0
LINE
8
BLACK
6
CONTINUOUS
10
68.2817
20
-61.1947
11
68.2839
21
-61.1965
0
LINE
8
BLACK
6
CONTINUOUS
10
68.2839
20
-61.1965
11
68.2845
21
-61.1971
0
LINE
8
BLACK
6
CONTINUOUS
10
68.2845
20
-61.1971
11
68.2851
21
-61.1976
0
LINE
8
BLACK
6
CONTINUOUS
10
68.2851
20
-61.1976
11
68.9037
21
-61.836
0
LINE
8
BLACK
6
CONTINUOUS
10
68.9037
20
-61.836
11
68.9056
21
-61.8382
0
LINE
8
BLACK
6
CONTINUOUS
10
68.9056
20
-61.8382
11
68.906
21
-61.8388
0
LINE
8
BLACK
6
CONTINUOUS
10
68.906
20
-61.8388
11
68.9065
21
-61.8395
0
LINE
8
BLACK
6
CONTINUOUS
10
68.9065
20
-61.8395
11
69.4023
21
-62.5773
0
LINE
8
BLACK
6
CONTINUOUS
10
69.4023
20
-62.5773
11
69.4037
21
-62.5798
0
LINE
8
BLACK
6
CONTINUOUS
10
69.4037
20
-62.5798
11
69.404
21
-62.5805
0
LINE
8
BLACK
6
CONTINUOUS
10
69.404
20
-62.5805
11
69.4044
21
-62.5812
0
LINE
8
BLACK
6
CONTINUOUS
10
69.4044
20
-62.5812
11
69.7617
21
-63.3951
0
LINE
8
BLACK
6
CONTINUOUS
10
69.7617
20
-63.3951
11
69.7617
21
-63.3952
0
LINE
8
BLACK
6
CONTINUOUS
10
69.7617
20
-63.3952
11
69.7617
21
-63.3952
0
LINE
8
BLACK
6
CONTINUOUS
10
69.7617
20
-63.3952
11
69.7627
21
-63.3979
0
LINE
8
BLACK
6
CONTINUOUS
10
69.7627
20
-63.3979
11
69.7629
21
-63.3986
0
LINE
8
BLACK
6
CONTINUOUS
10
69.7629
20
-63.3986
11
69.7632
21
-63.3994
0
LINE
8
BLACK
6
CONTINUOUS
10
69.7632
20
-63.3994
11
69.9707
21
-64.2637
0
LINE
8
BLACK
6
CONTINUOUS
10
69.9707
20
-64.2637
11
69.9712
21
-64.2666
0
LINE
8
BLACK
6
CONTINUOUS
10
69.9712
20
-64.2666
11
69.9712
21
-64.2672
0
LINE
8
BLACK
6
CONTINUOUS
10
69.9712
20
-64.2672
11
69.9713
21
-64.2678
0
LINE
8
BLACK
6
CONTINUOUS
10
69.9713
20
-64.2678
11
70.0249
21
-64.9979
0
LINE
8
BLACK
6
CONTINUOUS
10
70.0249
20
-64.9979
11
70.025
21
-64.9988
0
LINE
8
BLACK
6
CONTINUOUS
10
70.025
20
-64.9988
11
70.025
21
-79.1988
0
LINE
8
BLACK
6
CONTINUOUS
10
70.025
20
-79.1988
11
70.0251
21
-79.2
0
LINE
8
BLACK
6
CONTINUOUS
10
70.0251
20
-79.2
11
70.025
21
-79.2012
0
LINE
8
BLACK
6
CONTINUOUS
10
70.025
20
-79.2012
11
70.0246
21
-79.2049
0
LINE
8
BLACK
6
CONTINUOUS
10
70.0246
20
-79.2049
11
70.0232
21
-79.2096
0
LINE
8
BLACK
6
CONTINUOUS
10
70.0232
20
-79.2096
11
70.0209
21
-79.214
0
LINE
8
BLACK
6
CONTINUOUS
10
70.0209
20
-79.214
11
70.0178
21
-79.2178
0
LINE
8
BLACK
6
CONTINUOUS
10
70.0178
20
-79.2178
11
70.014
21
-79.2209
0
LINE
8
BLACK
6
CONTINUOUS
10
70.014
20
-79.2209
11
70.0096
21
-79.2232
0
LINE
8
BLACK
6
CONTINUOUS
10
70.0096
20
-79.2232
11
70.0049
21
-79.2246
0
LINE
8
BLACK
6
CONTINUOUS
10
70.0049
20
-79.2246
11
70
21
-79.2251
0
LINE
8
BLACK
6
CONTINUOUS
10
70
20
-79.2251
11
69.9988
21
-79.225
0
LINE
8
BLACK
6
CONTINUOUS
10
69.9988
20
-79.225
11
69.025
21
-79.225
0
LINE
8
BLACK
6
CONTINUOUS
10
69.025
20
-79.225
11
69.025
21
-87.575
0
LINE
8
BLACK
6
CONTINUOUS
10
69.025
20
-87.575
11
69.9988
21
-87.575
0
LINE
8
BLACK
6
CONTINUOUS
10
69.9988
20
-87.575
11
70
21
-87.5749
0
LINE
8
BLACK
6
CONTINUOUS
10
70
20
-87.5749
11
70.0012
21
-87.575
0
LINE
8
BLACK
6
CONTINUOUS
10
70.0012
20
-87.575
11
70.0012
21
-87.575
0
LINE
8
BLACK
6
CONTINUOUS
10
70.0012
20
-87.575
11
70.0049
21
-87.5754
0
LINE
8
BLACK
6
CONTINUOUS
10
70.0049
20
-87.5754
11
70.0096
21
-87.5768
0
LINE
8
BLACK
6
CONTINUOUS
10
70.0096
20
-87.5768
11
70.014
21
-87.5791
0
LINE
8
BLACK
6
CONTINUOUS
10
70.014
20
-87.5791
11
70.0178
21
-87.5822
0
LINE
8
BLACK
6
CONTINUOUS
10
70.0178
20
-87.5822
11
70.0209
21
-87.586
0
LINE
8
BLACK
6
CONTINUOUS
10
70.0209
20
-87.586
11
70.0232
21
-87.5904
0
LINE
8
BLACK
6
CONTINUOUS
10
70.0232
20
-87.5904
11
70.0246
21
-87.5951
0
LINE
8
BLACK
6
CONTINUOUS
10
70.0246
20
-87.5951
11
70.0251
21
-87.6
0
LINE
8
BLACK
6
CONTINUOUS
10
70.0251
20
-87.6
11
70.025
21
-87.6012
0
LINE
8
BLACK
6
CONTINUOUS
10
70.025
20
-87.6012
11
70.025
21
-125.001
0
LINE
8
BLACK
6
CONTINUOUS
10
70.025
20
-125.001
11
70.0249
21
-125.002
0
LINE
8
BLACK
6
CONTINUOUS
10
70.0249
20
-125.002
11
70.0249
21
-125.002
0
LINE
8
BLACK
6
CONTINUOUS
10
70.0249
20
-125.002
11
69.9459
21
-125.888
0
LINE
8
BLACK
6
CONTINUOUS
10
69.9459
20
-125.888
11
69.9455
21
-125.89
0
LINE
8
BLACK
6
CONTINUOUS
10
69.9455
20
-125.89
11
69.9452
21
-125.891
0
LINE
8
BLACK
6
CONTINUOUS
10
69.9452
20
-125.891
11
69.9451
21
-125.892
0
LINE
8
BLACK
6
CONTINUOUS
10
69.9451
20
-125.892
11
69.7105
21
-126.749
0
LINE
8
BLACK
6
CONTINUOUS
10
69.7105
20
-126.749
11
69.7096
21
-126.752
0
LINE
8
BLACK
6
CONTINUOUS
10
69.7096
20
-126.752
11
69.7093
21
-126.753
0
LINE
8
BLACK
6
CONTINUOUS
10
69.7093
20
-126.753
11
69.709
21
-126.754
0
LINE
8
BLACK
6
CONTINUOUS
10
69.709
20
-126.754
11
69.3263
21
-127.556
0
LINE
8
BLACK
6
CONTINUOUS
10
69.3263
20
-127.556
11
69.3249
21
-127.558
0
LINE
8
BLACK
6
CONTINUOUS
10
69.3249
20
-127.558
11
69.3244
21
-127.559
0
LINE
8
BLACK
6
CONTINUOUS
10
69.3244
20
-127.559
11
69.324
21
-127.56
0
LINE
8
BLACK
6
CONTINUOUS
10
69.324
20
-127.56
11
68.8053
21
-128.282
0
LINE
8
BLACK
6
CONTINUOUS
10
68.8053
20
-128.282
11
68.8035
21
-128.284
0
LINE
8
BLACK
6
CONTINUOUS
10
68.8035
20
-128.284
11
68.8029
21
-128.284
0
LINE
8
BLACK
6
CONTINUOUS
10
68.8029
20
-128.284
11
68.8024
21
-128.285
0
LINE
8
BLACK
6
CONTINUOUS
10
68.8024
20
-128.285
11
68.164
21
-128.904
0
LINE
8
BLACK
6
CONTINUOUS
10
68.164
20
-128.904
11
68.1618
21
-128.906
0
LINE
8
BLACK
6
CONTINUOUS
10
68.1618
20
-128.906
11
68.1612
21
-128.906
0
LINE
8
BLACK
6
CONTINUOUS
10
68.1612
20
-128.906
11
68.1605
21
-128.906
0
LINE
8
BLACK
6
CONTINUOUS
10
68.1605
20
-128.906
11
67.4227
21
-129.402
0
LINE
8
BLACK
6
CONTINUOUS
10
67.4227
20
-129.402
11
67.4227
21
-129.402
0
LINE
8
BLACK
6
CONTINUOUS
10
67.4227
20
-129.402
11
67.4227
21
-129.402
0
LINE
8
BLACK
6
CONTINUOUS
10
67.4227
20
-129.402
11
67.4202
21
-129.404
0
LINE
8
BLACK
6
CONTINUOUS
10
67.4202
20
-129.404
11
67.4195
21
-129.404
0
LINE
8
BLACK
6
CONTINUOUS
10
67.4195
20
-129.404
11
67.4188
21
-129.404
0
LINE
8
BLACK
6
CONTINUOUS
10
67.4188
20
-129.404
11
66.6048
21
-129.762
0
LINE
8
BLACK
6
CONTINUOUS
10
66.6048
20
-129.762
11
66.6021
21
-129.763
0
LINE
8
BLACK
6
CONTINUOUS
10
66.6021
20
-129.763
11
66.6014
21
-129.763
0
LINE
8
BLACK
6
CONTINUOUS
10
66.6014
20
-129.763
11
66.6006
21
-129.763
0
LINE
8
BLACK
6
CONTINUOUS
10
66.6006
20
-129.763
11
65.7363
21
-129.971
0
LINE
8
BLACK
6
CONTINUOUS
10
65.7363
20
-129.971
11
65.7334
21
-129.971
0
LINE
8
BLACK
6
CONTINUOUS
10
65.7334
20
-129.971
11
65.7328
21
-129.971
0
LINE
8
BLACK
6
CONTINUOUS
10
65.7328
20
-129.971
11
65.7322
21
-129.971
0
LINE
8
BLACK
6
CONTINUOUS
10
65.7322
20
-129.971
11
65.0021
21
-130.025
0
LINE
8
BLACK
6
CONTINUOUS
10
65.0021
20
-130.025
11
65.0012
21
-130.025
0
LINE
8
BLACK
6
CONTINUOUS
10
65.0012
20
-130.025
11
44.9988
21
-130.025
0
LINE
8
BLACK
6
CONTINUOUS
10
44.9988
20
-130.025
11
44.9978
21
-130.025
0
LINE
8
BLACK
6
CONTINUOUS
10
44.9978
20
-130.025
11
44.9978
21
-130.025
0
LINE
8
BLACK
6
CONTINUOUS
10
44.9978
20
-130.025
11
44.1124
21
-129.946
0
LINE
8
BLACK
6
CONTINUOUS
10
44.1124
20
-129.946
11
44.1124
21
-129.946
0
LINE
8
BLACK
6
CONTINUOUS
10
44.1124
20
-129.946
11
44.1123
21
-129.946
0
LINE
8
BLACK
6
CONTINUOUS
10
45.0009
20
-60.025
11
44.2734
21
-60.0784
0
LINE
8
BLACK
6
CONTINUOUS
10
44.2734
20
-60.0784
11
43.4132
21
-60.2849
0
LINE
8
BLACK
6
CONTINUOUS
10
43.4132
20
-60.2849
11
42.6033
21
-60.6405
0
LINE
8
BLACK
6
CONTINUOUS
10
42.6033
20
-60.6405
11
41.8692
21
-61.1338
0
LINE
8
BLACK
6
CONTINUOUS
10
41.8692
20
-61.1338
11
41.234
21
-61.7493
0
LINE
8
BLACK
6
CONTINUOUS
10
41.234
20
-61.7493
11
40.7179
21
-62.4676
0
LINE
8
BLACK
6
CONTINUOUS
10
40.7179
20
-62.4676
11
40.3371
21
-63.2659
0
LINE
8
BLACK
6
CONTINUOUS
10
40.3371
20
-63.2659
11
40.1037
21
-64.119
0
LINE
8
BLACK
6
CONTINUOUS
10
40.1037
20
-64.119
11
40.025
21
-65.0011
0
LINE
8
BLACK
6
CONTINUOUS
10
40.025
20
-65.0011
11
40.025
21
-124.999
0
LINE
8
BLACK
6
CONTINUOUS
10
40.025
20
-124.999
11
40.0784
21
-125.727
0
LINE
8
BLACK
6
CONTINUOUS
10
40.0784
20
-125.727
11
40.2849
21
-126.587
0
LINE
8
BLACK
6
CONTINUOUS
10
40.2849
20
-126.587
11
40.6405
21
-127.397
0
LINE
8
BLACK
6
CONTINUOUS
10
40.6405
20
-127.397
11
41.1338
21
-128.131
0
LINE
8
BLACK
6
CONTINUOUS
10
41.1338
20
-128.131
11
41.7493
21
-128.766
0
LINE
8
BLACK
6
CONTINUOUS
10
41.7493
20
-128.766
11
42.4676
21
-129.282
0
LINE
8
BLACK
6
CONTINUOUS
10
42.4676
20
-129.282
11
43.2659
21
-129.663
0
LINE
8
BLACK
6
CONTINUOUS
10
43.2659
20
-129.663
11
44.119
21
-129.896
0
LINE
8
BLACK
6
CONTINUOUS
10
44.119
20
-129.896
11
45.0011
21
-129.975
0
LINE
8
BLACK
6
CONTINUOUS
10
45.0011
20
-129.975
11
64.9991
21
-129.975
0
LINE
8
BLACK
6
CONTINUOUS
10
64.9991
20
-129.975
11
65.7266
21
-129.922
0
LINE
8
BLACK
6
CONTINUOUS
10
65.7266
20
-129.922
11
66.5868
21
-129.715
0
LINE
8
BLACK
6
CONTINUOUS
10
66.5868
20
-129.715
11
67.3967
21
-129.36
0
LINE
8
BLACK
6
CONTINUOUS
10
67.3967
20
-129.36
11
68.1308
21
-128.866
0
LINE
8
BLACK
6
CONTINUOUS
10
68.1308
20
-128.866
11
68.766
21
-128.251
0
LINE
8
BLACK
6
CONTINUOUS
10
68.766
20
-128.251
11
69.2821
21
-127.532
0
LINE
8
BLACK
6
CONTINUOUS
10
69.2821
20
-127.532
11
69.6629
21
-126.734
0
LINE
8
BLACK
6
CONTINUOUS
10
69.6629
20
-126.734
11
69.8963
21
-125.881
0
LINE
8
BLACK
6
CONTINUOUS
10
69.8963
20
-125.881
11
69.975
21
-124.999
0
LINE
8
BLACK
6
CONTINUOUS
10
69.975
20
-124.999
11
69.975
21
-87.625
0
LINE
8
BLACK
6
CONTINUOUS
10
69.975
20
-87.625
11
69.0012
21
-87.625
0
LINE
8
BLACK
6
CONTINUOUS
10
69.0012
20
-87.625
11
69
21
-87.6251
0
LINE
8
BLACK
6
CONTINUOUS
10
69
20
-87.6251
11
68.9988
21
-87.625
0
LINE
8
BLACK
6
CONTINUOUS
10
68.9988
20
-87.625
11
68.9988
21
-87.625
0
LINE
8
BLACK
6
CONTINUOUS
10
68.9988
20
-87.625
11
68.9951
21
-87.6246
0
LINE
8
BLACK
6
CONTINUOUS
10
68.9951
20
-87.6246
11
68.9904
21
-87.6232
0
LINE
8
BLACK
6
CONTINUOUS
10
68.9904
20
-87.6232
11
68.986
21
-87.6209
0
LINE
8
BLACK
6
CONTINUOUS
10
68.986
20
-87.6209
11
68.9822
21
-87.6178
0
LINE
8
BLACK
6
CONTINUOUS
10
68.9822
20
-87.6178
11
68.9791
21
-87.614
0
LINE
8
BLACK
6
CONTINUOUS
10
68.9791
20
-87.614
11
68.9768
21
-87.6096
0
LINE
8
BLACK
6
CONTINUOUS
10
68.9768
20
-87.6096
11
68.9754
21
-87.6049
0
LINE
8
BLACK
6
CONTINUOUS
10
68.9754
20
-87.6049
11
68.9749
21
-87.6
0
LINE
8
BLACK
6
CONTINUOUS
10
68.9749
20
-87.6
11
68.975
21
-87.5988
0
LINE
8
BLACK
6
CONTINUOUS
10
68.975
20
-87.5988
11
68.975
21
-79.2012
0
LINE
8
BLACK
6
CONTINUOUS
10
68.975
20
-79.2012
11
68.9749
21
-79.2
0
LINE
8
BLACK
6
CONTINUOUS
10
68.9749
20
-79.2
11
68.9754
21
-79.1951
0
LINE
8
BLACK
6
CONTINUOUS
10
68.9754
20
-79.1951
11
68.9768
21
-79.1904
0
LINE
8
BLACK
6
CONTINUOUS
10
68.9768
20
-79.1904
11
68.9791
21
-79.186
0
LINE
8
BLACK
6
CONTINUOUS
10
68.9791
20
-79.186
11
68.9822
21
-79.1822
0
LINE
8
BLACK
6
CONTINUOUS
10
68.9822
20
-79.1822
11
68.986
21
-79.1791
0
LINE
8
BLACK
6
CONTINUOUS
10
68.986
20
-79.1791
11
68.9904
21
-79.1768
0
LINE
8
BLACK
6
CONTINUOUS
10
68.9904
20
-79.1768
11
68.9951
21
-79.1754
0
LINE
8
BLACK
6
CONTINUOUS
10
68.9951
20
-79.1754
11
68.9988
21
-79.175
0
LINE
8
BLACK
6
CONTINUOUS
10
68.9988
20
-79.175
11
69
21
-79.1749
0
LINE
8
BLACK
6
CONTINUOUS
10
69
20
-79.1749
11
69.0012
21
-79.175
0
LINE
8
BLACK
6
CONTINUOUS
10
69.0012
20
-79.175
11
69.975
21
-79.175
0
LINE
8
BLACK
6
CONTINUOUS
10
69.975
20
-79.175
11
69.975
21
-65.0009
0
LINE
8
BLACK
6
CONTINUOUS
10
69.975
20
-65.0009
11
69.9216
21
-64.2734
0
LINE
8
BLACK
6
CONTINUOUS
10
69.9216
20
-64.2734
11
69.7151
21
-63.4132
0
LINE
8
BLACK
6
CONTINUOUS
10
69.7151
20
-63.4132
11
69.3595
21
-62.6033
0
LINE
8
BLACK
6
CONTINUOUS
10
69.3595
20
-62.6033
11
68.8662
21
-61.8692
0
LINE
8
BLACK
6
CONTINUOUS
10
68.8662
20
-61.8692
11
68.2507
21
-61.234
0
LINE
8
BLACK
6
CONTINUOUS
10
68.2507
20
-61.234
11
67.5324
21
-60.7179
0
LINE
8
BLACK
6
CONTINUOUS
10
67.5324
20
-60.7179
11
66.7341
21
-60.3371
0
LINE
8
BLACK
6
CONTINUOUS
10
66.7341
20
-60.3371
11
65.881
21
-60.1037
0
LINE
8
BLACK
6
CONTINUOUS
10
65.881
20
-60.1037
11
64.9989
21
-60.025
0
LINE
8
BLACK
6
CONTINUOUS
10
64.9989
20
-60.025
11
45.0009
21
-60.025
  0
ENDSEC
  0
EOF
